<svg aria-hidden="true" style="position: absolute; width: 0; height: 0; overflow: hidden;" version="1.1" xmlns="http://www.w3.org/2000/svg" xmlns:xlink="http://www.w3.org/1999/xlink">
<defs>
<symbol id="icon-body-parameters" viewBox="0 0 32 32">
<path fill="#0f0f0f" style="fill: var(--color1, #0f0f0f)" d="M27.981 21.68l-26.050-0.051c-0.071-0-0.142-0.015-0.207-0.043s-0.124-0.070-0.173-0.122c-0.049-0.052-0.087-0.114-0.111-0.181s-0.034-0.139-0.030-0.21l1.305-20.532c0.009-0.133 0.068-0.257 0.164-0.348s0.224-0.142 0.357-0.142l26.091-0.050c0.302 0 0.583 0.305 0.564 0.607l-1.305 20.532c-0.018 0.276-0.33 0.541-0.606 0.541z"></path>
<path fill="#fff" style="fill: var(--color2, #fff)" d="M27.6 21.687h-26.204c-0.072 0-0.143-0.014-0.208-0.043s-0.125-0.070-0.174-0.123-0.087-0.114-0.111-0.182c-0.024-0.068-0.034-0.139-0.030-0.211l1.309-20.587c0.008-0.133 0.067-0.258 0.164-0.35s0.225-0.143 0.358-0.143h26.205c0.072-0 0.143 0.014 0.208 0.043s0.125 0.070 0.174 0.123c0.049 0.052 0.087 0.114 0.111 0.182s0.034 0.14 0.030 0.211l-1.308 20.587c-0.008 0.134-0.067 0.259-0.165 0.35s-0.226 0.142-0.359 0.142z"></path>
<path fill="#0f0f0f" style="fill: var(--color1, #0f0f0f)" d="M27.6 21.726h-26.204c-0.077 0-0.153-0.016-0.223-0.046s-0.134-0.075-0.187-0.132c-0.053-0.056-0.093-0.123-0.119-0.195s-0.037-0.15-0.032-0.226l1.309-20.587c0.009-0.143 0.072-0.277 0.176-0.375s0.241-0.153 0.384-0.153h26.205c0.077 0 0.153 0.016 0.223 0.046s0.134 0.075 0.187 0.132c0.053 0.056 0.093 0.123 0.119 0.195s0.037 0.15 0.032 0.226l-1.309 20.587c-0.009 0.143-0.073 0.277-0.177 0.375s-0.242 0.153-0.384 0.153zM2.703 0.087c-0.123 0-0.242 0.047-0.332 0.132s-0.144 0.2-0.153 0.324l-1.308 20.588c-0.004 0.066 0.005 0.133 0.028 0.195s0.058 0.12 0.103 0.168c0.045 0.048 0.1 0.087 0.161 0.113s0.126 0.040 0.193 0.040h26.204c0.123-0 0.242-0.047 0.332-0.132s0.145-0.2 0.153-0.324l1.308-20.587c0.004-0.066-0.005-0.133-0.028-0.195s-0.057-0.12-0.103-0.168c-0.045-0.048-0.1-0.087-0.161-0.114s-0.126-0.040-0.193-0.040h-26.205z"></path>
<path fill="#0f0f0f" style="fill: var(--color1, #0f0f0f)" d="M26.955 21.003h-24.982c-0.071 0-0.141-0.015-0.206-0.043s-0.123-0.069-0.172-0.121c-0.048-0.052-0.086-0.113-0.11-0.18s-0.034-0.138-0.029-0.209l1.234-19.359c0.009-0.132 0.067-0.255 0.163-0.345s0.222-0.141 0.354-0.141h24.982c0.071 0 0.141 0.015 0.206 0.043s0.123 0.069 0.172 0.121 0.086 0.113 0.11 0.18c0.024 0.067 0.034 0.138 0.030 0.209l-1.234 19.36c-0.009 0.132-0.067 0.255-0.163 0.345s-0.223 0.14-0.354 0.141zM3.206 0.682c-0.112 0-0.22 0.043-0.302 0.12s-0.131 0.182-0.139 0.294l-1.234 19.36c-0.004 0.060 0.005 0.121 0.025 0.178s0.052 0.109 0.093 0.153c0.041 0.044 0.091 0.079 0.146 0.103s0.115 0.036 0.175 0.036h24.982c0.112-0 0.22-0.043 0.302-0.12s0.131-0.182 0.139-0.294l1.234-19.36c0.004-0.060-0.005-0.121-0.025-0.178s-0.052-0.109-0.093-0.153-0.091-0.079-0.146-0.103c-0.055-0.024-0.115-0.036-0.175-0.036h-24.982z"></path>
<path fill="#0f0f0f" style="fill: var(--color1, #0f0f0f)" d="M23.134 15.202c0.008-0.020 0.015-0.040 0.023-0.060-2.008 0.062-5.007-0.115-7.617-1.359-3.652-1.741-5.799-3.618-6.534-4.323-0.152 0.219-0.31 0.452-0.473 0.699 1.362 0.861 3.024 2.158 4.36 3.955 1.8 2.421 2.706 3.614 3.126 5.017 0.325 0.246 0.654 0.266 0.886 0.164 3.506-1.542 5.594-2.649 6.512-3.163l-0.283-0.93z"></path>
<path fill="#0f0f0f" style="fill: var(--color1, #0f0f0f)" d="M16.214 21.003c-0.010 0-0.020-0.004-0.027-0.011s-0.011-0.017-0.011-0.027c-0.016-1.109-0.192-1.819-0.194-1.825-0.002-0.010-0.001-0.020 0.004-0.029s0.014-0.015 0.024-0.018c0.010-0.002 0.020-0.001 0.029 0.004s0.015 0.014 0.018 0.024c0.002 0.007 0.18 0.725 0.196 1.842 0 0.005-0.001 0.010-0.003 0.015s-0.005 0.009-0.008 0.013c-0.003 0.004-0.008 0.007-0.012 0.009s-0.010 0.003-0.015 0.003h-0.001z"></path>
<path fill="#0f0f0f" style="fill: var(--color1, #0f0f0f)" d="M21.47 3.982c-0.010 0-0.020-0.003-0.027-0.011s-0.012-0.017-0.012-0.027c-0-0.010 0.003-0.020 0.011-0.027s0.017-0.012 0.027-0.012l0.663-0.035-0.312-0.605c-0.003-0.005-0.004-0.010-0.005-0.015s-0-0.010 0.001-0.016c0.001-0.005 0.004-0.010 0.007-0.014s0.008-0.007 0.012-0.010c0.005-0.002 0.010-0.004 0.015-0.004s0.011 0 0.015 0.002c0.005 0.002 0.009 0.005 0.013 0.008s0.007 0.008 0.009 0.013l0.331 0.646c0.004 0.007 0.005 0.015 0.005 0.023s-0.002 0.015-0.006 0.022c-0.004 0.007-0.009 0.013-0.016 0.017s-0.014 0.006-0.022 0.007l-0.709 0.038z"></path>
<path fill="#0f0f0f" style="fill: var(--color1, #0f0f0f)" d="M17.671 2.971c-0.008 0-0.016-0.003-0.023-0.008l-0.584-0.429c-0.006-0.005-0.011-0.011-0.015-0.018s-0.005-0.015-0.004-0.023c0-0.008 0.003-0.015 0.007-0.022s0.010-0.012 0.017-0.016l0.617-0.351c0.004-0.003 0.009-0.005 0.014-0.006s0.010-0.001 0.015 0.001 0.010 0.004 0.014 0.007c0.004 0.003 0.008 0.007 0.010 0.012s0.004 0.010 0.005 0.015c0.001 0.005 0 0.010-0.001 0.015s-0.004 0.010-0.007 0.014c-0.003 0.004-0.008 0.007-0.012 0.010l-0.576 0.328 0.547 0.402c0.007 0.005 0.012 0.011 0.014 0.019s0.003 0.016 0 0.024c-0.003 0.008-0.008 0.015-0.014 0.019s-0.015 0.007-0.023 0.007l-0.001-0.001z"></path>
<path fill="#0f0f0f" style="fill: var(--color1, #0f0f0f)" d="M21.956 3.792c-0.009 0-0.017-0.003-0.024-0.008-0.048-0.038-0.099-0.075-0.149-0.111-0.008-0.006-0.013-0.015-0.015-0.025s0.001-0.020 0.007-0.028c0.006-0.008 0.015-0.014 0.024-0.016s0.020 0 0.028 0.006c0.052 0.037 0.103 0.075 0.152 0.113 0.006 0.005 0.011 0.012 0.013 0.019s0.002 0.016-0.001 0.023c-0.003 0.008-0.007 0.014-0.014 0.019s-0.014 0.007-0.022 0.007zM21.416 3.434c-0.007 0-0.013-0.002-0.019-0.005-0.129-0.073-0.266-0.143-0.407-0.207-0.005-0.002-0.009-0.005-0.013-0.008s-0.007-0.008-0.009-0.013c-0.002-0.005-0.003-0.010-0.003-0.015s0.001-0.010 0.003-0.015c0.002-0.005 0.005-0.009 0.009-0.013s0.008-0.006 0.013-0.008 0.010-0.002 0.015-0.002c0.005 0 0.010 0.002 0.015 0.004 0.143 0.065 0.283 0.136 0.413 0.21 0.007 0.004 0.013 0.011 0.016 0.019s0.004 0.016 0.002 0.025c-0.002 0.008-0.007 0.015-0.014 0.021s-0.015 0.008-0.023 0.008v0zM20.58 3.051c-0.005 0-0.009-0.001-0.013-0.002-0.14-0.051-0.286-0.1-0.435-0.144-0.009-0.003-0.017-0.010-0.022-0.019s-0.006-0.019-0.003-0.029 0.009-0.018 0.018-0.023c0.009-0.005 0.019-0.006 0.029-0.004 0.151 0.045 0.299 0.094 0.439 0.146 0.008 0.003 0.015 0.009 0.020 0.017s0.006 0.017 0.004 0.026c-0.002 0.009-0.006 0.017-0.013 0.023s-0.015 0.009-0.024 0.009zM19.698 2.788c-0.003 0-0.006-0-0.009-0.001-0.146-0.035-0.297-0.066-0.449-0.093-0.010-0.002-0.019-0.008-0.025-0.016s-0.008-0.019-0.006-0.029c0.002-0.010 0.008-0.019 0.016-0.025s0.019-0.008 0.029-0.006c0.153 0.028 0.306 0.059 0.453 0.094 0.009 0.002 0.017 0.008 0.023 0.015s0.008 0.017 0.007 0.026c-0.001 0.009-0.006 0.018-0.012 0.024s-0.016 0.010-0.025 0.010h-0.001zM18.792 2.623h-0.005c-0.15-0.020-0.304-0.037-0.456-0.051-0.010-0.001-0.020-0.006-0.026-0.014s-0.010-0.018-0.009-0.028c0.001-0.010 0.006-0.019 0.014-0.026s0.018-0.010 0.028-0.009c0.153 0.014 0.308 0.031 0.459 0.051 0.010 0.001 0.018 0.006 0.024 0.014s0.009 0.017 0.009 0.027c-0.001 0.010-0.005 0.019-0.012 0.026s-0.016 0.010-0.026 0.010v-0zM17.874 2.542h-0.002c-0.156-0.007-0.277-0.008-0.352-0.008-0.068 0-0.105 0.001-0.105 0.001-0.010 0-0.020-0.003-0.027-0.010s-0.012-0.017-0.012-0.027c-0-0.010 0.003-0.020 0.010-0.028s0.017-0.012 0.027-0.012c0 0 0.038-0.001 0.108-0.001 0.076 0 0.198 0.002 0.356 0.008 0.010 0 0.020 0.004 0.027 0.012s0.011 0.017 0.011 0.027c-0 0.010-0.004 0.020-0.012 0.027s-0.017 0.011-0.027 0.011h-0.001z"></path>
<path fill="#0f0f0f" style="fill: var(--color1, #0f0f0f)" d="M23.583 10.154c-0.006 0-0.011-0.001-0.016-0.004s-0.010-0.006-0.013-0.010c-0.085-0.103-0.168-0.206-0.245-0.307-0.006-0.008-0.008-0.018-0.006-0.028s0.007-0.018 0.014-0.024 0.017-0.009 0.027-0.008c0.010 0.001 0.019 0.005 0.025 0.013 0.077 0.1 0.159 0.202 0.244 0.304 0.005 0.006 0.008 0.012 0.009 0.020s-0 0.015-0.003 0.021-0.008 0.012-0.014 0.016c-0.006 0.004-0.013 0.006-0.021 0.006h-0zM23.066 9.477c-0.006 0-0.012-0.002-0.018-0.004s-0.010-0.007-0.014-0.012c-0.090-0.13-0.174-0.261-0.253-0.388-0.005-0.009-0.006-0.019-0.003-0.028s0.009-0.018 0.017-0.023c0.008-0.005 0.018-0.007 0.028-0.005s0.018 0.008 0.024 0.016c0.077 0.126 0.161 0.255 0.25 0.385 0.006 0.008 0.008 0.019 0.006 0.029s-0.007 0.019-0.016 0.025c-0.007 0.004-0.014 0.006-0.022 0.006zM22.589 8.689c-0.007 0-0.014-0.002-0.020-0.006s-0.011-0.009-0.014-0.015c-0.073-0.142-0.138-0.284-0.195-0.421-0.002-0.005-0.003-0.010-0.003-0.015s0.001-0.010 0.003-0.015c0.002-0.005 0.005-0.009 0.008-0.013s0.008-0.007 0.013-0.009c0.005-0.002 0.010-0.003 0.015-0.003s0.010 0.001 0.015 0.003c0.005 0.002 0.009 0.005 0.012 0.009s0.006 0.008 0.008 0.013c0.055 0.136 0.12 0.275 0.192 0.415 0.002 0.005 0.004 0.009 0.004 0.015s-0 0.010-0.002 0.015c-0.002 0.005-0.004 0.009-0.007 0.013s-0.007 0.007-0.012 0.009c-0.006 0.002-0.012 0.004-0.018 0.004zM22.244 7.835c-0.008 0-0.016-0.003-0.023-0.008s-0.011-0.012-0.014-0.020c-0.043-0.149-0.077-0.301-0.1-0.455-0.001-0.010 0.002-0.020 0.008-0.028s0.015-0.013 0.025-0.015c0.010-0.002 0.020 0.001 0.028 0.007s0.014 0.015 0.015 0.024c0.023 0.15 0.056 0.299 0.098 0.445 0.003 0.010 0.002 0.020-0.003 0.029s-0.013 0.016-0.022 0.018c-0.004 0.001-0.008 0.002-0.012 0.001zM22.111 6.926c-0.005-0-0.010-0.001-0.015-0.003s-0.009-0.005-0.012-0.008c-0.004-0.004-0.006-0.008-0.008-0.013s-0.003-0.010-0.003-0.015c0.001-0.156 0.015-0.311 0.043-0.465 0.002-0.010 0.008-0.018 0.016-0.023s0.018-0.007 0.028-0.006 0.018 0.007 0.024 0.015c0.006 0.008 0.008 0.018 0.007 0.028-0.027 0.149-0.041 0.3-0.042 0.451-0 0.010-0.004 0.020-0.011 0.027s-0.017 0.011-0.027 0.011v0zM22.278 6.025c-0.005 0-0.009-0.001-0.014-0.002s-0.009-0.004-0.013-0.008c-0.004-0.003-0.007-0.008-0.009-0.012s-0.003-0.010-0.003-0.015c-0-0.005 0.001-0.010 0.003-0.015 0.056-0.146 0.124-0.286 0.205-0.42 0.003-0.004 0.006-0.008 0.010-0.011s0.009-0.005 0.014-0.006c0.005-0.001 0.010-0.001 0.015-0.001s0.010 0.002 0.014 0.005 0.008 0.006 0.011 0.010c0.003 0.004 0.005 0.009 0.006 0.014s0.001 0.010 0.001 0.015c-0.001 0.005-0.002 0.010-0.005 0.014-0.078 0.13-0.145 0.266-0.199 0.407-0.003 0.007-0.008 0.014-0.014 0.018s-0.014 0.007-0.022 0.007v0zM22.748 5.237c-0.009-0-0.018-0.003-0.025-0.009s-0.013-0.016-0.013-0.026 0.002-0.020 0.009-0.028c0.1-0.119 0.208-0.231 0.323-0.335 0.004-0.003 0.008-0.006 0.013-0.008s0.010-0.003 0.015-0.002c0.005 0 0.010 0.001 0.015 0.004s0.009 0.005 0.012 0.009 0.006 0.008 0.008 0.013c0.002 0.005 0.003 0.010 0.002 0.015s-0.001 0.010-0.004 0.015c-0.002 0.005-0.005 0.009-0.009 0.012-0.113 0.102-0.218 0.212-0.316 0.328-0.004 0.004-0.008 0.008-0.013 0.010s-0.011 0.003-0.017 0.003v0zM23.426 4.616c-0.008 0-0.016-0.002-0.023-0.007s-0.012-0.012-0.014-0.019c-0.003-0.008-0.002-0.016 0-0.024s0.008-0.015 0.014-0.019c0.122-0.088 0.254-0.173 0.39-0.253 0.009-0.004 0.019-0.005 0.028-0.002s0.017 0.009 0.022 0.018c0.005 0.008 0.006 0.018 0.004 0.028s-0.008 0.018-0.016 0.023c-0.134 0.078-0.263 0.161-0.384 0.248-0.006 0.005-0.014 0.007-0.022 0.008zM24.222 4.153c-0.009-0-0.017-0.003-0.024-0.008s-0.012-0.013-0.013-0.022c-0.002-0.009-0.001-0.017 0.003-0.025s0.010-0.014 0.018-0.018c0.141-0.067 0.286-0.125 0.433-0.175 0.005-0.002 0.010-0.003 0.015-0.003s0.010 0.002 0.015 0.004 0.009 0.006 0.012 0.010c0.003 0.004 0.006 0.009 0.008 0.014s0.002 0.010 0.002 0.016c-0.001 0.005-0.002 0.010-0.005 0.015s-0.006 0.009-0.010 0.012-0.009 0.005-0.014 0.007c-0.145 0.049-0.286 0.106-0.424 0.171-0.005 0.002-0.011 0.003-0.016 0.003v0.001z"></path>
<path fill="#0f0f0f" style="fill: var(--color1, #0f0f0f)" d="M11.773 7.476c-0.010 0-0.020-0.004-0.027-0.011s-0.011-0.017-0.011-0.027c0-0.010 0.004-0.020 0.011-0.027s0.017-0.011 0.027-0.011c0.079-0.002 0.158-0.004 0.235-0.008 0.010-0 0.020 0.003 0.027 0.010s0.012 0.016 0.012 0.027c0 0.010-0.003 0.020-0.010 0.028s-0.016 0.012-0.027 0.012c-0.077 0.003-0.156 0.006-0.236 0.008h-0.002zM12.467 7.441c-0.010-0-0.019-0.004-0.026-0.011s-0.011-0.016-0.012-0.026 0.003-0.019 0.009-0.027c0.006-0.007 0.015-0.012 0.025-0.013 0.156-0.012 0.309-0.028 0.456-0.046 0.010-0.001 0.019 0.002 0.027 0.009s0.012 0.015 0.014 0.025c0.001 0.010-0.001 0.020-0.007 0.028s-0.014 0.013-0.024 0.015c-0.148 0.018-0.302 0.034-0.459 0.046l-0.003 0zM13.379 7.327c-0.010 0-0.019-0.003-0.026-0.010s-0.012-0.016-0.012-0.025c-0.001-0.010 0.002-0.019 0.008-0.027s0.014-0.013 0.024-0.014c0.154-0.027 0.305-0.059 0.448-0.094 0.010-0.001 0.019 0.001 0.027 0.006s0.014 0.014 0.016 0.023c0.002 0.009 0.001 0.019-0.004 0.028s-0.012 0.015-0.022 0.018c-0.144 0.035-0.296 0.067-0.452 0.095-0.002 0-0.004 0.001-0.006 0.001zM14.272 7.107c-0.009 0-0.018-0.003-0.025-0.009s-0.012-0.014-0.013-0.023c-0.001-0.009 0-0.018 0.005-0.026s0.012-0.014 0.021-0.017c0.149-0.049 0.293-0.103 0.427-0.161 0.009-0.003 0.019-0.002 0.027 0.002s0.015 0.011 0.019 0.019c0.004 0.009 0.004 0.018 0.001 0.027s-0.009 0.017-0.017 0.021c-0.136 0.059-0.282 0.114-0.433 0.164-0.004 0.001-0.008 0.002-0.012 0.002v0zM15.112 6.738c-0.008 0-0.017-0.003-0.023-0.008s-0.012-0.012-0.014-0.020c-0.002-0.008-0.002-0.017 0.002-0.025s0.009-0.014 0.016-0.019c0.131-0.076 0.257-0.161 0.376-0.255 0.004-0.003 0.008-0.006 0.013-0.007s0.010-0.002 0.015-0.001c0.005 0.001 0.010 0.002 0.014 0.005s0.008 0.006 0.012 0.010c0.003 0.004 0.005 0.009 0.007 0.014s0.002 0.010 0.001 0.015c-0.001 0.005-0.002 0.010-0.005 0.014s-0.006 0.008-0.010 0.011c-0.122 0.096-0.25 0.183-0.385 0.261-0.006 0.003-0.012 0.005-0.019 0.006v0zM15.827 6.165c-0.007 0-0.015-0.002-0.021-0.006s-0.011-0.010-0.014-0.017-0.004-0.014-0.003-0.022c0.001-0.007 0.004-0.014 0.009-0.020 0.101-0.112 0.191-0.234 0.269-0.364 0.005-0.008 0.014-0.014 0.023-0.016s0.020-0.001 0.028 0.005c0.009 0.005 0.015 0.013 0.017 0.023s0.001 0.020-0.003 0.028c-0.080 0.134-0.173 0.259-0.277 0.376-0.004 0.004-0.008 0.007-0.013 0.009s-0.010 0.003-0.016 0.003l0 0zM16.298 5.38c-0.006-0-0.012-0.002-0.018-0.004s-0.010-0.007-0.014-0.012c-0.003-0.005-0.006-0.011-0.006-0.017s0-0.013 0.002-0.018c0.052-0.142 0.091-0.289 0.117-0.438 0.002-0.010 0.008-0.018 0.016-0.024s0.018-0.008 0.028-0.006c0.010 0.002 0.019 0.007 0.024 0.015s0.008 0.018 0.007 0.028c-0.027 0.154-0.067 0.305-0.12 0.451-0.003 0.008-0.008 0.014-0.014 0.019s-0.014 0.007-0.022 0.007l0 0zM16.461 4.476c-0.005-0-0.010-0.001-0.015-0.003s-0.009-0.005-0.012-0.009c-0.003-0.004-0.006-0.008-0.008-0.013s-0.003-0.010-0.003-0.015c0-0.025 0.001-0.050 0.001-0.076-0-0.127-0.007-0.254-0.020-0.38-0.001-0.005-0.001-0.010 0.001-0.015s0.004-0.010 0.007-0.014c0.003-0.004 0.007-0.008 0.012-0.010s0.010-0.004 0.015-0.005 0.010-0 0.015 0.002c0.005 0.002 0.010 0.004 0.014 0.007s0.007 0.008 0.009 0.012 0.004 0.010 0.004 0.015c0.014 0.129 0.021 0.259 0.021 0.388 0 0.026 0 0.051 0 0.077-0 0.005-0.001 0.010-0.003 0.015s-0.005 0.009-0.009 0.012c-0.004 0.003-0.008 0.006-0.013 0.008s-0.010 0.003-0.015 0.002zM16.368 3.56c-0.009 0-0.017-0.003-0.024-0.009s-0.012-0.013-0.013-0.022c-0.031-0.146-0.070-0.294-0.116-0.443-0.003-0.010-0.001-0.020 0.003-0.029s0.013-0.015 0.022-0.018c0.009-0.003 0.020-0.002 0.029 0.002s0.016 0.012 0.019 0.022c0.047 0.151 0.086 0.302 0.118 0.45 0.002 0.010 0 0.020-0.005 0.029s-0.014 0.015-0.024 0.017c-0.003 0.001-0.005 0.001-0.008 0.001v0zM16.096 2.68c-0.008-0-0.015-0.002-0.021-0.007s-0.011-0.010-0.014-0.017c-0.057-0.142-0.121-0.28-0.192-0.415-0.004-0.009-0.005-0.019-0.002-0.028s0.009-0.017 0.018-0.022c0.009-0.005 0.019-0.006 0.028-0.004s0.018 0.008 0.023 0.017c0.073 0.137 0.138 0.279 0.195 0.423 0.002 0.006 0.003 0.012 0.002 0.018s-0.003 0.012-0.006 0.017c-0.003 0.005-0.008 0.009-0.013 0.012s-0.011 0.005-0.018 0.005l-0.001 0.001z"></path>
<path fill="#0f0f0f" style="fill: var(--color1, #0f0f0f)" d="M20.567 20.606c-0.005-0-0.010-0.001-0.015-0.003-0.009-0.004-0.017-0.011-0.021-0.021s-0.004-0.020 0-0.029c0.056-0.136 0.114-0.28 0.171-0.428 0.002-0.005 0.004-0.010 0.008-0.013s0.008-0.007 0.012-0.009c0.005-0.002 0.010-0.003 0.015-0.004s0.010 0.001 0.015 0.003c0.005 0.002 0.009 0.005 0.013 0.008s0.007 0.008 0.009 0.013 0.003 0.010 0.003 0.015c-0 0.005-0.001 0.010-0.003 0.015-0.057 0.148-0.115 0.293-0.171 0.43-0.003 0.007-0.008 0.013-0.014 0.017s-0.014 0.006-0.021 0.007zM20.899 19.745c-0.005 0-0.009-0.001-0.013-0.002-0.010-0.004-0.017-0.011-0.022-0.020s-0.005-0.020-0.001-0.029c0.051-0.14 0.102-0.286 0.153-0.435 0.002-0.005 0.004-0.009 0.008-0.013s0.007-0.007 0.012-0.009 0.009-0.003 0.014-0.004c0.005-0 0.010 0 0.015 0.002s0.009 0.004 0.013 0.008c0.004 0.003 0.007 0.007 0.009 0.012s0.003 0.009 0.004 0.014c0 0.005-0 0.010-0.002 0.015-0.051 0.149-0.103 0.296-0.154 0.436-0.003 0.007-0.008 0.014-0.014 0.018s-0.014 0.007-0.022 0.007zM21.199 18.872c-0.004 0-0.008-0.001-0.012-0.002-0.010-0.003-0.018-0.010-0.022-0.019s-0.005-0.020-0.002-0.029c0.047-0.144 0.094-0.292 0.14-0.439 0.001-0.005 0.004-0.010 0.007-0.014s0.007-0.008 0.012-0.010c0.005-0.003 0.010-0.004 0.015-0.005s0.010 0 0.015 0.002c0.005 0.002 0.010 0.004 0.014 0.008s0.007 0.008 0.009 0.012c0.002 0.005 0.004 0.010 0.004 0.015s-0.001 0.010-0.002 0.015c-0.046 0.148-0.093 0.296-0.141 0.44-0.003 0.008-0.007 0.014-0.014 0.019s-0.014 0.007-0.022 0.007zM21.474 17.99c-0.004 0-0.007-0.001-0.011-0.002-0.005-0.001-0.009-0.004-0.013-0.007s-0.007-0.007-0.010-0.012c-0.002-0.004-0.004-0.009-0.004-0.014s0-0.010 0.001-0.015c0.081-0.272 0.127-0.442 0.128-0.444 0.001-0.005 0.003-0.010 0.006-0.014s0.007-0.008 0.011-0.010c0.004-0.003 0.009-0.004 0.015-0.005s0.010-0 0.015 0.001c0.005 0.001 0.010 0.004 0.014 0.007s0.007 0.007 0.010 0.012c0.002 0.005 0.004 0.010 0.004 0.015s-0 0.010-0.002 0.015c0 0.002-0.047 0.172-0.129 0.445-0.002 0.008-0.007 0.015-0.014 0.020s-0.015 0.008-0.023 0.008z"></path>
<path fill="#0f0f0f" style="fill: var(--color1, #0f0f0f)" d="M19.806 20.807c-0.006-0-0.012-0.002-0.018-0.005s-0.010-0.007-0.013-0.012c-0.003-0.005-0.006-0.011-0.006-0.017s0-0.012 0.003-0.018c0.055-0.135 0.112-0.28 0.168-0.429 0.002-0.005 0.004-0.009 0.008-0.013s0.008-0.007 0.012-0.009 0.010-0.003 0.015-0.003c0.005-0 0.010 0.001 0.015 0.003s0.009 0.005 0.013 0.008c0.004 0.003 0.007 0.008 0.009 0.012s0.003 0.010 0.003 0.015c0 0.005-0.001 0.010-0.003 0.015-0.057 0.15-0.114 0.295-0.169 0.43-0.003 0.007-0.008 0.013-0.015 0.017s-0.014 0.006-0.022 0.006zM20.135 19.945c-0.004 0-0.009-0.001-0.013-0.002s-0.009-0.004-0.013-0.008c-0.004-0.003-0.007-0.008-0.009-0.012s-0.003-0.010-0.004-0.015c-0-0.005 0-0.010 0.002-0.015 0.050-0.14 0.102-0.286 0.152-0.435 0.002-0.005 0.004-0.009 0.007-0.013s0.007-0.007 0.012-0.009c0.005-0.002 0.010-0.004 0.015-0.004s0.010 0 0.015 0.002 0.009 0.004 0.013 0.008c0.004 0.003 0.007 0.008 0.009 0.012s0.003 0.010 0.004 0.015-0.001 0.010-0.002 0.015c-0.051 0.149-0.102 0.296-0.153 0.436-0.003 0.007-0.008 0.014-0.014 0.018s-0.014 0.007-0.022 0.007zM20.434 19.071c-0.004 0-0.008-0.001-0.012-0.002-0.010-0.003-0.018-0.010-0.022-0.019s-0.005-0.020-0.002-0.029c0.047-0.144 0.094-0.291 0.141-0.439 0.003-0.010 0.010-0.018 0.019-0.023s0.020-0.006 0.029-0.003 0.018 0.010 0.023 0.019c0.005 0.009 0.006 0.020 0.003 0.029-0.046 0.148-0.094 0.296-0.141 0.44-0.002 0.008-0.007 0.014-0.014 0.019s-0.014 0.007-0.023 0.007zM20.71 18.19c-0.004 0-0.007-0.001-0.011-0.002-0.010-0.003-0.018-0.010-0.023-0.019s-0.006-0.020-0.003-0.029c0.082-0.272 0.129-0.441 0.129-0.443 0.003-0.009 0.010-0.017 0.018-0.021s0.019-0.006 0.028-0.003c0.009 0.003 0.017 0.009 0.023 0.017s0.007 0.018 0.005 0.028c0 0.002-0.048 0.172-0.13 0.445-0.002 0.008-0.007 0.015-0.014 0.020s-0.015 0.008-0.023 0.008z"></path>
<path fill="#0f0f0f" style="fill: var(--color1, #0f0f0f)" d="M12.193 20.596c-0.006 0-0.012-0.001-0.018-0.004s-0.010-0.007-0.014-0.012c-0.079-0.109-0.155-0.224-0.228-0.342-0.003-0.004-0.005-0.009-0.006-0.014s-0.001-0.010 0-0.015 0.003-0.010 0.006-0.014c0.003-0.004 0.007-0.008 0.011-0.011s0.009-0.005 0.014-0.005c0.005-0.001 0.010-0 0.015 0.001s0.010 0.004 0.014 0.007c0.004 0.003 0.008 0.007 0.010 0.012 0.072 0.117 0.148 0.23 0.225 0.338 0.004 0.006 0.007 0.012 0.007 0.020s-0.001 0.014-0.004 0.020c-0.003 0.006-0.008 0.012-0.014 0.015s-0.013 0.006-0.020 0.006zM11.74 19.855c-0.007 0-0.014-0.002-0.020-0.006s-0.011-0.009-0.014-0.015c-0.070-0.134-0.137-0.274-0.201-0.418-0.003-0.009-0.003-0.019 0.001-0.028s0.011-0.016 0.020-0.020c0.009-0.004 0.018-0.004 0.028-0.001s0.017 0.009 0.021 0.017c0.063 0.142 0.13 0.281 0.199 0.413 0.002 0.005 0.004 0.009 0.005 0.015s0 0.010-0.002 0.015c-0.002 0.005-0.004 0.009-0.007 0.013s-0.007 0.007-0.012 0.009c-0.006 0.003-0.012 0.004-0.018 0.004h0.001zM11.366 19.013c-0.008 0-0.015-0.002-0.022-0.007s-0.011-0.011-0.014-0.018c-0.052-0.141-0.105-0.288-0.152-0.437-0.003-0.010-0.001-0.020 0.003-0.029s0.013-0.015 0.022-0.018 0.020-0.002 0.029 0.002c0.009 0.004 0.016 0.012 0.019 0.021 0.047 0.148 0.098 0.294 0.15 0.434 0.002 0.005 0.003 0.010 0.002 0.015s-0.001 0.010-0.003 0.015c-0.002 0.005-0.005 0.009-0.009 0.012s-0.008 0.006-0.013 0.008c-0.005 0.002-0.009 0.002-0.014 0.002h0.001zM11.085 18.133c-0.008 0-0.017-0.003-0.023-0.008s-0.011-0.012-0.014-0.021c-0.039-0.146-0.076-0.297-0.11-0.45-0.001-0.005-0.001-0.010-0-0.015s0.003-0.010 0.005-0.014 0.006-0.008 0.010-0.011c0.004-0.003 0.009-0.005 0.014-0.006 0.010-0.002 0.020-0 0.029 0.005s0.015 0.014 0.017 0.024c0.034 0.151 0.070 0.301 0.11 0.446 0.002 0.006 0.002 0.012 0.001 0.017s-0.004 0.011-0.007 0.016c-0.004 0.005-0.008 0.009-0.014 0.011s-0.011 0.004-0.017 0.004zM10.882 17.233c-0.009 0-0.018-0.003-0.024-0.009s-0.012-0.014-0.013-0.023c-0.027-0.148-0.052-0.302-0.076-0.456-0.001-0.010 0.001-0.020 0.007-0.028s0.015-0.014 0.025-0.015c0.010-0.002 0.020 0.001 0.028 0.007s0.014 0.015 0.015 0.025c0.023 0.154 0.048 0.306 0.076 0.455 0.001 0.005 0.001 0.010-0 0.015s-0.003 0.010-0.006 0.014-0.007 0.008-0.011 0.010c-0.004 0.003-0.009 0.005-0.014 0.006-0.002 0-0.005 0.001-0.007 0v-0.001zM10.746 16.321c-0.009 0-0.018-0.003-0.025-0.010s-0.011-0.015-0.013-0.024c-0.017-0.15-0.034-0.305-0.047-0.46-0.001-0.005-0-0.010 0.001-0.015s0.004-0.010 0.007-0.014 0.007-0.007 0.012-0.010c0.005-0.002 0.010-0.004 0.015-0.004s0.010 0 0.015 0.002 0.009 0.004 0.013 0.008c0.004 0.003 0.007 0.008 0.009 0.012s0.004 0.010 0.004 0.015c0.014 0.155 0.029 0.309 0.047 0.458 0.001 0.010-0.002 0.020-0.008 0.028s-0.015 0.013-0.026 0.014l-0.005 0zM10.665 15.402c-0.010 0-0.019-0.004-0.026-0.010s-0.011-0.016-0.012-0.026c-0.009-0.152-0.017-0.307-0.022-0.462-0-0.010 0.003-0.020 0.010-0.028s0.017-0.012 0.027-0.012c0.005-0 0.010 0.001 0.015 0.002s0.009 0.004 0.013 0.008c0.004 0.003 0.007 0.008 0.009 0.012s0.003 0.010 0.003 0.015c0.006 0.154 0.013 0.309 0.022 0.46 0 0.005-0 0.010-0.002 0.015s-0.004 0.009-0.008 0.013c-0.003 0.004-0.007 0.007-0.012 0.009s-0.009 0.004-0.015 0.004h-0.002zM10.632 14.479c-0.010 0-0.020-0.004-0.027-0.011s-0.011-0.017-0.011-0.027c-0.001-0.071-0.001-0.14-0.001-0.209 0-0.086 0.001-0.171 0.002-0.254 0-0.010 0.004-0.020 0.011-0.027s0.017-0.011 0.027-0.011c0.005 0 0.010 0.001 0.015 0.003s0.009 0.005 0.012 0.008c0.004 0.004 0.006 0.008 0.008 0.013s0.003 0.010 0.003 0.015c-0.001 0.082-0.002 0.167-0.002 0.253 0 0.068 0 0.138 0.001 0.208 0 0.005-0.001 0.010-0.003 0.015s-0.005 0.009-0.008 0.013c-0.004 0.004-0.008 0.006-0.012 0.008s-0.010 0.003-0.015 0.003zM10.644 13.556h-0.002c-0.005-0-0.010-0.001-0.015-0.003s-0.009-0.005-0.012-0.009c-0.003-0.004-0.006-0.008-0.008-0.013s-0.003-0.010-0.002-0.015c0.005-0.155 0.013-0.31 0.022-0.462 0-0.005 0.001-0.010 0.003-0.015s0.005-0.009 0.009-0.012c0.004-0.003 0.008-0.006 0.013-0.008s0.010-0.002 0.015-0.002c0.005 0 0.010 0.002 0.015 0.004s0.009 0.005 0.012 0.009 0.006 0.008 0.007 0.013c0.002 0.005 0.002 0.010 0.002 0.015-0.009 0.151-0.016 0.306-0.022 0.46-0 0.010-0.004 0.020-0.011 0.027s-0.017 0.011-0.027 0.011v-0.001zM10.699 12.635h-0.003c-0.010-0.001-0.020-0.006-0.026-0.014s-0.010-0.018-0.009-0.028c0.025-0.289 0.048-0.458 0.048-0.461 0.001-0.005 0.002-0.010 0.005-0.014s0.006-0.008 0.010-0.011c0.004-0.003 0.009-0.005 0.014-0.007s0.010-0.002 0.015-0.001c0.005 0.001 0.010 0.002 0.014 0.005s0.008 0.006 0.011 0.010c0.003 0.004 0.005 0.009 0.007 0.014s0.002 0.010 0.001 0.015c0 0.002-0.023 0.17-0.047 0.457-0.001 0.010-0.005 0.019-0.012 0.025s-0.017 0.010-0.026 0.010v-0.001z"></path>
<path fill="#0f0f0f" style="fill: var(--color1, #0f0f0f)" d="M11.529 20.702c-0.006 0-0.012-0.001-0.018-0.004s-0.010-0.007-0.014-0.012c-0.079-0.109-0.155-0.224-0.228-0.342-0.003-0.004-0.005-0.009-0.006-0.014s-0.001-0.010 0-0.015c0.001-0.005 0.003-0.010 0.006-0.014s0.007-0.008 0.011-0.011 0.009-0.005 0.014-0.005c0.005-0.001 0.010-0 0.015 0.001s0.010 0.004 0.014 0.007c0.004 0.003 0.008 0.007 0.010 0.012 0.072 0.117 0.148 0.23 0.225 0.338 0.004 0.006 0.007 0.012 0.007 0.020s-0.001 0.014-0.004 0.020c-0.003 0.006-0.008 0.012-0.014 0.015s-0.013 0.006-0.020 0.006zM11.075 19.96c-0.007 0-0.014-0.002-0.020-0.006s-0.011-0.009-0.014-0.015c-0.070-0.134-0.137-0.274-0.201-0.418-0.003-0.009-0.003-0.019 0.001-0.028s0.011-0.016 0.020-0.020c0.009-0.004 0.018-0.004 0.028-0.001s0.017 0.009 0.021 0.017c0.063 0.142 0.13 0.281 0.199 0.413 0.002 0.004 0.004 0.009 0.004 0.015s0 0.010-0.002 0.015-0.004 0.009-0.007 0.013c-0.003 0.004-0.007 0.007-0.012 0.009-0.006 0.003-0.012 0.004-0.018 0.004h0.001zM10.701 19.118c-0.008 0-0.015-0.002-0.022-0.007s-0.011-0.011-0.014-0.018c-0.052-0.141-0.105-0.289-0.152-0.437-0.003-0.010-0.001-0.020 0.003-0.029s0.013-0.015 0.022-0.018c0.009-0.003 0.020-0.002 0.029 0.002s0.016 0.012 0.019 0.021c0.047 0.148 0.098 0.294 0.15 0.434 0.004 0.010 0.003 0.020-0.001 0.029s-0.012 0.017-0.021 0.020c-0.005 0.002-0.010 0.002-0.015 0.002h0.001zM10.421 18.239c-0.008-0-0.017-0.003-0.023-0.008s-0.011-0.012-0.014-0.020c-0.039-0.146-0.076-0.297-0.11-0.45-0.001-0.005-0.001-0.010-0.001-0.015s0.003-0.010 0.005-0.014c0.003-0.004 0.006-0.008 0.010-0.011s0.009-0.005 0.014-0.006c0.005-0.001 0.010-0.001 0.015-0s0.010 0.003 0.014 0.005c0.004 0.003 0.008 0.006 0.011 0.010s0.005 0.009 0.006 0.014c0.034 0.151 0.070 0.301 0.11 0.446 0.001 0.005 0.002 0.010 0.001 0.015s-0.002 0.010-0.005 0.015c-0.003 0.005-0.006 0.008-0.010 0.012s-0.009 0.005-0.014 0.007c-0.003 0.001-0.007 0.001-0.010 0.001h0.001zM10.219 17.339c-0.009 0-0.018-0.003-0.024-0.009s-0.012-0.014-0.013-0.023c-0.028-0.149-0.052-0.302-0.076-0.456-0.001-0.010 0.001-0.020 0.007-0.029s0.015-0.014 0.025-0.015c0.005-0.001 0.010-0.001 0.015 0.001s0.010 0.003 0.014 0.006c0.004 0.003 0.008 0.007 0.010 0.011s0.004 0.009 0.005 0.014c0.023 0.153 0.048 0.306 0.076 0.455 0.002 0.010-0 0.020-0.006 0.029s-0.015 0.014-0.025 0.016c-0.003 0-0.005 0-0.008-0h0.001zM10.081 16.427c-0.009 0-0.019-0.003-0.026-0.010s-0.012-0.015-0.013-0.024c-0.017-0.15-0.034-0.305-0.047-0.46-0.001-0.005-0-0.010 0.001-0.015s0.004-0.010 0.007-0.014c0.003-0.004 0.007-0.007 0.012-0.010s0.010-0.004 0.015-0.004c0.005-0 0.010 0 0.015 0.002s0.009 0.004 0.013 0.008c0.004 0.003 0.007 0.008 0.009 0.012s0.004 0.010 0.004 0.015c0.014 0.155 0.029 0.309 0.047 0.458 0.001 0.010-0.002 0.020-0.008 0.028s-0.016 0.013-0.026 0.014l-0.004 0zM10 15.507c-0.010 0-0.019-0.004-0.026-0.010s-0.011-0.016-0.012-0.026c-0.009-0.152-0.017-0.307-0.022-0.462-0-0.010 0.003-0.020 0.010-0.028s0.017-0.012 0.027-0.012 0.020 0.003 0.028 0.010c0.008 0.007 0.012 0.017 0.012 0.027 0.005 0.154 0.013 0.309 0.022 0.46 0.001 0.010-0.003 0.020-0.010 0.028s-0.016 0.012-0.026 0.013h-0.002zM9.967 14.585c-0.010 0-0.020-0.004-0.027-0.011s-0.011-0.017-0.011-0.027c-0.001-0.071-0.001-0.14-0.001-0.209 0-0.086 0.001-0.171 0.002-0.254 0-0.010 0.005-0.020 0.012-0.027s0.017-0.011 0.027-0.011c0.010 0 0.020 0.004 0.027 0.012s0.011 0.017 0.011 0.027c-0.001 0.082-0.002 0.167-0.002 0.253 0 0.068 0 0.138 0.001 0.208 0 0.005-0.001 0.010-0.003 0.015s-0.005 0.009-0.008 0.013c-0.004 0.004-0.008 0.007-0.012 0.008s-0.010 0.003-0.015 0.003h-0zM9.979 13.662h-0.002c-0.005-0-0.010-0.002-0.014-0.004s-0.009-0.005-0.012-0.009c-0.003-0.004-0.006-0.008-0.008-0.013s-0.002-0.010-0.002-0.015c0.006-0.155 0.013-0.31 0.022-0.462 0-0.005 0.001-0.010 0.004-0.015s0.005-0.009 0.009-0.012c0.004-0.004 0.008-0.006 0.013-0.008s0.010-0.002 0.015-0.002 0.010 0.002 0.015 0.004c0.005 0.002 0.009 0.005 0.012 0.009s0.006 0.008 0.007 0.013 0.002 0.010 0.002 0.015c-0.009 0.151-0.016 0.306-0.022 0.46-0 0.005-0.001 0.010-0.003 0.015s-0.005 0.009-0.009 0.012c-0.004 0.004-0.008 0.006-0.013 0.008s-0.010 0.003-0.015 0.003h0zM10.035 12.741h-0.003c-0.010-0.001-0.020-0.006-0.026-0.014s-0.010-0.018-0.009-0.028c0.025-0.29 0.047-0.46 0.048-0.461 0.001-0.005 0.002-0.010 0.005-0.015s0.006-0.008 0.010-0.012 0.009-0.005 0.014-0.007c0.005-0.001 0.010-0.002 0.015-0.001s0.010 0.002 0.014 0.005c0.004 0.003 0.008 0.006 0.011 0.010s0.005 0.009 0.006 0.014c0.001 0.005 0.001 0.010 0.001 0.015 0 0.002-0.023 0.17-0.047 0.457-0.001 0.010-0.005 0.019-0.012 0.025s-0.016 0.010-0.026 0.010h0z"></path>
<path fill="#0f0f0f" style="fill: var(--color1, #0f0f0f)" d="M18.198 9.534c-0.054 0.002-0.107-0.017-0.147-0.052-0.101-0.092-0.109-0.294-0.025-0.616 0.001-0.005 0.003-0.010 0.006-0.014s0.007-0.008 0.011-0.011c0.004-0.003 0.009-0.005 0.015-0.005s0.010-0.001 0.015 0.001c0.005 0.001 0.010 0.004 0.014 0.007s0.008 0.007 0.010 0.012c0.002 0.005 0.004 0.010 0.005 0.015s-0 0.010-0.002 0.015c-0.094 0.358-0.050 0.491 0.003 0.539 0.056 0.052 0.153 0.031 0.225 0.005 0.095-0.036 0.181-0.093 0.251-0.166 0.584-0.604 0.203-1.127 0.186-1.149-0.006-0.008-0.008-0.018-0.006-0.028s0.007-0.019 0.015-0.025c0.008-0.006 0.018-0.009 0.028-0.008s0.019 0.006 0.025 0.014c0.005 0.006 0.439 0.597-0.192 1.249-0.078 0.082-0.173 0.145-0.279 0.185-0.050 0.020-0.103 0.030-0.156 0.032z"></path>
<path fill="#0f0f0f" style="fill: var(--color1, #0f0f0f)" d="M8.464 21.055c-0.008-0-0.015-0.002-0.021-0.007s-0.011-0.010-0.014-0.017c-0.347-0.871-0.965-2.627-1.204-4.601-0.292-2.41 0.058-4.405 1.041-5.929 2.337-3.626 3.548-4.349 4.432-4.877 0.163-0.097 0.317-0.189 0.46-0.29 0.361-0.255 0.634-0.797 0.751-1.486 0.131-0.775 0.037-1.552-0.235-1.934-0.207-0.289-0.504-0.732-0.837-1.248-0.003-0.004-0.005-0.009-0.006-0.014s-0.001-0.010-0-0.015c0.001-0.005 0.003-0.010 0.006-0.014s0.007-0.008 0.011-0.011c0.004-0.003 0.009-0.005 0.014-0.006s0.010-0.001 0.015 0c0.005 0.001 0.010 0.003 0.014 0.006s0.008 0.007 0.010 0.011c0.331 0.515 0.628 0.957 0.834 1.246 0.283 0.397 0.384 1.197 0.249 1.991-0.12 0.709-0.405 1.268-0.782 1.535-0.145 0.103-0.3 0.196-0.465 0.294-0.877 0.525-2.079 1.242-4.406 4.853-2.23 3.459-0.624 8.468 0.17 10.46 0.002 0.006 0.003 0.012 0.002 0.018s-0.003 0.012-0.006 0.017c-0.003 0.005-0.008 0.009-0.013 0.012s-0.011 0.005-0.018 0.005l-0.001 0.001z"></path>
<path fill="#0f0f0f" style="fill: var(--color1, #0f0f0f)" d="M24.887 21.003c-0.008 0-0.016-0.003-0.023-0.008s-0.011-0.012-0.014-0.020l-1.753-5.763c-0.002-0.008-0.002-0.017 0.001-0.025 0.78-1.979 0.648-3.978 0.532-5.741-0.016-0.247-0.032-0.48-0.044-0.711-0.1-1.798 0.22-3.192 1.005-4.389 0.607-0.925 0.576-2.715 0.504-3.7-0.001-0.005-0-0.010 0.001-0.016s0.004-0.010 0.007-0.014 0.007-0.007 0.012-0.010c0.005-0.002 0.010-0.004 0.015-0.004s0.011 0 0.015 0.002c0.005 0.002 0.010 0.004 0.013 0.008s0.007 0.008 0.009 0.013c0.002 0.005 0.003 0.010 0.003 0.015 0.089 1.215 0.072 2.852-0.516 3.748-0.776 1.182-1.091 2.562-0.993 4.342 0.013 0.231 0.028 0.463 0.044 0.71 0.117 1.768 0.249 3.771-0.532 5.762l1.749 5.75c0.003 0.010 0.002 0.020-0.003 0.029s-0.013 0.016-0.023 0.019c-0.004 0.001-0.008 0.002-0.012 0.002z"></path>
<path fill="#0f0f0f" style="fill: var(--color1, #0f0f0f)" d="M21.854 11.107c-0.008 0-0.016-0.002-0.022-0.007s-0.011-0.011-0.014-0.018c-0.003-0.007-0.003-0.015-0.001-0.023s0.006-0.014 0.012-0.019c0.007-0.006 0.712-0.59 1.193-0.962 0.008-0.006 0.018-0.009 0.028-0.008s0.019 0.007 0.025 0.015 0.009 0.018 0.008 0.028c-0.001 0.010-0.007 0.019-0.015 0.025-0.481 0.37-1.184 0.954-1.191 0.959s-0.015 0.009-0.024 0.009z"></path>
<path fill="#0f0f0f" style="fill: var(--color1, #0f0f0f)" d="M22.831 10.82c-0.004 0-0.008-0.001-0.012-0.002s-0.009-0.004-0.013-0.008c-0.004-0.003-0.007-0.007-0.009-0.012s-0.004-0.009-0.004-0.014c-0-0.005 0-0.010 0.002-0.015l0.212-0.63-0.675 0.065c-0.005 0.001-0.010 0.001-0.016-0.001s-0.010-0.004-0.014-0.007c-0.004-0.003-0.008-0.007-0.010-0.012s-0.004-0.010-0.005-0.015c-0-0.005 0-0.011 0.002-0.015s0.004-0.010 0.008-0.014c0.003-0.004 0.008-0.007 0.012-0.009s0.010-0.004 0.015-0.004l0.721-0.070c0.008-0.001 0.016 0 0.023 0.004s0.013 0.008 0.018 0.014c0.005 0.006 0.008 0.013 0.009 0.021s0.001 0.016-0.002 0.023l-0.227 0.673c-0.002 0.008-0.007 0.014-0.014 0.019s-0.014 0.007-0.022 0.007z"></path>
<path fill="#0f0f0f" style="fill: var(--color1, #0f0f0f)" d="M20.291 8.618c-0.009 0-0.018-0.003-0.025-0.009s-0.012-0.015-0.013-0.024c-0.001-0.009 0.001-0.019 0.006-0.027s0.013-0.013 0.022-0.016c0.009-0.002 0.89-0.246 1.481-0.387 0.005-0.001 0.010-0.002 0.015-0.001s0.010 0.002 0.015 0.005 0.008 0.006 0.011 0.010c0.003 0.004 0.005 0.009 0.006 0.014s0.001 0.010 0 0.015c-0.001 0.005-0.003 0.010-0.006 0.014s-0.007 0.008-0.011 0.011c-0.004 0.003-0.009 0.005-0.014 0.006-0.59 0.14-1.47 0.384-1.479 0.386-0.003 0.001-0.006 0.001-0.010 0.001z"></path>
<path fill="#0f0f0f" style="fill: var(--color1, #0f0f0f)" d="M21.299 8.757c-0.007-0-0.015-0.002-0.021-0.006s-0.011-0.010-0.014-0.017c-0.003-0.007-0.004-0.014-0.003-0.022s0.005-0.014 0.010-0.020l0.451-0.487-0.643-0.218c-0.010-0.003-0.018-0.010-0.022-0.019s-0.005-0.020-0.002-0.029c0.003-0.010 0.010-0.018 0.019-0.022s0.020-0.005 0.029-0.002l0.686 0.232c0.007 0.002 0.014 0.007 0.019 0.013s0.009 0.013 0.011 0.020c0.002 0.008 0.002 0.016-0 0.023s-0.006 0.015-0.011 0.020l-0.482 0.521c-0.004 0.004-0.008 0.007-0.013 0.009s-0.010 0.003-0.015 0.003z"></path>
<path fill="#0f0f0f" style="fill: var(--color1, #0f0f0f)" d="M16.976 7.809c-0.008 0-0.015-0.002-0.022-0.007-0.008-0.005-0.759-0.527-1.247-0.891-0.004-0.003-0.008-0.007-0.011-0.011s-0.005-0.009-0.006-0.014c-0.001-0.005-0.001-0.010 0.001-0.015s0.003-0.010 0.007-0.014 0.007-0.008 0.012-0.010c0.005-0.003 0.010-0.004 0.015-0.005s0.010-0 0.015 0.001c0.005 0.001 0.010 0.004 0.014 0.007 0.486 0.363 1.237 0.884 1.244 0.889s0.012 0.011 0.014 0.019c0.003 0.008 0.003 0.016 0 0.024s-0.007 0.015-0.014 0.019c-0.007 0.005-0.015 0.007-0.023 0.007z"></path>
<path fill="#0f0f0f" style="fill: var(--color1, #0f0f0f)" d="M15.982 7.597c-0.008-0-0.015-0.003-0.021-0.007s-0.011-0.011-0.014-0.018l-0.263-0.677c-0.003-0.007-0.004-0.015-0.003-0.023s0.004-0.015 0.008-0.022c0.005-0.006 0.011-0.012 0.018-0.015s0.015-0.005 0.023-0.004l0.708 0.036c0.005 0 0.010 0.001 0.015 0.003s0.009 0.005 0.013 0.009 0.006 0.008 0.008 0.013c0.002 0.005 0.003 0.010 0.002 0.015s-0.002 0.010-0.004 0.015-0.006 0.009-0.009 0.012c-0.004 0.003-0.009 0.006-0.013 0.008s-0.010 0.002-0.015 0.002l-0.663-0.034 0.246 0.634c0.002 0.005 0.003 0.010 0.003 0.015s-0.001 0.010-0.003 0.015c-0.002 0.005-0.005 0.009-0.009 0.012s-0.008 0.006-0.013 0.008c-0.004 0.002-0.009 0.003-0.014 0.003z"></path>
<path fill="#0f0f0f" style="fill: var(--color1, #0f0f0f)" d="M13.808 9.462c-0.008-0-0.016-0.003-0.023-0.008s-0.011-0.012-0.014-0.020c-0.003-0.009-0.257-0.889-0.405-1.48-0.002-0.010-0.001-0.020 0.004-0.029s0.014-0.015 0.024-0.018 0.020-0.001 0.029 0.004c0.009 0.005 0.015 0.014 0.018 0.024 0.148 0.589 0.401 1.469 0.404 1.477 0.001 0.005 0.002 0.010 0.001 0.015s-0.002 0.010-0.005 0.014c-0.002 0.004-0.006 0.008-0.010 0.011s-0.008 0.005-0.013 0.007c-0.003 0.001-0.007 0.002-0.011 0.002z"></path>
<path fill="#0f0f0f" style="fill: var(--color1, #0f0f0f)" d="M13.171 8.668c-0.004 0-0.008-0.001-0.012-0.002-0.010-0.003-0.018-0.010-0.022-0.019s-0.005-0.020-0.002-0.029l0.223-0.691c0.002-0.008 0.007-0.014 0.012-0.020s0.013-0.009 0.020-0.011 0.015-0.002 0.023-0c0.008 0.002 0.015 0.006 0.020 0.011l0.526 0.476c0.008 0.007 0.012 0.017 0.012 0.027s-0.003 0.020-0.010 0.028c-0.007 0.008-0.017 0.012-0.027 0.012s-0.020-0.003-0.028-0.010l-0.492-0.445-0.209 0.647c-0.002 0.008-0.007 0.014-0.013 0.019s-0.014 0.007-0.022 0.008z"></path>
<path fill="#0f0f0f" style="fill: var(--color1, #0f0f0f)" d="M24.738 7.68c-0.007 0-0.013-0.002-0.019-0.005-0.014-0.008-1.379-0.775-1.895-1.096-0.008-0.006-0.014-0.014-0.016-0.024s-0-0.020 0.005-0.028c0.005-0.008 0.013-0.015 0.023-0.017s0.020-0.001 0.028 0.004c0.515 0.32 1.879 1.087 1.893 1.095 0.007 0.004 0.013 0.011 0.016 0.019s0.004 0.016 0.002 0.025-0.007 0.015-0.014 0.021c-0.007 0.005-0.015 0.008-0.023 0.008z"></path>
<path fill="#0f0f0f" style="fill: var(--color1, #0f0f0f)" d="M23.152 7.239c-0.007 0-0.014-0.002-0.021-0.006s-0.011-0.009-0.014-0.016l-0.32-0.652c-0.003-0.007-0.005-0.015-0.005-0.023s0.003-0.015 0.007-0.022c0.004-0.007 0.010-0.012 0.016-0.016s0.014-0.006 0.022-0.006l0.708-0.025c0.010-0 0.020 0.004 0.027 0.011s0.012 0.017 0.012 0.027c0 0.005-0.001 0.010-0.002 0.015s-0.004 0.009-0.008 0.013c-0.003 0.004-0.008 0.007-0.012 0.009s-0.010 0.003-0.015 0.003l-0.663 0.023 0.299 0.61c0.004 0.009 0.005 0.020 0.002 0.029s-0.010 0.018-0.019 0.022c-0.005 0.002-0.010 0.004-0.016 0.004z"></path>
<path fill="#0f0f0f" style="fill: var(--color1, #0f0f0f)" d="M14.939 4.998c-0.005-0-0.010-0.001-0.015-0.003-0.557-0.239-1.926-0.75-1.94-0.755-0.009-0.004-0.016-0.011-0.020-0.020s-0.004-0.019-0.001-0.029c0.003-0.009 0.010-0.017 0.019-0.021s0.019-0.005 0.028-0.002c0.014 0.005 1.385 0.517 1.943 0.756 0.008 0.003 0.015 0.010 0.019 0.018s0.005 0.017 0.004 0.026-0.006 0.016-0.013 0.022c-0.007 0.006-0.015 0.009-0.024 0.009z"></path>
<path fill="#0f0f0f" style="fill: var(--color1, #0f0f0f)" d="M14.248 5.139c-0.010-0-0.019-0.004-0.026-0.010s-0.011-0.015-0.012-0.025c-0.001-0.010 0.002-0.019 0.008-0.027s0.014-0.013 0.023-0.015l0.651-0.122-0.387-0.558c-0.005-0.008-0.007-0.019-0.005-0.028s0.008-0.018 0.016-0.024c0.008-0.006 0.018-0.008 0.028-0.006s0.019 0.007 0.025 0.015l0.414 0.596c0.004 0.006 0.007 0.014 0.008 0.022s-0 0.016-0.003 0.023c-0.003 0.007-0.008 0.014-0.014 0.019s-0.013 0.008-0.021 0.010l-0.697 0.131c-0.003 0.001-0.005 0.001-0.008 0.001z"></path>
<path fill="#0f0f0f" style="fill: var(--color1, #0f0f0f)" d="M20.714 14.333c-0.006 0-0.012-0.002-0.018-0.004s-0.010-0.007-0.014-0.012l-2.244-3.22c-0.006-0.008-0.008-0.019-0.006-0.029s0.007-0.019 0.016-0.025c0.008-0.006 0.019-0.008 0.029-0.006s0.019 0.008 0.025 0.016l2.243 3.22c0.003 0.004 0.005 0.009 0.006 0.014s0.001 0.010 0 0.015-0.003 0.010-0.005 0.014c-0.003 0.004-0.006 0.008-0.010 0.011-0.006 0.005-0.014 0.007-0.022 0.007z"></path>
<path fill="#fff" style="fill: var(--color2, #fff)" d="M19.868 13.781c0.141 0.087 0.373 0.349 0.395 0.402 0.178 0.418 0.532 0.006 0.532 0.006s-0.407-0.522-0.689-0.682c-0.543-0.308-0.534 0.089-0.238 0.273z"></path>
<path fill="#0f0f0f" style="fill: var(--color1, #0f0f0f)" d="M20.483 14.409c-0.012 0-0.023-0.001-0.035-0.003-0.093-0.014-0.166-0.084-0.219-0.208-0.017-0.041-0.239-0.296-0.38-0.385-0.171-0.107-0.263-0.286-0.2-0.391 0.029-0.049 0.134-0.143 0.478 0.052 0.285 0.162 0.684 0.67 0.7 0.691 0.006 0.007 0.008 0.016 0.008 0.025s-0.004 0.018-0.009 0.024c-0.008 0.008-0.17 0.194-0.342 0.194zM19.786 13.433c-0.037 0-0.062 0.011-0.073 0.029-0.031 0.051 0.024 0.192 0.174 0.286 0.144 0.090 0.384 0.357 0.41 0.42 0.042 0.098 0.095 0.152 0.16 0.162 0.113 0.018 0.237-0.093 0.286-0.143-0.086-0.107-0.421-0.512-0.657-0.646-0.136-0.077-0.237-0.109-0.301-0.109z"></path>
<path fill="#fff" style="fill: var(--color2, #fff)" d="M20.521 13.522c0.052 0.121 0.183 0.262 0.293 0.333 0.049 0.032 0.102 0.058 0.157 0.077 0.436 0.147 0.104 0.717 0.966 1.21 0.030 0.017-0.133 0.589-0.189 0.732-0.314-0.302-0.677-0.843-0.936-0.867-0.477-0.044-0.535-0.321-0.587-0.459-0.135-0.361 0.285-0.503 0.285-0.503s-0.051-0.030-0.186-0.188c-0.207-0.24-0.034-0.875 0.196-0.337z"></path>
<path fill="#0f0f0f" style="fill: var(--color1, #0f0f0f)" d="M21.748 15.913c-0.010 0-0.019-0.004-0.026-0.011-0.1-0.097-0.207-0.218-0.31-0.336-0.217-0.248-0.441-0.505-0.603-0.52-0.464-0.043-0.557-0.307-0.607-0.449-0.004-0.012-0.008-0.023-0.012-0.034-0.041-0.108-0.039-0.208 0.004-0.299 0.057-0.12 0.173-0.192 0.244-0.227-0.050-0.048-0.098-0.099-0.143-0.152-0.123-0.143-0.12-0.399-0.064-0.52 0.038-0.080 0.087-0.092 0.117-0.091 0.073 0.001 0.141 0.078 0.208 0.234 0.046 0.106 0.168 0.245 0.279 0.316 0.046 0.030 0.096 0.055 0.148 0.073 0.204 0.069 0.255 0.224 0.314 0.405 0.078 0.237 0.176 0.533 0.658 0.808 0.028 0.016 0.047 0.027-0.044 0.362-0.044 0.165-0.1 0.345-0.128 0.418-0.002 0.006-0.006 0.011-0.011 0.015s-0.011 0.007-0.017 0.008c-0.002 0-0.005 0.001-0.008 0zM20.346 13.349c-0.015 0-0.032 0.018-0.046 0.047-0.046 0.1-0.049 0.319 0.052 0.437 0.126 0.147 0.177 0.18 0.177 0.18 0.006 0.004 0.012 0.009 0.015 0.016s0.005 0.014 0.004 0.021-0.004 0.014-0.008 0.020c-0.005 0.006-0.011 0.010-0.018 0.012-0.002 0-0.191 0.067-0.26 0.214-0.034 0.071-0.035 0.152-0.001 0.239 0.004 0.011 0.008 0.023 0.013 0.035 0.050 0.143 0.126 0.36 0.541 0.398 0.192 0.018 0.416 0.275 0.654 0.546 0.087 0.1 0.177 0.203 0.263 0.289 0.063-0.183 0.164-0.555 0.17-0.639-0.494-0.287-0.599-0.607-0.677-0.842-0.057-0.174-0.099-0.299-0.267-0.356-0.058-0.020-0.113-0.048-0.165-0.081-0.124-0.079-0.256-0.23-0.308-0.351-0.076-0.177-0.129-0.187-0.14-0.187l0.001-0z"></path>
<path fill="#0f0f0f" style="fill: var(--color1, #0f0f0f)" d="M20.696 14.66c-0.009 0-0.017 0-0.027-0.001s-0.019-0.006-0.025-0.014c-0.006-0.008-0.009-0.018-0.008-0.028s0.006-0.019 0.013-0.026c0.008-0.006 0.018-0.010 0.028-0.009 0.055 0.005 0.097-0.011 0.126-0.047 0.049-0.062 0.057-0.183 0.020-0.293-0.029-0.087-0.075-0.142-0.137-0.165-0.12-0.044-0.265 0.045-0.267 0.046-0.009 0.005-0.019 0.007-0.029 0.005s-0.019-0.008-0.024-0.017c-0.005-0.009-0.007-0.019-0.005-0.029s0.009-0.019 0.017-0.024c0.007-0.004 0.178-0.109 0.333-0.052 0.085 0.031 0.147 0.102 0.184 0.212 0.038 0.113 0.043 0.27-0.032 0.366-0.020 0.025-0.045 0.045-0.074 0.058s-0.060 0.020-0.092 0.019z"></path>
<path fill="#fff" style="fill: var(--color2, #fff)" d="M25.656 15.755l0.44-2.575c0 0-0.573-0.061-0.872 0.272s-1.448 1.719-2.56 1.601c-0.506-0.053-0.797-0.198-0.95-0.275l-0.518 0.748c0.147 0.231 0.584 0.756 1.288 1.084 1.409 0.657 2.51-0.362 2.51-0.362l0.662-0.492z"></path>
<path fill="#0f0f0f" style="fill: var(--color1, #0f0f0f)" d="M23.443 16.867c-0.337-0.001-0.67-0.077-0.974-0.222-0.837-0.391-1.259-1.027-1.305-1.099-0.004-0.006-0.006-0.014-0.006-0.021s0.002-0.015 0.006-0.021l0.518-0.748c0.005-0.008 0.013-0.013 0.022-0.015s0.018-0.001 0.027 0.003c0.141 0.070 0.433 0.218 0.937 0.272 1.026 0.108 2.109-1.116 2.465-1.518l0.063-0.071c0.309-0.343 0.881-0.287 0.905-0.284 0.005 0.001 0.010 0.002 0.015 0.005s0.009 0.006 0.012 0.010c0.003 0.004 0.006 0.009 0.007 0.014s0.001 0.010 0 0.016l-0.44 2.575c-0.002 0.010-0.007 0.018-0.015 0.024l-0.661 0.492c-0.037 0.034-0.673 0.589-1.575 0.589zM21.243 15.526c0.087 0.131 0.496 0.693 1.258 1.049 1.368 0.638 2.457-0.345 2.468-0.355l0.003-0.003 0.65-0.484 0.43-2.518c-0.134-0.006-0.562-0.002-0.799 0.262-0.017 0.020-0.039 0.044-0.063 0.070-0.362 0.41-1.465 1.656-2.53 1.543-0.485-0.051-0.779-0.187-0.933-0.264l-0.484 0.699z"></path>
<path fill="#0f0f0f" style="fill: var(--color1, #0f0f0f)" d="M25.888 10.035c-0.355-0.019-0.729 0.324-0.643 0.847 0.070 0.427 0.527 0.518 0.754 0.729 0.733 0.684 0.974 2.922 2.045 3.507 0.855 0.466 2.366 0.29 3.137-0.769 0.733-1.007 0.799-2.431-0.094-3.037-0.802-0.545-1.271 0.212-2.12-0.291-0.837-0.496-0.668-1.062-1.181-1.255-0.701-0.264-0.89 0.323-1.897 0.27z"></path>
<path fill="#fff" style="fill: var(--color2, #fff)" d="M26.194 25.048c0 0 2.998 0.437 4.598-0.671s-2.926-7.124-2.926-7.124l-1.672 7.795z"></path>
<path fill="#0f0f0f" style="fill: var(--color1, #0f0f0f)" d="M27.555 25.169c-0.778 0-1.353-0.081-1.367-0.083-0.005-0.001-0.010-0.003-0.015-0.005s-0.008-0.006-0.011-0.011c-0.003-0.004-0.005-0.009-0.006-0.014s-0.001-0.010 0-0.016l1.672-7.795c0.001-0.007 0.005-0.014 0.010-0.019s0.012-0.009 0.019-0.010c0.007-0.002 0.015-0.001 0.022 0.002s0.013 0.007 0.017 0.013c0.145 0.192 3.555 4.75 3.258 6.595-0.042 0.259-0.157 0.456-0.341 0.584-0.901 0.624-2.25 0.761-3.259 0.761zM26.241 25.015c0.364 0.046 3.061 0.348 4.53-0.67 0.167-0.115 0.27-0.295 0.309-0.532 0.273-1.693-2.762-5.884-3.194-6.469l-1.645 7.671z"></path>
<path fill="#fff" style="fill: var(--color2, #fff)" d="M26.413 29.316v1.116l0.536-0.033 0.105-1.083h-0.641z"></path>
<path fill="#0f0f0f" style="fill: var(--color1, #0f0f0f)" d="M26.413 30.47c-0.010-0-0.020-0.004-0.027-0.011s-0.011-0.017-0.011-0.027v-1.116c0-0.010 0.004-0.020 0.011-0.027s0.017-0.011 0.027-0.011h0.641c0.005 0 0.011 0.001 0.015 0.003s0.009 0.005 0.013 0.009c0.004 0.004 0.006 0.009 0.008 0.014s0.002 0.011 0.002 0.016l-0.105 1.084c-0.001 0.009-0.005 0.018-0.011 0.024s-0.015 0.010-0.024 0.011l-0.535 0.033-0.003-0.001zM26.451 29.354v1.037l0.462-0.028 0.098-1.008-0.56-0z"></path>
<path fill="#fff" style="fill: var(--color2, #fff)" d="M27.029 31.823c-0.331 0.034-0.664 0.023-0.992-0.033-0.032-0.006-0.063-0.018-0.090-0.036s-0.050-0.042-0.067-0.070c-0.017-0.028-0.029-0.059-0.034-0.091s-0.002-0.065 0.006-0.097c0.055-0.195 0.117-0.316 0.206-0.589 0.073-0.221 0.149-0.554 0.209-0.756 0.002-0.006 0.006-0.012 0.011-0.016s0.011-0.007 0.017-0.008c0.006-0.001 0.013-0 0.019 0.002s0.011 0.007 0.015 0.012l0.097 0.14 0.079-0.191c0.007-0.011 0.016-0.021 0.027-0.027s0.023-0.011 0.036-0.012l0.284 0.002c0.084 0 0.091 0.046 0.102 0.081l0.056 0.148 0.085-0.133c0.002-0.004 0.006-0.007 0.010-0.008s0.009-0.002 0.013-0.001c0.004 0.001 0.008 0.004 0.011 0.007s0.004 0.008 0.005 0.012l0.034 0.734 0.066 0.676c0.006 0.061-0.012 0.122-0.051 0.17s-0.095 0.078-0.155 0.084z"></path>
<path fill="#0f0f0f" style="fill: var(--color1, #0f0f0f)" d="M26.656 31.881c-0.21 0-0.419-0.018-0.626-0.053-0.037-0.006-0.073-0.021-0.105-0.042s-0.058-0.049-0.079-0.081-0.034-0.068-0.039-0.106c-0.005-0.038-0.003-0.076 0.007-0.113 0.030-0.107 0.062-0.192 0.1-0.291 0.031-0.082 0.066-0.175 0.107-0.299 0.043-0.13 0.087-0.297 0.129-0.46 0.029-0.109 0.055-0.213 0.080-0.295 0.004-0.013 0.011-0.025 0.022-0.034s0.023-0.015 0.037-0.017c0.014-0.002 0.027-0 0.040 0.005s0.023 0.014 0.031 0.026l0.057 0.082 0.052-0.126c0.001-0.002 0.002-0.003 0.003-0.005 0.010-0.016 0.023-0.030 0.039-0.040s0.034-0.016 0.053-0.018l0.288 0.002c0.105 0 0.124 0.065 0.135 0.099l0.002 0.008 0.028 0.075 0.044-0.069c0.007-0.011 0.017-0.019 0.029-0.024s0.025-0.005 0.037-0.002 0.023 0.010 0.031 0.020c0.008 0.010 0.012 0.022 0.013 0.035l0.034 0.734 0.066 0.674c0.007 0.071-0.014 0.142-0.059 0.198s-0.11 0.091-0.181 0.099c-0.125 0.013-0.25 0.020-0.376 0.020zM26.302 30.17c-0.023 0.080-0.049 0.18-0.077 0.285-0.043 0.163-0.086 0.332-0.13 0.464-0.041 0.126-0.077 0.22-0.108 0.303-0.037 0.097-0.069 0.181-0.098 0.285-0.007 0.026-0.009 0.054-0.005 0.081s0.014 0.053 0.028 0.076c0.015 0.023 0.034 0.043 0.056 0.058s0.048 0.025 0.075 0.030c0.324 0.056 0.654 0.067 0.981 0.033 0.051-0.006 0.097-0.031 0.129-0.071s0.047-0.091 0.042-0.142l-0.066-0.676-0.031-0.683-0.056 0.087c-0.004 0.006-0.009 0.011-0.016 0.014s-0.014 0.004-0.021 0.004c-0.007-0.001-0.014-0.003-0.019-0.008s-0.010-0.010-0.013-0.017l-0.060-0.16c-0.009-0.031-0.013-0.045-0.061-0.045l-0.285-0.002c-0.006 0.001-0.011 0.003-0.017 0.007s-0.009 0.008-0.012 0.013l-0.078 0.188c-0.003 0.006-0.007 0.012-0.012 0.016s-0.012 0.007-0.019 0.008-0.014-0-0.020-0.003c-0.006-0.003-0.012-0.007-0.016-0.013l-0.093-0.132z"></path>
<path fill="#0f0f0f" style="fill: var(--color1, #0f0f0f)" d="M26.594 31.628c-0.165 0-0.33-0.021-0.49-0.063-0.005-0.001-0.010-0.003-0.014-0.006s-0.008-0.007-0.011-0.011c-0.003-0.004-0.005-0.009-0.005-0.015s-0-0.010 0.001-0.015c0.001-0.005 0.004-0.010 0.007-0.014s0.007-0.008 0.012-0.010c0.005-0.003 0.010-0.004 0.015-0.005s0.010 0 0.015 0.002c0.504 0.133 0.928 0.002 0.932 0s0.010-0.003 0.015-0.002c0.005 0 0.010 0.002 0.015 0.004s0.009 0.006 0.012 0.009c0.003 0.004 0.006 0.009 0.008 0.014s0.002 0.010 0.002 0.015-0.002 0.010-0.005 0.015c-0.003 0.005-0.006 0.009-0.010 0.012s-0.009 0.006-0.014 0.007c-0.012 0.004-0.204 0.064-0.485 0.064z"></path>
<path fill="#0f0f0f" style="fill: var(--color1, #0f0f0f)" d="M26.816 31.049h-0.488c-0.010-0.001-0.019-0.005-0.025-0.012s-0.010-0.017-0.010-0.026 0.004-0.019 0.010-0.026c0.007-0.007 0.016-0.011 0.025-0.012h0.488c0.005-0 0.011 0 0.015 0.002s0.009 0.005 0.013 0.008c0.004 0.004 0.007 0.008 0.009 0.013s0.003 0.010 0.003 0.015-0.001 0.010-0.003 0.015c-0.002 0.005-0.005 0.009-0.009 0.013s-0.008 0.006-0.013 0.008c-0.005 0.002-0.010 0.003-0.015 0.002z"></path>
<path fill="#fff" style="fill: var(--color2, #fff)" d="M30.352 28.725l0.158 1.345 0.502-0.017v-1.328h-0.66z"></path>
<path fill="#0f0f0f" style="fill: var(--color1, #0f0f0f)" d="M30.511 30.109c-0.009 0-0.018-0.003-0.026-0.010s-0.012-0.015-0.013-0.024l-0.158-1.345c-0.001-0.005-0-0.011 0.002-0.016s0.004-0.010 0.008-0.014c0.004-0.004 0.008-0.007 0.013-0.010s0.010-0.003 0.016-0.003h0.66c0.010 0 0.020 0.004 0.027 0.011s0.011 0.017 0.011 0.027v1.329c-0 0.010-0.004 0.019-0.011 0.027s-0.016 0.011-0.026 0.012l-0.502 0.017-0.001-0.001zM30.395 28.764l0.149 1.267 0.43-0.015v-1.252h-0.579z"></path>
<path fill="#fff" style="fill: var(--color2, #fff)" d="M30.391 29.75c0 0-0.065 0.598-0.045 0.838 0.014 0.172 0.25 0.692 0.383 0.973 0.026 0.053 0.063 0.101 0.109 0.139s0.099 0.065 0.156 0.080c0.184 0.052 0.329 0.030 0.504-0.011 0.212-0.048 0.366-0.247 0.289-0.478-0.091-0.268-0.213-0.525-0.364-0.765-0.099-0.157-0.23-0.51-0.294-0.689-0.011-0.031-0.032-0.059-0.059-0.078s-0.060-0.029-0.093-0.029h-0.204c-0.026 0-0.051 0.009-0.071 0.025s-0.035 0.039-0.040 0.064l-0.059 0.252-0.211-0.321z"></path>
<path fill="#0f0f0f" style="fill: var(--color1, #0f0f0f)" d="M31.207 31.849c-0.076 0-0.151-0.011-0.224-0.032-0.063-0.017-0.121-0.047-0.171-0.088s-0.090-0.093-0.119-0.151c-0.168-0.357-0.372-0.818-0.386-0.986-0.020-0.241 0.042-0.821 0.045-0.845 0.001-0.008 0.004-0.015 0.009-0.021s0.012-0.010 0.020-0.012c0.008-0.002 0.016-0.001 0.023 0.002s0.014 0.008 0.018 0.015l0.162 0.247 0.039-0.165c0.008-0.034 0.027-0.064 0.054-0.085s0.061-0.033 0.095-0.033h0.203c0.041 0 0.081 0.013 0.115 0.037s0.059 0.057 0.073 0.096c0.054 0.153 0.192 0.525 0.29 0.682 0.153 0.242 0.276 0.501 0.368 0.773 0.019 0.052 0.026 0.107 0.022 0.162s-0.021 0.108-0.047 0.156c-0.031 0.053-0.073 0.1-0.123 0.136s-0.107 0.061-0.168 0.074c-0.098 0.025-0.198 0.040-0.298 0.042zM30.418 29.861c-0.017 0.183-0.048 0.55-0.034 0.723 0.010 0.12 0.148 0.47 0.379 0.96 0.024 0.049 0.057 0.091 0.099 0.126s0.090 0.059 0.142 0.073c0.178 0.052 0.319 0.027 0.484-0.011 0.050-0.010 0.097-0.031 0.139-0.061s0.076-0.068 0.102-0.112c0.021-0.039 0.034-0.081 0.038-0.125s-0.002-0.088-0.018-0.13c-0.090-0.266-0.211-0.52-0.36-0.756-0.099-0.157-0.229-0.504-0.298-0.696-0.009-0.024-0.024-0.045-0.045-0.059s-0.045-0.022-0.071-0.023h-0.204c-0.017 0-0.034 0.006-0.047 0.017s-0.023 0.026-0.027 0.042l-0.059 0.252c-0.002 0.007-0.006 0.014-0.011 0.019s-0.012 0.009-0.020 0.010c-0.007 0.001-0.015 0.001-0.022-0.002s-0.013-0.008-0.017-0.014l-0.152-0.231z"></path>
<path fill="#0f0f0f" style="fill: var(--color1, #0f0f0f)" d="M31.22 31.556c-0.144 0-0.255-0.057-0.314-0.137-0.026-0.035-0.041-0.059-0.042-0.061l-0.233-0.452c-0.004-0.009-0.004-0.019-0-0.028s0.010-0.016 0.018-0.021c0.009-0.004 0.018-0.005 0.028-0.003s0.017 0.008 0.022 0.017l0.232 0.449c0 0 0.014 0.022 0.036 0.052 0.081 0.108 0.287 0.161 0.549 0.025 0.004-0.003 0.010-0.005 0.015-0.006s0.011-0 0.016 0.001c0.005 0.001 0.010 0.004 0.014 0.007s0.008 0.008 0.010 0.012 0.004 0.010 0.004 0.015c0 0.005-0 0.011-0.002 0.016s-0.005 0.010-0.008 0.013c-0.004 0.004-0.008 0.007-0.013 0.009-0.122 0.062-0.235 0.089-0.332 0.089z"></path>
<path fill="#0f0f0f" style="fill: var(--color1, #0f0f0f)" d="M31.437 31.065h-0.448c-0.010 0-0.020-0.004-0.027-0.011s-0.011-0.017-0.011-0.027c0-0.010 0.004-0.020 0.011-0.027s0.017-0.011 0.027-0.011h0.448c0.010 0 0.020 0.004 0.027 0.011s0.011 0.017 0.011 0.027c0 0.010-0.004 0.020-0.011 0.027s-0.017 0.011-0.027 0.011z"></path>
<path fill="#0f0f0f" style="fill: var(--color1, #0f0f0f)" d="M25.552 18.159c0 0 0.053 4.106 0.226 6.779s0.512 4.717 0.512 4.717 0.369 0.204 0.842 0.004c0 0 0.443-2.249 0.515-3.043s-0.119-1.186-0.136-1.835 0.279-3.513 0.279-3.513c0 0 2.202 6.475 2.454 7.905 0 0 0.533 0.091 0.909-0.115 0 0 0.012-2.546-0.042-2.94-0.099-0.729-0.667-1.447-0.769-2.221s-0.161-2.717-0.442-3.882c-0.281-1.165-0.832-2.475-0.832-2.475l-3.517 0.617z"></path>
<path fill="#fff" style="fill: var(--color2, #fff)" d="M27.817 13.079c0 0 0.763-0.129 1.516 1.68 0.248 0.599 0.373 1.242 0.367 1.891s-0.141 1.289-0.399 1.884c-0.162 0.375-0.307 0.692-0.371 0.787-0.396 0.586-1.651 0.637-2.365 0.558-0.169-0.019-0.327-0.098-0.444-0.222s-0.186-0.287-0.194-0.457l-0.2-3.919-0.529 0.002-0.047-0.978c-0.004-0.089 0.080-0.5 0.131-0.593 0.169-0.307 0.502-0.689 1.223-0.665l1.312 0.032z"></path>
<path fill="#0f0f0f" style="fill: var(--color1, #0f0f0f)" d="M27.12 19.947c-0.187 0-0.374-0.010-0.56-0.030-0.179-0.019-0.345-0.102-0.468-0.233s-0.196-0.302-0.204-0.482l-0.197-3.884-0.492 0.002c-0.010 0-0.019-0.004-0.026-0.011s-0.011-0.016-0.012-0.026l-0.048-0.978c-0.005-0.1 0.082-0.515 0.136-0.614 0.259-0.474 0.683-0.704 1.258-0.685l1.309 0.033c0.070-0.009 0.817-0.065 1.552 1.704 0.502 1.207 0.49 2.594-0.032 3.804-0.191 0.441-0.317 0.708-0.374 0.794-0.321 0.475-1.156 0.605-1.841 0.605zM25.726 15.242c0.010 0 0.019 0.004 0.026 0.011s0.011 0.016 0.012 0.026l0.2 3.92c0.008 0.162 0.073 0.316 0.183 0.434s0.26 0.192 0.421 0.21c0.632 0.070 1.931 0.047 2.329-0.542 0.055-0.082 0.179-0.344 0.367-0.781 0.515-1.191 0.526-2.556 0.032-3.744-0.727-1.751-1.466-1.659-1.473-1.657-0.002 0-0.005 0-0.007 0l-1.313-0.033c-0.545-0.018-0.944 0.199-1.188 0.645-0.046 0.084-0.131 0.488-0.127 0.573l0.046 0.941 0.491-0.001z"></path>
<path fill="#fff" style="fill: var(--color2, #fff)" d="M25.632 25.644c-0.217-0.050-0.411-0.174-0.547-0.351s-0.206-0.397-0.197-0.62l0.202-5.38c0.013-0.401 0.014-0.803 0.002-1.205l-0.098-4.022c0.013-0.286 0.216-0.656 0.435-0.838 0.093-0.078 0.2-0.136 0.316-0.172 0 0 0.229 2.824 0.579 5.592 0.34 2.688 0.769 5.901 0.944 6.791 0.013 0.064 0 0.131-0.035 0.187s-0.090 0.095-0.154 0.111l-0.112 0.027c-0.325 0.080-0.478 0.076-0.804 0.002l-0.531-0.122z"></path>
<path fill="#0f0f0f" style="fill: var(--color1, #0f0f0f)" d="M26.57 25.86c-0.122 0-0.247-0.019-0.415-0.058l-0.531-0.121c-0.226-0.052-0.427-0.181-0.568-0.365s-0.214-0.413-0.205-0.645l0.202-5.38c0.013-0.399 0.014-0.804 0.002-1.202l-0.086-3.53c-0-0.010 0.004-0.020 0.011-0.027s0.017-0.012 0.027-0.012c0.010-0 0.020 0.004 0.027 0.011s0.012 0.017 0.012 0.027l0.086 3.53c0.011 0.4 0.011 0.806-0.002 1.207l-0.202 5.38c-0.008 0.214 0.059 0.425 0.189 0.595s0.316 0.29 0.525 0.337l0.531 0.121c0.329 0.075 0.476 0.075 0.787-0.001l0.112-0.028c0.054-0.013 0.101-0.047 0.131-0.094s0.041-0.104 0.030-0.159c-0.177-0.9-0.604-4.099-0.945-6.793-0.321-2.539-0.543-5.156-0.576-5.545-0.094 0.035-0.181 0.085-0.257 0.15-0.065 0.054-0.29 0.299-0.351 0.388-0.003 0.004-0.006 0.008-0.011 0.011s-0.009 0.005-0.014 0.006c-0.005 0.001-0.010 0.001-0.015-0s-0.010-0.003-0.014-0.006-0.008-0.007-0.011-0.011c-0.003-0.004-0.005-0.009-0.006-0.014s-0.001-0.010 0-0.015c0.001-0.005 0.003-0.010 0.006-0.014 0.061-0.087 0.289-0.34 0.365-0.403 0.097-0.081 0.209-0.142 0.329-0.179 0.006-0.002 0.011-0.002 0.017-0.001s0.011 0.003 0.016 0.006c0.005 0.003 0.009 0.008 0.012 0.012s0.005 0.011 0.005 0.016c0.002 0.028 0.233 2.854 0.579 5.59 0.325 2.569 0.767 5.889 0.944 6.788 0.015 0.074 0 0.151-0.040 0.215s-0.104 0.109-0.177 0.127l-0.112 0.028c-0.162 0.040-0.283 0.060-0.407 0.060z"></path>
<path fill="#0f0f0f" style="fill: var(--color1, #0f0f0f)" d="M27.251 16.118c-0.005 0-0.010-0.001-0.014-0.003-0.76-0.306-0.829-1.411-0.831-1.458-0-0.005 0-0.010 0.002-0.015s0.004-0.009 0.008-0.013c0.003-0.004 0.008-0.007 0.012-0.009s0.010-0.004 0.015-0.004c0.005-0 0.010 0.001 0.015 0.002s0.009 0.005 0.013 0.008c0.004 0.004 0.007 0.008 0.009 0.012s0.003 0.010 0.003 0.015c0 0.011 0.069 1.103 0.783 1.391 0.008 0.003 0.015 0.009 0.019 0.017s0.006 0.017 0.004 0.026c-0.002 0.009-0.006 0.017-0.013 0.022s-0.015 0.009-0.024 0.009z"></path>
<path fill="#fff" style="fill: var(--color2, #fff)" d="M27.897 12.937c0 0 0.818-0.033 1.429 0.886 0.523 0.787 1.359 2.498 1.393 3.175 0.056 1.149-1 1.352-0.966 1.718 0.044 0.465 0.411 1.461 1.195 2.552 0.645 0.898 0.978 2.897 0.895 2.964-0.561 0.449-1.45 1.355-2.678 1.482-0.11 0.012-0.221-0.015-0.314-0.076s-0.163-0.151-0.198-0.257c-0.288-0.874-1.096-3.414-1.572-5.802-0.413-2.068 0.244-5.234 0.289-5.5 0.117-0.686 0.526-1.142 0.526-1.142z"></path>
<path fill="#0f0f0f" style="fill: var(--color1, #0f0f0f)" d="M29.114 25.754c-0.11 0-0.218-0.035-0.307-0.1s-0.156-0.157-0.19-0.262c-0.316-0.959-1.102-3.446-1.573-5.806-0.248-1.244-0.152-3.167 0.271-5.416 0.009-0.047 0.015-0.080 0.018-0.099 0.117-0.688 0.519-1.142 0.536-1.161 0.003-0.004 0.008-0.007 0.012-0.009s0.010-0.003 0.015-0.004c0.009 0 0.847-0.023 1.463 0.903 0.541 0.812 1.366 2.512 1.399 3.195 0.037 0.749-0.383 1.102-0.689 1.36-0.161 0.136-0.288 0.243-0.277 0.356 0.046 0.488 0.438 1.489 1.188 2.533 0.371 0.517 0.615 1.354 0.727 1.807 0.090 0.364 0.248 1.139 0.161 1.209-0.080 0.064-0.169 0.14-0.262 0.218-0.579 0.49-1.373 1.162-2.435 1.272-0.019 0.002-0.037 0.003-0.056 0.003zM27.915 12.975c-0.065 0.078-0.403 0.506-0.506 1.11-0.003 0.019-0.010 0.052-0.018 0.1-0.421 2.239-0.517 4.152-0.271 5.386 0.471 2.357 1.256 4.84 1.571 5.798 0.032 0.098 0.096 0.181 0.181 0.237s0.188 0.080 0.29 0.070c1.039-0.107 1.822-0.769 2.394-1.254 0.092-0.078 0.179-0.151 0.259-0.215 0.042-0.146-0.267-2.038-0.897-2.915-0.759-1.056-1.155-2.073-1.202-2.57-0.015-0.153 0.126-0.272 0.304-0.422 0.294-0.248 0.696-0.587 0.661-1.297-0.032-0.66-0.863-2.369-1.386-3.156-0.544-0.819-1.263-0.867-1.379-0.869z"></path>
<path fill="#fff" style="fill: var(--color2, #fff)" d="M24.228 15.092h2.541c0.080 0 0.156 0.068 0.17 0.151l0.577 3.57c0.014 0.083-0.041 0.151-0.121 0.151h-2.541c-0.080 0-0.157-0.067-0.17-0.151l-0.577-3.57c-0.014-0.083 0.040-0.151 0.12-0.151z"></path>
<path fill="#0f0f0f" style="fill: var(--color1, #0f0f0f)" d="M27.395 19.001h-2.541c-0.050-0.002-0.098-0.021-0.136-0.054s-0.063-0.079-0.071-0.129l-0.578-3.57c-0.004-0.025-0.004-0.050 0.003-0.074s0.018-0.047 0.033-0.066c0.015-0.018 0.034-0.032 0.055-0.041s0.044-0.014 0.067-0.014h2.541c0.1 0 0.191 0.080 0.207 0.183l0.577 3.569c0.004 0.025 0.003 0.050-0.003 0.074s-0.018 0.047-0.033 0.066c-0.015 0.018-0.034 0.032-0.055 0.042s-0.044 0.015-0.067 0.014zM24.228 15.13c-0.012-0-0.024 0.002-0.035 0.007s-0.021 0.012-0.029 0.021c-0.009 0.011-0.015 0.023-0.018 0.037s-0.003 0.027-0.001 0.041l0.577 3.569c0.010 0.064 0.070 0.118 0.132 0.118h2.541c0.012 0 0.024-0.002 0.035-0.007s0.021-0.012 0.029-0.021c0.009-0.011 0.015-0.023 0.018-0.037s0.003-0.027 0.001-0.041l-0.577-3.57c-0.010-0.064-0.070-0.118-0.131-0.118l-2.541 0.001z"></path>
<path fill="#0f0f0f" style="fill: var(--color1, #0f0f0f)" d="M24.879 14.87h1.116c0.018 0.001 0.035 0.008 0.049 0.020s0.023 0.028 0.026 0.046l0.041 0.377c0.002 0.008 0.002 0.016 0 0.024s-0.005 0.015-0.010 0.022c-0.005 0.006-0.011 0.012-0.019 0.015s-0.015 0.005-0.023 0.005h-1.116c-0.018-0.001-0.035-0.008-0.049-0.020s-0.023-0.028-0.026-0.046l-0.041-0.377c-0.002-0.008-0.002-0.016-0-0.024s0.005-0.015 0.010-0.022c0.005-0.006 0.011-0.011 0.019-0.015s0.015-0.005 0.023-0.005z"></path>
<path fill="#fff" style="fill: var(--color2, #fff)" d="M27.127 16.417l0.062 0.39c0.001 0.029-0.005 0.057-0.017 0.083s-0.029 0.049-0.051 0.068c-0.022 0.019-0.047 0.032-0.075 0.040s-0.056 0.009-0.085 0.004l-0.663-0.121c-0.024-0.004-0.048-0.003-0.072 0.003s-0.045 0.018-0.063 0.034c-0.018 0.016-0.033 0.036-0.042 0.058s-0.014 0.047-0.013 0.071c0.003 0.059 0.030 0.128 0.103 0.199 0.035 0.033 0.622 0.482 1.073 0.401 0.012-0.002 0.302 0.166 0.302 0.166 0.019-0.074 0.043-0.147 0.072-0.218 0.044-0.107 0.106-0.226 0.106-0.226s-0.214-0.141-0.233-0.2c-0.037-0.113-0.024-0.192-0.052-0.387-0.045-0.326-0.352-0.365-0.352-0.365z"></path>
<path fill="#0f0f0f" style="fill: var(--color1, #0f0f0f)" d="M27.587 17.851c-0.007 0-0.013-0.002-0.019-0.005-0.119-0.070-0.252-0.144-0.286-0.159-0.037 0.006-0.075 0.009-0.113 0.009-0.464 0-0.98-0.417-0.985-0.422-0.072-0.070-0.11-0.145-0.115-0.224-0.002-0.030 0.003-0.060 0.015-0.087s0.029-0.052 0.052-0.072c0.023-0.020 0.050-0.035 0.079-0.043s0.060-0.010 0.090-0.004l0.663 0.121c0.022 0.004 0.045 0.003 0.067-0.003s0.042-0.017 0.060-0.031 0.031-0.033 0.041-0.054c0.010-0.021 0.014-0.043 0.014-0.066l-0.061-0.387c-0.001-0.006-0.001-0.012 0.001-0.018s0.005-0.011 0.009-0.015c0.004-0.004 0.009-0.008 0.015-0.010s0.012-0.003 0.017-0.002c0.003 0 0.337 0.047 0.386 0.398 0.011 0.078 0.015 0.14 0.019 0.189 0.006 0.074 0.010 0.128 0.031 0.192 0.010 0.028 0.121 0.116 0.218 0.18 0.008 0.005 0.014 0.013 0.016 0.023s0.001 0.019-0.003 0.027c0 0.001-0.062 0.118-0.105 0.223-0.028 0.069-0.051 0.14-0.070 0.212-0.001 0.006-0.004 0.011-0.008 0.016s-0.009 0.008-0.014 0.011c-0.005 0.002-0.010 0.003-0.015 0.003zM27.284 17.609c0.016 0 0.052 0.016 0.279 0.146 0.017-0.059 0.037-0.117 0.060-0.174 0.031-0.076 0.070-0.156 0.092-0.198-0.070-0.048-0.201-0.144-0.22-0.201-0.024-0.073-0.028-0.133-0.035-0.21-0.004-0.051-0.008-0.108-0.019-0.184-0.008-0.074-0.038-0.144-0.085-0.201s-0.111-0.099-0.182-0.119l0.052 0.332v0.005c0.001 0.034-0.006 0.069-0.020 0.1s-0.035 0.059-0.061 0.082c-0.026 0.022-0.057 0.039-0.090 0.048s-0.068 0.011-0.102 0.004l-0.663-0.121c-0.019-0.003-0.038-0.003-0.056 0.003s-0.035 0.014-0.049 0.027c-0.014 0.012-0.024 0.027-0.032 0.044s-0.010 0.035-0.009 0.053c0.003 0.059 0.035 0.118 0.092 0.175 0.051 0.050 0.617 0.467 1.040 0.39 0.002-0 0.005-0.001 0.008-0.001z"></path>
<path fill="#0f0f0f" style="fill: var(--color1, #0f0f0f)" d="M29.146 20.981c-0.726 0-1.169-0.632-1.174-0.64s-0.008-0.019-0.006-0.029c0.002-0.010 0.008-0.019 0.016-0.025s0.019-0.008 0.029-0.006c0.010 0.002 0.019 0.008 0.025 0.016 0.028 0.041 0.699 0.997 1.765 0.431 0.009-0.004 0.019-0.005 0.028-0.002s0.017 0.010 0.022 0.018c0.005 0.009 0.006 0.019 0.003 0.028s-0.009 0.018-0.017 0.023c-0.251 0.133-0.481 0.185-0.69 0.185z"></path>
<path fill="#0f0f0f" style="fill: var(--color1, #0f0f0f)" d="M29.104 18.781c-0.716 0-1.342-0.56-1.552-0.819-0.070-0.087 0.117-0.506 0.183-0.621 0.056-0.097 0.096-0.133 0.137-0.127 0.029 0.005 0.060 0.011 0.094 0.017 0.277 0.054 0.658 0.127 0.888-0.284 0.234-0.418-0.169-2.011-0.173-2.027-0.001-0.005-0.002-0.010-0.001-0.015s0.002-0.010 0.005-0.015c0.003-0.004 0.006-0.008 0.010-0.012s0.009-0.005 0.014-0.007c0.005-0.001 0.010-0.002 0.015-0.001s0.010 0.003 0.014 0.005c0.004 0.003 0.008 0.006 0.011 0.011s0.005 0.009 0.006 0.014c0.017 0.067 0.414 1.639 0.166 2.084-0.257 0.46-0.703 0.374-0.969 0.322-0.031-0.006-0.059-0.011-0.086-0.016-0.078 0.046-0.283 0.549-0.253 0.625 0.242 0.297 1.058 1.013 1.904 0.718 0.153-0.052 0.316-0.173 0.418-0.268 0.007-0.007 0.017-0.011 0.028-0.010s0.020 0.005 0.027 0.012c0.007 0.007 0.011 0.017 0.010 0.028s-0.005 0.020-0.012 0.027c-0.108 0.1-0.281 0.227-0.445 0.285-0.141 0.049-0.289 0.074-0.438 0.074z"></path>
<path fill="#0f0f0f" style="fill: var(--color1, #0f0f0f)" d="M25.393 21.052c-0.016 0-0.033 0-0.049-0.001-0.010-0.001-0.019-0.006-0.026-0.013s-0.010-0.017-0.009-0.027c0.001-0.010 0.005-0.019 0.012-0.026s0.017-0.010 0.027-0.010c0.649 0.037 0.844-0.746 0.846-0.754 0.001-0.005 0.003-0.010 0.006-0.015s0.007-0.008 0.011-0.011c0.004-0.003 0.009-0.005 0.015-0.006s0.011-0.001 0.016 0c0.005 0.001 0.010 0.003 0.014 0.007s0.008 0.007 0.010 0.012c0.003 0.005 0.004 0.010 0.005 0.015s0 0.011-0.002 0.016c-0.002 0.009-0.201 0.815-0.876 0.815z"></path>
<path fill="#fff" style="fill: var(--color2, #fff)" d="M26.598 11.592c-0.006 0.004-0.013 0.006-0.020 0.006s-0.014-0-0.021-0.003c-0.007-0.002-0.013-0.006-0.018-0.011s-0.009-0.011-0.011-0.018c-0.052-0.13-0.137-0.38-0.31-0.42-0.222-0.051-0.581-0.118-0.611 0.058-0.027 0.154 0.005 0.42-0.157 0.612-0.015 0.017-0.002 0.048 0.017 0.063l0.102 0.086c0.021 0.016 0.040 0.071 0.043 0.098 0.008 0.084 0.094 0.375 0.122 0.397 0.056 0.045 0.337 0.027 0.337 0.027l0.15 0.662c0.005 0.016-0.062 0.087-0.123 0.147-0.014 0.014-0.024 0.030-0.029 0.048s-0.007 0.038-0.003 0.056 0.011 0.037 0.023 0.052c0.012 0.015 0.027 0.027 0.045 0.035 0.114 0.052 0.317 0.101 0.669 0.077 0.223-0.015 0.414-0.104 0.547-0.186 0.018-0.011 0.033-0.028 0.043-0.047s0.014-0.041 0.013-0.063c-0.002-0.022-0.009-0.042-0.022-0.060s-0.030-0.031-0.050-0.040c-0.255-0.105-0.66-0.377-0.735-1.044-0.001-0.011 0-0.021 0.005-0.031s0.011-0.018 0.020-0.025c0.066-0.050 0.246-0.198 0.214-0.348-0.034-0.159-0.153-0.183-0.238-0.132z"></path>
<path fill="#0f0f0f" style="fill: var(--color1, #0f0f0f)" d="M26.627 13.612c-0.262 0-0.42-0.045-0.512-0.087-0.023-0.011-0.043-0.027-0.059-0.047s-0.026-0.044-0.031-0.069c-0.004-0.025-0.003-0.050 0.005-0.074s0.021-0.046 0.039-0.063c0.079-0.079 0.104-0.11 0.111-0.121l-0.14-0.621c-0.091 0.004-0.275 0.006-0.33-0.037-0.047-0.037-0.13-0.357-0.137-0.424-0.003-0.026-0.013-0.050-0.028-0.071l-0.103-0.087c-0.020-0.016-0.034-0.039-0.037-0.064-0.001-0.009-0-0.019 0.002-0.028s0.007-0.017 0.013-0.025c0.113-0.135 0.125-0.313 0.135-0.456 0.002-0.046 0.007-0.092 0.014-0.138 0.003-0.021 0.011-0.040 0.023-0.058s0.027-0.032 0.044-0.044c0.124-0.083 0.397-0.032 0.591 0.013 0.178 0.041 0.265 0.262 0.323 0.408l0.014 0.035c0.001 0.002 0.002 0.003 0.003 0.004s0.003 0.002 0.004 0.003c0.001 0.001 0.002 0.001 0.003 0.001s0.002-0 0.003-0.001c0.026-0.016 0.055-0.026 0.085-0.029s0.061 0.002 0.089 0.014c0.043 0.019 0.098 0.064 0.121 0.172 0.034 0.161-0.129 0.311-0.229 0.386-0.003 0.002-0.006 0.006-0.007 0.009s-0.002 0.008-0.002 0.012c0.075 0.655 0.478 0.916 0.712 1.013 0.026 0.011 0.049 0.029 0.066 0.052s0.027 0.051 0.029 0.079c0.002 0.029-0.003 0.058-0.016 0.084s-0.033 0.048-0.058 0.063c-0.127 0.079-0.329 0.175-0.565 0.192-0.064 0.004-0.123 0.006-0.177 0.006zM26.071 12.452c0.009 0 0.017 0.003 0.024 0.008s0.012 0.013 0.013 0.022l0.15 0.662c0.007 0.024 0.002 0.049-0.134 0.183-0.009 0.009-0.016 0.020-0.020 0.032s-0.005 0.025-0.002 0.038c0.002 0.013 0.008 0.025 0.016 0.035s0.018 0.018 0.030 0.024c0.103 0.047 0.299 0.097 0.651 0.073 0.221-0.015 0.41-0.106 0.53-0.18 0.013-0.008 0.023-0.019 0.030-0.032s0.009-0.028 0.008-0.043c-0.001-0.014-0.006-0.028-0.015-0.040s-0.020-0.021-0.034-0.026c-0.249-0.104-0.68-0.381-0.759-1.075-0.002-0.017 0.001-0.035 0.008-0.051s0.018-0.030 0.032-0.040c0.069-0.052 0.226-0.186 0.2-0.309-0.013-0.060-0.039-0.101-0.077-0.117-0.017-0.007-0.035-0.009-0.054-0.008s-0.036 0.008-0.051 0.018c-0.010 0.006-0.022 0.010-0.034 0.011s-0.024-0-0.036-0.004c-0.012-0.004-0.023-0.011-0.032-0.019s-0.017-0.019-0.021-0.031l-0.014-0.035c-0.052-0.132-0.13-0.33-0.269-0.362-0.279-0.065-0.458-0.072-0.531-0.023-0.009 0.005-0.017 0.013-0.023 0.021s-0.010 0.019-0.012 0.029c-0.006 0.037-0.009 0.082-0.013 0.13-0.010 0.153-0.023 0.344-0.15 0.497 0.002 0.004 0.005 0.008 0.008 0.011l0.103 0.087c0.033 0.025 0.052 0.093 0.056 0.124 0.008 0.082 0.087 0.337 0.11 0.372 0.031 0.020 0.183 0.026 0.309 0.017l0.003-0zM26.183 13.159c-0 0.001-0 0.003 0 0.004v-0.004z"></path>
<path fill="#fff" style="fill: var(--color2, #fff)" d="M5.592 29.46c0 0-0.239 1.093 0.025 1.406l0.082 0.134-0.255 0.109c-0.159 0.068-0.334 0.089-0.504 0.061s-0.329-0.104-0.458-0.22l-0.035-0.032 0.062-0.138c0.11-0.246 0.3-1.009 0.282-1.268l0.802-0.051z"></path>
<path fill="#0f0f0f" style="fill: var(--color1, #0f0f0f)" d="M5.088 31.22c-0.233 0-0.458-0.086-0.632-0.241l-0.035-0.032c-0.006-0.006-0.010-0.013-0.012-0.021s-0.001-0.016 0.002-0.024l0.062-0.138c0.107-0.239 0.296-1 0.279-1.25-0.001-0.010 0.003-0.020 0.009-0.028s0.016-0.012 0.026-0.013l0.802-0.052c0.006-0 0.012 0.001 0.017 0.003s0.010 0.006 0.014 0.010c0.004 0.005 0.007 0.010 0.008 0.016s0.002 0.012 0 0.018c-0.002 0.011-0.232 1.078 0.017 1.373 0.001 0.001 0.002 0.003 0.003 0.005l0.082 0.134c0.003 0.005 0.005 0.010 0.005 0.015s0 0.011-0.001 0.016c-0.002 0.005-0.005 0.010-0.008 0.014s-0.008 0.007-0.013 0.010l-0.257 0.11c-0.117 0.050-0.244 0.076-0.371 0.076zM4.493 30.909l0.014 0.013c0.123 0.11 0.276 0.183 0.439 0.21s0.331 0.007 0.483-0.058l0.214-0.092-0.057-0.093c-0.24-0.29-0.086-1.165-0.042-1.387l-0.715 0.046c0 0.294-0.179 1.008-0.287 1.248l-0.050 0.112z"></path>
<path fill="#fff" style="fill: var(--color2, #fff)" d="M5.685 30.491l0.144 0.128c0.286 0.255 0.63 0.436 1.002 0.527l0.071 0.017c0.013 0.003 0.026 0.010 0.036 0.019s0.018 0.021 0.023 0.033l0.005 0.013c0.055 0.149-0.077 0.519-0.615 0.706-0.14 0.049-0.513 0.012-1.068 0.012-0.241 0-0.488 0-0.633-0.001-0.141 0.001-0.28-0.040-0.398-0.118-0.131-0.089-0.249-0.239-0.2-0.481 0.048-0.237 0.239-0.702 0.342-0.877 0.005-0.008 0.011-0.015 0.018-0.020s0.016-0.009 0.025-0.010 0.018-0.001 0.027 0.001c0.009 0.002 0.017 0.006 0.024 0.012l0.107 0.262c0.072 0.178 0.254 0.292 0.442 0.262 0.012-0.002 0.023-0.004 0.035-0.007 0.121-0.030 0.226-0.104 0.297-0.206l0.187-0.259c0.007-0.010 0.016-0.018 0.027-0.025s0.022-0.010 0.035-0.011c0.012-0.001 0.025 0 0.036 0.004s0.022 0.010 0.032 0.018z"></path>
<path fill="#0f0f0f" style="fill: var(--color1, #0f0f0f)" d="M6.074 32c-0.083 0-0.181-0.002-0.293-0.005-0.146-0.004-0.311-0.008-0.499-0.008-0.241 0-0.488 0-0.633-0.001-0.149 0.001-0.295-0.042-0.42-0.125-0.185-0.126-0.26-0.306-0.216-0.521 0.048-0.237 0.236-0.702 0.347-0.889 0.007-0.012 0.017-0.023 0.029-0.032s0.025-0.014 0.039-0.017c0.014-0.003 0.029-0.003 0.043 0.001s0.028 0.010 0.039 0.018c0.006 0.004 0.010 0.010 0.013 0.016l0.107 0.262c0.067 0.164 0.235 0.265 0.4 0.24 0.011-0.002 0.022-0.004 0.033-0.006 0.112-0.028 0.209-0.096 0.275-0.191l0.187-0.259c0.010-0.014 0.023-0.026 0.039-0.035s0.032-0.014 0.050-0.016c0.017-0.002 0.035-0 0.052 0.005s0.032 0.014 0.045 0.026l0.144 0.128c0.282 0.25 0.62 0.428 0.985 0.518l0.071 0.017c0.019 0.005 0.037 0.014 0.052 0.028s0.026 0.030 0.033 0.049l0.005 0.013c0.027 0.073 0.015 0.175-0.034 0.278-0.056 0.12-0.209 0.341-0.604 0.478-0.061 0.022-0.157 0.028-0.289 0.028zM4.448 30.477h-0.005c-0.003 0.001-0.007 0.002-0.010 0.004s-0.005 0.005-0.007 0.008c-0.105 0.179-0.292 0.639-0.338 0.865-0.037 0.184 0.024 0.332 0.184 0.442 0.112 0.074 0.243 0.113 0.377 0.112 0.144 0 0.392 0.001 0.633 0.001 0.189 0 0.355 0.004 0.501 0.008 0.272 0.007 0.469 0.012 0.554-0.017 0.369-0.129 0.509-0.33 0.56-0.439 0.046-0.098 0.046-0.177 0.031-0.218l-0.004-0.012c-0.003-0.007-0.007-0.013-0.012-0.018s-0.012-0.009-0.020-0.010l-0.071-0.017c-0.378-0.093-0.727-0.277-1.018-0.536l-0.144-0.128c-0.005-0.005-0.011-0.008-0.018-0.010s-0.013-0.003-0.020-0.002c-0.007 0.001-0.014 0.003-0.020 0.006s-0.011 0.008-0.015 0.014l-0.187 0.259c-0.076 0.11-0.19 0.189-0.32 0.221-0.013 0.003-0.026 0.005-0.039 0.007-0.203 0.031-0.401-0.087-0.483-0.287l-0.102-0.251c-0.003-0.001-0.006-0.002-0.010-0.002z"></path>
<path fill="#0f0f0f" style="fill: var(--color1, #0f0f0f)" d="M4.918 31.728c-0.452 0-0.675-0.24-0.685-0.25-0.003-0.004-0.006-0.008-0.008-0.013s-0.003-0.010-0.002-0.015c0-0.005 0.001-0.010 0.003-0.015s0.005-0.009 0.009-0.012 0.008-0.006 0.013-0.008c0.005-0.002 0.010-0.003 0.015-0.002s0.010 0.001 0.015 0.003c0.005 0.002 0.009 0.005 0.012 0.009 0.002 0.002 0.229 0.243 0.681 0.224 0.339-0.015 0.839-0.009 1.107-0.004 0.153 0.004 0.304-0.039 0.432-0.124 0.035-0.022 0.066-0.050 0.092-0.082 0.003-0.004 0.007-0.008 0.011-0.011s0.009-0.005 0.015-0.006 0.010-0.001 0.016 0.001c0.005 0.001 0.010 0.003 0.014 0.007s0.008 0.007 0.010 0.012c0.003 0.005 0.004 0.010 0.005 0.015s0 0.011-0.002 0.016c-0.002 0.005-0.004 0.010-0.008 0.014-0.031 0.039-0.068 0.072-0.11 0.099-0.141 0.094-0.307 0.142-0.477 0.137-0.267-0.005-0.765-0.011-1.102 0.004-0.020 0.001-0.039 0.002-0.056 0.002z"></path>
<path fill="#fff" style="fill: var(--color2, #fff)" d="M2.022 29.397c0 0-0.328 0.668-0.226 1.047l0.019 0.151-1.066-0.667 0.118-0.076c0.233-0.155 0.463-0.405 0.541-0.644l0.614 0.189z"></path>
<path fill="#0f0f0f" style="fill: var(--color1, #0f0f0f)" d="M1.814 30.634c-0.007 0-0.014-0.002-0.020-0.006l-1.065-0.667c-0.005-0.003-0.010-0.008-0.013-0.014s-0.005-0.012-0.005-0.019c0-0.007 0.002-0.013 0.005-0.019s0.008-0.010 0.013-0.014l0.118-0.076c0.25-0.166 0.456-0.41 0.525-0.623 0.003-0.010 0.010-0.018 0.019-0.022s0.019-0.006 0.029-0.003l0.616 0.188c0.005 0.002 0.010 0.004 0.014 0.008s0.007 0.008 0.010 0.013c0.002 0.005 0.004 0.011 0.004 0.016s-0.001 0.011-0.004 0.016c-0.003 0.007-0.321 0.66-0.223 1.021 0 0.002 0 0.003 0 0.005l0.019 0.151c0.001 0.005 0 0.011-0.001 0.016s-0.004 0.010-0.008 0.014c-0.004 0.004-0.008 0.007-0.013 0.010s-0.010 0.003-0.016 0.003h-0.001zM0.82 29.928l0.947 0.592-0.008-0.068c-0.089-0.339 0.14-0.878 0.21-1.032l-0.538-0.164c-0.084 0.219-0.293 0.463-0.543 0.628l-0.068 0.044z"></path>
<path fill="#fff" style="fill: var(--color2, #fff)" d="M1.917 30.223l0.019 0.184c0.038 0.365 0.164 0.715 0.366 1.020l0.155 0.234c0.007 0.011 0.012 0.024 0.013 0.037s-0.001 0.026-0.005 0.039l-0.005 0.013c-0.056 0.14-0.386 0.315-0.885 0.095-0.308-0.136-0.62-0.553-1.508-1.392-0.046-0.044-0.031-0.122 0.009-0.172 0.146-0.179 0.51-0.593 0.835-0.694 0.008-0.003 0.017-0.004 0.026-0.003s0.017 0.004 0.025 0.008 0.014 0.011 0.019 0.018c0.005 0.007 0.009 0.016 0.010 0.024l0.070 0.361c0.007 0.038 0.022 0.075 0.043 0.107s0.049 0.061 0.081 0.082c0.032 0.022 0.069 0.037 0.107 0.045s0.077 0.008 0.116 0l0.409-0.083c0.011-0.002 0.023-0.002 0.035 0s0.022 0.008 0.032 0.015c0.009 0.007 0.017 0.016 0.023 0.026s0.009 0.021 0.011 0.033z"></path>
<path fill="#0f0f0f" style="fill: var(--color1, #0f0f0f)" d="M2.023 31.988c-0.123 0-0.279-0.026-0.463-0.108-0.202-0.089-0.396-0.285-0.748-0.641-0.199-0.201-0.446-0.451-0.772-0.759-0.063-0.059-0.047-0.16 0.005-0.224 0.145-0.178 0.517-0.602 0.853-0.706 0.014-0.004 0.028-0.006 0.042-0.004s0.028 0.006 0.040 0.014c0.012 0.007 0.023 0.017 0.031 0.029s0.014 0.025 0.017 0.039l0.070 0.361c0.006 0.034 0.019 0.066 0.038 0.094s0.043 0.053 0.072 0.072c0.028 0.019 0.059 0.032 0.092 0.038s0.067 0.006 0.1-0l0.409-0.083c0.017-0.003 0.034-0.003 0.051 0s0.032 0.011 0.046 0.021c0.014 0.010 0.025 0.023 0.034 0.038s0.014 0.031 0.015 0.048l0.019 0.184c0.038 0.358 0.161 0.702 0.36 1.003l0.155 0.234c0.011 0.016 0.017 0.035 0.019 0.054s-0.001 0.039-0.008 0.057l-0.005 0.013c-0.028 0.070-0.102 0.133-0.202 0.175-0.086 0.034-0.178 0.050-0.27 0.049zM0.929 29.623c-0.003 0-0.005 0-0.008 0.001-0.316 0.097-0.676 0.509-0.816 0.682-0.029 0.035-0.041 0.092-0.012 0.119 0.326 0.308 0.574 0.559 0.773 0.76 0.345 0.35 0.535 0.542 0.724 0.625 0.341 0.151 0.569 0.101 0.674 0.058 0.095-0.039 0.145-0.094 0.16-0.132l0.005-0.013c0.003-0.006 0.004-0.014 0.003-0.020s-0.003-0.014-0.007-0.019l-0.155-0.235c-0.205-0.311-0.333-0.666-0.372-1.037l-0.019-0.184c-0.001-0.006-0.003-0.013-0.006-0.018s-0.008-0.011-0.013-0.014c-0.005-0.004-0.011-0.006-0.017-0.008s-0.012-0.001-0.018-0l-0.409 0.082c-0.043 0.009-0.087 0.009-0.13 0s-0.084-0.025-0.12-0.050c-0.037-0.025-0.068-0.056-0.093-0.094s-0.041-0.079-0.050-0.122l-0.070-0.361c-0.001-0.003-0.002-0.007-0.004-0.009s-0.004-0.005-0.007-0.007c-0.004-0.002-0.009-0.004-0.013-0.003z"></path>
<path fill="#0f0f0f" style="fill: var(--color1, #0f0f0f)" d="M2.114 31.686c-0.002 0-0.004 0-0.006 0l-0.084-0.012c-0.281-0.042-0.541-0.174-0.742-0.377l-0.928-0.938c-0.004-0.004-0.007-0.008-0.009-0.013s-0.003-0.010-0.003-0.015c-0-0.005 0.001-0.010 0.003-0.015s0.005-0.009 0.008-0.013c0.004-0.004 0.008-0.007 0.013-0.008s0.010-0.003 0.015-0.003 0.010 0.001 0.015 0.003c0.005 0.002 0.009 0.005 0.012 0.009l0.928 0.938c0.189 0.19 0.434 0.315 0.699 0.354l0.084 0.012c0.009 0.002 0.018 0.007 0.024 0.014s0.009 0.017 0.008 0.027c-0.001 0.010-0.005 0.019-0.012 0.025s-0.016 0.010-0.026 0.011v-0z"></path>
<path fill="#0f0f0f" style="fill: var(--color1, #0f0f0f)" d="M6.209 18.44c0.73 0.203 1.182 0.327 1.182 0.327s-1.454 5.228-1.874 6.539c-0.381 1.188-2.881 3.774-3.325 4.299-0.046 0.054-0.176 0.109-0.176 0.109-0.125 0.030-0.256 0.022-0.376-0.024s-0.224-0.126-0.298-0.231c0 0-0.080-0.181-0.061-0.273l0.14-0.679c0.527-2.155 1.535-3.222 1.962-5.472 0.645-3.396 1.126-4.163 1.234-4.421 0.333-0.8 1.593-0.173 1.593-0.173z"></path>
<path fill="#0f0f0f" style="fill: var(--color1, #0f0f0f)" d="M8.629 18.536c0.129 1.226 0.052 3.342-0.066 4.297-0.327 2.631-2.496 6.332-2.895 7.084-0.025 0.047-0.061 0.088-0.105 0.118s-0.095 0.049-0.148 0.056c-0.308 0.035-0.422-0.041-0.579-0.122-0.055-0.030-0.101-0.074-0.133-0.127s-0.049-0.115-0.049-0.177c-0.054-2.577 0.494-4.784 1.062-6.19 0.219-0.542 0.459-3.627 0.429-4.739l2.483-0.199z"></path>
<path fill="#fff" style="fill: var(--color2, #fff)" d="M4.716 27.087c-0.002 0-0.005 0-0.007 0-0.010-0.002-0.019-0.008-0.025-0.016s-0.008-0.019-0.006-0.029c0.257-1.387 0.472-2.246 0.721-2.875 0.344-0.864 0.528-1.784 0.542-2.714l0.006-0.459c-0-0.005 0.001-0.010 0.003-0.015s0.005-0.009 0.008-0.012c0.004-0.004 0.008-0.006 0.013-0.008s0.010-0.003 0.015-0.002 0.020 0.004 0.027 0.012c0.007 0.007 0.011 0.017 0.011 0.027l-0.006 0.459c-0.014 0.94-0.2 1.869-0.548 2.741-0.247 0.623-0.461 1.479-0.717 2.86-0.002 0.009-0.006 0.017-0.013 0.022s-0.015 0.009-0.024 0.009z"></path>
<path fill="#fff" style="fill: var(--color2, #fff)" d="M11.203 13.272c0.038-0.071 0.070-0.144 0.096-0.22 0.014-0.029 0.019-0.061 0.016-0.093-0.019-0.165-0.087-0.571 0.027-0.727 0.192-0.262 0.455-0.114 0.455-0.114s0.121-0.244 0.275-0.152c0.119 0.070 0.234 0.225 0.214 0.465-0.028 0.327-0.083 0.639-0.429 0.826-0.067 0.036-0.12 0.094-0.15 0.165l-0.504-0.149z"></path>
<path fill="#0f0f0f" style="fill: var(--color1, #0f0f0f)" d="M11.707 13.46c-0.004 0-0.007-0.001-0.011-0.002l-0.504-0.149c-0.005-0.002-0.010-0.004-0.015-0.008s-0.008-0.008-0.010-0.014-0.003-0.011-0.003-0.017c0-0.006 0.002-0.011 0.004-0.016 0.037-0.068 0.068-0.14 0.093-0.213 0.001-0.003 0.002-0.006 0.003-0.008 0.010-0.022 0.014-0.046 0.011-0.070-0.002-0.018-0.005-0.040-0.008-0.063-0.026-0.202-0.069-0.54 0.042-0.691 0.167-0.227 0.386-0.173 0.47-0.14 0.029-0.047 0.090-0.13 0.173-0.155 0.023-0.007 0.047-0.009 0.071-0.006s0.047 0.012 0.067 0.024c0.061 0.037 0.259 0.18 0.232 0.501-0.027 0.326-0.085 0.66-0.449 0.857-0.060 0.032-0.106 0.083-0.133 0.146-0.003 0.007-0.008 0.012-0.014 0.016s-0.014 0.006-0.021 0.006zM11.258 13.248l0.428 0.127c0.035-0.065 0.088-0.118 0.152-0.152 0.331-0.179 0.382-0.478 0.409-0.795 0.023-0.276-0.143-0.397-0.195-0.428-0.011-0.007-0.024-0.012-0.037-0.014s-0.027-0.001-0.040 0.003c-0.068 0.020-0.127 0.113-0.144 0.147-0.002 0.005-0.006 0.009-0.009 0.012s-0.008 0.006-0.013 0.007c-0.005 0.002-0.010 0.002-0.015 0.002s-0.010-0.002-0.015-0.004c-0.009-0.005-0.236-0.127-0.405 0.103-0.093 0.126-0.051 0.458-0.028 0.636 0.003 0.024 0.006 0.045 0.008 0.064 0.004 0.038-0.002 0.077-0.017 0.112-0.021 0.063-0.047 0.124-0.078 0.182z"></path>
<path fill="#fff" style="fill: var(--color2, #fff)" d="M11.149 13.664l-0.5-0.52 0.262-0.23c0.014-0.013 0.032-0.022 0.050-0.027l0.034-0.009c0.021-0.005 0.040-0.016 0.055-0.031s0.026-0.034 0.032-0.055c0.006-0.023 0.019-0.044 0.037-0.059l1.948-1.715c0.016-0.014 0.033-0.026 0.052-0.035l0.588-0.29-0.301 0.555c-0.017 0.030-0.037 0.058-0.060 0.083l-1.775 1.885c-0.015 0.016-0.034 0.028-0.056 0.034l-0.005 0.001c-0.020 0.006-0.038 0.016-0.053 0.031s-0.025 0.033-0.031 0.053l-0.006 0.021c-0.005 0.019-0.015 0.036-0.029 0.050l-0.242 0.258z"></path>
<path fill="#0f0f0f" style="fill: var(--color1, #0f0f0f)" d="M11.149 13.702c-0.005-0-0.010-0.001-0.015-0.003s-0.009-0.005-0.013-0.009l-0.499-0.52c-0.004-0.004-0.006-0.008-0.008-0.013s-0.003-0.010-0.002-0.015c0-0.005 0.001-0.010 0.004-0.015s0.005-0.009 0.009-0.012l0.262-0.231c0.019-0.017 0.042-0.029 0.066-0.035l0.034-0.009c0.014-0.004 0.027-0.011 0.038-0.021s0.018-0.023 0.022-0.037c0.008-0.030 0.025-0.057 0.049-0.078l1.947-1.715c0.019-0.016 0.039-0.030 0.061-0.041l0.588-0.29c0.007-0.004 0.016-0.005 0.024-0.004s0.015 0.005 0.021 0.011c0.006 0.006 0.009 0.013 0.010 0.022s-0 0.016-0.004 0.024l-0.301 0.555c-0.018 0.033-0.040 0.064-0.066 0.091l-1.776 1.885c-0.020 0.021-0.045 0.037-0.073 0.044l-0.005 0.002c-0.014 0.004-0.026 0.011-0.036 0.021s-0.017 0.023-0.021 0.036l-0.006 0.020c-0.007 0.025-0.020 0.048-0.038 0.066l-0.244 0.258c-0.004 0.004-0.008 0.007-0.013 0.009s-0.010 0.003-0.015 0.003h0.001zM10.704 13.146l0.444 0.462 0.216-0.229c0.009-0.010 0.016-0.022 0.020-0.035l0.006-0.019c0.007-0.026 0.021-0.050 0.041-0.070s0.043-0.033 0.070-0.041l0.005-0.002c0.014-0.004 0.028-0.012 0.038-0.023l1.776-1.885c0.021-0.023 0.040-0.048 0.054-0.075l0.243-0.449-0.479 0.236c-0.016 0.008-0.031 0.018-0.045 0.030l-1.947 1.716c-0.012 0.011-0.021 0.025-0.025 0.040-0.007 0.027-0.022 0.052-0.042 0.072s-0.045 0.034-0.073 0.041l-0.034 0.009c-0.013 0.003-0.025 0.009-0.035 0.018l-0.232 0.205z"></path>
<path fill="#0f0f0f" style="fill: var(--color1, #0f0f0f)" d="M13.226 11.172c-0.010-0-0.020-0.004-0.027-0.011l-0.133-0.13c-0.004-0.004-0.007-0.008-0.009-0.012s-0.003-0.010-0.003-0.015c-0-0.005 0.001-0.010 0.003-0.015s0.005-0.009 0.008-0.013c0.004-0.004 0.008-0.007 0.013-0.009s0.010-0.003 0.015-0.003 0.010 0.001 0.015 0.003c0.005 0.002 0.009 0.005 0.013 0.009l0.133 0.13c0.005 0.005 0.009 0.012 0.011 0.020s0.001 0.015-0.002 0.022c-0.003 0.007-0.008 0.013-0.014 0.017s-0.014 0.007-0.021 0.007z"></path>
<path fill="#fff" style="fill: var(--color2, #fff)" d="M10.214 13.549l0.443-0.415 0.496 0.529-0.443 0.415c-0.038 0.036-0.089 0.056-0.142 0.055s-0.103-0.023-0.14-0.061l-0.227-0.242c-0.018-0.019-0.031-0.042-0.040-0.066s-0.013-0.051-0.012-0.077 0.007-0.052 0.018-0.075c0.011-0.024 0.027-0.045 0.046-0.063z"></path>
<path fill="#0f0f0f" style="fill: var(--color1, #0f0f0f)" d="M10.571 14.171c-0.032 0-0.063-0.006-0.093-0.019s-0.056-0.031-0.078-0.054l-0.227-0.242c-0.021-0.022-0.037-0.049-0.048-0.077s-0.016-0.059-0.015-0.090c0.001-0.032 0.008-0.063 0.022-0.092s0.032-0.055 0.055-0.077l0.443-0.415c0.004-0.003 0.008-0.006 0.013-0.008s0.010-0.003 0.015-0.002c0.005 0 0.010 0.001 0.015 0.003s0.009 0.005 0.012 0.009l0.495 0.529c0.004 0.004 0.006 0.008 0.008 0.013s0.003 0.010 0.002 0.015-0.001 0.010-0.003 0.015c-0.002 0.005-0.005 0.009-0.009 0.012l-0.443 0.415c-0.045 0.042-0.104 0.065-0.165 0.066zM10.655 13.188l-0.415 0.389c-0.016 0.015-0.029 0.032-0.038 0.052s-0.014 0.041-0.015 0.063c-0.001 0.020 0.002 0.041 0.010 0.060s0.018 0.037 0.032 0.052l0.227 0.242c0.030 0.030 0.070 0.048 0.113 0.049s0.083-0.015 0.114-0.045l0.415-0.389-0.443-0.473z"></path>
<path fill="#0f0f0f" style="fill: var(--color1, #0f0f0f)" d="M10.568 13.919c-0.005-0-0.011-0.001-0.016-0.003s-0.009-0.005-0.013-0.009c-0.003-0.004-0.006-0.008-0.008-0.013s-0.002-0.010-0.002-0.015c0-0.005 0.002-0.010 0.004-0.014s0.005-0.009 0.009-0.012l0.246-0.223c0.004-0.003 0.008-0.006 0.013-0.008s0.010-0.002 0.015-0.002c0.005 0 0.010 0.002 0.014 0.004s0.009 0.005 0.012 0.009c0.003 0.004 0.006 0.008 0.008 0.013s0.002 0.010 0.002 0.015c-0 0.005-0.002 0.010-0.004 0.015s-0.005 0.009-0.009 0.012l-0.246 0.223c-0.007 0.006-0.016 0.010-0.026 0.010z"></path>
<path fill="#fff" style="fill: var(--color2, #fff)" d="M11.299 13.052c0 0 0.066-0.354 0.299-0.582 0.143-0.14 0.275-0.745 0.546-0.455 0.058 0.063 0.099 0.101 0.131 0.202 0.017 0.055 0.042 0.192 0.035 0.26-0.028 0.327-0.109 0.593-0.456 0.779-0.067 0.036-0.12 0.094-0.149 0.164-0.019 0.045-0.421 2.83-0.998 3.17-0.657 0.386-1.8-1.083-1.8-1.083l0.994-1.046c0 0 0.458 0.572 0.523 0.599 0.051 0.020 0.875-2.009 0.875-2.009z"></path>
<path fill="#0f0f0f" style="fill: var(--color1, #0f0f0f)" d="M10.462 16.694c-0.671 0-1.543-1.108-1.585-1.162-0.006-0.007-0.009-0.016-0.008-0.026s0.004-0.018 0.011-0.025l0.993-1.047c0.004-0.004 0.008-0.007 0.013-0.009s0.011-0.003 0.016-0.003c0.005 0 0.011 0.002 0.016 0.004s0.009 0.006 0.013 0.010c0.193 0.241 0.412 0.5 0.488 0.571 0.105-0.18 0.562-1.274 0.843-1.967 0.008-0.042 0.081-0.376 0.309-0.599 0.037-0.036 0.077-0.115 0.119-0.198 0.081-0.16 0.164-0.325 0.292-0.343 0.063-0.009 0.127 0.021 0.19 0.088l0.012 0.012c0.053 0.057 0.095 0.102 0.128 0.204 0.019 0.060 0.043 0.202 0.037 0.275-0.030 0.348-0.122 0.619-0.476 0.81-0.059 0.032-0.106 0.083-0.132 0.145-0.002 0.006-0.012 0.065-0.023 0.133-0.313 1.825-0.647 2.853-0.992 3.055-0.081 0.047-0.172 0.071-0.265 0.070zM8.959 15.51c0.156 0.192 1.156 1.384 1.73 1.047 0.223-0.131 0.569-0.758 0.954-3.002 0.022-0.126 0.024-0.14 0.028-0.149 0.033-0.078 0.092-0.143 0.166-0.183 0.325-0.175 0.407-0.416 0.436-0.749 0.005-0.061-0.017-0.192-0.035-0.245-0.028-0.086-0.061-0.121-0.111-0.175l-0.012-0.013c-0.045-0.048-0.087-0.070-0.123-0.065-0.087 0.013-0.169 0.173-0.234 0.302-0.045 0.089-0.087 0.173-0.134 0.219-0.221 0.216-0.288 0.558-0.288 0.561s-0.001 0.005-0.002 0.007c-0.002 0.005-0.203 0.501-0.411 0.994-0.425 1.011-0.458 1.025-0.482 1.035-0.010 0.004-0.022 0.004-0.032 0-0.063-0.026-0.36-0.388-0.511-0.577l-0.94 0.992z"></path>
<path fill="#fff" style="fill: var(--color2, #fff)" d="M2.698 19.55c-0.019 0.052 0.028 0.157 0.022 0.201-0.024 0.159-0.26 0.382-0.433 0.526-0.068 0.057-0.123 0.129-0.161 0.209s-0.058 0.169-0.058 0.258c0 0.043 0.002 0.089 0.005 0.139 0.006 0.115-0.031 0.175-0.080 0.206-0.097 0.061-0.223-0.010-0.236-0.125-0.027-0.251-0.071-0.769-0.001-0.953 0.046-0.12 0.194-0.278 0.333-0.407 0.067-0.063 0.121-0.14 0.157-0.225s0.055-0.177 0.054-0.27c-0.003-0.649 0.356-2.543 0.778-3.873l1.054 0.587c0 0-0.741 1.758-1.433 3.726z"></path>
<path fill="#0f0f0f" style="fill: var(--color1, #0f0f0f)" d="M1.915 21.15c-0.029-0-0.058-0.007-0.084-0.020-0.031-0.015-0.058-0.038-0.078-0.066s-0.032-0.061-0.036-0.096c-0.030-0.282-0.070-0.784 0.001-0.971 0.040-0.106 0.156-0.248 0.343-0.422 0.063-0.060 0.114-0.132 0.148-0.212s0.052-0.167 0.051-0.254c-0.003-0.637 0.344-2.512 0.779-3.885 0.002-0.005 0.005-0.010 0.009-0.015s0.009-0.007 0.014-0.009c0.005-0.002 0.011-0.003 0.017-0.003s0.011 0.002 0.016 0.005l1.054 0.587c0.008 0.005 0.014 0.012 0.018 0.021s0.003 0.019-0.001 0.027c-0.007 0.018-0.749 1.779-1.432 3.725-0.007 0.020 0.004 0.066 0.011 0.1 0.009 0.030 0.013 0.062 0.012 0.094-0.026 0.168-0.257 0.392-0.446 0.55-0.064 0.053-0.116 0.12-0.151 0.196s-0.054 0.158-0.054 0.241c0 0.042 0.002 0.088 0.005 0.137 0.006 0.115-0.027 0.196-0.098 0.241-0.029 0.018-0.063 0.028-0.097 0.028zM3.1 15.294c-0.426 1.362-0.764 3.192-0.762 3.816 0.001 0.098-0.019 0.195-0.057 0.285s-0.095 0.171-0.166 0.238c-0.176 0.163-0.288 0.299-0.324 0.393-0.048 0.126-0.047 0.467 0.004 0.935 0.002 0.021 0.010 0.042 0.022 0.060s0.029 0.032 0.048 0.041c0.017 0.009 0.035 0.013 0.054 0.012s0.037-0.006 0.053-0.016c0.046-0.029 0.066-0.086 0.062-0.172-0.002-0.049-0.005-0.097-0.005-0.141 0-0.095 0.022-0.188 0.062-0.274s0.099-0.161 0.171-0.222c0.253-0.212 0.402-0.39 0.419-0.503-0.001-0.022-0.005-0.044-0.011-0.065-0.011-0.048-0.024-0.102-0.009-0.143 0.635-1.805 1.318-3.451 1.422-3.697l-0.983-0.547z"></path>
<path fill="#fff" style="fill: var(--color2, #fff)" d="M4.975 12.614c1.112-0.358 3.014-0.178 3.591 0.25 0.75 0.556 1.458 1.454 1.736 1.826 0.077 0.103 0.472-0.723 0.472-0.723l0.969 0.452c0 0-0.576 2.673-1.256 2.615-0.767-0.065-1.985-1.158-1.963-0.93 0.036 0.368 0.089 1.264 0.124 1.904 0.021 0.382 0.046 0.764 0.076 1.145 0.070 0.907 0.191 3.157-0.024 5.958l-0.87 0.115c0 0-3.798 0.385-5.409-1.423-0.081-0.091 1.644-5.158 1.665-5.281 0.105-0.612 0.712-1.905 0.467-2.683-0.028-0.087-1.479 3.088-1.479 3.088l-0.872-0.038c0 0 0.22-1.997 0.68-3.625 0.264-0.936 0.893-2.264 2.093-2.65z"></path>
<path fill="#0f0f0f" style="fill: var(--color1, #0f0f0f)" d="M6.972 25.299c-0.416 0.001-0.833-0.022-1.247-0.068-1.057-0.119-2.493-0.459-3.333-1.402-0.026-0.029-0.052-0.059 0.426-1.556 0.267-0.835 0.609-1.868 0.859-2.621 0.203-0.612 0.363-1.097 0.37-1.134 0.031-0.183 0.105-0.42 0.191-0.694 0.19-0.61 0.425-1.364 0.298-1.897-0.185 0.327-0.93 1.929-1.428 3.019-0.003 0.007-0.008 0.013-0.015 0.017s-0.014 0.006-0.022 0.006l-0.872-0.038c-0.005-0-0.010-0.002-0.015-0.004s-0.009-0.006-0.012-0.010c-0.003-0.004-0.006-0.009-0.007-0.014s-0.002-0.010-0.001-0.015c0.002-0.020 0.227-2.019 0.682-3.631 0.187-0.66 0.767-2.242 2.119-2.678 1.156-0.372 3.054-0.168 3.626 0.256 0.749 0.555 1.457 1.451 1.735 1.824 0.070-0.046 0.266-0.394 0.415-0.706 0.004-0.009 0.012-0.016 0.022-0.019s0.020-0.003 0.029 0.002l0.969 0.452c0.008 0.004 0.014 0.010 0.018 0.018s0.005 0.017 0.003 0.025c-0.024 0.109-0.578 2.647-1.273 2.647-0.008 0-0.016 0-0.024 0-0.461-0.039-1.058-0.426-1.494-0.709-0.17-0.11-0.36-0.233-0.426-0.25 0.036 0.376 0.087 1.234 0.123 1.893 0.020 0.367 0.045 0.741 0.076 1.144 0.065 0.851 0.193 3.135-0.024 5.963-0.001 0.009-0.004 0.017-0.011 0.023s-0.014 0.010-0.023 0.012l-0.87 0.115c-0.007-0-0.348 0.033-0.864 0.033zM2.457 23.786c1.584 1.764 5.332 1.407 5.37 1.403l0.837-0.111c0.213-2.809 0.087-5.075 0.022-5.921-0.031-0.404-0.056-0.778-0.076-1.146-0.037-0.668-0.088-1.54-0.124-1.903-0.002-0.012-0.001-0.025 0.004-0.036s0.013-0.021 0.024-0.028c0.061-0.037 0.18 0.037 0.518 0.255 0.405 0.262 1.018 0.66 1.459 0.697 0.006 0 0.013 0 0.019 0 0.518 0 1.027-1.81 1.191-2.556l-0.907-0.423c-0.115 0.238-0.356 0.709-0.468 0.72-0.010 0.001-0.021-0.001-0.030-0.005s-0.018-0.011-0.024-0.019c-0.27-0.362-0.98-1.264-1.727-1.819-0.547-0.405-2.441-0.604-3.557-0.245-1.317 0.424-1.885 1.977-2.069 2.625-0.419 1.479-0.641 3.285-0.675 3.578l0.806 0.035c0.062-0.136 0.382-0.834 0.704-1.523 0.734-1.569 0.76-1.568 0.8-1.566 0.008 0.001 0.016 0.004 0.022 0.009s0.011 0.012 0.014 0.020c0.177 0.56-0.075 1.368-0.277 2.017-0.085 0.271-0.157 0.506-0.188 0.684-0.006 0.037-0.126 0.398-0.373 1.145-0.453 1.37-1.293 3.903-1.294 4.112z"></path>
<path fill="#0f0f0f" style="fill: var(--color1, #0f0f0f)" d="M8.14 23.775c-0.335 0-0.591-0.212-0.705-0.598-0.14-0.471 0.070-1.53 0.078-1.574 0.001-0.005 0.003-0.010 0.006-0.014s0.007-0.008 0.011-0.011c0.004-0.003 0.009-0.005 0.014-0.006s0.010-0.001 0.015 0c0.006 0.001 0.599 0.135 0.856-0.034 0.004-0.003 0.009-0.005 0.014-0.006s0.010-0.001 0.015-0c0.005 0.001 0.010 0.003 0.014 0.006s0.008 0.007 0.011 0.011c0.003 0.004 0.005 0.009 0.006 0.014s0.001 0.010-0.001 0.015c-0.001 0.005-0.003 0.010-0.007 0.014s-0.007 0.008-0.012 0.010c-0.247 0.162-0.734 0.081-0.876 0.052-0.036 0.196-0.192 1.096-0.072 1.499 0.126 0.426 0.428 0.615 0.826 0.518 0.010-0.001 0.019 0.001 0.027 0.006s0.014 0.014 0.016 0.023c0.002 0.009 0.001 0.019-0.004 0.028s-0.012 0.015-0.022 0.018c-0.070 0.017-0.141 0.026-0.213 0.026z"></path>
<path fill="#fff" style="fill: var(--color2, #fff)" d="M8.229 10.457c0.094 0.033 0.138 0.229 0.153 0.328 0.049 0.328-0.12 1.097-0.355 1.147-0.232 0.050-0.212-0.056-0.388 0.043-0.141 0.079-0.159 0.224-0.223 0.537-0.004 0.020 0.401 0.135 0.408 0.154 0.016 0.043-0.234 0.574-1.014 0.475-0.739-0.094-0.842-0.6-0.844-0.636-0.002-0.021 0.558-0.060 0.567-0.081 0.129-0.268 0.226-0.734 0.226-0.734s0.48-1.575 1.471-1.233z"></path>
<path fill="#0f0f0f" style="fill: var(--color1, #0f0f0f)" d="M6.996 13.191c-0.064-0-0.128-0.004-0.191-0.013-0.797-0.101-0.877-0.665-0.878-0.671-0.004-0.048 0.015-0.050 0.324-0.083 0.092-0.010 0.215-0.023 0.254-0.031 0.122-0.262 0.215-0.708 0.216-0.713 0.012-0.041 0.288-0.927 0.861-1.22 0.208-0.107 0.43-0.121 0.66-0.042 0.114 0.039 0.161 0.242 0.178 0.359 0.049 0.329-0.119 1.134-0.385 1.191-0.071 0.018-0.145 0.020-0.217 0.005-0.048-0.009-0.077-0.014-0.161 0.034-0.114 0.064-0.138 0.182-0.19 0.44l-0.009 0.045c0.038 0.016 0.126 0.045 0.187 0.065 0.198 0.066 0.205 0.070 0.214 0.094 0.016 0.042-0.036 0.135-0.090 0.204-0.085 0.108-0.318 0.335-0.774 0.335zM6.010 12.531c0.029 0.109 0.175 0.492 0.804 0.572 0.404 0.052 0.652-0.072 0.789-0.185 0.112-0.093 0.164-0.19 0.179-0.23-0.034-0.013-0.105-0.037-0.16-0.055-0.228-0.076-0.252-0.084-0.244-0.128l0.014-0.071c0.055-0.273 0.083-0.41 0.228-0.492 0.108-0.061 0.156-0.052 0.212-0.042 0.062 0.013 0.126 0.011 0.188-0.005 0.192-0.041 0.377-0.759 0.325-1.104-0.024-0.16-0.075-0.28-0.127-0.297-0.209-0.072-0.411-0.059-0.6 0.037-0.544 0.278-0.819 1.161-0.822 1.17-0.003 0.016-0.098 0.471-0.228 0.741-0.013 0.026-0.014 0.029-0.308 0.060-0.085 0.009-0.197 0.021-0.249 0.030z"></path>
<path fill="#0f0f0f" style="fill: var(--color1, #0f0f0f)" d="M7.782 11.166h-0.005c-0.152-0.021-0.254-0.227-0.264-0.414-0.008-0.154 0.046-0.261 0.145-0.286 0.166-0.042 0.299 0.208 0.304 0.218 0.003 0.004 0.005 0.010 0.006 0.015s0.001 0.011-0.001 0.016c-0.001 0.005-0.004 0.010-0.007 0.014s-0.008 0.008-0.012 0.010-0.010 0.004-0.015 0.004c-0.005 0-0.011-0.001-0.016-0.002s-0.010-0.005-0.013-0.009c-0.004-0.004-0.007-0.008-0.009-0.013-0.030-0.058-0.128-0.202-0.218-0.179-0.071 0.017-0.092 0.119-0.087 0.207 0.008 0.153 0.090 0.327 0.198 0.342 0.010 0.001 0.018 0.006 0.025 0.014s0.009 0.017 0.008 0.027-0.005 0.019-0.012 0.025c-0.007 0.007-0.016 0.010-0.026 0.010l0 0z"></path>
<path fill="#0f0f0f" style="fill: var(--color1, #0f0f0f)" d="M8.59 10.14c0.042 0.23-0.188 0.283-0.371 0.426-0.189 0.148-0.182 0.143-0.266 0.187-0.056 0.029-0.078-0.19-0.232-0.221-0.114-0.023-0.143 0.074-0.168 0.102-0.1 0.112 0.922 2.365 0.403 3.742-0.331 0.878-1.182 1.268-3.072 1.093-1.582-0.146-2.001-1.753-1.721-2.343 0.728-1.53 2.247-0.125 2.605-2.406 0.251-1.599 1.742-2.311 2.653-1.014 0.092 0.131 0.143 0.289 0.168 0.435z"></path>
<path fill="#0f0f0f" style="fill: var(--color1, #0f0f0f)" d="M5.017 2.704c0.305 0 0.553-0.248 0.553-0.554s-0.248-0.554-0.553-0.554c-0.305 0-0.553 0.248-0.553 0.554s0.248 0.554 0.553 0.554z"></path>
<path fill="#0f0f0f" style="fill: var(--color1, #0f0f0f)" d="M9.175 5.621c-0.008 0-0.015-0.002-0.021-0.006s-0.011-0.010-0.014-0.017c-0.003-0.007-0.004-0.015-0.002-0.022s0.005-0.014 0.010-0.020l0.21-0.211c0.004-0.004 0.008-0.007 0.012-0.009s0.010-0.003 0.015-0.003c0.005-0 0.010 0.001 0.015 0.003s0.009 0.005 0.013 0.008c0.004 0.004 0.006 0.008 0.008 0.013s0.003 0.010 0.003 0.015c-0 0.005-0.001 0.010-0.003 0.015s-0.005 0.009-0.009 0.013l-0.21 0.211c-0.004 0.004-0.008 0.006-0.012 0.008s-0.010 0.003-0.015 0.003z"></path>
<path fill="#0f0f0f" style="fill: var(--color1, #0f0f0f)" d="M8.686 6.112c-0.008 0-0.015-0.002-0.021-0.006s-0.011-0.010-0.014-0.017-0.004-0.015-0.002-0.022c0.001-0.007 0.005-0.014 0.010-0.020l0.21-0.211c0.007-0.007 0.017-0.011 0.027-0.011s0.020 0.004 0.027 0.011c0.007 0.007 0.011 0.017 0.011 0.027s-0.004 0.020-0.011 0.027l-0.21 0.211c-0.004 0.004-0.008 0.006-0.012 0.008s-0.010 0.003-0.015 0.003z"></path>
<path fill="#0f0f0f" style="fill: var(--color1, #0f0f0f)" d="M8.895 5.621c-0.005 0-0.010-0.001-0.015-0.003s-0.009-0.005-0.012-0.008l-0.21-0.211c-0.007-0.007-0.011-0.017-0.010-0.027s0.004-0.020 0.011-0.027 0.017-0.011 0.027-0.011c0.010-0 0.020 0.004 0.027 0.011l0.21 0.211c0.005 0.005 0.009 0.012 0.010 0.020s0.001 0.015-0.002 0.022-0.008 0.013-0.014 0.017c-0.006 0.004-0.014 0.006-0.021 0.006z"></path>
<path fill="#0f0f0f" style="fill: var(--color1, #0f0f0f)" d="M9.386 6.112c-0.005 0-0.010-0.001-0.015-0.003s-0.009-0.005-0.012-0.008l-0.21-0.211c-0.007-0.007-0.011-0.017-0.010-0.027s0.004-0.020 0.011-0.027c0.007-0.007 0.017-0.011 0.027-0.011s0.020 0.004 0.027 0.011l0.21 0.211c0.005 0.005 0.009 0.012 0.010 0.020s0.001 0.015-0.002 0.022c-0.003 0.007-0.008 0.013-0.014 0.017s-0.014 0.007-0.021 0.007z"></path>
<path fill="#0f0f0f" style="fill: var(--color1, #0f0f0f)" d="M11.83 2.947c-0.005 0-0.010-0.001-0.015-0.003s-0.009-0.005-0.012-0.008-0.006-0.008-0.008-0.013c-0.002-0.005-0.003-0.010-0.003-0.015v-0.297c0-0.010 0.004-0.020 0.011-0.027s0.017-0.011 0.027-0.011 0.020 0.004 0.027 0.011c0.007 0.007 0.011 0.017 0.011 0.027v0.297c0 0.010-0.004 0.020-0.011 0.027s-0.017 0.011-0.027 0.011z"></path>
<path fill="#0f0f0f" style="fill: var(--color1, #0f0f0f)" d="M11.83 3.642c-0.005 0-0.010-0.001-0.015-0.003s-0.009-0.005-0.012-0.008-0.006-0.008-0.008-0.012c-0.002-0.005-0.003-0.010-0.003-0.015v-0.298c0-0.010 0.004-0.020 0.011-0.027s0.017-0.011 0.027-0.011 0.020 0.004 0.027 0.011c0.007 0.007 0.011 0.017 0.011 0.027v0.298c-0 0.010-0.004 0.020-0.011 0.027s-0.017 0.011-0.027 0.011z"></path>
<path fill="#0f0f0f" style="fill: var(--color1, #0f0f0f)" d="M11.632 3.145h-0.298c-0.010 0-0.020-0.004-0.027-0.011s-0.011-0.017-0.011-0.027 0.004-0.020 0.011-0.027c0.007-0.007 0.017-0.011 0.027-0.011h0.298c0.010 0 0.020 0.004 0.027 0.011s0.011 0.017 0.011 0.027-0.004 0.020-0.011 0.027c-0.007 0.007-0.017 0.011-0.027 0.011z"></path>
<path fill="#0f0f0f" style="fill: var(--color1, #0f0f0f)" d="M12.325 3.145h-0.298c-0.010 0-0.020-0.004-0.027-0.011s-0.011-0.017-0.011-0.027 0.004-0.020 0.011-0.027c0.007-0.007 0.017-0.011 0.027-0.011h0.298c0.010 0 0.020 0.004 0.027 0.011s0.011 0.017 0.011 0.027c0 0.010-0.004 0.020-0.011 0.027s-0.017 0.011-0.027 0.011z"></path>
<path fill="#0f0f0f" style="fill: var(--color1, #0f0f0f)" d="M8.489 2.687c0.032-0.014 0.066-0.022 0.1-0.022s0.069 0.006 0.101 0.018c0.032 0.013 0.062 0.032 0.086 0.056s0.044 0.053 0.058 0.085c0.028 0.065 0.030 0.138 0.005 0.204s-0.075 0.12-0.139 0.149c-0.032 0.014-0.066 0.022-0.1 0.023s-0.069-0.005-0.101-0.018-0.062-0.032-0.086-0.056c-0.025-0.024-0.044-0.053-0.058-0.085-0.028-0.065-0.030-0.138-0.005-0.204s0.075-0.12 0.139-0.149z"></path>
</symbol>
</defs>
</svg>
