<svg width="300" height="304" fill="none" xmlns="http://www.w3.org/2000/svg"><g clip-path="url(#a)"><path d="M46.348 287.388c52.589 25.948 132.481 22.901 189.988-24.446 5.925-4.877 22.094-18.856 37.024-39.681H127.91a59.294 59.294 0 0 0-41.991 17.442 59.293 59.293 0 0 1-41.992 17.443H8.217c10.287 15.489 26.884 23.682 38.131 29.242z" fill="#fff"/><path d="M120.174 304c-26.612 0-52.335-5.605-73.988-16.291-11.121-5.482-27.93-13.788-38.271-29.352a.366.366 0 0 1 .303-.57h35.709a58.458 58.458 0 0 0 22.6-4.476 58.626 58.626 0 0 0 19.135-12.863 59.341 59.341 0 0 1 19.372-13.022 59.21 59.21 0 0 1 22.877-4.531h145.458a.362.362 0 0 1 .189.055.364.364 0 0 1 .107.525c-14.033 19.571-29.26 33.305-37.088 39.749-27.122 22.328-60.678 36.088-97.041 39.791-6.433.655-12.896.984-19.362.985zm-73.665-16.944c49.7 24.531 130.785 24.027 189.602-24.393 7.723-6.358 22.673-19.835 36.542-39.038h-144.75a58.473 58.473 0 0 0-22.599 4.475 58.624 58.624 0 0 0-19.136 12.862 59.36 59.36 0 0 1-19.373 13.023 59.197 59.197 0 0 1-22.878 4.531H8.907c10.262 15.041 26.687 23.148 37.602 28.54z" fill="#0F0F0F"/><path d="M299.636 160.588h-40.709v-54.422h39.64a121.986 121.986 0 0 0-2.153-7.02h-37.487V44.722h1.628a401.28 401.28 0 0 0-1.628-1.495v-.012a163.06 163.06 0 0 0-4.364-3.8l-.037-.03a159.585 159.585 0 0 0-2.598-2.14v.463H214.72V14.604a184.063 184.063 0 0 0-6.999-2.974v26.08h-37.208V1.318c-2.345-.372-4.678-.69-6.999-.954V37.71h-37.207V.47a180.49 180.49 0 0 0-6.999.907V224.83h6.999v-57.214h37.207v57.22h6.999v-57.22h37.208v57.22h6.999v-57.22h37.208v57.22h6.999v-57.22h40.709v-7.027zM251.928 44.723v54.422H214.72V44.724h37.208zm-44.207 0v54.422h-37.208V44.724h37.208zm-44.207 0v54.422h-37.207V44.724h37.207zm-37.207 115.865v-54.422h37.207v54.422h-37.207zm44.206 0v-54.422h37.208v54.422h-37.208zm44.207 0v-54.422h37.208v54.422H214.72z" fill="#fff"/><path d="M258.927 225.196h-6.999a.372.372 0 0 1-.259-.108.37.37 0 0 1-.106-.259v-56.853h-36.477v56.853a.368.368 0 0 1-.366.367h-6.999a.372.372 0 0 1-.258-.108.354.354 0 0 1-.079-.119.354.354 0 0 1-.028-.14v-56.853h-36.479v56.853a.353.353 0 0 1-.106.259.363.363 0 0 1-.258.108h-6.999a.366.366 0 0 1-.366-.367v-56.853h-36.477v56.853a.37.37 0 0 1-.365.367h-6.999a.362.362 0 0 1-.258-.108.365.365 0 0 1-.108-.259V1.377a.367.367 0 0 1 .312-.364c2.327-.348 4.687-.65 7.014-.907a.362.362 0 0 1 .372.215.381.381 0 0 1 .032.15v36.866h36.477V.366a.366.366 0 0 1 .254-.35.372.372 0 0 1 .152-.016c2.264.254 4.624.577 7.015.955a.363.363 0 0 1 .308.362v36.02h36.476V11.628a.368.368 0 0 1 .323-.363.363.363 0 0 1 .174.023c2.261.902 4.619 1.904 7.012 2.979a.374.374 0 0 1 .217.332v22.738h36.478v-.086a.359.359 0 0 1 .207-.332.356.356 0 0 1 .385.045c.792.636 1.62 1.317 2.606 2.144l.034.028a156.162 156.162 0 0 1 4.376 3.811.52.52 0 0 1 .055.062c.529.478 1.054.96 1.576 1.445a.364.364 0 0 1 .09.402.366.366 0 0 1-.34.232h-1.26v53.69h37.123a.366.366 0 0 1 .346.248 118.76 118.76 0 0 1 2.153 7.042.363.363 0 0 1-.19.426.353.353 0 0 1-.162.037h-39.263v53.692h40.342c.048 0 .096.009.14.027a.368.368 0 0 1 .225.339v7.026a.378.378 0 0 1-.106.26.372.372 0 0 1-.259.108h-40.342v56.852a.367.367 0 0 1-.366.361zm-6.633-.734h6.268v-56.847a.375.375 0 0 1 .106-.259.372.372 0 0 1 .259-.108h40.344v-6.292h-40.344a.372.372 0 0 1-.259-.108.375.375 0 0 1-.106-.259v-54.423a.371.371 0 0 1 .106-.259.364.364 0 0 1 .259-.107h39.16a123.807 123.807 0 0 0-1.933-6.287h-37.227a.364.364 0 0 1-.365-.367V44.723a.373.373 0 0 1 .106-.259.37.37 0 0 1 .259-.106h.69c-.31-.286-.623-.57-.936-.853a.324.324 0 0 1-.053-.061 151.518 151.518 0 0 0-4.306-3.743l-.039-.031a168.92 168.92 0 0 0-2.086-1.726.355.355 0 0 1-.276.126H214.72a.362.362 0 0 1-.338-.225.356.356 0 0 1-.028-.14V14.84a179.588 179.588 0 0 0-6.267-2.67V37.71a.374.374 0 0 1-.107.26.37.37 0 0 1-.259.106h-37.208a.366.366 0 0 1-.366-.366V1.631a155.99 155.99 0 0 0-6.269-.853v36.931a.355.355 0 0 1-.106.26.365.365 0 0 1-.258.106h-37.208a.366.366 0 0 1-.366-.366V.881c-2.081.232-4.186.506-6.268.812V224.46h6.268v-56.845a.366.366 0 0 1 .366-.367h37.208a.372.372 0 0 1 .258.108.354.354 0 0 1 .106.259v56.847h6.269v-56.847a.37.37 0 0 1 .366-.367h37.208a.366.366 0 0 1 .366.367v56.847h6.267v-56.847a.365.365 0 0 1 .366-.367h37.208a.366.366 0 0 1 .366.367v56.847zm-.366-63.506H214.72a.366.366 0 0 1-.366-.367v-54.423c0-.048.009-.096.028-.14a.354.354 0 0 1 .198-.198.354.354 0 0 1 .14-.028h37.208c.047 0 .095.009.139.028a.372.372 0 0 1 .227.338v54.423a.366.366 0 0 1-.366.367zm-36.842-.733h36.477v-53.69h-36.477v53.69zm-7.365.733h-37.208a.366.366 0 0 1-.366-.367v-54.423a.372.372 0 0 1 .107-.259.364.364 0 0 1 .259-.107h37.208a.364.364 0 0 1 .366.366v54.423a.37.37 0 0 1-.366.367zm-36.844-.733h36.476v-53.69h-36.476v53.69zm-7.363.733h-37.208a.366.366 0 0 1-.366-.367v-54.423a.372.372 0 0 1 .108-.259.36.36 0 0 1 .258-.107h37.208a.36.36 0 0 1 .364.366v54.423a.356.356 0 0 1-.106.259.372.372 0 0 1-.258.108zm-36.843-.733h36.477v-53.69h-36.477v53.69zm125.257-60.717H214.72a.367.367 0 0 1-.366-.367V44.723a.358.358 0 0 1 .226-.338.362.362 0 0 1 .14-.027h37.208a.36.36 0 0 1 .258.106.375.375 0 0 1 .108.259v54.423a.365.365 0 0 1-.366.36zm-36.842-.733h36.477V45.09h-36.477v53.683zm-7.365.733h-37.208a.367.367 0 0 1-.366-.367V44.723a.375.375 0 0 1 .107-.259.368.368 0 0 1 .259-.106h37.208a.366.366 0 0 1 .366.365v54.423a.367.367 0 0 1-.366.36zm-36.844-.733h36.476V45.09h-36.476v53.683zm-7.363.733h-37.208a.367.367 0 0 1-.366-.367V44.723a.375.375 0 0 1 .108-.259.363.363 0 0 1 .258-.106h37.208a.362.362 0 0 1 .364.365v54.423a.365.365 0 0 1-.364.36zm-36.843-.733h36.477V45.09h-36.477v53.683z" fill="#0F0F0F"/><path d="M130.376 25.553c-.236 1.674-.615 4.78-.646 7.567a3.45 3.45 0 0 0 .848 2.294 3.432 3.432 0 0 0 2.153 1.15c4.862.63 15.899 1.32 25.283.46.644-.059 1.78-.532 2.098-2.16 1.062-5.439-8.317-6.771-18.6-10.718a1.104 1.104 0 0 0-1.17.24l-1.108 1.084a3.816 3.816 0 0 1-4.175.779l-3.373-1.45a.945.945 0 0 0-1.31.754z" fill="#0F0F0F"/><path d="M130.354 32.624s0 .273-.008.402c-.007.81.283 1.594.814 2.204a3.296 3.296 0 0 0 2.068 1.106c4.665.603 15.25 1.264 24.266.438.618-.056 1.709-.51 2.014-2.065.054-.44.066-.886.035-1.329l-.64.032a184.97 184.97 0 0 1-27.327-.665l-1.222-.123z" fill="#fff"/><path d="M148.1 37.532c-6.061 0-11.716-.419-14.919-.831a3.659 3.659 0 0 1-2.296-1.228 3.678 3.678 0 0 1-.903-2.448v-.406a.36.36 0 0 1 .4-.357l1.229.121c9.061.891 18.175 1.113 27.268.665l.639-.032a.368.368 0 0 1 .384.341c.033.478.018.957-.043 1.432-.315 1.611-1.456 2.277-2.338 2.359-3.056.272-6.292.384-9.421.384zm-17.39-4.504c-.006.72.252 1.417.724 1.959a2.925 2.925 0 0 0 1.838.981c4.825.625 15.247 1.256 24.181.437.228-.02 1.381-.204 1.687-1.769.041-.291.056-.586.045-.88l-.272.013c-9.129.452-18.278.23-27.375-.664l-.828-.077z" fill="#0F0F0F"/><path d="M143.922 30.427a.368.368 0 0 1-.359-.437.367.367 0 0 1 .099-.188l3.464-3.488a.367.367 0 0 1 .503.013.367.367 0 0 1 .016.503l-3.463 3.489a.37.37 0 0 1-.26.108zM147.32 30.79a.362.362 0 0 1-.334-.22.373.373 0 0 1-.006-.28.363.363 0 0 1 .077-.12l2.767-2.901a.367.367 0 0 1 .527.508l-2.766 2.899a.361.361 0 0 1-.265.114z" fill="#fff"/><path d="M217.427 34.885c.078 1.216 1.549 2.193 2.738 2.376 4.14.633 13.852.365 16.492.55 3.425.239 9.475-.072 10.931-2.271 2.05-3.085-3.397-6.593-10.268-8.748-3.555-1.115-7.314-6.645-8.979-6.738-1.664-.093-4.609 4.265-4.609 4.265l-4.736-1.632s-1.958 6.029-1.569 12.198z" fill="#0F0F0F"/><path d="M240.599 34.952c-.908 0-1.901-.052-2.953-.108-1.558-.082-3.17-.166-4.755-.093a71.7 71.7 0 0 1-8.635-.128c-3.629-.28-3.773-.51-3.836-.61a.383.383 0 0 1-.056-.183.38.38 0 0 1 .133-.3.374.374 0 0 1 .27-.081c.048.005.094.02.137.043.591.154 5.631.815 11.954.524 1.621-.074 3.251.01 4.826.095 2.383.125 4.637.244 5.929-.316a.365.365 0 0 1 .469.198.368.368 0 0 1-.181.477c-.859.372-1.989.482-3.302.482zM231.775 30.613a.356.356 0 0 1-.333-.222.375.375 0 0 1 0-.28.347.347 0 0 1 .08-.12l2.485-2.581a.372.372 0 0 1 .261-.127.363.363 0 0 1 .354.226.363.363 0 0 1-.003.29.375.375 0 0 1-.087.121l-2.494 2.583a.361.361 0 0 1-.263.11zM173.765 34.885c-.115-2.965 0-8.27 1.988-11.176l6.371 2.279v-1.367a.8.8 0 0 1 .712-.83l3.553-.205a7.68 7.68 0 0 1 3.859.797c3.582 1.768 11.096 5.884 13.191 10.24a1.978 1.978 0 0 1-.664 2.483 1.963 1.963 0 0 1-.863.328c-3.41.423-11.315.962-25.906-.223a2.427 2.427 0 0 1-1.559-.737 2.448 2.448 0 0 1-.682-1.589z" fill="#fff"/><path d="M191.925 38.3c-4.082 0-9.332-.184-15.955-.722a2.793 2.793 0 0 1-1.791-.852 2.81 2.81 0 0 1-.778-1.829c-.116-2.969 0-8.397 2.045-11.397a.367.367 0 0 1 .424-.138l5.883 2.103v-.848a1.169 1.169 0 0 1 .293-.805c.196-.222.469-.36.764-.386l3.554-.206a8.092 8.092 0 0 1 4.039.831c4.088 2.018 11.262 6.055 13.361 10.41a2.34 2.34 0 0 1-.055 2.133 2.332 2.332 0 0 1-1.757 1.202c-1.877.236-5.101.503-10.027.503zm-16.031-14.151c-1.782 2.872-1.874 7.919-1.764 10.72a2.073 2.073 0 0 0 1.899 1.978c14.548 1.181 22.43.648 25.837.224a1.592 1.592 0 0 0 1.205-.823 1.606 1.606 0 0 0 .037-1.462c-2.082-4.32-9.801-8.482-13.023-10.074a7.373 7.373 0 0 0-3.676-.759l-3.555.204a.432.432 0 0 0-.367.46v1.368a.364.364 0 0 1-.315.362.365.365 0 0 1-.172-.017l-6.106-2.181z" fill="#0F0F0F"/><path d="M190.177 35.463c-4.463 0-8.921-.26-13.354-.774a.366.366 0 0 1 .084-.727c13.569 1.58 23.528.24 23.627.226a.367.367 0 1 1 .1.726c-.063.01-4.076.55-10.457.55zM192.336 30.656a.365.365 0 0 1-.213-.07l-6.128-4.43a.36.36 0 0 1-.147-.238.367.367 0 0 1 .301-.42.365.365 0 0 1 .272.063l6.127 4.43a.366.366 0 0 1-.213.665h.001zM278.202 142.558l1.397 1.556a25.493 25.493 0 0 0 10.102 6.888l2.981 1.106a.91.91 0 0 1 .57.64l.037.149c.41 1.661-1.491 5.472-7.539 6.796-3.747.819-12.514 1.369-23.111-2.648a1.63 1.63 0 0 1-1.053-1.629c.166-2.612.788-8.843 3.129-11.936a.718.718 0 0 1 1.069-.101l3.028 2.835a3.35 3.35 0 0 0 4.753-.166l3.226-3.488a.949.949 0 0 1 1.411-.002z" fill="#0F0F0F"/><path d="m280.021 152-1.159-.498a.777.777 0 0 0-1.069.534.791.791 0 0 0 .022.447l.418 1.182a.919.919 0 0 1-.111.825.903.903 0 0 1-.732.392 31.869 31.869 0 0 1-12.895-2.492l-2.463-1.025a45.547 45.547 0 0 0-.437 4.057 1.637 1.637 0 0 0 1.053 1.63c10.6 4.017 19.364 3.467 23.11 2.648 6.055-1.329 7.95-5.132 7.541-6.796l-.038-.15a.916.916 0 0 0-.57-.639l-1.118-.416-.672.349a13.785 13.785 0 0 1-10.88-.048z" fill="#fff"/><path d="M279.448 160.638c-4.183 0-10.078-.651-16.936-3.249a1.991 1.991 0 0 1-1.288-1.993c.059-.957.184-2.444.44-4.092a.376.376 0 0 1 .181-.261.367.367 0 0 1 .316-.021l2.464 1.025a31.23 31.23 0 0 0 12.753 2.463.535.535 0 0 0 .432-.237.537.537 0 0 0 .065-.49l-.417-1.181a1.154 1.154 0 0 1 .297-1.227 1.141 1.141 0 0 1 1.239-.214l1.16.499a13.474 13.474 0 0 0 10.584.038l.646-.332a.355.355 0 0 1 .295-.019l1.12.416a1.274 1.274 0 0 1 .796.895l.038.149c.198.803-.056 1.853-.695 2.883-.752 1.211-2.677 3.387-7.122 4.36-.755.17-3.011.588-6.368.588zm-17.131-8.761a45.367 45.367 0 0 0-.365 3.562 1.264 1.264 0 0 0 .819 1.264c12.167 4.612 21.214 3.002 22.903 2.633 4.182-.915 5.962-2.92 6.658-4.033.621-.997.72-1.853.604-2.326l-.036-.15a.54.54 0 0 0-.341-.383l-.969-.361-.529.276a14.215 14.215 0 0 1-5.596 1.133 14.218 14.218 0 0 1-5.589-1.163l-1.16-.498a.419.419 0 0 0-.237-.03.419.419 0 0 0-.321.553l.417 1.181a1.275 1.275 0 0 1-.154 1.156 1.274 1.274 0 0 1-1.026.548 31.984 31.984 0 0 1-13.043-2.52l-2.035-.842z" fill="#0F0F0F"/><path d="m275.576 84.672-8.138 2.658-4.472-1.407c-1.977 2.903-1.916 7.641-1.679 10.365a2.638 2.638 0 0 0 2.318 2.397c7.98.942 21.769.333 28.321-.036 1.656-.093 2.436-2.106 1.265-3.276-5.866-5.854-17.615-10.701-17.615-10.701z" fill="#fff"/><path d="M274.956 99.563c-4.175 0-8.219-.135-11.384-.509a3.018 3.018 0 0 1-1.806-.895 3.038 3.038 0 0 1-.844-1.834c-.232-2.658-.316-7.584 1.742-10.604a.366.366 0 0 1 .413-.142l4.357 1.37 8.026-2.626a.369.369 0 0 1 .253.01c.118.048 11.883 4.942 17.74 10.786a2.248 2.248 0 0 1 .515 2.415 2.268 2.268 0 0 1-2.017 1.495c-4.315.238-10.797.534-16.995.534zM263.123 86.36c-1.779 2.852-1.689 7.4-1.471 9.899.048.522.273 1.013.638 1.388a2.28 2.28 0 0 0 1.366.677c7.809.925 21.055.374 28.255-.037a1.547 1.547 0 0 0 1.376-1.013 1.501 1.501 0 0 0-.348-1.636c-5.432-5.422-16.111-10.039-17.38-10.575l-8.007 2.62a.368.368 0 0 1-.224 0l-4.205-1.323z" fill="#0F0F0F"/><path d="M291.933 98.654c1.656-.093 2.436-2.106 1.265-3.274l-.012-.012c-8.171.508-22.618.678-25.641-1.216a15.614 15.614 0 0 0-6.318-2.141 28.347 28.347 0 0 0 .061 4.282c.053.606.313 1.175.735 1.612.422.437.982.714 1.584.785 7.986.942 21.775.338 28.326-.036z" fill="#fff"/><path d="M274.956 99.563c-4.175 0-8.22-.135-11.384-.509a3.02 3.02 0 0 1-2.65-2.73 28.964 28.964 0 0 1-.062-4.338.357.357 0 0 1 .041-.14.363.363 0 0 1 .362-.193 15.932 15.932 0 0 1 6.474 2.195c2.901 1.817 17.133 1.676 25.424 1.163a.364.364 0 0 1 .293.12 2.238 2.238 0 0 1 .513 2.413 2.27 2.27 0 0 1-2.017 1.495c-4.314.228-10.796.523-16.994.523zm-13.388-7.144c-.058 1.28-.03 2.563.084 3.84a2.282 2.282 0 0 0 2.004 2.065c7.809.924 21.055.373 28.254-.037a1.551 1.551 0 0 0 1.377-1.013 1.5 1.5 0 0 0-.25-1.532c-6.165.373-22.288.849-25.686-1.281a15.143 15.143 0 0 0-5.783-2.04v-.002zM277.955 90.203a.366.366 0 0 1-.092-.722l4.035-1.055a.365.365 0 0 1 .425.268.37.37 0 0 1-.241.441l-4.035 1.057a.437.437 0 0 1-.092.011z" fill="#0F0F0F"/><path d="M66.436 274.897s-2.573 12.546.07 15.73l.814.997-12.731-.621s5.242-13.29 5.717-18.832l6.13 2.726z" fill="#fff"/><path d="M67.32 291.99h-.018l-12.731-.615a.361.361 0 0 1-.321-.498c.05-.133 5.226-13.302 5.692-18.729a.367.367 0 0 1 .179-.284.362.362 0 0 1 .163-.049.359.359 0 0 1 .168.029l6.128 2.73a.364.364 0 0 1 .21.408c-.025.123-2.507 12.408 0 15.421l.815.997a.37.37 0 0 1-.087.542.374.374 0 0 1-.195.058l-.003-.01zm-12.206-1.329 11.4.556-.29-.357c-2.526-3.043-.583-13.788-.204-15.745l-5.404-2.407c-.644 5.211-4.581 15.574-5.502 17.953z" fill="#0F0F0F"/><path d="M66.423 286.072c.908 1.213 2.725 9.483 2.374 11.876a3.492 3.492 0 0 1-1.153 2.153c-.631.555-1.44.862-2.279.866l-8.721-.029c-6.552.034-3.452-12.671-1.353-15.1a.579.579 0 0 1 .685-.15.579.579 0 0 1 .199.15l.523.894a.56.56 0 0 0 .492.287.558.558 0 0 0 .485-.299l.829-1.601a1.047 1.047 0 0 1 .993-.573l2.504.116a1.117 1.117 0 0 1 1.004.792l.429 1.379a.566.566 0 0 0 .422.399.56.56 0 0 0 .548-.191l.867-1.077a.767.767 0 0 1 1.153.108z" fill="#fff"/><path d="M65.373 301.342h-.01l-8.721-.028c-1.696.017-2.951-.796-3.652-2.326-1.742-3.801.315-11.402 2.024-13.382a.94.94 0 0 1 1.107-.247.967.967 0 0 1 .326.237c.016.017.03.037.043.058l.525.894a.193.193 0 0 0 .179.106.178.178 0 0 0 .165-.101l.828-1.6a1.421 1.421 0 0 1 1.325-.771l2.504.116a1.487 1.487 0 0 1 1.337 1.05l.429 1.379a.215.215 0 0 0 .165.151.178.178 0 0 0 .097-.008.177.177 0 0 0 .079-.057l.864-1.078a1.147 1.147 0 0 1 .436-.282c.151-.052.31-.073.469-.06a1.167 1.167 0 0 1 .828.467c.993 1.329 2.805 9.673 2.443 12.15a3.844 3.844 0 0 1-1.271 2.38 3.819 3.819 0 0 1-2.519.952zm-8.733-.769 8.725.028a3.094 3.094 0 0 0 2.038-.777 3.115 3.115 0 0 0 1.024-1.93c.355-2.414-1.513-10.544-2.303-11.602a.425.425 0 0 0-.464-.159.395.395 0 0 0-.136.076l-.848 1.055a.895.895 0 0 1-.88.332.947.947 0 0 1-.723-.653l-.43-1.379a.746.746 0 0 0-.671-.535l-2.505-.118a.673.673 0 0 0-.645.377l-.829 1.602a.919.919 0 0 1-1.616.028l-.497-.856a.25.25 0 0 0-.147-.058.24.24 0 0 0-.166.08c-1.577 1.802-3.52 9.085-1.908 12.59.585 1.284 1.57 1.916 2.981 1.899z" fill="#0F0F0F"/><path d="m56.64 300.939 8.722.028a3.473 3.473 0 0 0 2.278-.866 3.49 3.49 0 0 0 1.153-2.153c.1-.664.027-1.8-.147-3.109-1.143 1.121-2.898 2.058-5.33 2.335-1.452.166-4.554.22-6.429-.307-1.744-.488-3.178-1.125-4.19-2.027-.096 3.261.838 6.115 3.943 6.099z" fill="#fff"/><path d="M65.374 301.342h-.01l-8.72-.028h-.025c-1.16 0-2.098-.371-2.807-1.1-1.04-1.071-1.55-2.93-1.476-5.377a.368.368 0 0 1 .22-.327.366.366 0 0 1 .388.064c.898.801 2.221 1.437 4.044 1.949 1.753.498 4.788.467 6.294.296 2.65-.304 4.248-1.383 5.116-2.233a.361.361 0 0 1 .538.029c.043.053.07.116.08.184.195 1.465.245 2.545.147 3.211a3.844 3.844 0 0 1-1.27 2.38 3.819 3.819 0 0 1-2.52.952zm-8.733-.769 8.721.028a3.095 3.095 0 0 0 2.038-.777 3.115 3.115 0 0 0 1.024-1.931c.072-.485.048-1.279-.064-2.325-1.017.83-2.62 1.689-5.01 1.962-1.605.182-4.704.206-6.57-.318-1.567-.44-2.796-.975-3.73-1.629.042 1.872.477 3.282 1.274 4.103.566.583 1.334.879 2.284.879l.033.008z" fill="#0F0F0F"/><path d="M126.034 271.716s-1.668 6.246.086 14.647l-7.63 4.708-5.871-5.191 2.844-3.554c2.244-3.576 2.737-9.508 2.944-12.583l7.627 1.973z" fill="#fff"/><path d="M118.49 291.436a.356.356 0 0 1-.241-.091l-5.876-5.19a.366.366 0 0 1-.043-.498l2.83-3.538c2.292-3.672 2.718-10.007 2.878-12.395a.376.376 0 0 1 .15-.273.371.371 0 0 1 .306-.059l7.631 1.974a.366.366 0 0 1 .271.301.35.35 0 0 1-.009.144c-.016.061-1.621 6.268.091 14.477a.36.36 0 0 1-.165.387l-7.63 4.708a.364.364 0 0 1-.193.053zm-5.374-5.6 5.413 4.78 7.181-4.431c-1.439-7.143-.429-12.761-.115-14.203l-6.859-1.774c-.188 2.709-.703 8.698-2.97 12.313l-.025.035-2.625 3.28z" fill="#0F0F0F"/><path d="m127.177 284.255 1.064 1.703a24.497 24.497 0 0 0 8.423 8.181l2.635 1.538a.888.888 0 0 1 .432.698l.01.148c.114 1.641-2.302 4.929-8.244 5.18-3.677.154-12.054-.776-21.411-6.325a1.567 1.567 0 0 1-.729-1.714c.583-2.442 2.199-8.228 4.92-10.766a.694.694 0 0 1 .808-.109c.085.047.16.111.219.188l2.397 3.183a3.204 3.204 0 0 0 2.132 1.253 3.205 3.205 0 0 0 2.389-.631l3.624-2.77a.92.92 0 0 1 .719-.174.912.912 0 0 1 .612.417z" fill="#fff"/><path d="M130.802 302.081c-2.779 0-11.061-.551-20.902-6.387a1.93 1.93 0 0 1-.898-2.115c.578-2.422 2.224-8.337 5.025-10.949a1.08 1.08 0 0 1 .828-.285 1.047 1.047 0 0 1 .744.413l2.396 3.181a2.861 2.861 0 0 0 1.89 1.112 2.853 2.853 0 0 0 2.118-.56l3.624-2.771a1.275 1.275 0 0 1 1.495-.048c.148.1.273.229.368.38l1.063 1.703a24.23 24.23 0 0 0 8.298 8.059l2.631 1.548a1.24 1.24 0 0 1 .613.996l.012.148c.055.794-.36 1.75-1.135 2.62-.911 1.023-3.092 2.766-7.452 2.95-.174 0-.413.005-.718.005zm-16.043-19.012a.346.346 0 0 0-.233.093c-2.65 2.477-4.25 8.226-4.813 10.583a1.202 1.202 0 0 0 .558 1.313c10.742 6.369 19.553 6.344 21.21 6.272 4.1-.166 6.112-1.769 6.946-2.706.749-.839.981-1.624.949-2.079l-.009-.148a.514.514 0 0 0-.252-.407l-2.635-1.539a24.962 24.962 0 0 1-8.549-8.306l-1.069-1.696a.534.534 0 0 0-.367-.25.531.531 0 0 0-.433.104l-3.623 2.771a3.59 3.59 0 0 1-3.987.243 3.608 3.608 0 0 1-1.048-.936l-2.397-3.183a.324.324 0 0 0-.098-.086.324.324 0 0 0-.125-.038l-.025-.005z" fill="#0F0F0F"/><path d="m127.345 293.483-1.018-.664a.754.754 0 0 0-.829-.009.754.754 0 0 0-.331.763l.201 1.186a.885.885 0 0 1-.239.76.872.872 0 0 1-.755.25 30.6 30.6 0 0 1-11.78-4.485l-2.153-1.376a47.197 47.197 0 0 0-1.08 3.763 1.56 1.56 0 0 0 .083.977c.131.309.357.567.645.737 9.358 5.549 17.735 6.479 21.411 6.324 5.943-.25 8.359-3.538 8.245-5.179l-.01-.148a.888.888 0 0 0-.432-.698l-.994-.578-.692.219a13.209 13.209 0 0 1-10.272-1.842z" fill="#fff"/><path d="M130.801 302.081c-2.781 0-11.062-.551-20.901-6.387a1.93 1.93 0 0 1-.898-2.115c.214-.895.575-2.279 1.088-3.795a.364.364 0 0 1 .226-.228.353.353 0 0 1 .316.036l2.153 1.376a30.058 30.058 0 0 0 11.641 4.434.504.504 0 0 0 .58-.588l-.201-1.185a1.119 1.119 0 0 1 1.101-1.308c.218.001.43.065.612.185l1.018.665a12.91 12.91 0 0 0 9.989 1.784l.662-.211c.049-.015.1-.02.15-.015.051.006.1.022.143.048l.994.577a1.232 1.232 0 0 1 .613.996l.012.148c.054.794-.36 1.749-1.135 2.62-.911 1.023-3.092 2.766-7.453 2.95-.167.007-.405.013-.71.013zm-20.169-11.618a43.56 43.56 0 0 0-.923 3.287 1.203 1.203 0 0 0 .559 1.313c10.741 6.371 19.542 6.344 21.21 6.273 4.099-.167 6.111-1.77 6.946-2.707.749-.838.981-1.624.949-2.079l-.01-.148a.5.5 0 0 0-.253-.407l-.85-.499-.538.167a13.65 13.65 0 0 1-10.583-1.878l-1.019-.664a.38.38 0 0 0-.421 0 .387.387 0 0 0-.168.387l.2 1.186a1.244 1.244 0 0 1-.833 1.387 1.25 1.25 0 0 1-.579.047 30.783 30.783 0 0 1-11.925-4.54l-1.762-1.125zM85.25 136.518s.632 10.299-2.052 21.64c-2.685 11.341-8.485 22.961-10.189 62.021 0 0-2.493 8.71-6.966 16.099-4.473 7.389-6.578 39.588-6.578 39.588s5 2.375 7.367 0c2.366-2.376 12.63-30.614 13.415-35.63.785-5.015 4.21-2.639 12.366-28.24 8.157-25.601 16.314-34.189 16.314-34.189l3.161-41.289H85.25z" fill="#0F0F0F"/><path d="M77.121 239.594c-.724 0-1.987-.142-2.981-.997-.91-.791-1.371-1.993-1.371-3.578a.368.368 0 0 1 .366-.367.365.365 0 0 1 .366.367c0 1.36.375 2.379 1.12 3.025 1.192 1.036 2.95.8 2.967.797a.367.367 0 0 1 .104.726c-.19.021-.38.03-.571.027z" fill="#fff"/><path d="M118.726 136.518s12.044 8.443 14.939 31.933c2.895 23.489-2.105 50.667-2.105 50.667s-.79 8.179.263 13.194c1.054 5.016 3.42 12.141-5.177 44.602 0 0-9.821-.527-9.821-2.111 0-1.585 1.053-20.586 0-28.767a25.004 25.004 0 0 1 1.26-11.807 4.539 4.539 0 0 0-.187-3.598c-1.303-2.618-3.359-8.616-3.178-20.22.263-16.891-10.788-37.741-10.788-37.741l1.053-36.152h13.741z" fill="#0F0F0F"/><path d="M125.121 235.185a4.107 4.107 0 0 1-3.233-1.527.37.37 0 0 1 .046-.509.368.368 0 0 1 .509.031c2.103 2.46 5.087.641 5.213.563a.362.362 0 0 1 .493.122.37.37 0 0 1-.104.499 6.179 6.179 0 0 1-2.924.821z" fill="#fff"/><path d="M63.864 277.291c-2.213 0-4.416-1.028-4.555-1.094a.362.362 0 0 1-.209-.356c.087-1.317 2.154-32.372 6.625-39.752 4.242-7.007 6.724-15.313 6.916-15.97 1.365-31.21 5.35-44.935 8.261-54.957.72-2.475 1.398-4.818 1.935-7.088 2.64-11.162 2.05-21.43 2.044-21.535a.371.371 0 0 1 .22-.359.38.38 0 0 1 .146-.029h33.479a.364.364 0 0 1 .211.066c.12.085 12.209 8.804 15.091 32.189 2.868 23.275-2.059 50.512-2.109 50.785 0 .05-.768 8.151.262 13.054.051.245.106.498.166.755 1.136 5.203 2.852 13.067-5.343 44.022a.366.366 0 0 1-.374.273c-.024 0-2.498-.138-4.939-.465-4.608-.62-5.229-1.366-5.229-2.014 0-.286.033-1.095.081-2.326.216-5.385.785-19.69-.077-26.399a25.29 25.29 0 0 1 1.242-11.883 4.499 4.499 0 0 0-.181-3.503c-1.262-2.577-3.35-8.639-3.17-20.295.166-10.134-3.736-21.686-7.143-29.789-3.047 4.339-8.627 13.861-14.243 31.49-5.35 16.79-8.74 21.687-10.561 24.318-.994 1.427-1.532 2.214-1.792 3.867-.82 5.208-11.181 33.484-13.523 35.831-.878.875-2.057 1.164-3.231 1.164zm-4.017-1.661c.973.41 4.842 1.866 6.726-.026 2.299-2.306 12.504-30.266 13.318-35.427.286-1.828.899-2.705 1.914-4.172 1.799-2.599 5.15-7.437 10.465-24.122 5.888-18.482 11.759-28.124 14.727-32.227a.36.36 0 0 1 .336-.149.36.36 0 0 1 .295.22c3.493 8.192 7.619 20.167 7.453 30.689-.179 11.503 1.862 17.443 3.094 19.961a5.24 5.24 0 0 1 .212 4.079c-.908 2.483-1.852 6.5-1.204 11.537.871 6.769.319 20.612.082 26.522a107.39 107.39 0 0 0-.079 2.291c0 .573 3.905 1.422 9.179 1.73 8.063-30.54 6.31-38.575 5.26-43.383-.057-.261-.113-.513-.166-.761-1.052-5.013-.302-12.97-.27-13.308.055-.302 4.969-27.429 2.107-50.591-2.702-21.965-13.588-30.771-14.689-31.61H85.634c.08 1.994.295 11.32-2.08 21.36-.543 2.292-1.224 4.64-1.946 7.125-2.902 9.99-6.875 23.674-8.233 54.82a.37.37 0 0 1-.015.084c-.025.087-2.557 8.841-7.004 16.189-4.167 6.89-6.297 36.118-6.509 39.172v-.003z" fill="#0F0F0F"/><path d="M102.673 90.776s11.428 11.152 13.084 20.256c2.025 11.058-3.326 10.178 0 18.799 0 0 2.893 6.554 3.946 8.929 1.054 2.376-24.733 8.971-34.731 3.959 0 0 3.026-15.967-11.98-29.427-9.002-8.075-4.86-24.368 8.613-26.496 15.463-2.438 21.068 3.98 21.068 3.98z" fill="#fff"/><path d="M95.336 144.925c-3.785 0-7.668-.452-10.512-1.879a.366.366 0 0 1-.195-.395c.03-.166 2.802-15.929-11.864-29.086-4.339-3.892-5.962-9.946-4.246-15.796 1.79-6.09 6.67-10.328 13.049-11.335 15.285-2.412 21.012 3.688 21.365 4.09.593.58 11.527 11.384 13.186 20.441 1.002 5.474.234 8.044-.444 10.311-.689 2.301-1.23 4.118.433 8.423 0 0 2.89 6.54 3.94 8.912.106.241.132.623-.347 1.081-1.558 1.495-8.171 3.466-15.058 4.486-3.08.471-6.19.721-9.307.747zm-9.937-2.417c8.875 4.186 29.254-.397 33.344-2.99.626-.399.65-.605.65-.608a4167.71 4167.71 0 0 1-3.958-8.931c-1.762-4.555-1.159-6.575-.459-8.914.663-2.188 1.397-4.668.426-9.967-1.623-8.886-12.872-19.948-12.984-20.064l-.02-.02c-.055-.063-5.69-6.233-20.717-3.86-6.093.961-10.752 5.005-12.462 10.817-1.64 5.577-.094 11.341 4.033 15.044 13.9 12.472 12.447 27.282 12.138 29.493h.009z" fill="#0F0F0F"/><path d="M105.773 92.883s7.193-2.99 14.384-1.583c7.191 1.407 12.806-.377 12.806-.377s-4.568-2.278-18.841-3.59a15.684 15.684 0 0 0-5.094.354 23.81 23.81 0 0 1-5.161.634c-10.98.166-13.876-7.115-11.249-9.163 1.646-1.282 11.636-.438 11.636-.438s-5.53-3.027-4.387-4.683c1.448-2.112 12.91 5.121 12.91 5.121s17.862 1.065 26.507 2.64c5.706 1.04 13.332 3.344 14.033 4.223.701.878 2.105 7.038-9.647 11.613-11.752 4.575-23.331 4.925-26.136 7.037-2.806 2.111-4.914 5.279-4.914 5.279l-6.847-17.067z" fill="#fff"/><path d="M112.62 110.316h-.037a.374.374 0 0 1-.303-.228l-6.845-17.06a.368.368 0 0 1 .199-.476c.298-.123 7.375-3.018 14.594-1.604 3.815.737 7.738.706 11.54-.093-2.032-.71-7.287-2.193-17.679-3.157a15.28 15.28 0 0 0-4.969.346 24.052 24.052 0 0 1-5.24.644c-7.453.108-11.262-3.156-12.256-5.98-.548-1.568-.251-3.042.776-3.842 1.358-1.058 7.403-.816 10.356-.628-1.297-.84-3.086-2.185-3.37-3.372a1.278 1.278 0 0 1 .178-1.04c1.547-2.255 11.191 3.626 13.327 4.97 1.411.086 18.218 1.136 26.459 2.638 5.391.983 13.416 3.322 14.254 4.354.374.47.79 1.876.314 3.646-.627 2.343-2.893 5.727-10.116 8.537-6.459 2.517-12.752 3.736-17.799 4.716-3.938.765-7.048 1.369-8.251 2.275-2.721 2.046-4.803 5.149-4.826 5.188a.365.365 0 0 1-.306.166zm-6.368-17.225 6.459 16.097c.74-1.015 2.459-3.196 4.602-4.81 1.339-1.006 4.364-1.594 8.551-2.407 5.022-.975 11.262-2.187 17.673-4.68 6.938-2.7 9.091-5.865 9.676-8.044.417-1.55.049-2.708-.181-2.99-.54-.677-7.569-2.953-13.812-4.09-8.52-1.554-26.287-2.625-26.466-2.635a.367.367 0 0 1-.166-.057c-5.488-3.462-11.633-6.362-12.421-5.224a.535.535 0 0 0-.068.455c.297 1.248 3.231 3.092 4.338 3.698a.369.369 0 0 1 .029.626.364.364 0 0 1-.236.062c-3.959-.333-10.257-.514-11.382.364-.77.6-.975 1.757-.533 3.018.91 2.596 4.472 5.591 11.552 5.482a23.636 23.636 0 0 0 5.083-.623 16.023 16.023 0 0 1 5.212-.364c14.178 1.304 18.781 3.532 18.97 3.627a.366.366 0 0 1 .201.356.372.372 0 0 1-.253.321c-.233.075-5.785 1.796-12.986.387-6.141-1.202-12.348.877-13.842 1.43zM104.08 52.039a5.332 5.332 0 0 0-3.599-3.427l-7.265-2.065a11.97 11.97 0 0 0-6.224-.09c-2.046.519-3.92 1.57-5.432 3.047l-.068.066a12.312 12.312 0 0 0-2.54 3.59c-2.623-1.329-11.32-5.538-18.77-9.123a20.081 20.081 0 0 0-21.731 2.809 49.927 49.927 0 0 1-17.16 9.53L.246 63.101a.353.353 0 0 0-.223.462c.022.06.06.113.11.152l2.982 2.39A28.116 28.116 0 0 0 19.51 72.25l6.828.282a.856.856 0 0 1 .785.609.863.863 0 0 1-.313.944 40.867 40.867 0 0 1-13.58 6.555L7.22 82.26a.354.354 0 0 0-.187.557.354.354 0 0 0 .186.128l7.862 2.23a26.053 26.053 0 0 0 19.631-2.215l9.997-5.482a28.963 28.963 0 0 1-8.99 11.231.356.356 0 0 0 .276.633l3.507-.633a26.405 26.405 0 0 0 10.684-4.573c3.179-2.3 5.809-5.28 7.7-8.725A36.956 36.956 0 0 1 69.89 62.353l7.95-5.262a12.35 12.35 0 0 0 .937 6.2l1.095 2.554c.815 1.9 2.119 3.55 3.777 4.779a11.632 11.632 0 0 0 5.663 2.22l14.228-17.71a3.256 3.256 0 0 0 .54-3.095z" fill="#0F0F0F"/><path d="M87.446 60.455a.714.714 0 0 0 .967-.544c.456-2.121 2.33-5.598 4.874-6.684 3.26-1.39 7.352-1.044 8.669 1.392 1.149 2.123.662 3.616 3.675 6.098.286.238.165.723-.091.997l-1.325 1.59c-.285.307-.418 1.19-.385 1.61.103 1.293.426 4.024.047 4.451-.74.83-5.086 1.346-5.086 1.346l-.53 13.811a5.737 5.737 0 0 0 2.502 4.957l5.01 3.404s5.287 13.971-5.134 15.13c-6.658.743-20.641-20.212-20.641-20.212s8.231-1.252 8.884-19.218a.886.886 0 0 0-.525-.788c-1.16-.578-4.306-2.325-4.232-4.69.081-2.52 1.849-3.209 3.32-2.65z" fill="#fff"/><path d="M100.302 108.398c-6.914 0-20.04-19.545-20.606-20.392a.369.369 0 0 1 .249-.567c.078-.013 7.95-1.477 8.575-18.868a.535.535 0 0 0-.33-.448c-1.689-.844-4.51-2.619-4.436-5.029.051-1.608.727-2.39 1.283-2.764a2.742 2.742 0 0 1 2.526-.218.34.34 0 0 0 .416-.125.39.39 0 0 0 .064-.154c.456-2.118 2.387-5.79 5.088-6.944 3.24-1.383 7.653-1.18 9.134 1.554.317.608.577 1.245.778 1.902.419 1.257.817 2.443 2.808 4.088a.826.826 0 0 1 .296.598 1.298 1.298 0 0 1-.351.932l-1.315 1.575c-.187.202-.331.958-.3 1.347.015.198.037.43.06.683.222 2.463.26 3.631-.105 4.041-.713.804-3.84 1.276-5.006 1.427l-.514 13.5a5.311 5.311 0 0 0 2.344 4.638l5.018 3.405a.364.364 0 0 1 .138.174c.121.32 2.923 7.866.15 12.416-1.123 1.841-3.001 2.922-5.583 3.209a3.22 3.22 0 0 1-.381.02zM80.594 88.025c2.034 2.967 14.174 20.285 20.008 19.621 2.345-.261 4.041-1.224 5.04-2.864 2.42-3.967.166-10.735-.166-11.667l-4.912-3.335a6.074 6.074 0 0 1-2.663-5.274l.527-13.812a.364.364 0 0 1 .32-.35c1.748-.206 4.41-.721 4.857-1.225.207-.332.008-2.545-.078-3.488l-.06-.691c-.036-.454.095-1.474.481-1.89l1.315-1.576a.604.604 0 0 0 .165-.398c0-.057-.025-.073-.033-.08-2.153-1.778-2.6-3.121-3.036-4.422a10.432 10.432 0 0 0-.727-1.784c-1.243-2.3-5.246-2.492-8.204-1.23-2.463 1.052-4.237 4.456-4.66 6.424a1.122 1.122 0 0 1-.552.756 1.064 1.064 0 0 1-.903.055 2.013 2.013 0 0 0-1.86.143c-.594.397-.926 1.15-.957 2.174-.066 2.077 2.796 3.735 4.03 4.351a1.246 1.246 0 0 1 .726 1.13c-.57 15.605-6.757 18.814-8.656 19.432h-.002z" fill="#0F0F0F"/><path d="M81.624 86.796c.472-.075.935-.142 1.39-.2 8.682 18.098 14.468 20.447 19.954 18.251 3.718-1.495 2.003-8.907 1.616-12.773 3.996 3.36 10.518 7.583 12.448 17.524 1.568 8.083-4.048 11.677-1.708 18.961-3.932-1.784-9.074-3.078-14.813-1.896-7.747 1.599-12.931 4.61-15.82 6.742-.828-4.459-2.815-10.014-7.275-15.501a66.361 66.361 0 0 0 3.975-11.65c1.636-6.698-1.118-15.305-2.43-18.812.87-.286 1.76-.502 2.663-.646z" fill="#0F0F0F"/><path d="M77.424 88.354c-3.832-.234-15.106.386-14.013 15.965 1.315 18.738.904 34.572-.075 37.21-.978 2.638-.889 14.868 3.147 33.871 0 0 .876 7.037 1.579 11.259.702 4.223 4.56 7.567 8.595 10.733 4.035 3.167 5.788-1.759 4.21-4.575-1.578-2.815-2.105-6.158-2.105-6.158s1.579 3.871 3.508 4.575c1.93.705.527-5.63-1.229-7.741-1.755-2.111-5.613-7.038-6.313-7.741-.7-.703-2.319-10.019-1.718-13.888 1.59-10.356-.525-18.496-.525-18.496a13.485 13.485 0 0 1-.08-4.817c.436-2.545 1.834-5.416 2.033-9.228.263-5.063-1.002-10.997.114-14.984-.002.008 3.649-25.938 2.872-25.985z" fill="#fff"/><path d="M79.047 198.79c-.685 0-1.557-.275-2.617-1.107-4.02-3.156-8.006-6.601-8.73-10.964-.695-4.181-1.573-11.205-1.58-11.274-3.954-18.614-4.21-31.118-3.126-34.043.91-2.454 1.383-18.107.053-37.058-.42-5.992.922-10.44 3.995-13.22 4.622-4.183 11.407-3.052 11.694-3.004a.366.366 0 0 1 .282.422.367.367 0 0 1-.408.3c-.068-.01-6.73-1.115-11.083 2.825-2.894 2.621-4.156 6.867-3.751 12.625 1.253 17.855.983 34.453-.097 37.365-1.023 2.76-.725 15.368 3.159 33.666.015.102.89 7.11 1.582 11.277.682 4.099 4.554 7.437 8.46 10.503 1.313 1.03 2.469 1.225 3.257.545 1.065-.917 1.26-3.133.409-4.651-1.592-2.839-2.125-6.147-2.153-6.279a.37.37 0 0 1 .264-.406.365.365 0 0 1 .435.21c.422 1.034 1.838 3.837 3.294 4.368.194.07.235.012.272-.039.6-.858-.476-5.403-1.905-7.124-.704-.847-1.76-2.159-2.782-3.44-1.526-1.902-3.104-3.869-3.51-4.278-.89-.892-2.265-10.513-1.822-14.19.95-7.842.542-13.028.034-15.999a46.171 46.171 0 0 0-.315-1.593c-.398-1.898-.808-3.864-.315-5.762 1.656-6.326 1.598-10.534 1.549-14.602-.037-2.991-.072-5.815.535-9.371a.374.374 0 0 1 .431-.302.375.375 0 0 1 .3.433c-.594 3.489-.56 6.279-.524 9.24.05 4.116.102 8.374-1.572 14.796-.45 1.731-.058 3.61.323 5.425.11.534.227 1.084.32 1.622.516 3.017.93 8.279-.029 16.21-.463 3.839 1.007 12.876 1.615 13.587.433.433 1.951 2.325 3.56 4.334 1.021 1.271 2.075 2.588 2.775 3.429 1.49 1.787 2.852 6.714 1.941 8.013-.253.362-.662.475-1.118.308-.89-.333-1.694-1.231-2.318-2.17a17.624 17.624 0 0 0 1.364 3.229c1.022 1.828.756 4.426-.571 5.567a2.364 2.364 0 0 1-1.577.577zM180.211 165.805l-5.778 17.617-3.756 1.385 7.439-21.112 2.095 2.11z" fill="#0F0F0F"/><path d="M188.027 227.035s2.339 1.407 4.677 0c2.339-1.407 13.599-19.182 15.177-22.172 1.579-2.99-2.318-24.103-6.172-26.39-3.854-2.288-16.488-3.518-20.524-2.814-4.036.704-17.555 14.064-17.555 14.064l3.69 28.162 20.707 9.15z" fill="#fff"/><path d="M190.448 228.032a5.494 5.494 0 0 1-2.587-.665l-20.68-9.136a.367.367 0 0 1-.216-.288l-3.69-28.162a.366.366 0 0 1 .018-.167.362.362 0 0 1 .088-.142c.555-.548 13.642-13.456 17.743-14.165 4.175-.726 16.881.556 20.772 2.86 2.66 1.577 4.727 10.479 5.3 13.17 1.137 5.371 1.939 11.949 1.011 13.707-1.363 2.585-12.752 20.777-15.311 22.315a4.693 4.693 0 0 1-2.448.673zm-2.234-1.313c.088.054 2.186 1.274 4.306 0 2.185-1.315 13.309-18.746 15.042-22.031 1.581-2.99-2.536-23.826-6.036-25.901-3.699-2.191-16.288-3.464-20.274-2.769-3.671.641-15.832 12.472-17.225 13.838l3.644 27.775 20.51 9.067.033.021z" fill="#0F0F0F"/><path d="M186.816 167.325c.714 2.491 3.092 11.583 4.129 13.816 3.329 7.178 6.088 11.23 6.088 11.23l1.85-2.374s-9.762-23.857-10.23-25.236c-2.047-6.025-6.294-4.485-8.038-1.442-.838 1.461-.151 4.934-.151 4.934s4.21 14.426 6.935 19.76c2.251 4.412 5.276 10.039 5.276 10.039l2.021-2.085-4.084-8.273a78.097 78.097 0 0 1-3.594-8.513l-2.885-10.529c-.84-4.773 2.103-3.332 2.683-1.327z" fill="#0F0F0F"/><path d="M161.897 193.5a5.847 5.847 0 0 1 1.231-3.207 5.821 5.821 0 0 1 2.817-1.956c2.345-.719 6.062-1.036 11.908-.01 14.033 2.462 12.103 8.27 12.806 10.908.702 2.638 4.034 24.105 3.332 26.041-.702 1.935-.876 4.223-27.19 2.287 0 0-8.069.527-6.664-13.901a938.22 938.22 0 0 0 1.76-20.162z" fill="#fff"/><path d="M182.812 228.661c-3.833 0-9.005-.216-16.014-.731-.286.01-2.507.037-4.425-1.952-2.292-2.372-3.167-6.528-2.6-12.351.97-9.967 1.518-16.906 1.76-20.153a6.235 6.235 0 0 1 1.316-3.403 6.208 6.208 0 0 1 2.99-2.079c2.947-.906 7.009-.912 12.077-.024 12.165 2.137 12.609 6.765 12.903 9.828.029.454.094.905.192 1.349.537 2.015 4.108 24.097 3.323 26.259l-.047.131c-.548 1.551-1.111 3.126-11.475 3.126zm-16.009-1.465h.027c25.427 1.87 26.167-.228 26.768-1.91l.05-.138c.611-1.685-2.507-22.677-3.342-25.82a9.202 9.202 0 0 1-.215-1.467c-.272-2.841-.684-7.143-12.301-9.175-4.952-.869-8.902-.869-11.737 0a5.48 5.48 0 0 0-2.636 1.839 5.502 5.502 0 0 0-1.155 3.005c-.242 3.249-.792 10.192-1.762 20.17-.535 5.507.29 9.574 2.385 11.757 1.77 1.845 3.873 1.741 3.895 1.741l.023-.002z" fill="#0F0F0F"/><path d="m170.838 200.291 6.192 1.269-4.79 31.105h-7.918l6.516-32.374z" fill="#0F0F0F"/><path d="M221.155 208.107s0 16.627 10.52 25.938c1.173 1.037 1.706 2.62 1.933 4.172.421 2.902 2.416 7.752 5.687 14.494 3.271 6.741 3.666 32.368 3.666 32.368l7.919-1.44s.921-9.771 1.378-21.297c.519-13.087-1.225-29.124-8.019-34.4-3.644-2.824-3.12-21.223-3.12-21.223l-19.964 1.388z" fill="#fff"/><path d="M242.961 285.444a.36.36 0 0 1-.364-.36c0-.256-.431-25.634-3.624-32.214-3.552-7.319-5.318-11.823-5.722-14.6-.26-1.788-.869-3.117-1.812-3.951-10.522-9.312-10.644-26.044-10.644-26.212a.364.364 0 0 1 .341-.365l19.959-1.389a.363.363 0 0 1 .149.022.366.366 0 0 1 .242.355c-.143 5.065.117 18.699 2.981 20.921 6.82 5.298 8.686 21.401 8.16 34.706-.452 11.403-1.37 21.219-1.378 21.317a.37.37 0 0 1-.3.332l-7.918 1.44a.41.41 0 0 1-.07-.002zm-21.427-76.995c.077 2.409.942 16.96 10.389 25.32 1.076.954 1.765 2.431 2.052 4.394.387 2.658 2.184 7.235 5.656 14.386 3.069 6.325 3.62 28.586 3.688 32.091l7.224-1.312a449.99 449.99 0 0 0 1.35-21.001c.52-13.123-1.277-28.968-7.877-34.096-3.478-2.699-3.325-18.321-3.271-21.119l-19.211 1.337z" fill="#0F0F0F"/><path d="M235.72 236.057a.363.363 0 0 1-.259-.108.366.366 0 0 1 .259-.626c4.72 0 4.85-3.2 4.854-3.336a.37.37 0 0 1 .228-.355.364.364 0 0 1 .502.372c0 .038-.165 4.053-5.584 4.053z" fill="#0F0F0F"/><path d="M242.501 301.442c4.285.595 8.632.595 12.918 0a3.05 3.05 0 0 0 2.574-2.493 3.08 3.08 0 0 0-.04-1.268c-1.199-4.921-3.266-14.26-6.814-18.587l-.881 2.347-1.217-2.209a1.075 1.075 0 0 0-.805-.552l-2.667-.332a1.075 1.075 0 0 0-1.189.855l-.425 2.022-1.625-2.669-.722 9.967a41.514 41.514 0 0 1-.957 6.342l-.726 3.143a3.063 3.063 0 0 0 .584 2.248 3.044 3.044 0 0 0 1.992 1.186z" fill="#fff"/><path d="M248.923 302.251a46.423 46.423 0 0 1-6.473-.447 3.417 3.417 0 0 1-2.224-1.329 3.434 3.434 0 0 1-.657-2.512l.732-3.179c.478-2.068.795-4.169.949-6.286l.722-9.967a.367.367 0 0 1 .277-.333.365.365 0 0 1 .398.166l1.142 1.881.235-1.13a1.455 1.455 0 0 1 1.593-1.144l2.666.332a1.45 1.45 0 0 1 1.079.738l.828 1.515.603-1.605a.365.365 0 0 1 .622-.103c3.361 4.098 5.406 12.593 6.625 17.668l.257 1.065a3.438 3.438 0 0 1-.487 2.738 3.427 3.427 0 0 1-2.352 1.472 47.313 47.313 0 0 1-6.535.46zm-6.305-22.529-.64 8.829a41.983 41.983 0 0 1-.964 6.397l-.727 3.145a2.682 2.682 0 0 0 2.266 2.99c4.253.591 8.566.591 12.819 0a2.694 2.694 0 0 0 2.227-3.311l-.256-1.065c-1.16-4.817-3.066-12.724-6.09-16.866l-.649 1.735a.372.372 0 0 1-.124.164.372.372 0 0 1-.394.03.364.364 0 0 1-.145-.146l-1.217-2.211a.71.71 0 0 0-.532-.364l-2.666-.332a.713.713 0 0 0-.785.566l-.424 2.035a.366.366 0 0 1-.663.116l-1.036-1.712z" fill="#0F0F0F"/><path d="m257.517 295.86.437 1.809a3.067 3.067 0 0 1-1.345 3.326 3.06 3.06 0 0 1-1.189.435 47.045 47.045 0 0 1-12.918 0 3.048 3.048 0 0 1-2.572-3.432l.386-1.676c4.269 1.123 10.957 2.053 17.201-.462z" fill="#fff"/><path d="M248.923 302.251a46.398 46.398 0 0 1-6.472-.447 3.414 3.414 0 0 1-2.225-1.33 3.435 3.435 0 0 1-.657-2.512l.392-1.71a.379.379 0 0 1 .168-.23.355.355 0 0 1 .281-.042c4.389 1.139 10.898 1.993 16.974-.455a.364.364 0 0 1 .497.254l.437 1.809a3.434 3.434 0 0 1-1.507 3.723 3.422 3.422 0 0 1-1.331.486 47.17 47.17 0 0 1-6.557.454zm-8.334-5.469-.301 1.311a2.689 2.689 0 0 0 2.267 2.99c4.253.591 8.566.591 12.819 0a2.667 2.667 0 0 0 1.84-1.151 2.723 2.723 0 0 0 .387-2.16l-.331-1.402c-5.989 2.253-12.292 1.507-16.684.412h.003zM251.532 292.362h-.012l-6.364-.213a.367.367 0 0 1 .024-.732l6.363.212a.37.37 0 0 1 .337.372.368.368 0 0 1-.348.361zM250.876 288.632h-.013l-5.911-.212a.372.372 0 0 1-.254-.117.362.362 0 0 1-.097-.262.36.36 0 0 1 .113-.258.37.37 0 0 1 .264-.096l5.911.213a.365.365 0 0 1 .232.621.36.36 0 0 1-.245.111zM250.22 285.175h-.015l-5.465-.212a.366.366 0 0 1-.332-.38.369.369 0 0 1 .36-.353l5.466.213a.366.366 0 0 1 .335.372.373.373 0 0 1-.103.25.369.369 0 0 1-.246.11z" fill="#0F0F0F"/><path d="M187.976 195.068s1.013 25.171 1.929 29.852c1.931 9.853-3.332 6.334 3.861 28.855 7.192 22.521 3.507 31.493 3.507 31.493l12.279-3.518s-5.263-23.049-3.508-32.55a41.916 41.916 0 0 0-1.242-19.982 20.954 20.954 0 0 1-.584-9.979c1.459-8.117 4.362-22.033 7.439-24.171 4.384-3.05-23.681 0-23.681 0z" fill="#fff"/><path d="M197.272 285.635a.36.36 0 0 1-.354-.326.362.362 0 0 1 .023-.172c.036-.09 3.534-9.161-3.518-31.244-4.626-14.481-4.119-18.33-3.67-21.727.248-1.89.484-3.676-.2-7.169-.911-4.652-1.895-28.879-1.936-29.902a.364.364 0 0 1 .331-.379c.058 0 5.932-.641 11.817-1.038 12.161-.819 12.52.149 12.694.615.134.36-.063.727-.583 1.089-2.168 1.509-4.824 10.232-7.287 23.935a20.648 20.648 0 0 0 .575 9.801 42.143 42.143 0 0 1 1.252 20.159c-1.721 9.319 3.451 32.171 3.504 32.393a.365.365 0 0 1-.255.434l-12.28 3.52a.391.391 0 0 1-.113.011zm-8.917-90.239c.124 3.031 1.065 25.15 1.908 29.453.707 3.611.464 5.455.207 7.407-.437 3.322-.932 7.082 3.644 21.406 6.144 19.24 4.423 28.573 3.721 31.065l11.285-3.235c-.662-2.99-5.087-23.408-3.435-32.358a41.37 41.37 0 0 0-1.23-19.807 21.358 21.358 0 0 1-.596-10.153c1.793-9.967 4.564-22.303 7.59-24.408.109-.068.206-.153.288-.252-1.025-.917-12.542-.285-23.382.882z" fill="#0F0F0F"/><path d="M196.031 232.437a4.105 4.105 0 0 1-3.233-1.525.372.372 0 0 1 .032-.526.362.362 0 0 1 .271-.087.371.371 0 0 1 .252.135c2.105 2.46 5.09.641 5.215.563a.368.368 0 0 1 .268-.033.368.368 0 0 1 .12.654 6.177 6.177 0 0 1-2.925.819z" fill="#0F0F0F"/><path d="M209.628 275.133s.148 5.16 2.238 8.7c2.09 3.54 3.204 5.931.497 7.926-1.542 1.138-5.202 2.372-8.064 3.224a15.942 15.942 0 0 0-5.86 3.259c-2.54 2.19-7.587 4.944-15.702 2.803-10.268-2.711.949-9.858 5.245-12.305a8.308 8.308 0 0 0 2.622-2.345l7.212-9.958s3.81 5.432 6.912 4.886c4.004-.704 4.9-6.19 4.9-6.19z" fill="#fff"/><path d="M188.322 302.173a22.22 22.22 0 0 1-5.671-.778c-2.764-.729-4.264-1.864-4.46-3.37-.434-3.346 5.84-7.456 9.619-9.607a7.856 7.856 0 0 0 2.506-2.241l7.213-9.967a.36.36 0 0 1 .594.005c.037.053 3.707 5.241 6.551 4.736 3.69-.651 4.586-5.836 4.594-5.889a.356.356 0 0 1 .384-.306.363.363 0 0 1 .239.112.36.36 0 0 1 .102.244c0 .05.166 5.108 2.188 8.523 2.097 3.55 3.354 6.232.406 8.408-1.588 1.173-5.322 2.43-8.175 3.279a15.518 15.518 0 0 0-5.726 3.186c-1.777 1.543-5.177 3.665-10.364 3.665zm9.507-25.119-6.922 9.553a8.596 8.596 0 0 1-2.737 2.449c-6.067 3.455-9.527 6.773-9.253 8.874.152 1.183 1.472 2.11 3.922 2.756 7.726 2.04 12.623-.355 15.371-2.726a16.253 16.253 0 0 1 5.995-3.332c4.009-1.193 6.759-2.29 7.95-3.168 2.275-1.68 1.686-3.57-.603-7.442-1.309-2.218-1.872-5.012-2.114-6.868-.662 1.738-2.01 4.067-4.637 4.532-2.799.495-5.987-3.331-6.972-4.625v-.003z" fill="#0F0F0F"/><path d="M212.371 291.759c2.372-1.751 1.8-3.809.212-6.68-1.532 1.44-3.766 3.263-7.619 5.107a27.25 27.25 0 0 0-5.685 3.664c-2.932 2.451-7.809 4.421-12.044 4.23-5.192-.238-6.166-1.632-7.579-2.99-2.141 2.398-1.281 4.805 3.083 5.957 8.115 2.141 13.161-.613 15.702-2.803a15.938 15.938 0 0 1 5.859-3.259c2.869-.854 6.531-2.088 8.071-3.226z" fill="#fff"/><path d="M188.321 302.173a22.164 22.164 0 0 1-5.67-.779c-2.443-.645-3.952-1.715-4.366-3.095-.331-1.09.058-2.286 1.106-3.46a.361.361 0 0 1 .259-.122.345.345 0 0 1 .266.102c.116.111.229.222.341.332 1.218 1.206 2.369 2.344 7.001 2.555 3.809.179 8.665-1.53 11.794-4.143a27.645 27.645 0 0 1 5.762-3.715c3.951-1.895 6.182-3.786 7.517-5.043a.381.381 0 0 1 .308-.096.363.363 0 0 1 .262.184c1.376 2.492 2.484 5.087-.315 7.155-1.588 1.173-5.323 2.43-8.175 3.279a15.522 15.522 0 0 0-5.725 3.186c-1.777 1.538-5.178 3.66-10.365 3.66zm-8.627-6.547c-.52.664-.975 1.558-.704 2.467.332 1.106 1.7 2.03 3.853 2.598 7.727 2.038 12.623-.357 15.371-2.728a16.276 16.276 0 0 1 5.995-3.332c4.01-1.193 6.759-2.289 7.95-3.168 2.024-1.495 1.74-3.156.331-5.796-1.401 1.279-3.644 3.065-7.357 4.851a26.872 26.872 0 0 0-5.609 3.615c-3.256 2.719-8.324 4.495-12.294 4.319-4.912-.225-6.219-1.517-7.481-2.766l-.055-.06z" fill="#0F0F0F"/><path d="M194.6 291.001a.356.356 0 0 1-.188-.053l-3.182-1.925a.37.37 0 0 1-.14-.513.347.347 0 0 1 .1-.109.364.364 0 0 1 .418-.006l3.181 1.925a.367.367 0 0 1-.189.681zM196.949 288.303a.367.367 0 0 1-.189-.051l-3.183-1.927a.37.37 0 0 1-.041-.622.373.373 0 0 1 .282-.062.354.354 0 0 1 .136.056l3.184 1.927a.365.365 0 0 1 .164.412.363.363 0 0 1-.353.267zM198.827 284.969a.37.37 0 0 1-.189-.053l-3.181-1.927a.367.367 0 1 1 .377-.628l3.182 1.927a.37.37 0 0 1 .032.606.362.362 0 0 1-.221.075zM243.055 185.918c0-11.875-5.527-24.016-5.527-24.016l-42.252-3.696s-4.583 9.767-7.478 19.531c-2.895 9.765-1.578 28.407-1.578 28.407s25.339 6.811 26.311.3c.024-.166 1.325-16.575 1.325-16.575 1.052 6.334 2.473 19.602 2.473 19.602 22.469 5.087 28.312-2.449 28.312-2.449s-1.586-9.228-1.586-21.104z" fill="#0F0F0F"/><path d="M240.369 204.328a.362.362 0 0 1-.361-.316 146.227 146.227 0 0 1-1.338-19.559c0-3.382-.456-7.12-1.352-11.105a.362.362 0 0 1 .046-.277.356.356 0 0 1 .227-.163.363.363 0 0 1 .439.274c.909 4.038 1.37 7.829 1.37 11.266.006 6.508.449 13.008 1.325 19.456a.362.362 0 0 1-.177.367.357.357 0 0 1-.135.047.216.216 0 0 1-.044.01zM177.916 159.593a45.95 45.95 0 0 1 2.502-3.033c1.062-1.173 4.41-8.69 4.41-8.69l6.652 1.504s-4.454 5.575-3.082 7.99c2.764 4.866.871 9.539.871 9.539l-2.079-1.087a3.359 3.359 0 0 0-2.901-.114c-.09.041-.177.087-.262.138a4.364 4.364 0 0 0-2.095 3.525l-.177 3.144s-7.832-7.576-3.839-12.916z" fill="#fff"/><path d="M181.755 172.876a.36.36 0 0 1-.255-.103c-.331-.319-8.015-7.865-3.875-13.399a45.995 45.995 0 0 1 2.524-3.06c.838-.927 3.422-6.517 4.347-8.593a.37.37 0 0 1 .17-.179.37.37 0 0 1 .245-.029l6.649 1.495a.37.37 0 0 1 .205.587c-1.195 1.495-4.072 5.777-3.049 7.58 2.816 4.962.971 9.661.891 9.857a.381.381 0 0 1-.084.126.379.379 0 0 1-.277.102.365.365 0 0 1-.145-.04l-2.077-1.086a2.967 2.967 0 0 0-2.587-.105 2.078 2.078 0 0 0-.224.118 3.986 3.986 0 0 0-1.916 3.229l-.177 3.146a.364.364 0 0 1-.365.346v.008zm-3.55-13.068c-3.127 4.178 1.538 9.967 3.228 11.831l.13-2.303c.036-.775.263-1.53.659-2.196a4.702 4.702 0 0 1 1.615-1.624 2.86 2.86 0 0 1 .3-.158 3.694 3.694 0 0 1 3.218.126l1.699.887c.361-1.191 1.216-4.974-.977-8.834-1.262-2.22 1.656-6.479 2.758-7.941l-5.797-1.31c-.624 1.387-3.369 7.427-4.351 8.513a49.63 49.63 0 0 0-2.482 3.009z" fill="#0F0F0F"/><path d="M205.91 80.35c-.043.177-14.352 7.852-16.356 12.14-2.332 4.985-2.272 7.777-1.901 10.996.242 2.089 1.739 4.195 1.547 6.288-.35 3.798-.696 10.06.354 13.683 1.578 5.456-6.376 26.402-6.376 26.402l8.965 3.174s15.899-25.992 8.988-48.576c-4.036-13.177 4.779-24.106 4.779-24.106z" fill="#fff"/><path d="M218.151 74.844s3.837 4.485 8.244 6.791c4.49 2.346 10.338 3.628 10.338 3.628s4.861 35.168.391 58.037a19.883 19.883 0 0 0 .638 9.941c1.207 3.725 2.578 8.879 2.608 13.147.053 7.655-48.099-2.374-48.099-2.374s4.524-16.534 4.492-29.295c-.031-12.32-4.066-20.817-4.492-25.337-1.194-12.72 6.206-22.697 9.923-25.863 3.716-3.166 15.957-8.675 15.957-8.675z" fill="#fff"/><path d="M195.996 145.662h-.048a.362.362 0 0 1-.314-.411c.515-3.931.771-7.476.763-10.528-.021-8.443-1.408-15.055-2.421-19.882-.467-2.23-.828-3.987-.971-5.421-.613-6.514.706-13.08 3.712-18.49a.364.364 0 0 1 .613-.056.373.373 0 0 1 .074.276.374.374 0 0 1-.048.138c-2.935 5.281-4.222 11.697-3.624 18.064.131 1.387.497 3.131.959 5.339 1.02 4.857 2.415 11.512 2.436 20.029 0 3.088-.25 6.663-.77 10.632a.362.362 0 0 1-.361.31z" fill="#0F0F0F"/><path d="M207.201 111.869c-1.617-1.12-2.117-1.58-3.327-3.13-.746-.954-3.41-4.696-8.245-3.284-3.643 1.066-3.731 2.953-2.686 3.704.841.607 2.916-.395 1.272.384-2.208 1.045-4.331 3.469-3.674 6.435.878 3.966 7.755-.903 10.216.476.319.179 2.193 1.128 3.872 1.971a3.423 3.423 0 0 0 2.509.228 3.45 3.45 0 0 0 .985-6.145l-.922-.639z" fill="#fff"/><path d="M206.177 119.163a3.8 3.8 0 0 1-1.712-.41c-2.319-1.163-3.622-1.828-3.887-1.979-.883-.498-2.612-.011-4.285.455-1.908.534-3.882 1.084-5.099.351-.515-.311-.855-.822-1.011-1.523-.606-2.743 1.035-5.099 3.041-6.383a1.362 1.362 0 0 1-.497-.216 1.677 1.677 0 0 1-.707-1.661c.113-.656.716-1.877 3.506-2.691 4.896-1.43 7.642 2.128 8.546 3.297l.088.113c1.176 1.507 1.631 1.936 3.246 3.054l.924.639a3.822 3.822 0 0 1 1.463 4.269 3.818 3.818 0 0 1-1.37 1.937 3.792 3.792 0 0 1-2.246.751v-.003zm-6.597-3.331c.47-.017.936.087 1.354.303.175.098.993.518 3.858 1.963.695.349 1.496.42 2.242.2a3.076 3.076 0 0 0 1.776-1.385 3.09 3.09 0 0 0-.894-4.104l-.924-.64c-1.675-1.162-2.185-1.639-3.407-3.202l-.089-.118c-.828-1.072-3.346-4.333-7.764-3.042-1.733.498-2.851 1.294-2.982 2.11a.95.95 0 0 0 .413.945c.348.251 1.136.095 1.434.036.166-.033.485-.096.59.221.104.318-.07.406-.717.711l-.092.044c-2.095.996-4.075 3.3-3.478 6.025.113.498.332.847.673 1.051.949.572 2.767.063 4.526-.427 1.259-.352 2.476-.691 3.481-.691z" fill="#0F0F0F"/><path d="M235.935 84.946s10.199.807 12.304 15.587c2.105 14.779 5.851 34.31-1.779 39.588-7.63 5.277-44.018-19.999-44.018-19.999s3.858-1.283 5.3-5.727c.511-1.545.793-3.158.838-4.786 0 0 16.05 12.293 26.312 12.566 0 0-6.352-5.497-1.578-17.684 4.261-10.902 2.621-19.545 2.621-19.545z" fill="#fff"/><path d="M231.321 169.624c-13.705 0-37.812-4.984-39.122-5.251a.364.364 0 0 1-.239-.168.387.387 0 0 1-.051-.14.374.374 0 0 1 .01-.149c.023-.081 1.947-7.168 3.263-15.544-1.287 3.072-2.679 4.798-2.756 4.894a.364.364 0 0 1-.404.113l-8.965-3.175a.364.364 0 0 1-.216-.197.387.387 0 0 1-.01-.284c.08-.21 7.894-20.895 6.367-26.169-1.083-3.741-.696-10.265-.368-13.82.103-1.119-.316-2.252-.76-3.452-.331-.898-.678-1.827-.785-2.761-.53-4.606.127-8.386 1.956-11.234 2.09-3.258 11.138-8.898 15.001-11.307.681-.425 1.272-.794 1.398-.887a.362.362 0 0 1 .586.075.37.37 0 0 1 .042.221c4.968-2.824 11.654-5.852 11.729-5.886a.365.365 0 0 1 .426.095c.038.043 3.857 4.442 8.138 6.706 4.568 2.417 10.103 3.265 10.154 3.273.051.008 10.027.997 12.148 15.898.262 1.839.552 3.717.858 5.704 2.128 13.821 4.541 29.487-2.319 34.238-1.732 1.197-4.786 1.043-9.33-.474a76.741 76.741 0 0 1-.587 3.422 19.554 19.554 0 0 0 .628 9.756c1.181 3.645 2.595 8.905 2.625 13.259a2.093 2.093 0 0 1-.828 1.674c-1.381 1.133-4.53 1.57-8.589 1.57zm-38.589-5.892c4.174.848 41.28 8.226 46.704 3.762a1.373 1.373 0 0 0 .568-1.103c-.03-4.261-1.424-9.44-2.59-13.035a20.3 20.3 0 0 1-.649-10.125c.233-1.193.45-2.479.646-3.821a.358.358 0 0 1 .475-.292c4.472 1.543 7.534 1.78 9.092.702 6.493-4.485 4.116-19.913 2.021-33.52-.306-1.993-.596-3.87-.86-5.712-2.038-14.325-11.414-15.267-11.507-15.283-.092-.017-5.735-.878-10.412-3.353-3.919-2.071-7.347-5.75-8.168-6.67-1.378.629-8.251 3.798-12.713 6.502a.365.365 0 0 1-.553-.28l-.166.098c-3.493 2.178-12.771 7.963-14.773 11.082-1.734 2.702-2.355 6.312-1.843 10.753.096.845.41 1.694.742 2.591.453 1.223.922 2.492.803 3.774-.323 3.504-.707 9.923.341 13.547 1.501 5.182-5.18 23.423-6.252 26.282l8.364 2.962c.566-.769 2.562-3.688 3.724-8.166a.363.363 0 0 1 .656-.132.369.369 0 0 1 .06.27c-1.087 8.877-3.228 17.308-3.717 19.167h.007z" fill="#0F0F0F"/><path d="M236.501 139.873a.378.378 0 0 1-.12-.02c-13.339-4.714-33.831-19.147-34.033-19.291a.361.361 0 0 1-.125-.156.363.363 0 0 1 .056-.38.366.366 0 0 1 .165-.112 8.819 8.819 0 0 0 3.135-2.184 8.865 8.865 0 0 0 1.923-3.308 16.52 16.52 0 0 0 .828-4.67.369.369 0 0 1 .204-.33.366.366 0 0 1 .385.038c.153.12 14.832 11.547 24.858 12.438-1.476-1.858-4.78-7.476-1.057-17.395 1.199-3.193 1.539-6.276 1.839-8.997.066-.588.127-1.163.197-1.698a.363.363 0 0 1 .406-.3.368.368 0 0 1 .319.392c-.069.54-.131 1.103-.195 1.687-.305 2.763-.651 5.894-1.882 9.174-4.375 11.648 1.426 17.23 1.491 17.276a.37.37 0 0 1-.047.577.36.36 0 0 1-.21.058c-9.291-.238-22.668-9.989-25.601-12.21a18.095 18.095 0 0 1-.828 4.178 9.517 9.517 0 0 1-4.886 5.693c3.334 2.314 21.28 14.567 33.311 18.813a.362.362 0 0 1 .237.153.367.367 0 0 1 .006.411.367.367 0 0 1-.376.163z" fill="#0F0F0F"/><path d="M184.317 168.843c.932.057 2.688.309 3.157 1.598.598 1.645-2.438 2.22-2.438 2.22s-1.102-3.841-.719-3.818z" fill="#fff"/><path d="M185.034 173.028a.37.37 0 0 1-.349-.266c-1.055-3.68-.813-3.987-.697-4.128a.39.39 0 0 1 .351-.156c1.879.113 3.082.749 3.478 1.837a1.451 1.451 0 0 1-.088 1.244c-.596 1.052-2.42 1.424-2.625 1.462a.326.326 0 0 1-.07.007zm-.425-3.795c.058.55.359 1.828.684 2.991.581-.166 1.502-.499 1.8-1.03a.708.708 0 0 0 .036-.63c-.341-.937-1.614-1.237-2.52-1.331z" fill="#0F0F0F"/><path d="M209.891 93.84c-2.436-.215-9.854-1.93-6.253-8.472a11.047 11.047 0 0 0 1.325-6.177l-.736-9.454 13.45-1.041 1.034 13.28c2.186 12.583-8.513 11.89-8.82 11.864z" fill="#fff"/><path d="M210.347 94.22c-.301 0-.478-.015-.486-.015-2.006-.176-5.751-1.135-7.067-3.611-.799-1.504-.623-3.323.525-5.403a10.632 10.632 0 0 0 1.275-5.97l-.735-9.45a.356.356 0 0 1 .084-.266.356.356 0 0 1 .247-.128l13.45-1.042a.362.362 0 0 1 .392.332l1.034 13.28c.733 4.198.116 7.427-1.837 9.562-2.249 2.465-5.631 2.711-6.882 2.711zm-5.732-24.144.708 9.089a11.38 11.38 0 0 1-1.365 6.387c-1.019 1.85-1.194 3.432-.52 4.701 1.169 2.201 4.627 3.063 6.485 3.226.044 0 4.217.332 6.773-2.458 1.792-1.959 2.346-4.984 1.656-8.97l-1.01-12.95-12.727.975z" fill="#0F0F0F"/><path d="m219.077 73.726-14.438 1.118-.981-12.595a9.309 9.309 0 0 1 2.201-6.754 9.259 9.259 0 0 1 6.319-3.214l6.146-.476a3.101 3.101 0 0 1 2.258.739 3.12 3.12 0 0 1 1.079 2.123l1.144 14.7a4.059 4.059 0 0 1-2.206 3.933 4.045 4.045 0 0 1-1.522.426z" fill="#fff"/><path d="M204.638 75.211a.366.366 0 0 1-.364-.332l-.98-12.595a9.676 9.676 0 0 1 2.285-7.025 9.601 9.601 0 0 1 6.57-3.342l6.146-.474a3.471 3.471 0 0 1 2.523.826 3.492 3.492 0 0 1 1.207 2.371l1.144 14.7a4.432 4.432 0 0 1-1.05 3.216 4.41 4.41 0 0 1-3.007 1.534l-5.222.403c-1.741.138-3.491-.099-5.134-.692a.364.364 0 0 1-.148-.59.365.365 0 0 1 .393-.1c1.549.559 3.198.78 4.839.651l5.222-.403a3.675 3.675 0 0 0 2.516-1.28 3.71 3.71 0 0 0 .876-2.689l-1.145-14.701a2.737 2.737 0 0 0-.955-1.88 2.735 2.735 0 0 0-2.002-.647l-6.147.475a8.872 8.872 0 0 0-6.071 3.088 8.931 8.931 0 0 0-2.112 6.49l.981 12.596a.366.366 0 0 1-.331.393l-.034.007z" fill="#0F0F0F"/><path d="m204.34 69.631-2.552-3.899a10.004 10.004 0 0 1-1.573-4.319c0-.025 0-.05-.008-.075a17.319 17.319 0 0 1 .521-6.85c2.062-7.034 7.604-8.675 12.466-7.421l.04.01a5.673 5.673 0 0 0 5.025-1.125l1.51-1.247a2.124 2.124 0 0 1 1.787-.444 2.12 2.12 0 0 1 1.459 1.125c.767 1.565 1.325 3.807.166 6.146l-1.265 1.985-11.829.726a2.054 2.054 0 0 0-1.916 1.843l-.54 5.11a.575.575 0 0 1-.523.514l-1.196.107-2.017-.751.445 8.565z" fill="#0F0F0F"/><path d="m205.911 61.823-.846-.8a1.7 1.7 0 0 0-2.804.767c-.108.376-.084.779.069 1.14l.461 1.078a4.92 4.92 0 0 0 1.861 2.21l.994.637.265-5.032z" fill="#fff"/><path d="M244.634 61.797a.362.362 0 0 1-.339-.225.373.373 0 0 1-.027-.14v-2.848a.366.366 0 1 1 .732 0v2.844a.365.365 0 0 1-.366.369zM244.634 68.418a.365.365 0 0 1-.366-.367v-2.844a.366.366 0 1 1 .732 0v2.844a.367.367 0 0 1-.366.367zM242.748 63.684h-2.835a.363.363 0 0 1-.36-.22.368.368 0 0 1 .086-.415.363.363 0 0 1 .274-.098h2.835a.368.368 0 0 1 .361.22.367.367 0 0 1-.361.513zM249.352 63.684h-2.833a.368.368 0 0 1-.361-.513.363.363 0 0 1 .213-.2.368.368 0 0 1 .148-.02h2.833a.37.37 0 0 1 .275.098.367.367 0 0 1-.275.635zM271.778 26.081a.363.363 0 0 1-.338-.226.376.376 0 0 1-.028-.141v-2.846a.365.365 0 0 1 .73 0v2.844a.357.357 0 0 1-.105.26.361.361 0 0 1-.259.11zM271.778 32.704a.364.364 0 0 1-.366-.367v-2.844a.39.39 0 0 1 .02-.148.376.376 0 0 1 .199-.213.367.367 0 0 1 .511.361v2.844a.356.356 0 0 1-.106.26.368.368 0 0 1-.258.107zM269.894 27.97h-2.836a.367.367 0 0 1 0-.734h2.836a.367.367 0 0 1 0 .734zM276.497 27.97h-2.834a.366.366 0 0 1 0-.734h2.834a.367.367 0 0 1 0 .734zM239.001 17.057c1.381 0 2.501-1.145 2.501-2.558 0-1.413-1.12-2.558-2.501-2.558-1.381 0-2.501 1.145-2.501 2.558 0 1.413 1.12 2.558 2.501 2.558zM78.234 35.24c2.886 0 5.225-2.346 5.225-5.24 0-2.895-2.34-5.241-5.225-5.241-2.886 0-5.225 2.346-5.225 5.24 0 2.895 2.34 5.242 5.225 5.242z" fill="#0F0F0F"/></g><defs><clipPath id="a"><path fill="#fff" d="M0 0h300v304H0z"/></clipPath></defs></svg>