<svg aria-hidden="true" style="position: absolute; width: 0; height: 0; overflow: hidden;" version="1.1" xmlns="http://www.w3.org/2000/svg" xmlns:xlink="http://www.w3.org/1999/xlink">
<defs>
<symbol id="icon-sport" viewBox="0 0 32 32">
<path fill="#fff" style="fill: var(--color1, #fff)" d="M31.756 12.784h-0.286c-0.255 0-0.462 0.207-0.462 0.461v3.483c0 0.255 0.207 0.461 0.462 0.461h0.286c0.255 0 0.462-0.207 0.462-0.461v-3.483c0-0.255-0.207-0.461-0.462-0.461z"></path>
<path fill="#fff" style="fill: var(--color1, #fff)" d="M28.11 4.349c-0.502-0.467-0.81-1.138-0.81-1.843v-1.201c0-0.732-0.523-1.305-1.219-1.305h-7.007c-0.696 0-1.28 0.573-1.28 1.305v1.201c0 0.705-0.278 1.376-0.78 1.843l-0.728 0.682 6.279 0.206 6.277-0.206-0.733-0.682z"></path>
<path fill="#fff" style="fill: var(--color1, #fff)" d="M28.11 26.587c-0.502 0.467-0.81 1.138-0.81 1.843v1.201c0 0.732-0.523 1.305-1.219 1.305h-7.007c-0.696 0-1.28-0.573-1.28-1.305v-1.201c0-0.705-0.278-1.376-0.78-1.843l-0.728-0.682 6.279-0.206 6.277 0.206-0.732 0.682z"></path>
<path fill="#0f0f0f" style="fill: var(--color2, #0f0f0f)" d="M27.333 4.557h-9.581c-2.202 0-3.987 1.784-3.987 3.985v13.863c0 2.201 1.785 3.985 3.987 3.985h9.581c2.202 0 3.987-1.784 3.987-3.985v-13.863c0-2.201-1.785-3.985-3.987-3.985z"></path>
<path fill="#fff" style="fill: var(--color1, #fff)" d="M27.333 26.429h-9.581c-2.22 0-4.026-1.805-4.026-4.024v-13.863c0-2.219 1.806-4.024 4.026-4.024h9.581c2.22 0 4.026 1.805 4.026 4.024v13.863c0 2.218-1.806 4.024-4.026 4.024zM17.752 4.596c-2.177 0-3.948 1.77-3.948 3.946v13.863c0 2.176 1.771 3.946 3.948 3.946h9.581c2.177 0 3.948-1.77 3.948-3.946v-13.863c0-2.176-1.771-3.946-3.948-3.946h-9.581z"></path>
<path fill="#fff" style="fill: var(--color1, #fff)" d="M24.435 25.415h-6.297c-0.98 0-1.894-0.38-2.577-1.069s-1.054-1.604-1.054-2.583v-9.35c0-0.010 0.004-0.020 0.011-0.028s0.017-0.011 0.028-0.011c0.010 0 0.020 0.004 0.028 0.011s0.011 0.017 0.011 0.028v9.35c0 2.004 1.561 3.574 3.552 3.574h6.297c0.010 0 0.020 0.004 0.028 0.011s0.011 0.017 0.011 0.028-0.004 0.020-0.011 0.028c-0.007 0.007-0.017 0.011-0.028 0.011h0.001z"></path>
<path fill="#fff" style="fill: var(--color1, #fff)" d="M30.54 19.236c-0.010 0-0.020-0.004-0.028-0.011s-0.011-0.017-0.011-0.028v-10.009c0-1.973-1.627-3.578-3.628-3.578h-6.339c-0.010 0-0.020-0.004-0.028-0.011s-0.011-0.017-0.011-0.028 0.004-0.020 0.011-0.028c0.007-0.007 0.017-0.011 0.028-0.011h6.339c2.044 0 3.706 1.64 3.706 3.656v10.009c0 0.010-0.004 0.020-0.011 0.028s-0.017 0.011-0.028 0.011z"></path>
<path fill="#0f0f0f" style="fill: var(--color2, #0f0f0f)" d="M27.607 6.76h-10.674c-0.209 0-0.378 0.169-0.378 0.378v0.219c0 0.209 0.169 0.378 0.378 0.378h10.674c0.209 0 0.378-0.169 0.378-0.378v-0.219c0-0.209-0.169-0.378-0.378-0.378z"></path>
<path fill="#fff" style="fill: var(--color1, #fff)" d="M27.607 7.774h-10.673c-0.111-0-0.217-0.044-0.295-0.122s-0.122-0.184-0.122-0.295v-0.219c0-0.111 0.044-0.217 0.122-0.295s0.184-0.122 0.295-0.122h10.673c0.111 0 0.217 0.044 0.295 0.122s0.122 0.184 0.122 0.295v0.219c-0 0.111-0.044 0.217-0.122 0.295s-0.184 0.122-0.295 0.122zM16.933 6.799c-0.090 0-0.176 0.036-0.24 0.099s-0.099 0.15-0.099 0.24v0.219c0 0.090 0.036 0.176 0.099 0.24s0.15 0.099 0.24 0.099h10.673c0.090-0 0.176-0.036 0.24-0.099s0.099-0.15 0.099-0.24v-0.219c-0-0.090-0.036-0.176-0.099-0.24s-0.15-0.099-0.24-0.099h-10.673z"></path>
<path fill="#fff" style="fill: var(--color1, #fff)" d="M21.427 8.982h-5.337c-0.39 0-0.706 0.316-0.706 0.705v5.061c0 0.39 0.316 0.705 0.706 0.705h5.337c0.39 0 0.706-0.316 0.706-0.705v-5.061c0-0.39-0.316-0.705-0.706-0.705z"></path>
<path fill="#ffc4f7" style="fill: var(--color3, #ffc4f7)" d="M17.071 10.953c0.104-0.113 0.23-0.202 0.37-0.263s0.292-0.091 0.445-0.090c0.232-0.001 0.458 0.078 0.639 0.222 0.099 0.077 0.185 0.169 0.258 0.271 0.073-0.102 0.16-0.193 0.259-0.27 0.182-0.143 0.408-0.221 0.64-0.219 0.153-0.001 0.305 0.031 0.445 0.092s0.266 0.151 0.369 0.264c0.208 0.226 0.322 0.535 0.321 0.87 0 0.345-0.13 0.659-0.406 0.991-0.247 0.297-0.602 0.598-1.013 0.947-0.14 0.119-0.299 0.254-0.465 0.398-0.044 0.038-0.1 0.059-0.157 0.059s-0.114-0.021-0.157-0.059c-0.164-0.144-0.323-0.28-0.463-0.4-0.409-0.35-0.763-0.653-1.009-0.951-0.275-0.332-0.402-0.649-0.402-0.993 0.002-0.335 0.117-0.644 0.326-0.869z"></path>
<path fill="#fff" style="fill: var(--color1, #fff)" d="M18.778 14.264c-0.067-0-0.132-0.025-0.183-0.070-0.164-0.145-0.323-0.28-0.463-0.4-0.411-0.352-0.766-0.655-1.014-0.956-0.281-0.34-0.411-0.665-0.411-1.018 0-0.344 0.12-0.662 0.335-0.895 0.107-0.116 0.237-0.208 0.382-0.271s0.301-0.095 0.459-0.094h0.003c0.241-0.001 0.475 0.081 0.663 0.23 0.088 0.069 0.166 0.148 0.234 0.236 0.068-0.088 0.148-0.167 0.236-0.235 0.188-0.148 0.422-0.228 0.661-0.227h0.003c0.158-0.001 0.315 0.032 0.46 0.095s0.275 0.157 0.382 0.274c0.214 0.234 0.332 0.552 0.331 0.896 0 0.354-0.132 0.677-0.415 1.016-0.249 0.3-0.605 0.602-1.017 0.951l-0.006 0.005c-0.139 0.118-0.296 0.251-0.458 0.393-0.051 0.044-0.116 0.068-0.183 0.068zM17.884 10.64c-0.147-0.001-0.293 0.029-0.428 0.087s-0.256 0.145-0.356 0.253c-0.202 0.218-0.314 0.517-0.315 0.842 0 0.335 0.124 0.642 0.393 0.968 0.244 0.295 0.596 0.597 1.004 0.946 0.14 0.12 0.299 0.256 0.463 0.4 0.036 0.032 0.083 0.050 0.131 0.050s0.095-0.017 0.131-0.049c0.163-0.142 0.32-0.275 0.459-0.393l0.006-0.005c0.41-0.348 0.763-0.647 1.008-0.942 0.27-0.325 0.396-0.632 0.397-0.966 0-0.325-0.11-0.624-0.311-0.844-0.1-0.109-0.221-0.196-0.356-0.255s-0.281-0.089-0.429-0.089h-0.002c-0.223-0.001-0.439 0.074-0.614 0.211-0.096 0.075-0.181 0.163-0.251 0.262-0.004 0.005-0.008 0.009-0.014 0.012s-0.012 0.004-0.018 0.004c-0.006-0-0.012-0.002-0.018-0.004s-0.010-0.007-0.014-0.012c-0.070-0.099-0.155-0.187-0.25-0.262-0.175-0.139-0.392-0.215-0.615-0.214l-0.002-0.001z"></path>
<path fill="#fff" style="fill: var(--color1, #fff)" d="M18.687 13.044c-0.008 0-0.016-0.002-0.022-0.007s-0.012-0.011-0.014-0.018l-0.48-1.287-0.491 0.71c-0.003 0.005-0.008 0.009-0.013 0.012s-0.011 0.005-0.017 0.005l-0.835 0.044c-0.010 0.001-0.021-0.003-0.028-0.010s-0.012-0.017-0.013-0.027c-0.001-0.010 0.003-0.020 0.010-0.028s0.017-0.012 0.027-0.013l0.815-0.043 0.523-0.756c0.004-0.006 0.010-0.010 0.016-0.013s0.014-0.004 0.021-0.003c0.007 0.001 0.014 0.004 0.019 0.008s0.010 0.010 0.012 0.017l0.468 1.255 0.448-1.302c0.003-0.008 0.008-0.014 0.014-0.019s0.015-0.007 0.023-0.007c0.008 0 0.016 0.003 0.023 0.008s0.011 0.012 0.014 0.020l0.255 0.807 1.451 0.014c0.010 0 0.020 0.004 0.027 0.012s0.011 0.017 0.011 0.028c0 0.005-0.001 0.010-0.003 0.015s-0.005 0.009-0.009 0.013c-0.004 0.004-0.008 0.006-0.013 0.008s-0.010 0.003-0.015 0.003l-1.479-0.015c-0.008-0-0.016-0.003-0.023-0.008s-0.011-0.012-0.014-0.020l-0.227-0.721-0.445 1.293c-0.003 0.008-0.008 0.014-0.014 0.019s-0.014 0.007-0.022 0.007l-0-0z"></path>
<path fill="#0f0f0f" style="fill: var(--color2, #0f0f0f)" d="M29.035 8.982h-5.337c-0.39 0-0.706 0.316-0.706 0.705v5.061c0 0.39 0.316 0.705 0.706 0.705h5.337c0.39 0 0.706-0.316 0.706-0.705v-5.061c0-0.39-0.316-0.705-0.706-0.705z"></path>
<path fill="#b6c3ff" style="fill: var(--color4, #b6c3ff)" d="M29.035 15.493h-5.337c-0.198-0-0.387-0.079-0.526-0.218s-0.218-0.329-0.218-0.526v-5.061c0-0.197 0.079-0.387 0.218-0.526s0.329-0.218 0.527-0.218h5.337c0.198 0 0.387 0.079 0.527 0.218s0.218 0.329 0.218 0.526v5.061c-0 0.197-0.079 0.386-0.218 0.526s-0.329 0.218-0.526 0.218zM23.698 9.021c-0.177 0-0.346 0.070-0.472 0.195s-0.196 0.294-0.196 0.471v5.061c0 0.177 0.071 0.346 0.196 0.471s0.295 0.195 0.471 0.195h5.337c0.177-0 0.346-0.071 0.471-0.195s0.195-0.294 0.196-0.471v-5.061c-0-0.177-0.070-0.346-0.195-0.471s-0.295-0.195-0.471-0.196l-5.336 0z"></path>
<path fill="#0f0f0f" style="fill: var(--color2, #0f0f0f)" d="M27.87 12.772c0 0.399-0.159 0.781-0.441 1.063s-0.665 0.44-1.064 0.44c-0.399 0-0.782-0.158-1.064-0.44s-0.441-0.665-0.441-1.063c0-0.754 1.239-2.58 1.467-2.91 0.005-0.007 0.011-0.012 0.018-0.016s0.015-0.006 0.023-0.006c0.008-0 0.016 0.001 0.024 0.005s0.014 0.008 0.019 0.015c0.262 0.321 1.459 2.157 1.459 2.913z"></path>
<path fill="#b6c3ff" style="fill: var(--color4, #b6c3ff)" d="M26.366 14.315c-0.409-0-0.802-0.163-1.091-0.452s-0.452-0.681-0.453-1.090c0-0.762 1.228-2.576 1.474-2.932 0.008-0.012 0.019-0.021 0.031-0.028s0.026-0.011 0.041-0.011c0.014-0 0.028 0.002 0.041 0.008s0.024 0.015 0.033 0.026c0.28 0.345 1.467 2.183 1.467 2.938-0 0.409-0.163 0.801-0.453 1.090s-0.682 0.452-1.091 0.452zM26.372 9.879c-0.002 0-0.004 0.001-0.006 0.002s-0.003 0.002-0.005 0.004c-0.244 0.353-1.46 2.149-1.46 2.887-0.002 0.194 0.034 0.386 0.107 0.565s0.18 0.343 0.317 0.481c0.136 0.138 0.299 0.247 0.477 0.322s0.371 0.113 0.565 0.113c0.194 0 0.386-0.038 0.565-0.113s0.341-0.184 0.477-0.322c0.136-0.138 0.244-0.301 0.317-0.481s0.109-0.372 0.107-0.565c0-0.735-1.172-2.547-1.45-2.888-0.001-0.002-0.003-0.003-0.005-0.003s-0.004-0.001-0.006-0.001v-0.001z"></path>
<path fill="#b6c3ff" style="fill: var(--color4, #b6c3ff)" d="M25.243 12.564c-0.003-0-0.007-0.001-0.010-0.001-0.005-0.001-0.010-0.004-0.014-0.007s-0.007-0.007-0.010-0.011c-0.003-0.004-0.004-0.009-0.005-0.014s-0-0.010 0.001-0.015c0.063-0.232 0.201-0.541 0.41-0.917 0.005-0.009 0.013-0.016 0.023-0.018s0.020-0.002 0.029 0.003c0.009 0.005 0.015 0.013 0.018 0.023s0.002 0.020-0.003 0.029c-0.206 0.371-0.342 0.674-0.403 0.9-0.002 0.008-0.007 0.016-0.014 0.021s-0.015 0.008-0.023 0.008z"></path>
<path fill="#b6c3ff" style="fill: var(--color4, #b6c3ff)" d="M26.384 13.989c-0.28-0.001-0.552-0.098-0.77-0.275s-0.367-0.424-0.424-0.698c-0.002-0.010-0-0.021 0.006-0.029s0.015-0.015 0.025-0.017c0.010-0.002 0.021-0 0.029 0.006s0.015 0.015 0.017 0.025c0.053 0.257 0.194 0.488 0.397 0.653s0.458 0.257 0.72 0.257c0.18 0.001 0.357-0.042 0.517-0.124 0.009-0.005 0.020-0.005 0.030-0.002 0.005 0.002 0.009 0.004 0.013 0.008s0.007 0.007 0.009 0.012c0.002 0.005 0.004 0.010 0.004 0.015s-0 0.010-0.002 0.015c-0.002 0.005-0.004 0.009-0.008 0.013s-0.008 0.007-0.012 0.009c-0.171 0.087-0.36 0.133-0.552 0.132z"></path>
<path fill="#0f0f0f" style="fill: var(--color2, #0f0f0f)" d="M21.427 16.39h-5.337c-0.39 0-0.706 0.316-0.706 0.705v5.061c0 0.39 0.316 0.705 0.706 0.705h5.337c0.39 0 0.706-0.316 0.706-0.705v-5.061c0-0.39-0.316-0.705-0.706-0.705z"></path>
<path fill="#fff3b7" style="fill: var(--color5, #fff3b7)" d="M21.427 22.9h-5.337c-0.198 0-0.387-0.078-0.527-0.218s-0.218-0.329-0.219-0.526v-5.061c0-0.197 0.079-0.387 0.218-0.526s0.329-0.218 0.526-0.218h5.337c0.198 0 0.387 0.079 0.526 0.218s0.218 0.329 0.218 0.526v5.061c-0 0.197-0.079 0.386-0.218 0.526s-0.329 0.218-0.526 0.219zM16.091 16.429c-0.177 0-0.346 0.070-0.471 0.195s-0.195 0.294-0.195 0.471v5.061c0 0.177 0.070 0.346 0.195 0.471s0.295 0.195 0.471 0.195h5.337c0.177-0 0.346-0.070 0.471-0.195s0.195-0.294 0.196-0.471v-5.061c-0-0.177-0.070-0.346-0.196-0.471s-0.294-0.195-0.471-0.195h-5.337z"></path>
<path fill="#0f0f0f" style="fill: var(--color2, #0f0f0f)" d="M20.319 19.099h-3.082v0.663h3.082v-0.663z"></path>
<path fill="#fff3b7" style="fill: var(--color5, #fff3b7)" d="M20.319 19.801h-3.082c-0.010 0-0.020-0.004-0.028-0.011s-0.011-0.017-0.011-0.028v-0.663c0-0.010 0.004-0.020 0.011-0.028s0.017-0.011 0.028-0.011h3.082c0.005 0 0.010 0.001 0.015 0.003s0.009 0.005 0.013 0.009c0.004 0.004 0.006 0.008 0.008 0.013s0.003 0.010 0.003 0.015v0.663c0 0.005-0.001 0.010-0.003 0.015s-0.005 0.009-0.008 0.013c-0.004 0.004-0.008 0.007-0.013 0.009s-0.010 0.003-0.015 0.003zM17.276 19.723h3.004v-0.585h-3.004v0.585z"></path>
<path fill="#0f0f0f" style="fill: var(--color2, #0f0f0f)" d="M16.739 18.826h-0.057c-0.167 0-0.303 0.136-0.303 0.303v0.642c0 0.167 0.136 0.303 0.303 0.303h0.057c0.167 0 0.303-0.136 0.303-0.303v-0.642c0-0.167-0.136-0.303-0.303-0.303z"></path>
<path fill="#fff3b7" style="fill: var(--color5, #fff3b7)" d="M16.739 20.113h-0.057c-0.091-0-0.177-0.036-0.242-0.1s-0.1-0.151-0.1-0.241v-0.642c0-0.091 0.036-0.177 0.1-0.241s0.151-0.1 0.242-0.1h0.057c0.091 0 0.178 0.036 0.242 0.1s0.1 0.151 0.1 0.241v0.642c-0 0.091-0.036 0.177-0.1 0.242s-0.151 0.1-0.242 0.1zM16.682 18.865c-0.070 0-0.137 0.028-0.186 0.077s-0.077 0.116-0.077 0.186v0.642c0 0.070 0.028 0.137 0.077 0.186s0.117 0.077 0.186 0.077h0.057c0.070-0 0.137-0.028 0.186-0.077s0.077-0.116 0.077-0.186v-0.642c-0-0.070-0.028-0.137-0.077-0.186s-0.117-0.077-0.186-0.077h-0.057z"></path>
<path fill="#0f0f0f" style="fill: var(--color2, #0f0f0f)" d="M20.797 18.826h-0.057c-0.167 0-0.303 0.136-0.303 0.303v0.642c0 0.167 0.136 0.303 0.303 0.303h0.057c0.167 0 0.303-0.136 0.303-0.303v-0.642c0-0.167-0.136-0.303-0.303-0.303z"></path>
<path fill="#fff3b7" style="fill: var(--color5, #fff3b7)" d="M20.797 20.113h-0.058c-0.091-0-0.178-0.036-0.242-0.1s-0.1-0.151-0.1-0.241v-0.642c0-0.091 0.036-0.177 0.1-0.241s0.151-0.1 0.242-0.1h0.058c0.091 0 0.178 0.036 0.242 0.1s0.1 0.151 0.1 0.241v0.642c-0 0.091-0.036 0.177-0.1 0.241s-0.151 0.1-0.242 0.1zM20.739 18.865c-0.070 0-0.137 0.028-0.186 0.077s-0.077 0.116-0.077 0.186v0.642c0 0.070 0.028 0.137 0.077 0.186s0.117 0.077 0.186 0.077h0.058c0.070-0 0.137-0.028 0.186-0.077s0.077-0.116 0.077-0.186v-0.642c-0-0.070-0.028-0.137-0.077-0.186s-0.117-0.077-0.186-0.077h-0.058z"></path>
<path fill="#0f0f0f" style="fill: var(--color2, #0f0f0f)" d="M17.477 18.164h-0.517c-0.17 0-0.307 0.137-0.307 0.307v1.959c0 0.169 0.138 0.307 0.307 0.307h0.517c0.17 0 0.307-0.137 0.307-0.307v-1.959c0-0.169-0.137-0.307-0.307-0.307z"></path>
<path fill="#fff3b7" style="fill: var(--color5, #fff3b7)" d="M17.476 20.776h-0.517c-0.092-0-0.18-0.037-0.245-0.101s-0.101-0.153-0.101-0.244v-1.958c0-0.092 0.037-0.18 0.101-0.244s0.153-0.101 0.245-0.101h0.517c0.092 0 0.18 0.037 0.245 0.101s0.101 0.153 0.101 0.244v1.958c-0 0.092-0.037 0.18-0.101 0.244s-0.153 0.101-0.245 0.101zM16.959 18.203c-0.071 0-0.139 0.028-0.189 0.079s-0.079 0.118-0.079 0.189v1.958c0 0.071 0.028 0.139 0.079 0.189s0.118 0.078 0.189 0.079h0.517c0.071-0 0.139-0.028 0.189-0.079s0.079-0.118 0.079-0.189v-1.958c-0-0.071-0.028-0.139-0.079-0.189s-0.118-0.078-0.189-0.079h-0.517z"></path>
<path fill="#0f0f0f" style="fill: var(--color2, #0f0f0f)" d="M20.519 18.164h-0.517c-0.17 0-0.307 0.137-0.307 0.307v1.959c0 0.169 0.137 0.307 0.307 0.307h0.517c0.17 0 0.307-0.137 0.307-0.307v-1.959c0-0.169-0.138-0.307-0.307-0.307z"></path>
<path fill="#fff3b7" style="fill: var(--color5, #fff3b7)" d="M20.519 20.776h-0.517c-0.092-0-0.18-0.037-0.245-0.101s-0.101-0.153-0.101-0.244v-1.958c0-0.092 0.037-0.18 0.102-0.244s0.153-0.101 0.245-0.102h0.517c0.092 0 0.18 0.037 0.245 0.101s0.101 0.153 0.102 0.244v1.958c-0 0.092-0.037 0.18-0.102 0.244s-0.153 0.101-0.245 0.101zM20.002 18.203c-0.071 0-0.139 0.028-0.189 0.079s-0.079 0.118-0.079 0.189v1.958c0 0.071 0.028 0.139 0.079 0.189s0.118 0.078 0.189 0.079h0.517c0.071-0 0.139-0.028 0.189-0.079s0.079-0.118 0.079-0.189v-1.958c-0-0.071-0.028-0.139-0.079-0.189s-0.118-0.078-0.189-0.079h-0.517z"></path>
<path fill="#fff" style="fill: var(--color1, #fff)" d="M29.035 16.39h-5.337c-0.39 0-0.706 0.316-0.706 0.705v5.061c0 0.39 0.316 0.705 0.706 0.705h5.337c0.39 0 0.706-0.316 0.706-0.705v-5.061c0-0.39-0.316-0.705-0.706-0.705z"></path>
<path fill="#45ffbc" style="fill: var(--color6, #45ffbc)" d="M25.259 19.294h-0.868c-0.073 0-0.132 0.059-0.132 0.131v1.296c0 0.073 0.059 0.131 0.132 0.131h0.868c0.073 0 0.132-0.059 0.132-0.131v-1.296c0-0.073-0.059-0.131-0.132-0.131z"></path>
<path fill="#fff" style="fill: var(--color1, #fff)" d="M25.259 20.893h-0.868c-0.045-0-0.089-0.018-0.12-0.050s-0.050-0.075-0.050-0.12v-1.296c0-0.045 0.018-0.088 0.050-0.12s0.075-0.050 0.12-0.050h0.868c0.045 0 0.089 0.018 0.121 0.050s0.050 0.075 0.050 0.12v1.296c-0 0.045-0.018 0.089-0.050 0.121s-0.076 0.050-0.121 0.050zM24.391 19.333c-0.025 0-0.048 0.010-0.065 0.027s-0.027 0.041-0.027 0.065v1.296c0 0.025 0.010 0.048 0.027 0.065s0.041 0.027 0.065 0.027h0.868c0.025 0 0.048-0.010 0.066-0.027s0.027-0.041 0.027-0.065v-1.296c-0-0.025-0.010-0.048-0.027-0.065s-0.041-0.027-0.066-0.027h-0.868z"></path>
<path fill="#45ffbc" style="fill: var(--color6, #45ffbc)" d="M26.82 18.709h-0.868c-0.073 0-0.132 0.059-0.132 0.131v1.881c0 0.073 0.059 0.132 0.132 0.132h0.868c0.073 0 0.132-0.059 0.132-0.132v-1.881c0-0.073-0.059-0.131-0.132-0.131z"></path>
<path fill="#fff" style="fill: var(--color1, #fff)" d="M26.819 20.893h-0.868c-0.045-0-0.089-0.018-0.121-0.050s-0.050-0.075-0.050-0.121v-1.881c0-0.045 0.018-0.089 0.050-0.121s0.075-0.050 0.121-0.050h0.868c0.045 0 0.089 0.018 0.121 0.050s0.050 0.075 0.050 0.121v1.881c-0 0.045-0.018 0.089-0.050 0.121s-0.075 0.050-0.121 0.050zM25.952 18.749c-0.025 0-0.048 0.010-0.066 0.027s-0.027 0.041-0.027 0.065v1.881c0 0.025 0.010 0.048 0.027 0.065s0.041 0.027 0.066 0.027h0.868c0.025 0 0.048-0.010 0.066-0.027s0.027-0.041 0.027-0.065v-1.881c-0-0.025-0.010-0.048-0.027-0.065s-0.041-0.027-0.066-0.027h-0.868z"></path>
<path fill="#45ffbc" style="fill: var(--color6, #45ffbc)" d="M28.38 18.047h-0.868c-0.073 0-0.132 0.059-0.132 0.132v2.544c0 0.073 0.059 0.132 0.132 0.132h0.868c0.073 0 0.132-0.059 0.132-0.132v-2.544c0-0.073-0.059-0.132-0.132-0.132z"></path>
<path fill="#fff" style="fill: var(--color1, #fff)" d="M28.381 20.893h-0.868c-0.045-0-0.089-0.018-0.121-0.050s-0.050-0.075-0.050-0.121v-2.544c0-0.045 0.018-0.089 0.050-0.121s0.075-0.050 0.121-0.050h0.868c0.045 0 0.089 0.018 0.121 0.050s0.050 0.075 0.050 0.121v2.544c-0 0.045-0.018 0.088-0.050 0.12s-0.075 0.050-0.121 0.050zM27.513 18.086c-0.025 0-0.048 0.010-0.066 0.027s-0.027 0.041-0.027 0.066v2.544c0 0.025 0.010 0.048 0.027 0.065s0.041 0.027 0.066 0.027h0.868c0.025-0 0.048-0.010 0.065-0.027s0.027-0.041 0.027-0.065v-2.544c-0-0.025-0.010-0.048-0.027-0.065s-0.041-0.027-0.065-0.027h-0.868z"></path>
<path fill="#fff" style="fill: var(--color1, #fff)" d="M9.291 3.613c-0.009 0-0.017-0.003-0.024-0.008s-0.012-0.013-0.014-0.021c-0.002-0.008-0.002-0.017 0.002-0.025s0.009-0.015 0.017-0.019c1.78-1.020 3.781-1.595 5.831-1.676 0.005-0 0.010 0 0.015 0.002s0.009 0.004 0.013 0.008c0.004 0.004 0.007 0.008 0.009 0.012s0.003 0.010 0.003 0.015c0 0.005-0.001 0.010-0.002 0.015s-0.004 0.009-0.008 0.013-0.008 0.007-0.012 0.009c-0.005 0.002-0.010 0.003-0.015 0.004-2.038 0.080-4.026 0.652-5.795 1.666-0.006 0.003-0.013 0.005-0.019 0.005z"></path>
<path fill="#fff" style="fill: var(--color1, #fff)" d="M8.862 3.004c-0.008-0-0.017-0.003-0.023-0.008s-0.012-0.012-0.014-0.021c-0.002-0.008-0.002-0.017 0.001-0.025s0.009-0.015 0.016-0.019c2.227-1.357 4.804-2.032 7.41-1.942 0.010 0 0.020 0.005 0.027 0.012s0.011 0.018 0.010 0.028c0 0.005-0.001 0.010-0.003 0.015s-0.005 0.009-0.009 0.013c-0.004 0.004-0.008 0.006-0.013 0.008s-0.010 0.002-0.015 0.002c-2.591-0.089-5.152 0.582-7.366 1.931-0.006 0.004-0.014 0.006-0.021 0.006z"></path>
<path fill="#fff" style="fill: var(--color1, #fff)" d="M7.928 4.724c-0.071 0-0.14-0.021-0.198-0.060s-0.104-0.095-0.131-0.16c-0.027-0.065-0.034-0.137-0.020-0.206s0.048-0.133 0.098-0.183c0.050-0.050 0.113-0.084 0.183-0.098s0.141-0.007 0.206 0.020c0.065 0.027 0.121 0.073 0.16 0.131s0.060 0.128 0.060 0.198c-0 0.095-0.038 0.185-0.105 0.252s-0.158 0.104-0.252 0.105zM7.928 4.090c-0.055 0-0.109 0.016-0.155 0.047s-0.082 0.074-0.103 0.125c-0.021 0.051-0.027 0.107-0.016 0.161s0.037 0.104 0.076 0.143c0.039 0.039 0.089 0.065 0.143 0.076s0.11 0.005 0.161-0.016 0.094-0.057 0.125-0.103c0.031-0.046 0.047-0.1 0.047-0.155-0-0.074-0.030-0.145-0.082-0.197s-0.123-0.082-0.197-0.082z"></path>
<path fill="#fff" style="fill: var(--color1, #fff)" d="M4.26 21.44c-0.006 0-0.012-0.002-0.018-0.004s-0.009-0.005-0.012-0.009-0.006-0.008-0.008-0.013c-0.002-0.005-0.002-0.010-0.002-0.015s0.002-0.010 0.004-0.015l0.088-0.168c0.005-0.009 0.013-0.016 0.023-0.020s0.021-0.003 0.030 0.002c0.009 0.005 0.016 0.013 0.020 0.023s0.003 0.021-0.002 0.030l-0.088 0.168c-0.003 0.007-0.008 0.012-0.014 0.016s-0.013 0.006-0.021 0.006z"></path>
<path fill="#fff" style="fill: var(--color1, #fff)" d="M3.843 22.244c-0.007 0-0.013-0.002-0.019-0.005s-0.011-0.008-0.014-0.014c-0.004-0.006-0.006-0.012-0.006-0.019s0.001-0.013 0.004-0.019l0.087-0.168c0.002-0.005 0.005-0.009 0.009-0.012s0.008-0.006 0.013-0.008c0.005-0.002 0.010-0.002 0.015-0.002s0.010 0.002 0.015 0.004 0.009 0.006 0.012 0.009c0.003 0.004 0.006 0.008 0.008 0.013s0.002 0.010 0.002 0.015-0.002 0.010-0.004 0.015l-0.087 0.168c-0.003 0.007-0.008 0.012-0.014 0.016s-0.013 0.006-0.021 0.006z"></path>
<path fill="#fff" style="fill: var(--color1, #fff)" d="M3.774 21.596c-0.006 0-0.012-0.001-0.018-0.004l-0.17-0.085c-0.009-0.005-0.016-0.013-0.020-0.023s-0.003-0.021 0.002-0.030c0.005-0.009 0.013-0.016 0.023-0.020s0.021-0.003 0.030 0.002l0.17 0.085c0.008 0.004 0.014 0.010 0.018 0.018s0.005 0.017 0.003 0.025c-0.002 0.009-0.007 0.016-0.014 0.022s-0.015 0.008-0.024 0.008v0z"></path>
<path fill="#fff" style="fill: var(--color1, #fff)" d="M4.586 22.005c-0.006 0-0.012-0.001-0.018-0.004l-0.17-0.085c-0.009-0.005-0.016-0.013-0.020-0.023s-0.003-0.021 0.002-0.030c0.005-0.009 0.013-0.016 0.023-0.020s0.021-0.003 0.030 0.002l0.17 0.085c0.008 0.004 0.014 0.010 0.018 0.018s0.005 0.017 0.003 0.025c-0.002 0.009-0.007 0.016-0.014 0.022s-0.015 0.008-0.024 0.008v0z"></path>
<path fill="#fff" style="fill: var(--color1, #fff)" d="M2.263 19.22c-0.008 0-0.016-0.003-0.023-0.007s-0.012-0.011-0.014-0.019c-0.47-1.401-0.973-3.46-0.694-5.31 0.002-0.010 0.007-0.019 0.016-0.025s0.019-0.008 0.029-0.007c0.010 0.002 0.019 0.007 0.025 0.015s0.009 0.018 0.008 0.029c-0.276 1.835 0.223 3.881 0.691 5.274 0.003 0.010 0.002 0.021-0.002 0.030s-0.013 0.016-0.023 0.019c-0.004 0.001-0.008 0.002-0.012 0.002z"></path>
<path fill="#fff" style="fill: var(--color1, #fff)" d="M3.375 20.458c-0.007-0-0.015-0.002-0.021-0.006s-0.011-0.010-0.014-0.017c-0.62-1.342-1.343-3.333-1.268-5.204 0-0.005 0.001-0.010 0.003-0.015s0.005-0.009 0.009-0.012 0.008-0.006 0.013-0.008c0.005-0.002 0.010-0.002 0.015-0.002s0.010 0.001 0.015 0.004c0.005 0.002 0.009 0.005 0.012 0.009s0.006 0.008 0.008 0.013c0.002 0.005 0.003 0.010 0.002 0.015-0.075 1.854 0.644 3.834 1.26 5.168 0.003 0.006 0.004 0.012 0.003 0.019s-0.002 0.013-0.006 0.018-0.008 0.010-0.014 0.013c-0.006 0.003-0.012 0.005-0.019 0.005h-0z"></path>
<path fill="#fff" style="fill: var(--color1, #fff)" d="M15.067 30.105c-0.071 0-0.14-0.021-0.198-0.060s-0.104-0.095-0.131-0.16c-0.027-0.065-0.034-0.137-0.020-0.206s0.048-0.133 0.098-0.183c0.050-0.050 0.114-0.084 0.183-0.098s0.141-0.007 0.206 0.020c0.065 0.027 0.121 0.073 0.16 0.131s0.060 0.128 0.060 0.198c-0 0.094-0.038 0.185-0.105 0.252s-0.158 0.104-0.252 0.104zM15.067 29.47c-0.055-0-0.109 0.016-0.155 0.047s-0.082 0.074-0.103 0.125c-0.021 0.051-0.027 0.107-0.016 0.161s0.037 0.104 0.076 0.143 0.089 0.066 0.143 0.076c0.054 0.011 0.11 0.005 0.161-0.016s0.094-0.057 0.125-0.103c0.031-0.046 0.047-0.1 0.047-0.155-0-0.074-0.029-0.145-0.082-0.197s-0.123-0.082-0.197-0.082z"></path>
<path fill="#0f0f0f" style="fill: var(--color2, #0f0f0f)" d="M5.948 29.312c0 0-0.255 1.239 0.007 1.554l0.081 0.098-1.262-0.061c0 0 0.52-1.313 0.567-1.86l0.608 0.27z"></path>
<path fill="#fff" style="fill: var(--color1, #fff)" d="M6.037 31.003h-0.002l-1.262-0.062c-0.006-0-0.012-0.002-0.018-0.005s-0.010-0.007-0.013-0.012c-0.003-0.005-0.006-0.011-0.006-0.017s0-0.012 0.002-0.018c0.005-0.013 0.518-1.314 0.564-1.849 0.001-0.006 0.003-0.012 0.006-0.017s0.008-0.010 0.013-0.013 0.011-0.005 0.018-0.005c0.006-0 0.012 0.001 0.018 0.003l0.608 0.27c0.008 0.004 0.015 0.010 0.019 0.018s0.005 0.017 0.004 0.026c-0.003 0.012-0.248 1.224-0.001 1.521l0.081 0.098c0.004 0.006 0.007 0.012 0.008 0.020s-0 0.014-0.004 0.021c-0.003 0.006-0.008 0.012-0.014 0.016s-0.013 0.006-0.020 0.006zM4.829 30.866l1.12 0.055-0.025-0.030c-0.25-0.301-0.060-1.356-0.021-1.556l-0.53-0.235c-0.064 0.514-0.449 1.526-0.543 1.767z"></path>
<path fill="#0f0f0f" style="fill: var(--color2, #0f0f0f)" d="M5.947 30.416c0.090 0.12 0.27 0.937 0.235 1.173-0.011 0.082-0.052 0.158-0.114 0.212s-0.143 0.085-0.226 0.085l-0.865-0.003c-0.649 0.003-0.342-1.252-0.134-1.492 0.005-0.006 0.012-0.011 0.020-0.015s0.016-0.005 0.024-0.005 0.016 0.002 0.024 0.005c0.008 0.003 0.014 0.009 0.020 0.015l0.053 0.087c0.005 0.009 0.012 0.016 0.020 0.021s0.018 0.008 0.028 0.008 0.020-0.003 0.028-0.008c0.008-0.005 0.015-0.013 0.020-0.021l0.082-0.157c0.009-0.018 0.023-0.033 0.041-0.043s0.037-0.015 0.057-0.014l0.248 0.012c0.023 0.001 0.044 0.010 0.062 0.024s0.031 0.033 0.037 0.055l0.043 0.136c0.003 0.010 0.008 0.019 0.015 0.026s0.017 0.012 0.026 0.014c0.010 0.002 0.020 0.001 0.030-0.002s0.018-0.009 0.025-0.017l0.086-0.107c0.008-0.007 0.017-0.013 0.028-0.016s0.021-0.005 0.032-0.003c0.011 0.001 0.021 0.004 0.031 0.010s0.018 0.013 0.024 0.022z"></path>
<path fill="#fff" style="fill: var(--color1, #fff)" d="M5.843 31.926h-0.001l-0.867-0.003c-0.167 0-0.292-0.080-0.362-0.231-0.173-0.376 0.031-1.129 0.201-1.325 0.009-0.011 0.020-0.019 0.033-0.025s0.026-0.009 0.040-0.009c0.014 0 0.027 0.003 0.040 0.009s0.024 0.014 0.033 0.024c0.002 0.002 0.003 0.004 0.005 0.006l0.053 0.088c0.001 0.003 0.004 0.005 0.006 0.007s0.006 0.002 0.009 0.002c0.003 0 0.005-0.001 0.008-0.002s0.004-0.004 0.005-0.006l0.082-0.157c0.012-0.025 0.032-0.045 0.056-0.059s0.051-0.020 0.079-0.019l0.248 0.012c0.031 0.002 0.060 0.013 0.084 0.031s0.042 0.044 0.051 0.074l0.042 0.136c0.001 0.003 0.003 0.006 0.005 0.009s0.006 0.004 0.009 0.005c0.003 0.001 0.006 0 0.008-0.001s0.005-0.003 0.007-0.005l0.086-0.106c0.001-0.001 0.002-0.003 0.004-0.004 0.012-0.011 0.025-0.019 0.040-0.025s0.031-0.007 0.047-0.006c0.017 0.001 0.033 0.006 0.047 0.015s0.027 0.019 0.037 0.033c0.099 0.132 0.279 0.957 0.243 1.202-0.012 0.091-0.057 0.175-0.126 0.236s-0.158 0.095-0.25 0.095zM4.977 31.845l0.865 0.003c0.074-0 0.145-0.027 0.2-0.076s0.091-0.116 0.101-0.189c0.035-0.238-0.15-1.040-0.227-1.144-0.003-0.005-0.008-0.008-0.013-0.011s-0.010-0.005-0.016-0.005c-0.010-0.001-0.019 0.002-0.027 0.008l-0.084 0.105c-0.011 0.013-0.024 0.023-0.040 0.029s-0.033 0.007-0.050 0.004c-0.017-0.003-0.033-0.011-0.046-0.023s-0.023-0.027-0.028-0.043l-0.043-0.136c-0.004-0.014-0.013-0.026-0.024-0.036s-0.025-0.015-0.040-0.015l-0.248-0.012c-0.012-0.001-0.025 0.003-0.036 0.009s-0.020 0.015-0.026 0.026l-0.082 0.157c-0.008 0.015-0.019 0.027-0.033 0.036s-0.030 0.014-0.047 0.014c-0.017 0-0.034-0.004-0.049-0.012s-0.027-0.021-0.036-0.035l-0.050-0.084c-0.002-0.002-0.004-0.003-0.006-0.004s-0.004-0.001-0.007-0.001c-0.003 0-0.005 0.001-0.008 0.002s-0.005 0.003-0.006 0.005c-0.155 0.179-0.348 0.896-0.189 1.242 0.058 0.125 0.153 0.186 0.291 0.186l0.002 0.001z"></path>
<path fill="#0f0f0f" style="fill: var(--color2, #0f0f0f)" d="M4.978 31.884l0.865 0.003c0.083-0 0.163-0.030 0.226-0.085s0.103-0.13 0.114-0.212c0.010-0.066 0.003-0.178-0.015-0.307-0.113 0.111-0.287 0.203-0.528 0.23-0.144 0.016-0.451 0.022-0.637-0.030-0.173-0.048-0.315-0.111-0.415-0.2-0.010 0.321 0.083 0.603 0.391 0.602z"></path>
<path fill="#fff" style="fill: var(--color1, #fff)" d="M5.843 31.926h-0.001l-0.867-0.003c-0.115 0-0.21-0.037-0.28-0.11-0.104-0.106-0.154-0.291-0.147-0.533 0-0.007 0.003-0.015 0.007-0.021s0.010-0.011 0.017-0.014 0.014-0.004 0.022-0.003c0.007 0.001 0.014 0.004 0.020 0.009 0.089 0.079 0.219 0.142 0.4 0.192 0.173 0.048 0.474 0.046 0.623 0.029 0.262-0.030 0.42-0.136 0.505-0.22 0.005-0.005 0.012-0.009 0.019-0.010s0.014-0.001 0.021 0.001c0.007 0.002 0.013 0.007 0.017 0.012s0.008 0.012 0.008 0.020c0.019 0.145 0.024 0.252 0.014 0.318-0.012 0.092-0.057 0.176-0.127 0.237s-0.159 0.094-0.251 0.095zM4.977 31.845l0.865 0.003c0.074-0 0.145-0.027 0.2-0.076s0.091-0.116 0.101-0.189c0.007-0.047 0.005-0.123-0.006-0.223-0.101 0.080-0.26 0.165-0.494 0.191-0.159 0.017-0.467 0.020-0.652-0.031-0.153-0.043-0.274-0.095-0.366-0.157 0.005 0.182 0.048 0.318 0.125 0.398 0.056 0.057 0.131 0.086 0.224 0.086l0.003-0.001z"></path>
<path fill="#0f0f0f" style="fill: var(--color2, #0f0f0f)" d="M11.857 28.998c0 0-0.165 0.617 0.009 1.447l-0.756 0.465-0.583-0.513 0.282-0.351c0.223-0.353 0.271-0.939 0.292-1.243l0.757 0.195z"></path>
<path fill="#fff" style="fill: var(--color1, #fff)" d="M11.109 30.949c-0.009 0-0.019-0.003-0.026-0.010l-0.583-0.513c-0.008-0.007-0.012-0.016-0.013-0.026s0.002-0.020 0.008-0.028l0.28-0.35c0.227-0.362 0.269-0.987 0.285-1.223 0-0.006 0.002-0.011 0.005-0.016s0.007-0.009 0.011-0.013c0.005-0.003 0.010-0.006 0.016-0.007s0.012-0.001 0.018 0.001l0.756 0.195c0.005 0.001 0.010 0.003 0.014 0.006s0.008 0.007 0.010 0.011c0.003 0.004 0.004 0.009 0.005 0.014s0 0.010-0.001 0.015c-0.002 0.006-0.161 0.619 0.009 1.429 0.002 0.008 0.001 0.016-0.002 0.023s-0.008 0.014-0.015 0.018l-0.756 0.465c-0.006 0.004-0.014 0.006-0.021 0.006zM10.58 30.392l0.533 0.469 0.709-0.436c-0.143-0.709-0.044-1.253-0.012-1.399l-0.674-0.174c-0.019 0.269-0.070 0.858-0.295 1.214l-0.003 0.004-0.258 0.322z"></path>
<path fill="#0f0f0f" style="fill: var(--color2, #0f0f0f)" d="M11.97 30.236l0.105 0.168c0.209 0.333 0.495 0.611 0.835 0.809l0.261 0.152c0.012 0.007 0.023 0.017 0.030 0.029s0.012 0.026 0.013 0.040v0.014c0.011 0.162-0.227 0.487-0.817 0.512-0.365 0.015-1.195-0.076-2.123-0.624-0.029-0.017-0.051-0.042-0.064-0.073s-0.016-0.064-0.008-0.097c0.058-0.241 0.218-0.813 0.488-1.063 0.007-0.007 0.015-0.012 0.024-0.015s0.019-0.005 0.028-0.004c0.010 0.001 0.019 0.004 0.027 0.008s0.016 0.011 0.022 0.019l0.238 0.315c0.025 0.034 0.057 0.062 0.093 0.083s0.076 0.035 0.118 0.041c0.042 0.006 0.084 0.003 0.125-0.008s0.079-0.029 0.112-0.055l0.359-0.274c0.010-0.008 0.021-0.014 0.034-0.017s0.025-0.004 0.038-0.001c0.013 0.002 0.024 0.007 0.035 0.014s0.020 0.016 0.026 0.027z"></path>
<path fill="#fff" style="fill: var(--color1, #fff)" d="M12.329 32c-0.276 0-1.097-0.055-2.074-0.631-0.036-0.021-0.064-0.053-0.080-0.091s-0.020-0.081-0.010-0.121c0.057-0.24 0.221-0.825 0.499-1.083 0.011-0.010 0.024-0.018 0.039-0.023s0.030-0.007 0.045-0.006c0.015 0.001 0.029 0.006 0.042 0.013s0.024 0.017 0.033 0.029l0.238 0.315c0.022 0.029 0.050 0.054 0.082 0.073s0.067 0.031 0.104 0.036c0.037 0.005 0.074 0.003 0.109-0.007s0.069-0.026 0.098-0.048l0.359-0.274c0.014-0.011 0.031-0.019 0.048-0.023s0.036-0.005 0.054-0.001c0.018 0.003 0.035 0.010 0.050 0.020s0.028 0.023 0.037 0.039l0.105 0.168c0.206 0.328 0.488 0.6 0.822 0.795l0.261 0.152c0.018 0.010 0.033 0.025 0.044 0.042s0.017 0.037 0.019 0.058l0.001 0.015c0.005 0.079-0.035 0.175-0.113 0.261-0.091 0.101-0.307 0.274-0.742 0.292-0.017 0.001-0.040 0.001-0.071 0.001zM10.739 30.122c-0.008 0-0.016 0.003-0.021 0.009-0.262 0.245-0.42 0.811-0.476 1.044-0.006 0.024-0.004 0.050 0.006 0.072s0.027 0.042 0.048 0.054c1.064 0.63 1.937 0.626 2.101 0.619 0.405-0.017 0.604-0.175 0.687-0.266 0.074-0.082 0.097-0.159 0.093-0.203l-0.001-0.015c-0.001-0.008-0.003-0.015-0.007-0.022s-0.010-0.012-0.017-0.016l-0.261-0.152c-0.345-0.201-0.636-0.483-0.849-0.822l-0.105-0.168c-0.004-0.006-0.009-0.011-0.015-0.015s-0.013-0.007-0.020-0.008c-0.007-0.001-0.014-0.001-0.021 0.001s-0.014 0.005-0.019 0.009l-0.359 0.274c-0.038 0.029-0.080 0.049-0.126 0.061s-0.093 0.015-0.14 0.008c-0.047-0.007-0.092-0.022-0.132-0.046s-0.076-0.056-0.105-0.093l-0.237-0.315c-0.002-0.003-0.005-0.006-0.009-0.008s-0.007-0.003-0.011-0.003l-0.003 0.002z"></path>
<path fill="#0f0f0f" style="fill: var(--color2, #0f0f0f)" d="M11.987 31.148l-0.101-0.066c-0.012-0.008-0.026-0.012-0.041-0.012s-0.029 0.004-0.041 0.012c-0.012 0.008-0.022 0.019-0.028 0.032s-0.008 0.028-0.005 0.042l0.020 0.117c0.002 0.014 0.001 0.027-0.003 0.040s-0.011 0.025-0.021 0.034c-0.010 0.010-0.021 0.017-0.034 0.021s-0.027 0.006-0.040 0.004c-0.416-0.065-0.814-0.216-1.168-0.443l-0.214-0.137c-0.050 0.147-0.086 0.282-0.107 0.372-0.008 0.032-0.005 0.066 0.008 0.097s0.035 0.056 0.064 0.073c0.927 0.548 1.758 0.64 2.123 0.624 0.589-0.025 0.829-0.35 0.817-0.511v-0.015c-0.001-0.014-0.005-0.028-0.013-0.040s-0.018-0.022-0.030-0.029l-0.098-0.057-0.069 0.021c-0.173 0.040-0.353 0.045-0.528 0.014s-0.342-0.097-0.491-0.195z"></path>
<path fill="#fff" style="fill: var(--color1, #fff)" d="M12.329 32c-0.276 0-1.098-0.055-2.074-0.631-0.036-0.021-0.064-0.053-0.080-0.091s-0.020-0.081-0.010-0.121c0.021-0.088 0.057-0.225 0.108-0.375 0.002-0.006 0.005-0.011 0.009-0.015s0.009-0.007 0.015-0.009c0.006-0.002 0.012-0.003 0.017-0.002s0.012 0.003 0.017 0.006l0.214 0.136c0.35 0.224 0.742 0.373 1.153 0.437 0.007 0.001 0.015 0 0.022-0.002s0.014-0.006 0.019-0.012c0.005-0.005 0.009-0.012 0.012-0.019s0.003-0.015 0.002-0.022l-0.020-0.117c-0.004-0.022-0.001-0.044 0.008-0.064s0.023-0.037 0.042-0.050c0.018-0.012 0.040-0.018 0.062-0.018s0.044 0.007 0.062 0.019l0.101 0.066c0.144 0.094 0.306 0.158 0.476 0.188s0.344 0.026 0.512-0.013l0.066-0.021c0.005-0.002 0.011-0.002 0.016-0.002s0.011 0.002 0.015 0.005l0.098 0.057c0.018 0.010 0.033 0.025 0.044 0.042s0.017 0.037 0.019 0.058l0.001 0.015c0.005 0.079-0.035 0.175-0.113 0.261-0.091 0.101-0.307 0.274-0.742 0.292-0.017 0.003-0.040 0.003-0.071 0.003zM10.332 30.854c-0.042 0.128-0.072 0.244-0.090 0.321-0.006 0.024-0.004 0.050 0.006 0.072s0.027 0.042 0.048 0.054c1.064 0.63 1.937 0.626 2.101 0.619 0.405-0.017 0.604-0.175 0.687-0.266 0.074-0.082 0.097-0.159 0.093-0.204l-0.001-0.015c-0.001-0.008-0.003-0.015-0.007-0.022s-0.010-0.012-0.017-0.016l-0.083-0.049-0.052 0.017c-0.179 0.042-0.364 0.047-0.545 0.015s-0.353-0.1-0.507-0.201l-0.101-0.066c-0.006-0.004-0.012-0.006-0.019-0.006s-0.014 0.002-0.019 0.006c-0.006 0.004-0.010 0.009-0.013 0.015s-0.004 0.013-0.003 0.020l0.020 0.117c0.003 0.020 0.002 0.040-0.004 0.059s-0.016 0.036-0.030 0.050c-0.014 0.014-0.031 0.025-0.050 0.031s-0.039 0.008-0.059 0.005c-0.421-0.066-0.824-0.218-1.183-0.449l-0.171-0.109z"></path>
<path fill="#fff" style="fill: var(--color1, #fff)" d="M7.813 15.643c0 0 0.062 1.017-0.203 2.138s-0.841 2.268-1.010 6.126c0 0-0.247 0.86-0.691 1.59s-0.652 3.91-0.652 3.91 0.496 0.235 0.73 0c0.235-0.235 1.252-3.024 1.33-3.519s0.417-0.261 1.226-2.789 1.617-3.377 1.617-3.377l0.314-4.079h-2.661z"></path>
<path fill="#0f0f0f" style="fill: var(--color2, #0f0f0f)" d="M7.008 25.827c-0.072 0-0.198-0.014-0.297-0.1-0.091-0.079-0.137-0.198-0.137-0.356 0-0.005 0.001-0.010 0.003-0.015s0.005-0.009 0.008-0.013c0.004-0.004 0.008-0.007 0.013-0.009s0.010-0.003 0.015-0.003c0.005 0 0.010 0.001 0.015 0.003s0.009 0.005 0.013 0.009c0.004 0.004 0.007 0.008 0.008 0.013s0.003 0.010 0.003 0.015c0 0.133 0.037 0.233 0.11 0.297 0.117 0.102 0.291 0.079 0.293 0.079 0.010-0.001 0.020 0.002 0.028 0.008s0.013 0.015 0.014 0.025c0.001 0.010-0.001 0.020-0.007 0.028s-0.014 0.014-0.024 0.016c-0.019 0.002-0.038 0.003-0.057 0.002z"></path>
<path fill="#fff" style="fill: var(--color1, #fff)" d="M11.132 15.643c0 0 1.194 0.834 1.481 3.154s-0.209 5.005-0.209 5.005-0.078 0.808 0.026 1.303c0.104 0.495 0.339 1.199-0.513 4.407 0 0-0.974-0.052-0.974-0.208s0.105-2.034 0-2.842c-0.053-0.393-0.010-0.793 0.125-1.167 0.021-0.057 0.031-0.119 0.028-0.18s-0.019-0.121-0.046-0.176c-0.129-0.259-0.332-0.851-0.315-1.997 0.026-1.669-1.069-3.728-1.069-3.728l0.105-3.571 1.361-0.001z"></path>
<path fill="#0f0f0f" style="fill: var(--color2, #0f0f0f)" d="M11.766 25.392c-0.062 0.001-0.123-0.013-0.179-0.039s-0.105-0.065-0.144-0.113c-0.007-0.008-0.010-0.018-0.009-0.028s0.006-0.020 0.014-0.027 0.018-0.010 0.028-0.009c0.010 0.001 0.020 0.006 0.027 0.014 0.207 0.241 0.501 0.063 0.513 0.055 0.004-0.003 0.009-0.005 0.014-0.006s0.010-0.001 0.016 0c0.005 0.001 0.010 0.003 0.014 0.006s0.008 0.007 0.011 0.011c0.003 0.004 0.005 0.009 0.005 0.015s0.001 0.011-0.001 0.016c-0.001 0.005-0.004 0.010-0.007 0.014s-0.007 0.008-0.012 0.010c-0.089 0.051-0.189 0.079-0.292 0.082z"></path>
<path fill="#fff" style="fill: var(--color1, #fff)" d="M5.693 29.552c-0.22 0-0.439-0.102-0.453-0.108-0.007-0.003-0.013-0.009-0.017-0.015s-0.006-0.015-0.005-0.022c0.009-0.13 0.215-3.198 0.658-3.928 0.42-0.69 0.665-1.509 0.685-1.576 0.135-3.083 0.53-4.439 0.819-5.429 0.071-0.245 0.139-0.475 0.192-0.699 0.262-1.102 0.203-2.116 0.202-2.126-0-0.005 0-0.011 0.002-0.016s0.005-0.010 0.008-0.013c0.004-0.004 0.008-0.007 0.013-0.009s0.010-0.003 0.016-0.003h3.318c0.008 0 0.016 0.002 0.022 0.007 0.012 0.008 1.211 0.871 1.497 3.181 0.284 2.299-0.204 4.99-0.209 5.017 0 0.005-0.076 0.804 0.026 1.288 0.005 0.024 0.011 0.049 0.016 0.075 0.113 0.514 0.283 1.291-0.53 4.349-0.002 0.009-0.008 0.016-0.015 0.021s-0.016 0.008-0.025 0.007c-0.378-0.020-1.011-0.079-1.011-0.247 0-0.029 0.003-0.108 0.008-0.229 0.021-0.532 0.078-1.945-0.008-2.607-0.054-0.396-0.012-0.799 0.122-1.175 0.020-0.056 0.029-0.115 0.026-0.174s-0.018-0.117-0.044-0.17c-0.125-0.255-0.332-0.854-0.315-2.006 0.016-0.999-0.369-2.137-0.706-2.937-0.303 0.43-0.854 1.37-1.409 3.106-0.53 1.659-0.867 2.143-1.047 2.403-0.098 0.14-0.152 0.218-0.177 0.381-0.081 0.515-1.109 3.309-1.341 3.541-0.086 0.086-0.204 0.115-0.321 0.115zM5.298 29.384c0.099 0.041 0.477 0.182 0.662-0.003 0.227-0.227 1.239-2.988 1.319-3.497 0.029-0.18 0.089-0.268 0.19-0.413 0.178-0.257 0.51-0.734 1.037-2.382 0.584-1.826 1.165-2.779 1.46-3.184 0.004-0.006 0.010-0.010 0.016-0.013s0.013-0.004 0.020-0.003 0.013 0.003 0.019 0.007c0.006 0.004 0.010 0.010 0.013 0.016 0.346 0.809 0.756 1.993 0.739 3.032-0.018 1.137 0.184 1.722 0.306 1.97 0.031 0.063 0.048 0.131 0.052 0.2s-0.007 0.139-0.031 0.205c-0.13 0.364-0.171 0.755-0.119 1.138 0.086 0.669 0.032 2.036 0.008 2.62-0.005 0.116-0.008 0.199-0.008 0.226 0.014 0.063 0.433 0.14 0.905 0.168 0.799-3.014 0.625-3.807 0.521-4.282-0.006-0.026-0.011-0.051-0.016-0.075-0.105-0.495-0.030-1.282-0.027-1.315 0.005-0.030 0.492-2.709 0.209-4.997-0.268-2.164-1.342-3.034-1.455-3.12h-3.265c0.008 0.203 0.028 1.12-0.206 2.108-0.054 0.227-0.121 0.458-0.192 0.704-0.287 0.987-0.682 2.338-0.816 5.415-0 0.003-0.001 0.006-0.002 0.009-0.002 0.009-0.254 0.874-0.695 1.6-0.412 0.677-0.624 3.552-0.645 3.864v0.001z"></path>
<path fill="#0f0f0f" style="fill: var(--color2, #0f0f0f)" d="M9.541 11.125c0 0 1.133 1.102 1.298 2.001 0.201 1.092-0.33 1.005 0 1.857 0 0 0.287 0.647 0.391 0.882s-2.451 0.887-3.443 0.391c0 0 0.3-1.577-1.188-2.907-0.892-0.798-0.482-2.407 0.854-2.617 1.531-0.24 2.087 0.393 2.087 0.393z"></path>
<path fill="#fff" style="fill: var(--color1, #fff)" d="M8.813 16.477c-0.376 0-0.761-0.045-1.043-0.186-0.008-0.004-0.014-0.010-0.017-0.018s-0.005-0.016-0.003-0.025c0.003-0.016 0.277-1.572-1.175-2.871-0.431-0.385-0.593-0.984-0.422-1.563 0.178-0.603 0.662-1.022 1.296-1.122 1.516-0.239 2.085 0.364 2.121 0.405 0.060 0.058 1.144 1.125 1.308 2.021 0.1 0.542 0.023 0.795-0.044 1.020s-0.123 0.406 0.043 0.83c0 0 0.286 0.646 0.391 0.88 0.011 0.024 0.014 0.063-0.035 0.11-0.155 0.148-0.811 0.343-1.494 0.444-0.306 0.047-0.615 0.071-0.924 0.074zM7.83 16.233c0.839 0.392 2.765 0.003 3.27-0.278 0.090-0.050 0.094-0.076 0.094-0.076-0.104-0.233-0.391-0.881-0.391-0.881-0.175-0.451-0.115-0.651-0.046-0.882 0.065-0.216 0.138-0.461 0.042-0.983-0.161-0.876-1.276-1.969-1.287-1.98l-0.002-0.002c-0.007-0.008-0.565-0.614-2.051-0.38-0.603 0.095-1.064 0.493-1.233 1.067-0.162 0.55-0.009 1.118 0.399 1.483 1.375 1.228 1.236 2.687 1.205 2.913z"></path>
<path fill="#0f0f0f" style="fill: var(--color2, #0f0f0f)" d="M9.848 11.333c0 0 0.713-0.295 1.426-0.156s1.269-0.038 1.269-0.038-0.453-0.224-1.868-0.354c-0.169-0.016-0.34-0.004-0.505 0.035-0.168 0.040-0.34 0.061-0.512 0.063-1.089 0.016-1.376-0.703-1.115-0.905 0.163-0.127 1.154-0.043 1.154-0.043s-0.548-0.299-0.436-0.462c0.143-0.209 1.28 0.506 1.28 0.506s1.771 0.105 2.628 0.261c0.566 0.103 1.322 0.33 1.391 0.417s0.209 0.695-0.956 1.147c-1.165 0.452-2.313 0.487-2.591 0.695s-0.487 0.521-0.487 0.521l-0.678-1.686z"></path>
<path fill="#fff" style="fill: var(--color1, #fff)" d="M10.526 13.058h-0.004c-0.007-0.001-0.014-0.003-0.019-0.008s-0.010-0.010-0.013-0.017l-0.678-1.685c-0.004-0.010-0.004-0.020 0-0.030s0.012-0.017 0.021-0.021c0.030-0.012 0.732-0.298 1.448-0.159 0.375 0.072 0.76 0.070 1.133-0.007-0.207-0.071-0.727-0.215-1.743-0.308-0.165-0.015-0.331-0.004-0.492 0.034-0.171 0.040-0.345 0.061-0.52 0.064-0.741 0.012-1.119-0.312-1.217-0.592-0.055-0.156-0.025-0.303 0.078-0.383 0.134-0.104 0.721-0.082 1.018-0.063-0.128-0.083-0.299-0.214-0.326-0.329-0.005-0.018-0.006-0.036-0.003-0.054s0.010-0.035 0.020-0.051c0.151-0.22 1.041 0.312 1.324 0.49 0.145 0.009 1.807 0.112 2.623 0.261 0.535 0.097 1.332 0.328 1.415 0.431 0.038 0.047 0.079 0.187 0.032 0.363-0.062 0.232-0.287 0.566-1.004 0.844-0.641 0.249-1.264 0.369-1.765 0.466-0.39 0.075-0.698 0.135-0.817 0.224-0.269 0.202-0.476 0.509-0.478 0.512-0.004 0.005-0.008 0.010-0.014 0.013s-0.012 0.005-0.019 0.005zM9.899 11.355l0.637 1.583c0.075-0.102 0.244-0.315 0.454-0.472 0.133-0.1 0.433-0.157 0.849-0.238 0.497-0.096 1.117-0.215 1.752-0.462 0.687-0.266 0.9-0.578 0.958-0.793 0.041-0.152 0.005-0.265-0.017-0.294-0.053-0.066-0.749-0.291-1.368-0.402-0.844-0.153-2.606-0.259-2.624-0.26-0.006-0.001-0.013-0.003-0.018-0.006-0.531-0.334-1.152-0.626-1.227-0.517-0.004 0.006-0.007 0.013-0.008 0.021s-0.001 0.015 0.002 0.022c0.029 0.122 0.319 0.304 0.429 0.364 0.008 0.004 0.014 0.011 0.017 0.019s0.004 0.017 0.001 0.026-0.008 0.016-0.015 0.021c-0.007 0.005-0.016 0.007-0.025 0.007-0.377-0.032-1.016-0.050-1.126 0.035-0.075 0.059-0.095 0.172-0.052 0.295 0.090 0.256 0.443 0.551 1.143 0.54 0.169-0.002 0.338-0.023 0.503-0.062 0.169-0.040 0.344-0.052 0.518-0.036 1.406 0.129 1.863 0.35 1.882 0.358 0.007 0.004 0.013 0.009 0.017 0.016s0.006 0.014 0.005 0.022c-0.001 0.008-0.004 0.015-0.008 0.021s-0.011 0.011-0.019 0.013c-0.023 0.008-0.574 0.178-1.289 0.038-0.603-0.118-1.214 0.084-1.367 0.14z"></path>
<path fill="#fff" style="fill: var(--color1, #fff)" d="M9.68 7.299c-0.028-0.081-0.074-0.154-0.137-0.213s-0.138-0.102-0.22-0.126l-0.72-0.204c-0.201-0.057-0.414-0.060-0.617-0.009s-0.388 0.155-0.538 0.301l-0.007 0.007c-0.105 0.102-0.19 0.222-0.252 0.355-0.26-0.132-1.122-0.547-1.861-0.901-0.348-0.167-0.736-0.229-1.118-0.18s-0.742 0.208-1.036 0.457c-0.286 0.242-0.522 0.425-0.765 0.631-0.455 0.387-0.969 0.701-1.521 0.929l-0.889 0.37c0.464 0.369 0.704 0.554 1.296 0.579l0.677 0.028c0.018 0.001 0.035 0.007 0.048 0.018s0.024 0.026 0.029 0.042c0.005 0.017 0.005 0.035-0.001 0.052s-0.016 0.031-0.030 0.042c-0.405 0.297-0.862 0.517-1.347 0.647l-0.595 0.161c-0.007 0.002-0.014 0.006-0.019 0.013s-0.007 0.014-0.007 0.021c0 0.008 0.003 0.015 0.007 0.021s0.011 0.011 0.019 0.013l0.779 0.221c0.652 0.184 1.351 0.106 1.946-0.219l0.991-0.541c-0.199 0.439-0.505 0.82-0.891 1.109-0.006 0.005-0.011 0.011-0.013 0.019s-0.002 0.016 0.002 0.023 0.009 0.013 0.016 0.017c0.007 0.004 0.015 0.005 0.023 0.003l0.348-0.064c0.382-0.070 0.744-0.225 1.059-0.452s0.576-0.522 0.763-0.862c0.286-0.52 0.695-0.962 1.191-1.289l0.789-0.52c-0.023 0.209 0.009 0.419 0.092 0.612l0.108 0.252c0.081 0.188 0.21 0.35 0.374 0.472s0.358 0.197 0.561 0.219l1.411-1.749c0.034-0.042 0.057-0.093 0.066-0.146s0.005-0.109-0.013-0.16z"></path>
<path fill="#0f0f0f" style="fill: var(--color2, #0f0f0f)" d="M8.031 8.13c0.010 0.004 0.020 0.006 0.031 0.005s0.021-0.004 0.030-0.009c0.009-0.005 0.017-0.012 0.023-0.021s0.010-0.019 0.012-0.029c0.045-0.21 0.231-0.553 0.483-0.66 0.323-0.137 0.729-0.103 0.859 0.137 0.114 0.21 0.066 0.357 0.364 0.602 0.029 0.023 0.016 0.072-0.009 0.099l-0.132 0.157c-0.028 0.030-0.041 0.118-0.038 0.159 0.010 0.128 0.042 0.397 0.005 0.44-0.073 0.082-0.504 0.133-0.504 0.133l-0.052 1.364c-0.004 0.096 0.017 0.191 0.061 0.277s0.108 0.159 0.187 0.213l0.497 0.336c0 0 0.524 1.38-0.509 1.495-0.66 0.073-2.047-1.997-2.047-1.997s0.816-0.124 0.881-1.898c-0-0.017-0.006-0.033-0.015-0.047s-0.022-0.025-0.038-0.031c-0.115-0.057-0.427-0.23-0.42-0.463 0.009-0.248 0.184-0.316 0.331-0.261z"></path>
<path fill="#fff" style="fill: var(--color1, #fff)" d="M9.306 12.869c-0.687 0-1.989-1.932-2.045-2.016-0.004-0.005-0.006-0.012-0.007-0.018s0-0.013 0.003-0.019c0.003-0.006 0.007-0.011 0.012-0.015s0.011-0.007 0.018-0.008c0.008-0.001 0.785-0.146 0.848-1.861-0.001-0.009-0.004-0.018-0.009-0.025s-0.013-0.013-0.021-0.017c-0.168-0.084-0.449-0.26-0.441-0.499 0.005-0.16 0.073-0.238 0.129-0.275 0.037-0.024 0.080-0.038 0.124-0.042s0.088 0.003 0.129 0.020c0.004 0.002 0.009 0.003 0.014 0.003s0.009-0.001 0.013-0.004c0.004-0.003 0.008-0.006 0.011-0.010s0.005-0.009 0.006-0.014c0.047-0.216 0.234-0.572 0.506-0.688 0.322-0.137 0.762-0.117 0.909 0.155 0.032 0.060 0.057 0.123 0.077 0.188 0.041 0.124 0.081 0.241 0.277 0.402 0.009 0.008 0.016 0.017 0.021 0.027s0.008 0.022 0.009 0.034c0.001 0.017-0.002 0.034-0.008 0.051s-0.015 0.031-0.027 0.044l-0.13 0.155c-0.017 0.020-0.032 0.093-0.029 0.131 0.001 0.020 0.003 0.043 0.006 0.067 0.022 0.244 0.026 0.36-0.011 0.401-0.071 0.080-0.378 0.126-0.496 0.142l-0.052 1.332c-0.003 0.089 0.016 0.178 0.056 0.257s0.101 0.147 0.175 0.197l0.497 0.336c0.007 0.004 0.012 0.011 0.015 0.018 0.012 0.032 0.29 0.778 0.015 1.229-0.112 0.183-0.299 0.29-0.556 0.318-0.013 0.002-0.025 0.003-0.038 0.003zM7.356 10.855c0.207 0.302 1.403 1.998 1.979 1.934 0.232-0.026 0.399-0.12 0.498-0.282 0.238-0.39 0.018-1.054-0.017-1.149l-0.486-0.329c-0.085-0.057-0.155-0.136-0.201-0.227s-0.069-0.194-0.064-0.296l0.052-1.364c0-0.009 0.004-0.018 0.011-0.025s0.015-0.011 0.024-0.012c0.173-0.020 0.436-0.070 0.48-0.12 0.020-0.034 0-0.25-0.008-0.342-0.002-0.025-0.004-0.049-0.006-0.068-0.003-0.043 0.008-0.145 0.049-0.189l0.13-0.155c0.010-0.010 0.016-0.024 0.016-0.038 0-0.004-0.002-0.005-0.002-0.006-0.214-0.176-0.259-0.309-0.302-0.437-0.019-0.061-0.043-0.121-0.072-0.177-0.122-0.226-0.518-0.245-0.81-0.12-0.243 0.103-0.418 0.439-0.46 0.632-0.003 0.016-0.010 0.031-0.020 0.044s-0.022 0.024-0.036 0.032c-0.014 0.008-0.029 0.012-0.045 0.013s-0.032-0.001-0.046-0.007c-0.029-0.012-0.061-0.018-0.093-0.015s-0.062 0.012-0.089 0.029c-0.058 0.039-0.091 0.112-0.094 0.213-0.006 0.204 0.276 0.367 0.398 0.427 0.022 0.010 0.040 0.026 0.053 0.046s0.020 0.044 0.020 0.068c-0.056 1.533-0.663 1.857-0.857 1.921z"></path>
<path fill="#fff" style="fill: var(--color1, #fff)" d="M7.454 10.732c0.047-0.007 0.093-0.014 0.138-0.020 0.861 1.788 1.435 2.019 1.977 1.803 0.369-0.147 0.199-0.88 0.16-1.262 0.396 0.332 1.043 0.749 1.234 1.731 0.156 0.799-0.401 1.154-0.169 1.873-0.39-0.176-0.9-0.304-1.468-0.187-0.768 0.157-1.282 0.455-1.568 0.666-0.082-0.441-0.279-0.989-0.721-1.531 0.167-0.37 0.299-0.756 0.394-1.151 0.162-0.662-0.111-1.512-0.241-1.858 0.086-0.028 0.175-0.050 0.265-0.064z"></path>
<path fill="#0f0f0f" style="fill: var(--color2, #0f0f0f)" d="M7.037 10.886c-0.38-0.023-1.498 0.038-1.389 1.577 0.13 1.851 0.090 3.415-0.007 3.676s-0.088 1.469 0.312 3.345c0 0 0.088 0.695 0.157 1.112s0.452 0.747 0.852 1.060c0.4 0.313 0.574-0.174 0.417-0.452s-0.209-0.608-0.209-0.608 0.157 0.382 0.348 0.452c0.19 0.069 0.052-0.556-0.122-0.765s-0.556-0.695-0.626-0.765c-0.069-0.070-0.229-0.99-0.17-1.372 0.157-1.023-0.052-1.827-0.052-1.827-0.031-0.157-0.034-0.318-0.008-0.475 0.043-0.251 0.182-0.535 0.201-0.911 0.026-0.5-0.099-1.086 0.011-1.48 0.001 0 0.363-2.563 0.286-2.568z"></path>
<path fill="#fff" style="fill: var(--color1, #fff)" d="M7.198 21.797c-0.069 0-0.155-0.027-0.261-0.11-0.399-0.312-0.795-0.653-0.866-1.084-0.069-0.413-0.156-1.107-0.157-1.114-0.392-1.839-0.417-3.075-0.309-3.364 0.090-0.242 0.137-1.788 0.005-3.659-0.042-0.593 0.092-1.033 0.397-1.308 0.459-0.414 1.133-0.302 1.162-0.297 0.010 0.002 0.018 0.008 0.024 0.016s0.008 0.018 0.006 0.028c-0.002 0.010-0.007 0.019-0.015 0.025s-0.018 0.009-0.028 0.007c-0.007-0.001-0.665-0.11-1.097 0.279-0.286 0.258-0.411 0.677-0.371 1.244 0.124 1.764 0.097 3.404-0.010 3.692-0.101 0.272-0.072 1.517 0.313 3.324 0.002 0.010 0.088 0.702 0.157 1.114 0.067 0.404 0.451 0.733 0.838 1.036 0.129 0.101 0.242 0.12 0.319 0.054 0.105-0.090 0.124-0.307 0.040-0.456-0.157-0.281-0.211-0.608-0.213-0.621-0.002-0.009 0-0.019 0.006-0.027s0.013-0.014 0.022-0.017c0.009-0.003 0.019-0.002 0.028 0.003s0.015 0.012 0.019 0.020c0.042 0.102 0.182 0.378 0.325 0.43 0.018 0.006 0.020 0.002 0.024-0.003 0.059-0.084-0.047-0.531-0.189-0.699-0.070-0.084-0.175-0.214-0.276-0.34-0.151-0.188-0.307-0.382-0.348-0.422-0.089-0.089-0.226-1.040-0.181-1.404 0.094-0.774 0.054-1.286 0.003-1.58-0.009-0.052-0.020-0.105-0.031-0.157-0.039-0.188-0.080-0.382-0.031-0.57 0.163-0.625 0.157-1.040 0.153-1.442-0.004-0.296-0.007-0.575 0.052-0.927 0.001-0.005 0.002-0.010 0.005-0.015s0.006-0.008 0.010-0.012c0.004-0.003 0.009-0.005 0.014-0.007s0.010-0.001 0.016-0.001c0.005 0.001 0.010 0.003 0.015 0.006s0.008 0.007 0.011 0.011c0.003 0.004 0.005 0.009 0.006 0.014s0.001 0.011-0 0.016c-0.059 0.344-0.055 0.62-0.053 0.912 0.005 0.407 0.010 0.828-0.156 1.462-0.045 0.17-0.006 0.355 0.032 0.535 0.011 0.052 0.022 0.107 0.032 0.16 0.051 0.297 0.092 0.818-0.003 1.602-0.045 0.375 0.1 1.268 0.16 1.34 0.043 0.043 0.193 0.23 0.353 0.428 0.101 0.126 0.206 0.256 0.275 0.339 0.147 0.177 0.283 0.666 0.192 0.795-0.026 0.037-0.068 0.048-0.114 0.031-0.084-0.030-0.16-0.112-0.221-0.2 0.033 0.104 0.077 0.205 0.129 0.3 0.102 0.181 0.075 0.44-0.057 0.553-0.043 0.037-0.099 0.058-0.156 0.058z"></path>
<path fill="#0f0f0f" style="fill: var(--color2, #0f0f0f)" d="M6.777 18.762l-1.076 0.201c-0.035 0.007-0.058 0.040-0.052 0.075l0.067 0.359c0.007 0.035 0.040 0.058 0.076 0.052l1.076-0.201c0.035-0.007 0.058-0.040 0.052-0.075l-0.067-0.359c-0.007-0.035-0.040-0.058-0.076-0.052z"></path>
<path fill="#fff" style="fill: var(--color1, #fff)" d="M5.779 19.489c-0.024 0-0.048-0.009-0.066-0.024s-0.031-0.037-0.036-0.061l-0.067-0.359c-0.003-0.013-0.003-0.027 0-0.040s0.008-0.026 0.016-0.037c0.016-0.023 0.040-0.038 0.067-0.043l1.076-0.201c0.013-0.003 0.027-0.002 0.040 0s0.026 0.008 0.037 0.016c0.011 0.008 0.021 0.018 0.028 0.029s0.013 0.024 0.015 0.038l0.067 0.358c0.005 0.027-0.001 0.055-0.016 0.078s-0.039 0.038-0.066 0.043l-1.076 0.201c-0.006 0.001-0.013 0.002-0.019 0.002zM6.789 18.8c-0.002-0-0.003-0-0.005 0l-1.076 0.201c-0.003 0.001-0.007 0.002-0.009 0.004s-0.005 0.004-0.007 0.007-0.005 0.013-0.004 0.019l0.067 0.358c0.001 0.003 0.002 0.007 0.004 0.009s0.004 0.005 0.007 0.007c0.003 0.002 0.006 0.003 0.009 0.004s0.007 0.001 0.010 0l1.076-0.201c0.007-0.001 0.013-0.005 0.017-0.011s0.005-0.013 0.004-0.019l-0.067-0.359c-0.001-0.007-0.005-0.013-0.011-0.016-0.004-0.003-0.009-0.004-0.014-0.004h-0z"></path>
<path fill="#0f0f0f" style="fill: var(--color2, #0f0f0f)" d="M6.479 18.725l-0.566 0.106c-0.077 0.014-0.127 0.088-0.113 0.165l0.070 0.374c0.014 0.077 0.088 0.127 0.165 0.113l0.566-0.106c0.077-0.014 0.127-0.088 0.113-0.165l-0.070-0.374c-0.014-0.077-0.088-0.127-0.165-0.113z"></path>
<path fill="#fff" style="fill: var(--color1, #fff)" d="M6.008 19.524c-0.042-0-0.083-0.015-0.115-0.042s-0.054-0.064-0.062-0.105l-0.070-0.374c-0.009-0.047 0.002-0.095 0.029-0.135s0.069-0.066 0.116-0.075l0.566-0.105c0.047-0.009 0.095 0.002 0.135 0.029s0.066 0.068 0.075 0.115l0.070 0.374c0.009 0.047-0.002 0.095-0.029 0.135s-0.069 0.066-0.116 0.075l-0.566 0.105c-0.011 0.002-0.022 0.003-0.033 0.003zM6.504 18.763c-0.006 0-0.013 0.001-0.019 0.002l-0.566 0.105c-0.013 0.002-0.026 0.008-0.037 0.015s-0.021 0.017-0.029 0.028c-0.008 0.011-0.013 0.023-0.016 0.037s-0.003 0.027-0 0.040l0.070 0.374c0.005 0.027 0.020 0.050 0.043 0.065s0.050 0.021 0.077 0.016l0.566-0.105c0.013-0.002 0.026-0.008 0.037-0.015s0.021-0.017 0.029-0.028c0.008-0.011 0.013-0.023 0.016-0.037s0.003-0.027 0-0.040l-0.070-0.374c-0.004-0.023-0.017-0.045-0.035-0.060s-0.041-0.024-0.065-0.024z"></path>
<path fill="#fff" style="fill: var(--color1, #fff)" d="M6.373 19.193c0.048-0.071 0.030-0.167-0.040-0.215s-0.167-0.030-0.215 0.040c-0.048 0.071-0.030 0.167 0.040 0.215s0.167 0.030 0.215-0.040z"></path>
</symbol>
</defs>
</svg>
