<svg width="24" height="12" viewBox="0 0 24 12" fill="none" xmlns="http://www.w3.org/2000/svg">
<path d="M1.352 2.278V5.54H4.908V6.59H1.352V9.95H5.328V11H0.0780001V1.228H5.328V2.278H1.352ZM6.77973 7.136C6.77973 6.352 6.9384 5.666 7.25573 5.078C7.57307 4.48067 8.00707 4.01867 8.55773 3.692C9.11773 3.36533 9.74307 3.202 10.4337 3.202C11.0311 3.202 11.5864 3.342 12.0997 3.622C12.6131 3.89267 13.0051 4.252 13.2757 4.7V0.64H14.5637V11H13.2757V9.558C13.0237 10.0153 12.6504 10.3933 12.1557 10.692C11.6611 10.9813 11.0824 11.126 10.4197 11.126C9.7384 11.126 9.11773 10.958 8.55773 10.622C8.00707 10.286 7.57307 9.81467 7.25573 9.208C6.9384 8.60133 6.77973 7.91067 6.77973 7.136ZM13.2757 7.15C13.2757 6.57133 13.1591 6.06733 12.9257 5.638C12.6924 5.20867 12.3751 4.882 11.9737 4.658C11.5817 4.42467 11.1477 4.308 10.6717 4.308C10.1957 4.308 9.76173 4.42 9.36973 4.644C8.97773 4.868 8.66507 5.19467 8.43173 5.624C8.1984 6.05333 8.08173 6.55733 8.08173 7.136C8.08173 7.724 8.1984 8.23733 8.43173 8.676C8.66507 9.10533 8.97773 9.43667 9.36973 9.67C9.76173 9.894 10.1957 10.006 10.6717 10.006C11.1477 10.006 11.5817 9.894 11.9737 9.67C12.3751 9.43667 12.6924 9.10533 12.9257 8.676C13.1591 8.23733 13.2757 7.72867 13.2757 7.15ZM17.3747 2.082C17.132 2.082 16.9267 1.998 16.7587 1.83C16.5907 1.662 16.5067 1.45667 16.5067 1.214C16.5067 0.971333 16.5907 0.766 16.7587 0.598C16.9267 0.43 17.132 0.345999 17.3747 0.345999C17.608 0.345999 17.804 0.43 17.9627 0.598C18.1307 0.766 18.2147 0.971333 18.2147 1.214C18.2147 1.45667 18.1307 1.662 17.9627 1.83C17.804 1.998 17.608 2.082 17.3747 2.082ZM17.9907 3.328V11H16.7167V3.328H17.9907ZM21.716 4.378V8.9C21.716 9.27333 21.7953 9.53933 21.954 9.698C22.1127 9.84733 22.388 9.922 22.78 9.922H23.718V11H22.57C21.8607 11 21.3287 10.8367 20.974 10.51C20.6193 10.1833 20.442 9.64667 20.442 8.9V4.378H19.448V3.328H20.442V1.396H21.716V3.328H23.718V4.378H21.716Z" fill="#B6B6B6"/>
</svg>
