<!-- Generated by IcoMoon.io -->
<svg version="1.1" xmlns="http://www.w3.org/2000/svg" width="32" height="32" viewBox="0 0 32 32">
<title>ProfileSettings</title>
<path fill="#fff" d="M32.394 16.202l-11.312 7.206c-0.079 0.050-0.146 0.115-0.2 0.191s-0.091 0.162-0.112 0.253c-0.020 0.091-0.022 0.185-0.006 0.277s0.050 0.179 0.1 0.258l3.684 5.783c0.050 0.079 0.115 0.146 0.191 0.2s0.162 0.091 0.253 0.112c0.091 0.020 0.185 0.022 0.277 0.006s0.179-0.050 0.258-0.1l6.866-4.374v-9.811z"></path>
<path fill="#0f0f0f" d="M25.148 30.537c-0.126 0-0.25-0.031-0.36-0.092s-0.204-0.148-0.272-0.254l-3.684-5.783c-0.106-0.167-0.142-0.37-0.099-0.563s0.161-0.362 0.328-0.469l11.313-7.206c0.006-0.004 0.013-0.006 0.019-0.006s0.014 0.001 0.020 0.005c0.006 0.003 0.011 0.008 0.014 0.014s0.005 0.013 0.005 0.019v9.812c0 0.006-0.002 0.013-0.005 0.018s-0.007 0.010-0.013 0.014l-6.866 4.373c-0.12 0.077-0.259 0.117-0.401 0.117zM32.356 16.272l-11.253 7.168c-0.15 0.096-0.256 0.247-0.294 0.421s-0.006 0.356 0.089 0.506l3.684 5.783c0.096 0.15 0.247 0.256 0.421 0.294s0.356 0.007 0.506-0.089l6.848-4.363-0-9.721z"></path>
<path fill="#0f0f0f" d="M21.584 24.507c-0.008-0-0.016-0.003-0.023-0.008s-0.011-0.012-0.014-0.020c-0.002-0.008-0.002-0.016 0.001-0.024s0.008-0.014 0.015-0.019c0.571-0.364 1.143-0.73 1.715-1.097 1.362-0.873 2.771-1.776 4.164-2.647 0.009-0.005 0.019-0.007 0.029-0.005s0.018 0.008 0.024 0.017c0.005 0.009 0.007 0.019 0.005 0.029s-0.008 0.019-0.017 0.024c-1.393 0.871-2.801 1.774-4.164 2.647-0.572 0.367-1.143 0.732-1.714 1.097-0.006 0.004-0.014 0.006-0.021 0.005z"></path>
<path fill="#0f0f0f" d="M21.843 23.571c0.019 0.030 0.029 0.066 0.028 0.102s-0.012 0.071-0.033 0.1c-0.021 0.029-0.049 0.052-0.083 0.065s-0.070 0.016-0.105 0.008-0.067-0.026-0.092-0.052c-0.025-0.026-0.041-0.059-0.048-0.094s-0.002-0.072 0.013-0.105c0.015-0.033 0.038-0.061 0.069-0.080 0.020-0.013 0.043-0.022 0.066-0.026s0.048-0.004 0.071 0.002c0.023 0.005 0.045 0.015 0.065 0.029s0.036 0.031 0.049 0.051z"></path>
<path fill="#0f0f0f" d="M22.456 23.18c0.019 0.030 0.029 0.066 0.028 0.102s-0.012 0.071-0.033 0.1c-0.021 0.029-0.049 0.052-0.083 0.065s-0.070 0.016-0.105 0.008-0.067-0.026-0.092-0.052c-0.025-0.026-0.041-0.059-0.048-0.094s-0.002-0.072 0.013-0.105c0.015-0.033 0.038-0.061 0.069-0.080 0.020-0.013 0.043-0.021 0.066-0.026s0.048-0.004 0.071 0.002c0.023 0.005 0.045 0.015 0.065 0.029s0.036 0.031 0.049 0.051z"></path>
<path fill="#0f0f0f" d="M23.070 22.789c0.019 0.030 0.029 0.066 0.028 0.102s-0.012 0.071-0.033 0.1c-0.021 0.029-0.049 0.052-0.083 0.065s-0.070 0.016-0.105 0.008c-0.035-0.008-0.067-0.026-0.092-0.052s-0.041-0.059-0.048-0.094c-0.006-0.035-0.002-0.072 0.013-0.105s0.038-0.061 0.069-0.080c0.020-0.013 0.043-0.022 0.066-0.026s0.048-0.004 0.071 0.002 0.045 0.015 0.065 0.029c0.020 0.014 0.036 0.031 0.049 0.051z"></path>
<path fill="#0f0f0f" d="M25.141 21.508c-0.008 0-0.017-0.003-0.023-0.008s-0.012-0.012-0.014-0.020c-0.002-0.008-0.002-0.017 0.002-0.025s0.009-0.014 0.016-0.019c0.437-0.255 0.857-0.532 1.263-0.8 0.346-0.229 0.704-0.465 1.067-0.684 0.004-0.003 0.009-0.005 0.014-0.006s0.011-0.001 0.016 0c0.005 0.001 0.010 0.003 0.014 0.006s0.008 0.007 0.011 0.011c0.003 0.004 0.005 0.009 0.005 0.015s0 0.011-0.001 0.016c-0.001 0.005-0.004 0.010-0.007 0.014s-0.007 0.007-0.012 0.010c-0.362 0.218-0.719 0.454-1.064 0.682-0.407 0.269-0.827 0.547-1.267 0.803-0.006 0.003-0.012 0.005-0.019 0.005z"></path>
<path fill="#0f0f0f" d="M23.438 22.592c-0.008-0-0.016-0.003-0.022-0.008s-0.011-0.012-0.013-0.020c-0.002-0.008-0.002-0.016 0.001-0.024s0.008-0.014 0.015-0.019l0.762-0.485c0.009-0.005 0.019-0.006 0.028-0.004s0.018 0.008 0.023 0.017c0.005 0.008 0.007 0.019 0.005 0.028s-0.008 0.018-0.016 0.024l-0.762 0.485c-0.006 0.004-0.013 0.006-0.021 0.005z"></path>
<path fill="#0f0f0f" d="M25.1 29.076c-0.003 0-0.006 0-0.008 0-0.005-0.001-0.010-0.003-0.014-0.006s-0.008-0.007-0.010-0.011l-2.505-3.933c-0.005-0.009-0.007-0.019-0.005-0.029s0.008-0.018 0.017-0.024l3.933-2.505c0.009-0.005 0.019-0.007 0.029-0.005s0.018 0.008 0.024 0.017l2.505 3.933c0.005 0.009 0.007 0.019 0.005 0.029s-0.008 0.018-0.017 0.024l-3.933 2.505c-0.006 0.004-0.013 0.006-0.020 0.006zM22.647 25.117l2.464 3.868 3.868-2.464-2.464-3.868-3.868 2.464z"></path>
<path fill="#0f0f0f" d="M28.11 21.591l-0.859 0.547 0.547 0.859 0.859-0.547-0.547-0.859z"></path>
<path fill="#0f0f0f" d="M32.394 18.863l-3.697 2.355 0.547 0.859 3.15-2.006v-1.207z"></path>
<path fill="#0f0f0f" d="M29.089 23.128l-0.859 0.547 0.547 0.859 0.859-0.547-0.547-0.859z"></path>
<path fill="#0f0f0f" d="M32.394 21.023l-2.718 1.731 0.547 0.859 2.171-1.383v-1.207z"></path>
<path fill="#0f0f0f" d="M30.068 24.665l-0.859 0.547 0.547 0.859 0.859-0.547-0.547-0.859z"></path>
<path fill="#fff" d="M32.394 23.184l-1.739 1.108 0.547 0.859 1.191-0.759v-1.207z"></path>
<path fill="#0f0f0f" d="M8.659 28.932l-0.089-0.324-0.367 0.017c-0.034-0.071-0.073-0.139-0.118-0.203l0.194-0.311-0.239-0.238-0.31 0.198c-0.064-0.044-0.133-0.083-0.203-0.116l0.013-0.367-0.325-0.085-0.169 0.326c-0.078-0.006-0.156-0.005-0.234 0.002l-0.173-0.324-0.325 0.089 0.017 0.367c-0.071 0.034-0.139 0.073-0.203 0.118l-0.311-0.194-0.236 0.239 0.198 0.309c-0.044 0.064-0.083 0.132-0.116 0.203l-0.367-0.013-0.085 0.325 0.326 0.169c-0.006 0.078-0.005 0.156 0.002 0.234l-0.324 0.173 0.089 0.325 0.367-0.017c0.034 0.071 0.073 0.138 0.118 0.203l-0.194 0.311 0.238 0.237 0.31-0.198c0.064 0.044 0.133 0.083 0.203 0.116l-0.013 0.367 0.325 0.085 0.169-0.326c0.078 0.006 0.156 0.005 0.234-0.002l0.173 0.324 0.325-0.089-0.017-0.367c0.071-0.034 0.138-0.073 0.202-0.118l0.311 0.194 0.237-0.239-0.197-0.308c0.044-0.064 0.083-0.132 0.116-0.203l0.367 0.013 0.085-0.325-0.326-0.169c0.006-0.078 0.005-0.156-0.002-0.234l0.324-0.173zM7.165 30.064c-0.165 0.045-0.34 0.040-0.503-0.014s-0.305-0.155-0.41-0.291c-0.105-0.135-0.168-0.299-0.18-0.47s0.027-0.341 0.111-0.49 0.212-0.269 0.365-0.346c0.153-0.077 0.326-0.106 0.496-0.085s0.33 0.093 0.459 0.205c0.129 0.112 0.223 0.26 0.268 0.425 0.061 0.221 0.031 0.458-0.083 0.657s-0.302 0.346-0.524 0.406z"></path>
<path fill="#0f0f0f" d="M14.038 25.571l-0.152-0.555-0.628 0.028c-0.057-0.121-0.125-0.237-0.202-0.346l0.332-0.533-0.409-0.405-0.53 0.339c-0.11-0.076-0.227-0.142-0.348-0.198l0.022-0.629-0.557-0.146-0.289 0.557c-0.134-0.010-0.268-0.009-0.401 0.003l-0.295-0.555-0.555 0.152 0.028 0.628c-0.121 0.057-0.237 0.125-0.346 0.202l-0.533-0.332-0.405 0.409 0.339 0.53c-0.076 0.11-0.142 0.227-0.198 0.348l-0.629-0.022-0.146 0.557 0.557 0.289c-0.010 0.134-0.009 0.268 0.003 0.401l-0.555 0.295 0.152 0.555 0.628-0.029c0.057 0.121 0.125 0.237 0.202 0.347l-0.332 0.533 0.409 0.405 0.53-0.339c0.11 0.076 0.227 0.142 0.348 0.198l-0.022 0.628 0.557 0.146 0.289-0.558c0.133 0.011 0.268 0.009 0.401-0.003l0.295 0.554 0.555-0.152-0.028-0.628c0.121-0.057 0.237-0.125 0.347-0.202l0.533 0.332 0.405-0.409-0.339-0.53c0.076-0.11 0.142-0.227 0.198-0.348l0.628 0.022 0.146-0.557-0.557-0.289c0.010-0.134 0.009-0.268-0.003-0.401l0.555-0.295zM11.481 27.509c-0.283 0.077-0.582 0.069-0.86-0.023s-0.522-0.266-0.702-0.497-0.287-0.511-0.307-0.803c-0.021-0.292 0.046-0.584 0.191-0.839s0.363-0.46 0.625-0.591c0.262-0.131 0.557-0.181 0.848-0.145s0.564 0.159 0.786 0.351 0.381 0.445 0.458 0.728c0.051 0.188 0.065 0.384 0.041 0.577s-0.086 0.379-0.183 0.549c-0.096 0.169-0.225 0.317-0.379 0.437s-0.329 0.207-0.517 0.259z"></path>
<path fill="#fff" d="M0.316 13.7l6.59 12.773c-0.643-1.246 1.033-3.496 4.094-5.871 0.178-0.139 0.301-0.335 0.35-0.555s0.018-0.45-0.085-0.65l-5.688-11.025c-0.279-0.54-0.983-0.694-1.458-0.315-2.874 2.29-4.423 4.437-3.801 5.642z"></path>
<path fill="#0f0f0f" d="M6.906 26.512c-0.007 0-0.014-0.002-0.021-0.005s-0.011-0.009-0.014-0.015l-6.589-12.773c-0.307-0.595-0.102-1.443 0.592-2.454 0.666-0.97 1.779-2.089 3.219-3.235 0.116-0.092 0.251-0.157 0.396-0.191s0.295-0.035 0.44-0.004c0.145 0.031 0.281 0.094 0.399 0.185s0.214 0.205 0.282 0.337l5.687 11.024c0.108 0.208 0.139 0.447 0.089 0.676s-0.179 0.433-0.364 0.577c-1.527 1.185-2.712 2.343-3.428 3.351-0.731 1.029-0.958 1.884-0.656 2.471v0.001c0.002 0.005 0.004 0.009 0.005 0.015s-0 0.010-0.002 0.015c-0.002 0.005-0.004 0.009-0.007 0.013s-0.007 0.007-0.012 0.009c-0.005 0.002-0.011 0.004-0.016 0.004zM0.35 13.683l6.394 12.394c-0.165-1.273 1.364-3.281 4.232-5.505 0.171-0.133 0.289-0.321 0.336-0.532s0.017-0.432-0.082-0.624l-5.688-11.024c-0.063-0.122-0.152-0.228-0.26-0.312s-0.235-0.142-0.368-0.17c-0.134-0.029-0.273-0.028-0.406 0.003s-0.258 0.091-0.366 0.177c-2.963 2.36-4.381 4.452-3.792 5.594z"></path>
<path fill="#fff" d="M0.213 14.414l6.59 12.773c-0.643-1.246 1.033-3.497 4.093-5.871 0.178-0.138 0.301-0.335 0.35-0.555s0.018-0.45-0.085-0.65l-5.688-11.025c-0.279-0.54-0.983-0.694-1.458-0.315-2.874 2.289-4.423 4.436-3.801 5.642z"></path>
<path fill="#0f0f0f" d="M6.803 27.225c-0.007 0-0.014-0.002-0.020-0.005s-0.011-0.009-0.015-0.015l-6.589-12.773c-0.307-0.595-0.102-1.443 0.592-2.454 0.666-0.97 1.779-2.089 3.219-3.235 0.116-0.092 0.251-0.157 0.396-0.191s0.295-0.035 0.44-0.004c0.145 0.031 0.281 0.094 0.399 0.185s0.214 0.205 0.282 0.337l5.688 11.024c0.108 0.208 0.139 0.447 0.089 0.676s-0.179 0.433-0.364 0.577c-1.527 1.185-2.712 2.343-3.427 3.351-0.732 1.030-0.958 1.885-0.655 2.473 0.002 0.005 0.004 0.009 0.004 0.015s-0 0.010-0.002 0.015c-0.002 0.005-0.004 0.009-0.007 0.013s-0.007 0.007-0.012 0.009c-0.005 0.002-0.011 0.003-0.018 0.003zM0.247 14.396l6.394 12.394c-0.165-1.273 1.364-3.281 4.232-5.505 0.171-0.133 0.289-0.321 0.335-0.532s0.017-0.432-0.082-0.624l-5.688-11.025c-0.063-0.122-0.152-0.228-0.26-0.312s-0.235-0.142-0.368-0.17c-0.134-0.029-0.273-0.028-0.406 0.003s-0.258 0.091-0.366 0.177c-2.963 2.361-4.381 4.452-3.791 5.594z"></path>
<path fill="#fff" d="M15.344 2.935l5.697 11.043c0.108 0.21 0.29 0.373 0.51 0.458s0.464 0.087 0.685 0.005c4.697-1.747 8.451-2.091 9.208-0.624l-6.59-12.773c-0.744-1.443-4.391-1.133-8.982 0.541-0.129 0.047-0.246 0.121-0.345 0.217s-0.175 0.212-0.225 0.339c-0.050 0.128-0.072 0.265-0.065 0.402s0.043 0.271 0.106 0.393z"></path>
<path fill="#0f0f0f" d="M21.9 14.539c-0.185 0-0.365-0.051-0.523-0.147s-0.286-0.233-0.37-0.397l-5.697-11.043c-0.065-0.127-0.103-0.266-0.11-0.409s0.016-0.285 0.068-0.418c0.052-0.133 0.132-0.253 0.234-0.353s0.224-0.177 0.358-0.225c2.291-0.836 4.346-1.334 5.944-1.442 1.651-0.111 2.718 0.207 3.085 0.919l6.589 12.773c0.004 0.009 0.004 0.019 0.001 0.028s-0.010 0.017-0.019 0.021-0.019 0.005-0.028 0.003c-0.009-0.003-0.017-0.009-0.023-0.017-0.358-0.695-1.427-0.997-3.089-0.872-1.635 0.122-3.735 0.646-6.071 1.515-0.111 0.042-0.23 0.063-0.349 0.063zM15.377 2.917l5.697 11.043c0.104 0.201 0.278 0.358 0.489 0.44s0.445 0.083 0.658 0.005c4.447-1.654 7.859-1.997 8.992-0.949l-6.394-12.395c-0.712-1.38-4.219-1.16-8.934 0.56-0.124 0.045-0.237 0.116-0.331 0.208s-0.168 0.203-0.216 0.326c-0.048 0.123-0.069 0.254-0.063 0.386s0.041 0.26 0.102 0.377h-0.001z"></path>
<path fill="#fff" d="M15.241 3.648l5.697 11.043c0.108 0.21 0.29 0.373 0.51 0.458s0.464 0.087 0.685 0.005c4.697-1.747 8.451-2.091 9.208-0.624l-6.59-12.773c-0.744-1.443-4.391-1.133-8.981 0.541-0.129 0.047-0.246 0.121-0.345 0.217s-0.175 0.212-0.225 0.339-0.072 0.265-0.065 0.402c0.007 0.137 0.043 0.271 0.106 0.393z"></path>
<path fill="#0f0f0f" d="M21.797 15.253c-0.185 0-0.365-0.051-0.523-0.147s-0.286-0.233-0.37-0.397l-5.697-11.043c-0.065-0.127-0.103-0.266-0.11-0.409s0.016-0.285 0.068-0.418c0.052-0.133 0.132-0.253 0.234-0.353s0.224-0.177 0.358-0.225c2.291-0.836 4.346-1.334 5.944-1.442 1.651-0.111 2.718 0.207 3.085 0.919l6.59 12.773c0.004 0.009 0.004 0.019 0 0.028s-0.010 0.016-0.018 0.021c-0.009 0.004-0.018 0.005-0.028 0.003s-0.017-0.008-0.022-0.017c-0.358-0.695-1.427-0.997-3.089-0.872-1.636 0.122-3.735 0.647-6.071 1.515-0.112 0.042-0.23 0.063-0.349 0.063zM15.274 3.631l5.697 11.043c0.104 0.201 0.278 0.358 0.49 0.44s0.445 0.083 0.658 0.005c4.447-1.654 7.859-1.997 8.992-0.949l-6.394-12.395c-0.712-1.38-4.219-1.16-8.934 0.56-0.124 0.045-0.237 0.116-0.331 0.208s-0.168 0.203-0.216 0.326c-0.048 0.123-0.069 0.254-0.062 0.386s0.041 0.26 0.102 0.377h-0.001z"></path>
<path fill="#fff" d="M21.964 7.839c-0.134 0.045-0.273 0.085-0.416 0.12-0.912 0.221-1.098 0-3.484-0.083-2.914-0.102-3.9 0.183-4.587 0.484-0.392 0.172-0.702 0.355-1.246 0.677-1.85 1.095-2.324 1.785-2.805 1.63-0.111-0.036-0.221-0.116-0.321-0.271-0.74 0.558-1.584 0.434-2.046 0.299 0 0.105 0.005 0.21 0.014 0.319 0.028 0.313 0.076 0.861 0.413 1.323 0.725 0.995 2.513 1.215 4.423 0.565-0.121 0.262-1.095 2.466 0.052 4.517 1.188 2.117 3.784 2.543 5.49 2.252 2.783-0.474 5.007-3.162 4.627-4.761-0.065-0.275-0.354-0.673-0.927-1.457-0.678-0.927-1.292-1.65-1.725-2.136 0.466-0.029 2.076-0.184 3.478-1.476 0.127-0.117 0.245-0.237 0.354-0.358-0.799-0.267-1.148-1.090-1.296-1.644z"></path>
<path fill="#0f0f0f" d="M16.458 19.791c-0.667 0-1.347-0.105-1.957-0.307-1.144-0.379-2.033-1.087-2.571-2.047-1.064-1.9-0.332-3.915-0.090-4.471-1.906 0.626-3.661 0.386-4.384-0.606-0.343-0.471-0.391-1.016-0.42-1.342-0.009-0.105-0.014-0.213-0.014-0.322-0-0.006 0.001-0.012 0.004-0.017s0.007-0.010 0.011-0.014c0.005-0.004 0.010-0.006 0.016-0.007s0.012-0.001 0.018 0.001c0.437 0.128 1.278 0.259 2.011-0.293 0.004-0.003 0.009-0.005 0.014-0.007s0.010-0.001 0.016-0c0.005 0.001 0.010 0.003 0.014 0.006s0.008 0.007 0.011 0.011c0.086 0.133 0.187 0.218 0.3 0.255 0.266 0.086 0.544-0.115 1.097-0.514 0.388-0.28 0.918-0.663 1.676-1.112 0.552-0.327 0.856-0.507 1.25-0.679 0.663-0.29 1.62-0.591 4.604-0.487 0.956 0.033 1.558 0.088 1.997 0.129 0.662 0.061 0.935 0.086 1.476-0.045 0.136-0.033 0.274-0.073 0.412-0.119 0.005-0.002 0.010-0.002 0.015-0.002s0.010 0.002 0.015 0.004c0.005 0.002 0.009 0.006 0.012 0.010s0.006 0.009 0.007 0.014c0.159 0.597 0.51 1.363 1.271 1.617 0.006 0.002 0.011 0.006 0.016 0.010s0.008 0.010 0.009 0.017c0.002 0.006 0.002 0.012 0 0.019s-0.005 0.012-0.009 0.016c-0.114 0.126-0.234 0.248-0.357 0.36-1.244 1.146-2.649 1.422-3.423 1.48 0.585 0.66 1.148 1.36 1.676 2.081 0.6 0.82 0.868 1.194 0.933 1.471 0.141 0.595-0.062 1.349-0.574 2.122-0.901 1.363-2.505 2.417-4.085 2.686-0.331 0.055-0.665 0.083-1.001 0.082zM11.91 12.862c0.007 0 0.013 0.002 0.018 0.005s0.010 0.008 0.014 0.013c0.003 0.005 0.005 0.012 0.006 0.018s-0.001 0.013-0.003 0.019c-0.185 0.402-1.055 2.507 0.052 4.482 1.111 1.983 3.603 2.548 5.449 2.234 1.56-0.266 3.143-1.307 4.033-2.653 0.5-0.755 0.699-1.488 0.563-2.062-0.065-0.273-0.369-0.689-0.921-1.443-0.542-0.74-1.121-1.458-1.723-2.133-0.005-0.005-0.008-0.012-0.009-0.019s-0-0.014 0.002-0.021c0.003-0.007 0.007-0.012 0.013-0.017s0.013-0.007 0.020-0.007c0.745-0.046 2.185-0.297 3.454-1.466 0.107-0.098 0.212-0.203 0.313-0.313-0.739-0.277-1.090-1.017-1.255-1.612-0.127 0.041-0.255 0.078-0.38 0.108-0.553 0.134-0.85 0.107-1.501 0.047-0.439-0.040-1.039-0.095-1.994-0.129-2.968-0.103-3.916 0.194-4.571 0.481-0.39 0.171-0.692 0.35-1.242 0.675-0.755 0.447-1.284 0.829-1.671 1.107-0.574 0.415-0.863 0.623-1.166 0.525-0.121-0.039-0.227-0.124-0.318-0.253-0.725 0.525-1.541 0.42-1.997 0.296 0.001 0.090 0.006 0.179 0.013 0.265 0.028 0.318 0.075 0.85 0.405 1.304 0.714 0.979 2.474 1.2 4.38 0.551 0.004-0.001 0.009-0.002 0.013-0.001z"></path>
<path fill="#fff" d="M25.522 5.85l-0.249 0.159 0.381-0.686c0.014-0.026 0.018-0.056 0.012-0.085s-0.024-0.054-0.049-0.070-0.054-0.023-0.083-0.019c-0.029 0.004-0.056 0.019-0.075 0.042l-0.507 0.621 0.349-0.876c0.016-0.039 0.016-0.083-0-0.122s-0.048-0.070-0.087-0.086c-0.039-0.016-0.083-0.016-0.122 0s-0.070 0.048-0.086 0.087l-0.333 0.791 0.115-0.689c0.014-0.082-0.047-0.162-0.131-0.162-0.052 0-0.102 0.030-0.122 0.132-0.047 0.243-0.294 1.216-0.294 1.216s-0.107-0.038-0.245-0.226c-0.138-0.187-0.195-0.084-0.195-0.084-0.084 0.286 0.12 0.598 0.27 0.777-0.505 0.46-1.207 0.968-2.107 1.268 0.148 0.554 0.498 1.377 1.296 1.644 0.874-0.965 1.196-2.006 1.316-2.53 0.352-0.145 0.948-0.796 1.081-0.944 0.017-0.019 0.026-0.043 0.027-0.069s-0.009-0.050-0.025-0.069c-0.017-0.019-0.039-0.032-0.064-0.036s-0.051 0.002-0.072 0.015l0.001 0.001z"></path>
<path fill="#0f0f0f" d="M23.259 9.521c-0.004 0-0.008-0.001-0.012-0.002-0.794-0.266-1.156-1.055-1.321-1.67-0.003-0.009-0.001-0.019 0.003-0.028s0.012-0.015 0.022-0.018c0.732-0.244 1.427-0.66 2.067-1.236-0.167-0.208-0.336-0.505-0.253-0.784 0.001-0.003 0.002-0.005 0.003-0.008 0.008-0.014 0.019-0.025 0.033-0.034s0.029-0.013 0.045-0.015c0.057-0.004 0.116 0.038 0.182 0.128 0.080 0.108 0.149 0.164 0.189 0.191 0.050-0.199 0.241-0.958 0.281-1.166 0.027-0.141 0.111-0.162 0.159-0.163h0.001c0.024 0 0.048 0.005 0.070 0.016s0.041 0.025 0.057 0.044c0.017 0.020 0.030 0.044 0.037 0.069s0.008 0.052 0.004 0.078l-0.061 0.366 0.206-0.488c0.020-0.049 0.058-0.088 0.107-0.108s0.103-0.021 0.152-0.001c0.049 0.020 0.087 0.058 0.108 0.107s0.021 0.103 0.001 0.152l-0.257 0.645 0.349-0.428c0.025-0.029 0.060-0.047 0.098-0.052s0.076 0.004 0.108 0.026c0.032 0.021 0.054 0.054 0.064 0.090s0.006 0.076-0.011 0.11l-0.307 0.553 0.121-0.077c0.022-0.014 0.047-0.022 0.072-0.022s0.051 0.005 0.074 0.018c0.023 0.012 0.041 0.030 0.055 0.053s0.020 0.047 0.020 0.073c0 0.035-0.013 0.069-0.036 0.095-0.165 0.184-0.722 0.787-1.076 0.946-0.219 0.941-0.674 1.81-1.321 2.528-0.004 0.004-0.008 0.007-0.013 0.009s-0.010 0.003-0.016 0.003zM22.010 7.863c0.162 0.585 0.507 1.317 1.238 1.574 0.634-0.709 1.077-1.567 1.29-2.494 0.001-0.006 0.004-0.012 0.008-0.016s0.009-0.008 0.015-0.011c0.347-0.143 0.95-0.803 1.067-0.934 0.011-0.012 0.017-0.028 0.017-0.044 0-0.012-0.003-0.024-0.009-0.034s-0.015-0.019-0.025-0.024-0.022-0.009-0.034-0.008c-0.012 0-0.024 0.004-0.034 0.010l-0.249 0.159c-0.007 0.005-0.016 0.007-0.024 0.006s-0.017-0.004-0.023-0.010c-0.006-0.006-0.010-0.014-0.012-0.022s0-0.017 0.004-0.025l0.381-0.686c0.006-0.011 0.009-0.024 0.010-0.036s-0.002-0.025-0.008-0.037c-0.006-0.012-0.015-0.023-0.026-0.031s-0.024-0.013-0.037-0.014-0.027 0-0.039 0.005c-0.013 0.005-0.024 0.013-0.032 0.024l-0.507 0.621c-0.006 0.007-0.014 0.012-0.023 0.014s-0.018 0-0.026-0.005c-0.008-0.005-0.014-0.012-0.017-0.021s-0.003-0.018 0.001-0.027l0.349-0.876c0.011-0.030 0.011-0.062-0.002-0.091s-0.036-0.052-0.065-0.064-0.062-0.012-0.091-0c-0.029 0.012-0.053 0.035-0.066 0.064l-0.333 0.791c-0.004 0.009-0.011 0.015-0.019 0.019s-0.018 0.005-0.027 0.002c-0.009-0.003-0.017-0.008-0.022-0.016s-0.007-0.017-0.006-0.026l0.115-0.689c0.002-0.015 0.002-0.030-0.003-0.045s-0.011-0.028-0.021-0.040c-0.008-0.010-0.019-0.018-0.031-0.024s-0.025-0.008-0.038-0.009c-0.017 0-0.065 0-0.084 0.101-0.047 0.241-0.284 1.178-0.294 1.218-0.001 0.005-0.004 0.010-0.007 0.014s-0.007 0.008-0.012 0.010c-0.005 0.003-0.010 0.004-0.015 0.004s-0.011-0-0.016-0.002c-0.005-0.002-0.12-0.045-0.262-0.239-0.068-0.092-0.106-0.097-0.115-0.097-0.005 0-0.010 0.003-0.014 0.007-0.076 0.272 0.132 0.577 0.264 0.736 0.006 0.008 0.009 0.017 0.009 0.027s-0.005 0.019-0.012 0.026c-0.646 0.588-1.348 1.014-2.087 1.266z"></path>
<path fill="#fff" d="M8.72 8.19c0.164-0.268 0.117-0.91-0.066-1.223-0.185-0.316-0.823-1.22-0.823-1.22-0.315 0.246 0.154 0.973 0.154 0.973-0.545 0.349-0.239 0.719-0.239 0.719-0.22 0.457 0.060 0.613 0.227 0.665-0.364 0.488-0.917 1.414-0.914 2.591 0.462 0.135 1.305 0.259 2.046-0.299-0.209-0.322-0.37-0.967-0.386-2.205z"></path>
<path fill="#0f0f0f" d="M7.832 10.846c-0.265-0.002-0.528-0.040-0.783-0.115-0.008-0.002-0.015-0.007-0.020-0.014s-0.008-0.015-0.008-0.023c-0.003-1.107 0.475-2.003 0.89-2.572-0.095-0.037-0.2-0.104-0.253-0.223-0.054-0.122-0.039-0.276 0.043-0.456-0.064-0.095-0.090-0.21-0.074-0.323 0.024-0.151 0.127-0.29 0.306-0.412-0.090-0.149-0.429-0.755-0.126-0.992 0.004-0.003 0.009-0.006 0.014-0.007s0.010-0.002 0.015-0.001c0.005 0.001 0.010 0.003 0.015 0.005s0.008 0.006 0.011 0.011c0.006 0.009 0.641 0.909 0.825 1.223 0.177 0.302 0.242 0.958 0.072 1.253 0.015 1.075 0.142 1.807 0.379 2.173 0.006 0.008 0.008 0.018 0.006 0.028s-0.007 0.019-0.015 0.024c-0.43 0.322-0.893 0.42-1.297 0.42zM7.099 10.665c0.437 0.123 1.244 0.237 1.955-0.28-0.233-0.389-0.358-1.127-0.372-2.194-0-0.007 0.002-0.014 0.006-0.020 0.15-0.245 0.114-0.874-0.067-1.183-0.162-0.275-0.676-1.010-0.796-1.182-0.221 0.247 0.189 0.887 0.192 0.894 0.005 0.009 0.007 0.019 0.005 0.029s-0.008 0.018-0.016 0.024c-0.179 0.115-0.281 0.243-0.303 0.38-0.014 0.1 0.012 0.201 0.072 0.283 0.005 0.006 0.008 0.013 0.009 0.020s-0 0.015-0.003 0.021c-0.081 0.168-0.098 0.307-0.052 0.412 0.050 0.115 0.167 0.171 0.256 0.198 0.006 0.002 0.011 0.005 0.016 0.009s0.008 0.010 0.010 0.015c0.002 0.006 0.002 0.012 0.001 0.018s-0.003 0.012-0.007 0.017c-0.411 0.552-0.9 1.439-0.905 2.539z"></path>
<path fill="#0f0f0f" d="M8.325 7.952c-0.009-0-0.018-0.003-0.025-0.009-0.011-0.009-0.267-0.235-0.149-0.488 0.094-0.202 0.080-0.225 0-0.355l-0.011-0.018c-0.030-0.048-0.046-0.104-0.045-0.161s0.016-0.113 0.046-0.161c0.003-0.005 0.007-0.008 0.012-0.011s0.010-0.005 0.016-0.005c0.005-0.001 0.011-0 0.016 0.002s0.010 0.005 0.014 0.008l0.367 0.34c0.007 0.007 0.012 0.017 0.012 0.027s-0.003 0.020-0.010 0.028c-0.007 0.007-0.017 0.012-0.027 0.012s-0.020-0.003-0.028-0.010l-0.33-0.305c-0.012 0.032-0.016 0.067-0.012 0.101s0.015 0.067 0.033 0.096l0.011 0.018c0.090 0.147 0.111 0.199 0.004 0.428-0.093 0.2 0.127 0.395 0.129 0.397 0.006 0.005 0.010 0.012 0.012 0.020s0.002 0.016-0.001 0.023c-0.003 0.007-0.008 0.014-0.014 0.018s-0.014 0.007-0.022 0.007l0.001-0z"></path>
<path fill="#0f0f0f" d="M7.968 7.652c-0.022 0-0.044-0.004-0.064-0.013s-0.039-0.021-0.054-0.037l-0.132-0.136c-0.006-0.007-0.010-0.017-0.009-0.027s0.005-0.019 0.012-0.026c0.007-0.007 0.016-0.011 0.026-0.011s0.019 0.003 0.027 0.010l0.132 0.136c0.015 0.016 0.036 0.025 0.057 0.026s0.043-0.006 0.060-0.019c0.008-0.006 0.018-0.008 0.027-0.007s0.019 0.006 0.025 0.014c0.006 0.008 0.009 0.017 0.009 0.027s-0.005 0.019-0.012 0.026c-0.029 0.024-0.066 0.037-0.104 0.037z"></path>
<path fill="#fff" d="M20.577 27.459c0.008 0.044 1.361 1.998 1.361 1.998l-1.093 0.285-1.076-1.683 0.808-0.601z"></path>
<path fill="#0f0f0f" d="M20.845 29.78c-0.006 0-0.013-0.002-0.018-0.005s-0.010-0.007-0.014-0.013l-1.076-1.683c-0.005-0.008-0.007-0.018-0.005-0.028s0.007-0.018 0.015-0.024l0.807-0.601c0.005-0.004 0.011-0.006 0.018-0.007s0.013 0 0.019 0.002c0.005 0.002 0.010 0.005 0.014 0.009s0.007 0.009 0.009 0.014c0.037 0.075 0.83 1.228 1.356 1.988 0.004 0.005 0.006 0.011 0.006 0.017s0 0.012-0.002 0.018c-0.002 0.006-0.006 0.011-0.010 0.015s-0.010 0.007-0.016 0.009l-1.091 0.285c-0.003 0.001-0.007 0.001-0.011 0.001zM19.82 28.069l1.042 1.629 1.012-0.265c-0.545-0.787-1.172-1.698-1.308-1.919l-0.745 0.554z"></path>
<path fill="#fff" d="M20.84 29.195c0 0 0.127-0.571 0.75-0.408 0 0 1.329 1.339 1.946 2.53 0.175 0.337-0.134 0.723-0.502 0.63-0.861-0.218-2.244-0.752-3.207-2.024 0 0 0.119-0.615 0.426-0.944l0.587 0.216z"></path>
<path fill="#0f0f0f" d="M23.144 32c-0.041 0-0.081-0.005-0.12-0.015-0.952-0.241-2.284-0.791-3.229-2.039-0.003-0.004-0.006-0.009-0.007-0.015s-0.001-0.011-0-0.016c0.005-0.026 0.125-0.63 0.436-0.963 0.005-0.006 0.012-0.009 0.019-0.011s0.015-0.001 0.022 0.001l0.548 0.201c0.026-0.078 0.098-0.245 0.262-0.345 0.142-0.087 0.318-0.103 0.523-0.050 0.007 0.002 0.013 0.005 0.017 0.010 0.013 0.014 1.34 1.357 1.953 2.54 0.037 0.073 0.055 0.155 0.052 0.237s-0.027 0.162-0.070 0.232c-0.043 0.070-0.102 0.128-0.174 0.168s-0.152 0.062-0.234 0.063l0.001 0.001zM19.868 29.914c0.93 1.221 2.239 1.759 3.175 1.997 0.075 0.019 0.154 0.016 0.228-0.009s0.138-0.070 0.187-0.131c0.048-0.061 0.078-0.134 0.086-0.211s-0.007-0.155-0.042-0.224c-0.584-1.127-1.824-2.404-1.932-2.514-0.179-0.045-0.331-0.030-0.452 0.043-0.188 0.114-0.24 0.336-0.241 0.338-0.001 0.005-0.004 0.010-0.007 0.015s-0.008 0.008-0.012 0.011c-0.005 0.003-0.010 0.004-0.015 0.005s-0.011-0-0.016-0.002l-0.563-0.207c-0.257 0.291-0.375 0.793-0.396 0.89z"></path>
<path fill="#0f0f0f" d="M23.023 31.571c-0.469 0-1.483-0.208-2.95-1.623-0.006-0.007-0.009-0.016-0.008-0.026s0.004-0.018 0.011-0.025 0.015-0.011 0.024-0.012c0.009-0.001 0.018 0.002 0.026 0.007 1.996 1.925 3.156 1.574 3.167 1.569 0.009-0.003 0.020-0.002 0.028 0.003s0.015 0.012 0.019 0.022c0.003 0.009 0.003 0.020-0.002 0.029s-0.012 0.016-0.021 0.019c-0.013 0.005-0.113 0.036-0.294 0.036z"></path>
<path fill="#0f0f0f" d="M22.119 30.514c-0.006 0-0.011-0.001-0.016-0.004s-0.010-0.006-0.013-0.010c-0.006-0.008-0.010-0.018-0.009-0.028s0.006-0.020 0.013-0.026l0.477-0.405c0.008-0.006 0.018-0.008 0.027-0.007s0.019 0.006 0.025 0.013c0.006 0.007 0.009 0.017 0.009 0.027s-0.005 0.019-0.012 0.026l-0.476 0.405c-0.007 0.006-0.016 0.009-0.025 0.009z"></path>
<path fill="#0f0f0f" d="M21.782 30.163c-0.008 0-0.016-0.003-0.022-0.007s-0.011-0.011-0.014-0.019-0.003-0.016-0.001-0.023c0.002-0.008 0.007-0.015 0.013-0.019l0.521-0.412c0.004-0.004 0.008-0.006 0.013-0.008s0.010-0.002 0.015-0.002c0.005 0 0.010 0.002 0.015 0.004s0.009 0.006 0.012 0.010c0.003 0.004 0.006 0.009 0.007 0.014s0.002 0.010 0.001 0.016-0.003 0.010-0.005 0.015c-0.003 0.005-0.006 0.008-0.011 0.011l-0.52 0.413c-0.007 0.006-0.016 0.009-0.025 0.008z"></path>
<path fill="#fff" d="M17.235 23.011l-0.906 0.696 0.796 1.081 0.848-0.809-0.738-0.968z"></path>
<path fill="#0f0f0f" d="M17.125 24.826h-0.003c-0.006-0.001-0.011-0.002-0.015-0.005s-0.009-0.006-0.012-0.011l-0.795-1.082c-0.006-0.008-0.008-0.018-0.007-0.028s0.006-0.019 0.014-0.025l0.906-0.696c0.008-0.006 0.018-0.009 0.028-0.007s0.019 0.007 0.026 0.015l0.738 0.968c0.006 0.007 0.009 0.017 0.008 0.026s-0.005 0.018-0.012 0.025l-0.848 0.809c-0.007 0.007-0.017 0.011-0.027 0.011zM16.382 23.714l0.748 1.016 0.792-0.755-0.694-0.909-0.846 0.649z"></path>
<path fill="#fff" d="M17.664 24.661l-0.842-0.682-0.159-0.572c-0.442-0.011-0.939 0.319-1.211 0.53-0.061 0.047-0.105 0.114-0.122 0.19s-0.009 0.155 0.025 0.224c0.449 0.913 1.462 2.336 1.953 3.008 0.124 0.169 0.391 0.114 0.434-0.090 0.217-1.027-0.078-2.608-0.078-2.608z"></path>
<path fill="#0f0f0f" d="M17.504 27.497c-0.044 0-0.088-0.010-0.128-0.031s-0.074-0.049-0.1-0.085c-0.541-0.739-1.513-2.114-1.956-3.013-0.038-0.078-0.048-0.166-0.028-0.25s0.067-0.159 0.135-0.212c0.26-0.203 0.761-0.539 1.213-0.539h0.022c0.008 0 0.016 0.003 0.023 0.008s0.011 0.012 0.014 0.020l0.155 0.56 0.833 0.674c0.007 0.006 0.012 0.014 0.013 0.023 0.003 0.016 0.294 1.6 0.078 2.622-0.011 0.053-0.037 0.101-0.075 0.14s-0.087 0.064-0.14 0.075c-0.020 0.005-0.041 0.007-0.062 0.007zM16.634 23.445c-0.428 0.004-0.907 0.327-1.158 0.523-0.054 0.042-0.092 0.102-0.108 0.168s-0.008 0.137 0.022 0.199c0.44 0.893 1.41 2.264 1.949 3.001 0.023 0.032 0.056 0.057 0.093 0.071s0.078 0.017 0.117 0.008c0.038-0.008 0.073-0.027 0.101-0.054s0.047-0.063 0.055-0.101c0.202-0.957-0.048-2.421-0.076-2.578l-0.831-0.674c-0.006-0.005-0.011-0.012-0.013-0.020l-0.151-0.544z"></path>
<path fill="#0f0f0f" d="M17.381 26.988c-0.006 0-0.012-0.002-0.018-0.004s-0.010-0.007-0.014-0.012l-1.342-1.934c-0.093-0.137-0.134-0.304-0.115-0.469 0.033-0.322-0.097-0.652-0.098-0.656-0.003-0.009-0.003-0.019 0.002-0.028s0.011-0.016 0.021-0.020c0.009-0.004 0.019-0.004 0.028 0s0.017 0.011 0.021 0.020c0.005 0.014 0.138 0.351 0.103 0.692-0.017 0.147 0.019 0.295 0.102 0.417l1.341 1.933c0.003 0.004 0.005 0.009 0.006 0.014s0.001 0.010 0 0.015c-0.001 0.005-0.003 0.010-0.005 0.014s-0.006 0.008-0.011 0.011c-0.006 0.004-0.014 0.007-0.022 0.007z"></path>
<path fill="#0f0f0f" d="M18.138 13.83c0 0 2.588 2.043 3.956 3.955 0.187 0.263 0.3 0.572 0.326 0.893s-0.036 0.645-0.179 0.934c-0.63 1.28-1.994 3.576-4.103 4.721l-1.772-2.264c0 0 1.549-1.714 2.688-2.493l-2.904-3.255-0.722-1.635 2.71-0.857z"></path>
<path fill="#0f0f0f" d="M19.383 29.088c0.092 0.162 2.179-1.364 2.179-1.364s-1.596-1.869-4.134-11.366c-0.029-0.11-0.497-2.433-0.497-2.433l-3.467 1.817c0 0 0.609 3.997 5.92 13.346z"></path>
<path fill="#fff" d="M17.845 17.92c-0.008 0-0.017-0.003-0.023-0.008s-0.012-0.012-0.014-0.020l-0.326-1.192c-0.030-0.109-0.036-0.224-0.017-0.335s0.062-0.218 0.126-0.312l0.2-0.292c0.006-0.008 0.015-0.014 0.025-0.016s0.020 0 0.029 0.006c0.008 0.006 0.014 0.015 0.016 0.025s-0 0.020-0.006 0.029l-0.2 0.292c-0.058 0.084-0.096 0.18-0.113 0.281s-0.012 0.204 0.015 0.302l0.326 1.192c0.001 0.005 0.002 0.010 0.001 0.015s-0.002 0.010-0.005 0.014c-0.003 0.004-0.006 0.008-0.010 0.011s-0.009 0.005-0.013 0.007c-0.003 0.001-0.007 0.002-0.010 0.002z"></path>
<path fill="#fff" d="M19.963 24.153c-0.007-0-0.015-0.002-0.021-0.006s-0.011-0.010-0.014-0.017c-0.008-0.019-0.795-1.866-1.088-2.794-0.002-0.005-0.002-0.010-0.002-0.015s0.002-0.010 0.004-0.014c0.002-0.005 0.006-0.008 0.009-0.012s0.008-0.006 0.013-0.007 0.020-0.002 0.029 0.003c0.009 0.005 0.016 0.013 0.019 0.022 0.291 0.925 1.077 2.768 1.084 2.787 0.004 0.009 0.004 0.020 0 0.029s-0.011 0.017-0.021 0.021c-0.005 0.002-0.009 0.003-0.015 0.003z"></path>
<path fill="#fff" d="M12.647 9.591c0.066 1.384 0.262 4.837 0.623 6.224 0.011 0.042 0.031 0.081 0.059 0.114s0.062 0.060 0.101 0.079c0.039 0.019 0.082 0.028 0.125 0.029s0.086-0.009 0.126-0.027c0.826-0.373 3.173-1.368 4.958-1.504 0.059-0.005 0.117-0.023 0.169-0.053s0.095-0.071 0.129-0.121c0.033-0.050 0.055-0.106 0.063-0.165s0.003-0.119-0.016-0.176c-0.342-1.045-1.107-3.499-1.322-5.176-0.061-0.477-0.44-0.844-0.911-0.881-0.869-0.067-2.273-0.017-3.595 0.724-0.163 0.093-0.297 0.229-0.387 0.394s-0.132 0.351-0.122 0.538z"></path>
<path fill="#0f0f0f" d="M13.559 16.075c-0.050 0-0.1-0.011-0.146-0.033-0.044-0.021-0.083-0.051-0.114-0.088s-0.054-0.081-0.066-0.128c-0.361-1.387-0.557-4.82-0.625-6.232-0.019-0.396 0.189-0.775 0.529-0.966 1.308-0.734 2.689-0.801 3.617-0.729 0.485 0.038 0.883 0.422 0.946 0.914 0.216 1.685 0.995 4.176 1.32 5.169 0.020 0.062 0.026 0.128 0.018 0.193s-0.032 0.127-0.069 0.181c-0.036 0.055-0.085 0.1-0.141 0.133s-0.12 0.053-0.185 0.058c-1.759 0.133-4.044 1.093-4.945 1.5-0.044 0.020-0.091 0.030-0.139 0.030zM12.685 9.589c0.067 1.41 0.262 4.837 0.622 6.216 0.010 0.036 0.027 0.070 0.051 0.099s0.054 0.052 0.088 0.069c0.034 0.016 0.071 0.025 0.109 0.025s0.075-0.008 0.11-0.023c0.905-0.408 3.2-1.373 4.971-1.506 0.054-0.004 0.106-0.020 0.152-0.047s0.086-0.065 0.116-0.109c0.030-0.045 0.049-0.096 0.056-0.149s0.002-0.108-0.015-0.159c-0.326-0.995-1.106-3.491-1.323-5.183-0.058-0.456-0.427-0.812-0.876-0.847-0.918-0.072-2.284-0.005-3.573 0.72-0.315 0.177-0.507 0.528-0.49 0.896z"></path>
<path fill="#0f0f0f" d="M14.222 6.156c0 0-0.27-0.548-0.365-0.644s-0.168-0.198 0.111-0.385c0.28-0.186 1.010-0.686 1.458-0.683s0.761 0.286 0.623 0.49c-0.138 0.204-0.201 0.29-0.095 0.303s0.165 0.132-0.136 0.306c-0.301 0.174-1.35 0.93-1.597 0.614z"></path>
<path fill="#fff" d="M15.755 8.061l-0.156-0.831c0.47-0.236 0.281-0.564 0.21-0.826-0.076-0.282-0.309-0.893-0.309-0.893-0.386 0.227-1.143 0.159-1.143 0.159s0.109 0.173 0.046 0.258c-0.063 0.085-0.023 0.413-0.023 0.413s-0.135-0.127-0.28-0.030c-0.081 0.055 0.012 0.288 0.078 0.42s0.21 0.157 0.21 0.157c0 0 0.024-0.014 0.072 0.101l-0.257 1.353-0.504 0.21 1.122 0.152c0.175 0.024 0.354 0.013 0.525-0.033s0.331-0.124 0.472-0.232l0.402-0.308-0.465-0.071z"></path>
<path fill="#0f0f0f" d="M14.998 8.753c-0.061 0-0.122-0.004-0.182-0.012l-1.122-0.151c-0.008-0.001-0.016-0.005-0.022-0.011s-0.010-0.014-0.011-0.022c-0.001-0.008 0.001-0.017 0.005-0.024s0.011-0.013 0.019-0.016l0.485-0.201 0.251-1.321c-0.009-0.024-0.022-0.047-0.038-0.068h-0.001c-0.007-0.001-0.163-0.031-0.238-0.177-0.058-0.115-0.182-0.39-0.065-0.468 0.037-0.025 0.081-0.040 0.126-0.042s0.090 0.007 0.13 0.028c-0.008-0.11-0.012-0.29 0.038-0.359 0.038-0.052-0.023-0.176-0.048-0.215-0.004-0.006-0.006-0.013-0.006-0.020s0.002-0.014 0.006-0.020c0.004-0.006 0.009-0.011 0.015-0.014s0.014-0.005 0.021-0.004c0.007 0 0.749 0.064 1.12-0.154 0.005-0.003 0.010-0.005 0.016-0.005s0.011 0 0.016 0.002c0.005 0.002 0.010 0.005 0.014 0.009s0.007 0.009 0.009 0.014c0.009 0.025 0.235 0.616 0.31 0.896 0.009 0.035 0.021 0.070 0.033 0.107 0.076 0.237 0.17 0.531-0.237 0.749l0.146 0.775 0.437 0.066c0.007 0.001 0.014 0.004 0.020 0.010s0.009 0.012 0.011 0.019 0.002 0.015-0.001 0.022c-0.002 0.007-0.007 0.013-0.013 0.018l-0.402 0.308c-0.242 0.184-0.538 0.284-0.842 0.285zM13.845 8.533l0.981 0.132c0.344 0.046 0.692-0.047 0.968-0.257l0.33-0.253-0.375-0.056c-0.008-0.001-0.015-0.005-0.021-0.010s-0.010-0.013-0.011-0.020l-0.156-0.831c-0.002-0.008-0-0.017 0.003-0.024s0.010-0.014 0.017-0.017c0.378-0.19 0.3-0.434 0.224-0.671-0.012-0.038-0.024-0.074-0.034-0.111-0.063-0.234-0.239-0.706-0.292-0.848-0.332 0.169-0.866 0.157-1.057 0.147 0.030 0.066 0.061 0.169 0.011 0.238-0.037 0.050-0.032 0.256-0.017 0.385 0.001 0.008-0 0.016-0.004 0.023s-0.009 0.013-0.017 0.016-0.015 0.005-0.023 0.004c-0.008-0.001-0.015-0.005-0.021-0.010-0.005-0.004-0.115-0.105-0.232-0.026-0.035 0.023-0.010 0.172 0.091 0.37 0.050 0.099 0.153 0.129 0.178 0.135 0.006-0 0.012 0.001 0.018 0.003 0.020 0.007 0.048 0.027 0.089 0.122 0.003 0.007 0.004 0.015 0.002 0.022l-0.257 1.353c-0.001 0.006-0.004 0.012-0.008 0.017s-0.009 0.009-0.015 0.011l-0.374 0.156zM14.408 6.921c-0.002 0.001-0.003 0.002-0.005 0.002 0.002-0.001 0.003-0.002 0.005-0.003v0.001z"></path>
<path fill="#0f0f0f" d="M15.165 7.367c-0.429 0-0.589-0.332-0.591-0.336-0.004-0.009-0.005-0.020-0.001-0.029s0.011-0.017 0.020-0.022 0.020-0.005 0.030-0.001c0.009 0.004 0.017 0.011 0.022 0.020 0.010 0.020 0.24 0.49 0.94 0.196 0.005-0.002 0.010-0.003 0.015-0.003s0.010 0.001 0.015 0.003c0.005 0.002 0.009 0.005 0.013 0.008s0.006 0.008 0.008 0.012c0.002 0.005 0.003 0.010 0.003 0.015s-0.001 0.010-0.003 0.015c-0.002 0.005-0.005 0.009-0.008 0.012s-0.008 0.006-0.012 0.008c-0.174 0.073-0.323 0.101-0.448 0.101z"></path>
<path fill="#fff" d="M14.042 5.89l0.144 0.42c0 0 0.915 0.547 2.004 0.325 0.035-0.007 0.069-0.022 0.099-0.042s0.055-0.047 0.075-0.077 0.033-0.064 0.039-0.1c0.006-0.036 0.005-0.072-0.003-0.107l-0.084-0.739c-0.008-0.035-0.023-0.068-0.043-0.097s-0.047-0.054-0.078-0.073c-0.030-0.019-0.064-0.032-0.1-0.038s-0.072-0.005-0.107 0.004l-1.946 0.525z"></path>
<path fill="#0f0f0f" d="M15.664 6.726c-0.844 0-1.489-0.378-1.497-0.383s-0.014-0.012-0.018-0.020l-0.144-0.42c-0.002-0.005-0.002-0.010-0.002-0.016s0.002-0.010 0.004-0.015c0.002-0.005 0.006-0.009 0.010-0.012s0.009-0.006 0.014-0.007l1.947-0.525c0.040-0.010 0.081-0.011 0.122-0.005s0.079 0.021 0.114 0.043c0.035 0.022 0.065 0.050 0.089 0.083s0.041 0.071 0.050 0.111c0 0.001 0 0.003 0 0.004l0.084 0.737c0.009 0.040 0.009 0.082 0.002 0.122s-0.023 0.079-0.045 0.114c-0.022 0.035-0.051 0.064-0.085 0.087s-0.072 0.039-0.112 0.048c-0.175 0.035-0.354 0.053-0.533 0.053zM14.218 6.284c0.111 0.062 0.97 0.516 1.965 0.314 0.030-0.006 0.059-0.019 0.085-0.036s0.047-0.040 0.064-0.066c0.017-0.026 0.028-0.055 0.034-0.086s0.005-0.062-0.002-0.092c-0-0.001-0-0.003 0-0.004l-0.084-0.737c-0.014-0.060-0.052-0.112-0.104-0.144s-0.116-0.043-0.176-0.029l-1.906 0.513 0.124 0.367z"></path>
<path fill="#0f0f0f" d="M15.078 6.391c-0.005 0-0.010-0.001-0.015-0.003s-0.009-0.005-0.012-0.008-0.011-0.017-0.011-0.027 0.004-0.020 0.011-0.027l0.349-0.349c0.007-0.006 0.017-0.010 0.027-0.010s0.019 0.004 0.026 0.011 0.011 0.016 0.011 0.026c0 0.010-0.003 0.019-0.009 0.027l-0.35 0.349c-0.007 0.007-0.016 0.011-0.026 0.011z"></path>
<path fill="#0f0f0f" d="M15.599 6.323c-0.005 0-0.010-0.001-0.015-0.003s-0.009-0.005-0.013-0.008-0.011-0.017-0.011-0.027 0.004-0.020 0.011-0.027l0.523-0.522c0.007-0.007 0.017-0.011 0.027-0.011s0.020 0.004 0.027 0.011c0.007 0.007 0.011 0.017 0.011 0.027s-0.004 0.020-0.011 0.027l-0.522 0.523c-0.007 0.007-0.017 0.011-0.027 0.010z"></path>
<path fill="#0f0f0f" d="M9.142 27.429h-0.001c-1.202-0.032-1.964-0.348-2.268-0.938l-6.59-12.774c-0.002-0.005-0.004-0.009-0.004-0.014s0-0.010 0.002-0.015c0.002-0.005 0.004-0.009 0.007-0.013s0.007-0.007 0.012-0.009c0.004-0.002 0.009-0.004 0.014-0.004s0.010 0 0.015 0.002c0.005 0.002 0.009 0.004 0.013 0.007s0.007 0.007 0.009 0.012c0.36 0.698 1.435 0.999 3.109 0.871 1.647-0.126 3.76-0.657 6.108-1.535 0.23-0.086 0.484-0.084 0.713 0.004s0.418 0.258 0.531 0.476l5.696 11.043c0.065 0.127 0.103 0.266 0.11 0.408s-0.016 0.285-0.067 0.418c-0.052 0.133-0.131 0.253-0.233 0.353s-0.224 0.177-0.358 0.226c-0.681 0.25-1.351 0.472-1.992 0.663-0.005 0.002-0.010 0.003-0.015 0.002s-0.010-0.002-0.015-0.004c-0.005-0.002-0.009-0.006-0.012-0.010s-0.006-0.009-0.007-0.014-0.002-0.010-0.001-0.016c0.001-0.005 0.002-0.010 0.005-0.015s0.006-0.009 0.010-0.012 0.009-0.005 0.014-0.006c0.639-0.19 1.308-0.413 1.987-0.662 0.124-0.045 0.236-0.116 0.33-0.208s0.167-0.203 0.215-0.326c0.048-0.123 0.069-0.254 0.062-0.386s-0.042-0.26-0.102-0.377l-5.697-11.043c-0.104-0.202-0.278-0.358-0.49-0.44s-0.446-0.083-0.659-0.004c-2.779 1.038-5.156 1.568-6.832 1.568-1.024 0-1.785-0.197-2.217-0.597l6.394 12.394c0.287 0.556 1.049 0.866 2.203 0.897 0.010 0.001 0.019 0.005 0.025 0.012s0.010 0.017 0.010 0.026c-0 0.010-0.004 0.019-0.011 0.026s-0.016 0.011-0.026 0.012h-0.001z"></path>
<path fill="#fff" d="M12.338 27.038c-0.009-0-0.018-0.004-0.025-0.010s-0.011-0.015-0.012-0.024c-0.001-0.009 0.001-0.019 0.007-0.026s0.013-0.013 0.023-0.015c0.515-0.117 1.059-0.26 1.618-0.427 0.009-0.002 0.020-0.001 0.028 0.004s0.015 0.013 0.018 0.022 0.002 0.020-0.002 0.028c-0.004 0.009-0.012 0.016-0.021 0.019-0.56 0.167-1.107 0.311-1.623 0.428-0.003 0.001-0.006 0.001-0.009 0.001z"></path>
<path fill="#0f0f0f" d="M10.313 27.38c-0.010-0-0.019-0.004-0.026-0.011s-0.011-0.016-0.011-0.026c-0-0.010 0.003-0.019 0.009-0.026s0.015-0.012 0.025-0.013c0.612-0.061 1.291-0.175 2.020-0.341 0.010-0.002 0.020-0.001 0.029 0.005s0.015 0.014 0.017 0.024c0.002 0.010 0.001 0.020-0.005 0.029s-0.014 0.015-0.024 0.017c-0.732 0.166-1.415 0.282-2.029 0.343l-0.005 0z"></path>
<path fill="#fff" d="M9.339 27.432c-0.067 0-0.133-0.001-0.198-0.003-0.005 0-0.011-0.001-0.015-0.003s-0.009-0.005-0.013-0.008c-0.004-0.004-0.007-0.008-0.009-0.013s-0.003-0.010-0.003-0.015c0-0.005 0.001-0.010 0.004-0.015s0.005-0.009 0.009-0.013c0.004-0.003 0.009-0.006 0.014-0.008s0.010-0.002 0.015-0.002c0.39 0.008 0.779-0.009 1.167-0.049 0.010-0 0.019 0.003 0.027 0.009s0.012 0.015 0.013 0.025-0.002 0.019-0.008 0.027c-0.006 0.008-0.015 0.013-0.024 0.015-0.347 0.034-0.675 0.052-0.978 0.052z"></path>
<path fill="#0f0f0f" d="M19.821 24.193c-0.185 0-0.366-0.050-0.525-0.145s-0.287-0.233-0.373-0.397c-0.003-0.005-0.004-0.009-0.005-0.015s-0-0.011 0.001-0.016c0.001-0.005 0.004-0.010 0.007-0.014s0.007-0.007 0.012-0.010c0.005-0.002 0.010-0.004 0.015-0.004s0.011 0 0.015 0.002 0.009 0.005 0.013 0.008c0.004 0.004 0.007 0.008 0.009 0.013 0.113 0.215 0.305 0.378 0.536 0.454s0.483 0.058 0.701-0.048c0.25-0.123 0.502-0.251 0.751-0.379 3.274-1.689 6.162-3.643 8.133-5.503 1.96-1.85 2.776-3.379 2.297-4.306l-6.393-12.393c0.127 0.967-0.72 2.356-2.44 3.98-1.976 1.865-4.87 3.824-8.151 5.516-0.24 0.124-0.484 0.247-0.725 0.366-0.11 0.055-0.209 0.131-0.289 0.224s-0.142 0.201-0.18 0.318c-0.038 0.117-0.053 0.24-0.043 0.363s0.044 0.242 0.101 0.351l1.882 3.649c0.004 0.009 0.004 0.019 0 0.028s-0.010 0.016-0.018 0.021c-0.009 0.004-0.018 0.006-0.028 0.003s-0.017-0.008-0.023-0.017l-1.882-3.648c-0.061-0.118-0.098-0.248-0.109-0.381s0.005-0.266 0.047-0.393c0.042-0.127 0.108-0.244 0.195-0.344s0.194-0.183 0.313-0.242c0.241-0.119 0.484-0.242 0.724-0.366 3.274-1.689 6.162-3.643 8.133-5.503 1.959-1.848 2.774-3.376 2.298-4.303l-0.001-0.002c-0.005-0.009-0.005-0.020-0.002-0.029s0.010-0.018 0.019-0.022 0.020-0.006 0.029-0.002c0.010 0.003 0.018 0.010 0.022 0.019l6.588 12.773c0.495 0.96-0.326 2.521-2.313 4.397-1.976 1.865-4.87 3.824-8.15 5.516-0.249 0.128-0.502 0.256-0.752 0.379-0.137 0.068-0.288 0.103-0.441 0.103z"></path>
<path fill="#fff" d="M18.958 23.671c-0.007 0-0.014-0.002-0.020-0.005s-0.011-0.009-0.015-0.015l-1.289-2.499c-0.003-0.004-0.005-0.009-0.006-0.015s-0-0.011 0.001-0.016c0.001-0.005 0.004-0.010 0.007-0.014s0.008-0.007 0.012-0.010c0.005-0.002 0.010-0.004 0.015-0.004s0.011 0.001 0.016 0.002c0.005 0.002 0.010 0.005 0.013 0.008s0.007 0.008 0.009 0.013l1.289 2.499c0.002 0.005 0.004 0.009 0.004 0.015s-0 0.010-0.002 0.015c-0.002 0.005-0.004 0.009-0.008 0.013s-0.008 0.007-0.012 0.009c-0.005 0.002-0.010 0.003-0.016 0.003z"></path>
<path fill="#0f0f0f" d="M17.668 21.173c-0.007 0-0.014-0.002-0.020-0.006s-0.011-0.009-0.015-0.015l-0.548-1.063c-0.002-0.005-0.004-0.009-0.004-0.014s0-0.010 0.002-0.015c0.003-0.010 0.010-0.018 0.019-0.022s0.020-0.006 0.029-0.002c0.010 0.003 0.018 0.010 0.022 0.019l0.548 1.063c0.002 0.005 0.004 0.009 0.004 0.015s-0 0.010-0.002 0.015c-0.002 0.005-0.004 0.009-0.007 0.013s-0.007 0.007-0.012 0.009c-0.005 0.003-0.011 0.004-0.017 0.004z"></path>
<path fill="#fff" d="M17.12 20.109c-0.007 0-0.014-0.002-0.021-0.005s-0.011-0.009-0.015-0.015l-1.983-3.845c-0.003-0.005-0.005-0.010-0.005-0.015s-0-0.011 0.001-0.016c0.001-0.005 0.004-0.010 0.007-0.014s0.008-0.008 0.012-0.010c0.005-0.003 0.010-0.004 0.015-0.004s0.011 0.001 0.016 0.002c0.005 0.002 0.010 0.005 0.013 0.008s0.007 0.008 0.009 0.013l1.985 3.845c0.002 0.005 0.004 0.009 0.004 0.015s-0 0.010-0.002 0.015c-0.002 0.005-0.004 0.009-0.008 0.013s-0.008 0.007-0.012 0.009c-0.006 0.002-0.011 0.003-0.017 0.003z"></path>
<path fill="#0f0f0f" d="M15.16 12.557c-0.009-0-0.017-0.003-0.024-0.008s-0.011-0.013-0.013-0.021c-0.002-0.008-0.001-0.017 0.002-0.025s0.010-0.014 0.017-0.018c5.192-2.678 9.348-6.019 10.342-8.312 0.002-0.005 0.004-0.010 0.008-0.014s0.008-0.007 0.013-0.010c0.005-0.002 0.010-0.004 0.016-0.004s0.011 0.001 0.016 0.003 0.009 0.005 0.013 0.009c0.004 0.004 0.006 0.009 0.008 0.014s0.002 0.011 0.002 0.016-0.002 0.011-0.005 0.015c-1 2.308-5.17 5.664-10.377 8.35-0.005 0.003-0.011 0.004-0.017 0.004z"></path>
<path fill="#0f0f0f" d="M15.786 13.883c-0.009-0-0.017-0.003-0.024-0.008s-0.011-0.013-0.013-0.021c-0.002-0.008-0.001-0.017 0.002-0.025s0.010-0.014 0.017-0.018c5.193-2.679 9.349-6.019 10.342-8.312 0.005-0.008 0.012-0.015 0.021-0.018s0.019-0.003 0.028 0.001 0.016 0.011 0.020 0.019c0.004 0.009 0.004 0.019 0.001 0.028-1 2.308-5.17 5.664-10.377 8.35-0.005 0.003-0.011 0.004-0.017 0.004z"></path>
<path fill="#0f0f0f" d="M18.075 14.31c-0.008 0-0.017-0.003-0.023-0.008s-0.012-0.012-0.014-0.021c-0.002-0.008-0.002-0.017 0.002-0.025s0.009-0.014 0.016-0.019c1.297-0.734 2.514-1.507 3.62-2.294 0.004-0.003 0.009-0.005 0.014-0.006s0.010-0.001 0.015-0.001c0.005 0.001 0.010 0.003 0.014 0.005s0.008 0.006 0.011 0.010 0.005 0.009 0.006 0.014c0.001 0.005 0.001 0.010 0 0.015s-0.003 0.010-0.005 0.014c-0.003 0.004-0.006 0.008-0.010 0.011-1.108 0.789-2.327 1.563-3.627 2.298-0.006 0.003-0.012 0.005-0.019 0.005z"></path>
<path fill="#0f0f0f" d="M22.592 11.354c-0.008 0-0.016-0.003-0.022-0.007s-0.011-0.011-0.014-0.019c-0.003-0.008-0.003-0.016-0-0.023s0.007-0.014 0.013-0.019c2.155-1.648 3.636-3.232 4.168-4.461 0.005-0.008 0.012-0.014 0.021-0.017s0.019-0.002 0.027 0.001c0.009 0.004 0.016 0.011 0.019 0.019s0.005 0.018 0.002 0.027c-0.537 1.24-2.026 2.836-4.192 4.491-0.006 0.005-0.014 0.008-0.023 0.008z"></path>
<path fill="#0f0f0f" d="M20.34 14.661c-0.008 0-0.016-0.003-0.023-0.008s-0.012-0.012-0.014-0.020-0.002-0.017 0.001-0.024c0.003-0.008 0.008-0.014 0.015-0.019 1.288-0.804 2.459-1.63 3.48-2.454 0.004-0.003 0.008-0.006 0.013-0.008s0.010-0.002 0.015-0.002c0.005 0 0.010 0.002 0.015 0.004s0.009 0.006 0.012 0.010c0.003 0.004 0.006 0.009 0.007 0.014s0.002 0.010 0.001 0.015-0.002 0.010-0.005 0.015c-0.003 0.005-0.006 0.008-0.010 0.011-1.024 0.826-2.197 1.653-3.487 2.459-0.006 0.004-0.013 0.006-0.020 0.006z"></path>
<path fill="#0f0f0f" d="M24.525 11.618c-0.008 0-0.015-0.002-0.022-0.007s-0.011-0.011-0.014-0.018c-0.003-0.007-0.003-0.015-0.001-0.023s0.006-0.014 0.012-0.020c1.458-1.266 2.448-2.442 2.863-3.401 0.002-0.005 0.004-0.010 0.008-0.014s0.008-0.007 0.013-0.009c0.005-0.002 0.010-0.003 0.015-0.003s0.011 0.001 0.015 0.003c0.005 0.002 0.009 0.005 0.013 0.009s0.006 0.009 0.008 0.014c0.002 0.005 0.002 0.010 0.002 0.016s-0.002 0.010-0.005 0.015c-0.42 0.97-1.416 2.155-2.883 3.428-0.007 0.006-0.016 0.009-0.025 0.009z"></path>
<path fill="#0f0f0f" d="M18.292 19.186c-0.009-0-0.017-0.003-0.024-0.008s-0.011-0.013-0.013-0.021c-0.002-0.008-0.001-0.017 0.002-0.025s0.009-0.014 0.017-0.018c0.237-0.122 0.476-0.248 0.711-0.375 0.009-0.004 0.019-0.005 0.028-0.002s0.017 0.010 0.022 0.018 0.006 0.019 0.003 0.028c-0.003 0.009-0.009 0.018-0.017 0.023-0.235 0.127-0.475 0.253-0.712 0.375-0.005 0.003-0.011 0.004-0.018 0.004z"></path>
<path fill="#fff" d="M19.003 18.811c-0.009 0-0.017-0.003-0.023-0.008s-0.011-0.013-0.013-0.021c-0.002-0.008-0.001-0.017 0.002-0.025s0.010-0.014 0.017-0.018c0.755-0.405 1.497-0.83 2.205-1.262 0.004-0.003 0.009-0.005 0.014-0.006s0.010-0.001 0.015 0c0.005 0.001 0.010 0.003 0.014 0.006s0.008 0.007 0.011 0.011c0.003 0.004 0.004 0.009 0.005 0.015s0 0.011-0.001 0.016c-0.001 0.005-0.004 0.010-0.007 0.014s-0.007 0.007-0.012 0.010c-0.71 0.433-1.453 0.858-2.209 1.264-0.006 0.003-0.012 0.005-0.019 0.005z"></path>
<path fill="#0f0f0f" d="M21.211 17.548c-0.008 0-0.016-0.003-0.023-0.008s-0.011-0.012-0.014-0.020c-0.002-0.008-0.002-0.017 0.001-0.024s0.008-0.014 0.016-0.019c1.889-1.152 3.573-2.379 4.87-3.547 1.288-1.16 2.172-2.242 2.555-3.128 0.002-0.005 0.004-0.010 0.008-0.014s0.008-0.008 0.013-0.010c0.005-0.002 0.010-0.004 0.016-0.004s0.011 0.001 0.016 0.003 0.009 0.005 0.013 0.009c0.004 0.004 0.006 0.009 0.008 0.014s0.002 0.011 0.002 0.016c-0.001 0.005-0.002 0.011-0.005 0.015-0.797 1.84-3.585 4.349-7.456 6.711-0.006 0.004-0.012 0.006-0.019 0.006z"></path>
<path fill="#fff" d="M18.918 20.511c-0.009 0-0.017-0.003-0.024-0.008s-0.011-0.013-0.013-0.021c-0.002-0.008-0.001-0.017 0.002-0.025s0.009-0.014 0.017-0.018c0.819-0.422 1.626-0.868 2.397-1.325 0.009-0.005 0.019-0.007 0.029-0.004s0.018 0.009 0.023 0.018 0.007 0.019 0.004 0.029c-0.003 0.010-0.009 0.018-0.018 0.023-0.773 0.457-1.581 0.904-2.401 1.327-0.006 0.003-0.012 0.004-0.018 0.004z"></path>
<path fill="#0f0f0f" d="M21.317 19.186c-0.008 0-0.017-0.003-0.023-0.008s-0.012-0.012-0.014-0.020c-0.002-0.008-0.002-0.017 0.001-0.025s0.009-0.014 0.016-0.019c4.078-2.413 7.123-5.090 7.944-6.988 0.005-0.008 0.012-0.015 0.021-0.018s0.019-0.003 0.028 0.001 0.016 0.011 0.020 0.019c0.004 0.009 0.004 0.019 0.001 0.028-0.828 1.912-3.884 4.603-7.976 7.023-0.006 0.003-0.012 0.005-0.019 0.005z"></path>
<path fill="#0f0f0f" d="M19.544 21.837c-0.009-0-0.017-0.003-0.024-0.008s-0.011-0.013-0.013-0.021c-0.002-0.008-0.001-0.017 0.002-0.025s0.009-0.014 0.017-0.018c0.479-0.247 0.957-0.504 1.42-0.763 0.009-0.005 0.019-0.006 0.029-0.003s0.018 0.009 0.023 0.018c0.005 0.009 0.006 0.019 0.003 0.029s-0.009 0.018-0.018 0.023c-0.465 0.26-0.943 0.517-1.423 0.764-0.005 0.003-0.012 0.004-0.018 0.004z"></path>
<path fill="#0f0f0f" d="M20.966 21.074c-0.009 0-0.017-0.003-0.024-0.008s-0.012-0.012-0.014-0.021c-0.002-0.008-0.002-0.017 0.002-0.025s0.009-0.014 0.017-0.018c4.53-2.532 8.032-5.496 8.921-7.549 0.002-0.005 0.004-0.010 0.008-0.014s0.008-0.007 0.013-0.010c0.005-0.002 0.010-0.003 0.016-0.004s0.011 0.001 0.016 0.003 0.009 0.005 0.013 0.009c0.004 0.004 0.006 0.009 0.008 0.014s0.002 0.011 0.002 0.016-0.002 0.011-0.005 0.015c-0.438 1.013-1.501 2.255-3.072 3.59-1.589 1.351-3.623 2.733-5.882 3.996-0.006 0.003-0.012 0.005-0.019 0.005z"></path>
<path fill="#0f0f0f" d="M24.035 24.761c-0.008 0-0.017-0.003-0.023-0.008s-0.011-0.012-0.014-0.020c-0.002-0.008-0.002-0.017 0.001-0.024s0.009-0.015 0.016-0.019c0.132-0.080 0.263-0.16 0.392-0.24 0.009-0.005 0.019-0.007 0.029-0.005 0.005 0.001 0.009 0.003 0.014 0.006s0.008 0.007 0.010 0.011c0.003 0.004 0.004 0.009 0.005 0.014s0.001 0.010-0.001 0.015c-0.001 0.005-0.003 0.009-0.006 0.014s-0.007 0.008-0.011 0.010c-0.13 0.080-0.261 0.161-0.393 0.241-0.006 0.004-0.013 0.006-0.020 0.006zM24.818 24.275c-0.008-0-0.016-0.003-0.022-0.008s-0.011-0.012-0.013-0.019c-0.002-0.008-0.002-0.016 0.001-0.024s0.008-0.014 0.014-0.019c0.131-0.083 0.26-0.166 0.388-0.248 0.004-0.003 0.009-0.005 0.014-0.006s0.010-0.001 0.016-0c0.005 0.001 0.010 0.003 0.015 0.006s0.008 0.007 0.011 0.011c0.003 0.004 0.005 0.009 0.006 0.015s0.001 0.011-0.001 0.016c-0.001 0.005-0.004 0.010-0.007 0.014s-0.007 0.008-0.012 0.010c-0.128 0.083-0.258 0.166-0.388 0.249-0.006 0.003-0.013 0.005-0.020 0.005v0zM25.591 23.775c-0.008-0-0.016-0.003-0.022-0.008s-0.011-0.012-0.014-0.019c-0.002-0.008-0.002-0.016 0-0.024s0.008-0.014 0.014-0.019c0.129-0.085 0.256-0.171 0.382-0.256 0.008-0.005 0.018-0.007 0.028-0.005s0.018 0.008 0.024 0.016c0.005 0.008 0.008 0.018 0.006 0.028s-0.007 0.018-0.015 0.024c-0.126 0.085-0.254 0.171-0.383 0.256-0.006 0.004-0.014 0.006-0.021 0.006v0zM26.354 23.258c-0.008 0-0.016-0.003-0.023-0.008s-0.011-0.012-0.014-0.019c-0.003-0.008-0.002-0.016 0-0.024s0.008-0.015 0.014-0.019c0.126-0.087 0.252-0.176 0.376-0.265 0.004-0.003 0.009-0.006 0.014-0.007s0.010-0.002 0.015-0.001c0.005 0.001 0.010 0.003 0.015 0.005s0.008 0.006 0.011 0.011c0.003 0.004 0.005 0.009 0.006 0.014s0.001 0.010 0 0.015-0.003 0.010-0.006 0.014c-0.003 0.004-0.007 0.008-0.011 0.011-0.124 0.087-0.251 0.178-0.377 0.265-0.007 0.004-0.014 0.007-0.022 0.006l0.001 0zM27.105 22.723c-0.008 0-0.016-0.002-0.023-0.007s-0.012-0.012-0.014-0.019c-0.003-0.008-0.003-0.016 0-0.024s0.008-0.015 0.014-0.019c0.125-0.091 0.249-0.184 0.37-0.274 0.008-0.006 0.018-0.009 0.028-0.007s0.019 0.007 0.025 0.015c0.006 0.008 0.009 0.018 0.007 0.028s-0.007 0.019-0.015 0.025c-0.121 0.090-0.245 0.183-0.371 0.274-0.006 0.005-0.014 0.007-0.022 0.008l-0.001 0z"></path>
<path fill="#fff" d="M27.475 22.449c-0.008 0-0.017-0.002-0.023-0.007s-0.012-0.012-0.015-0.020c-0.003-0.008-0.003-0.016 0-0.024s0.008-0.015 0.015-0.019l0.009-0.007c0.004-0.003 0.009-0.005 0.014-0.006s0.010-0.002 0.015-0.001c0.005 0.001 0.010 0.003 0.014 0.005s0.008 0.006 0.011 0.010c0.003 0.004 0.005 0.009 0.006 0.014s0.002 0.010 0.001 0.015-0.003 0.010-0.005 0.014c-0.003 0.004-0.006 0.008-0.010 0.011l-0.009 0.007c-0.007 0.005-0.015 0.007-0.023 0.007zM27.851 22.163c-0.008 0-0.016-0.003-0.022-0.007s-0.011-0.011-0.014-0.019c-0.003-0.008-0.003-0.016-0-0.023s0.007-0.015 0.013-0.019c0.122-0.094 0.243-0.19 0.362-0.284 0.008-0.006 0.018-0.009 0.028-0.007s0.019 0.006 0.025 0.014c0.006 0.008 0.009 0.018 0.008 0.028s-0.006 0.019-0.013 0.026c-0.119 0.095-0.241 0.191-0.363 0.285-0.007 0.005-0.015 0.008-0.023 0.008z"></path>
<path fill="#0f0f0f" d="M28.511 21.637c-0.008 0-0.016-0.002-0.022-0.007s-0.011-0.011-0.014-0.018c-0.003-0.007-0.003-0.016-0.001-0.023s0.007-0.014 0.013-0.019c0.121-0.099 0.239-0.198 0.353-0.295 0.004-0.003 0.008-0.006 0.013-0.007s0.010-0.002 0.015-0.002c0.005 0.001 0.010 0.002 0.014 0.004s0.008 0.006 0.012 0.009 0.006 0.008 0.007 0.013c0.002 0.005 0.002 0.010 0.002 0.015s-0.002 0.010-0.004 0.014c-0.002 0.005-0.006 0.009-0.009 0.012-0.114 0.097-0.233 0.196-0.354 0.296-0.007 0.005-0.015 0.008-0.024 0.008z"></path>
<path fill="#fff" d="M29.175 21.074c-0.005 0-0.011-0.001-0.016-0.003s-0.009-0.006-0.013-0.010c-0.003-0.004-0.006-0.008-0.008-0.013s-0.002-0.010-0.002-0.015c0-0.005 0.002-0.010 0.004-0.015s0.005-0.009 0.009-0.012c0.117-0.102 0.232-0.206 0.343-0.307 0.004-0.003 0.008-0.006 0.013-0.008s0.010-0.003 0.015-0.002 0.010 0.001 0.015 0.003c0.005 0.002 0.009 0.005 0.012 0.009s0.006 0.008 0.008 0.013c0.002 0.005 0.003 0.010 0.002 0.015s-0.001 0.010-0.003 0.015c-0.002 0.005-0.005 0.009-0.009 0.012-0.111 0.102-0.227 0.205-0.344 0.308-0.007 0.006-0.016 0.010-0.026 0.010z"></path>
<path fill="#0f0f0f" d="M29.519 20.767c-0.005-0-0.011-0.001-0.016-0.003s-0.009-0.005-0.013-0.009c-0.003-0.004-0.006-0.008-0.008-0.013s-0.003-0.010-0.002-0.015c0-0.005 0.001-0.010 0.004-0.015s0.005-0.009 0.009-0.012c0.075-0.069 0.149-0.137 0.221-0.205 0.008-0.006 0.017-0.009 0.027-0.008s0.019 0.005 0.025 0.012c0.007 0.007 0.010 0.016 0.011 0.026s-0.004 0.019-0.010 0.026c-0.073 0.068-0.147 0.137-0.222 0.206-0.007 0.006-0.016 0.010-0.026 0.010zM30.072 20.241c-0.005 0-0.010-0.001-0.015-0.003s-0.009-0.005-0.013-0.008-0.011-0.017-0.011-0.027 0.004-0.020 0.011-0.027c0.111-0.109 0.219-0.219 0.323-0.327 0.007-0.006 0.016-0.010 0.026-0.010s0.019 0.004 0.026 0.011c0.007 0.007 0.011 0.016 0.012 0.025s-0.002 0.019-0.008 0.027c-0.105 0.109-0.213 0.219-0.324 0.329-0.004 0.004-0.008 0.006-0.012 0.008s-0.010 0.003-0.015 0.003h0.001zM30.709 19.575c-0.007-0-0.015-0.002-0.021-0.006s-0.011-0.010-0.014-0.017c-0.003-0.007-0.004-0.014-0.003-0.022s0.004-0.014 0.009-0.020c0.105-0.116 0.206-0.233 0.301-0.347 0.007-0.007 0.016-0.012 0.026-0.012s0.020 0.003 0.027 0.009c0.007 0.006 0.012 0.015 0.014 0.025s-0.002 0.020-0.008 0.028c-0.096 0.115-0.198 0.232-0.303 0.35-0.004 0.004-0.008 0.007-0.014 0.009s-0.011 0.003-0.016 0.003h0.001zM31.299 18.868c-0.008 0-0.017-0.003-0.023-0.008-0.008-0.006-0.013-0.015-0.015-0.025s0.001-0.020 0.008-0.028c0.096-0.125 0.186-0.25 0.27-0.371 0.006-0.008 0.015-0.013 0.025-0.015s0.020 0.001 0.028 0.006 0.014 0.014 0.016 0.024c0.002 0.010 0 0.020-0.005 0.028-0.084 0.122-0.175 0.248-0.272 0.374-0.004 0.005-0.008 0.009-0.014 0.011s-0.011 0.004-0.017 0.004l0.001-0zM31.818 18.107c-0.007 0-0.013-0.002-0.019-0.005s-0.011-0.008-0.014-0.014-0.005-0.013-0.005-0.019c0-0.007 0.002-0.014 0.006-0.019 0.081-0.137 0.154-0.272 0.218-0.402 0.005-0.009 0.012-0.016 0.022-0.020s0.020-0.003 0.030 0.002c0.009 0.004 0.016 0.012 0.020 0.022s0.003 0.020-0.002 0.030c-0.064 0.132-0.138 0.27-0.221 0.408-0.003 0.006-0.009 0.011-0.015 0.014s-0.013 0.005-0.020 0.005h0.001z"></path>
<path fill="#0f0f0f" d="M3.948 31.83c-0.127 0-0.252-0.002-0.373-0.006-0.010-0.001-0.019-0.006-0.025-0.013s-0.010-0.017-0.010-0.027c0-0.010 0.004-0.019 0.011-0.026s0.016-0.011 0.026-0.011c0.148 0.005 0.302 0.007 0.459 0.006 0.005-0 0.011 0 0.016 0.002s0.010 0.005 0.013 0.008c0.004 0.004 0.007 0.008 0.009 0.013s0.003 0.010 0.003 0.015c0 0.005-0.001 0.011-0.003 0.015s-0.005 0.009-0.009 0.013c-0.004 0.004-0.008 0.006-0.013 0.008s-0.010 0.003-0.016 0.002l-0.089 0zM4.498 31.818c-0.010-0-0.019-0.005-0.026-0.012s-0.011-0.016-0.011-0.026c-0-0.010 0.003-0.019 0.010-0.027s0.016-0.012 0.025-0.013c0.149-0.006 0.303-0.015 0.459-0.026 0.005-0.001 0.011-0 0.016 0.001s0.010 0.004 0.014 0.007c0.004 0.003 0.007 0.007 0.010 0.012s0.004 0.010 0.004 0.015c0 0.005-0 0.011-0.002 0.015s-0.004 0.009-0.008 0.013c-0.004 0.004-0.008 0.007-0.013 0.009s-0.010 0.003-0.015 0.003c-0.156 0.011-0.312 0.020-0.461 0.027h-0.002zM3.116 31.797h-0.003c-0.159-0.013-0.314-0.031-0.46-0.052-0.005-0.001-0.010-0.002-0.015-0.005s-0.009-0.006-0.012-0.010-0.006-0.009-0.007-0.014c-0.001-0.005-0.002-0.010-0.001-0.015s0.003-0.010 0.005-0.015 0.006-0.008 0.011-0.011c0.004-0.003 0.009-0.005 0.014-0.006s0.010-0.001 0.015-0c0.145 0.021 0.297 0.038 0.455 0.051 0.010 0 0.020 0.005 0.027 0.012s0.011 0.017 0.010 0.028c-0 0.010-0.005 0.020-0.012 0.027s-0.017 0.011-0.027 0.010l0.001 0.001zM5.417 31.752c-0.010-0-0.019-0.004-0.026-0.011s-0.011-0.016-0.011-0.026 0.003-0.019 0.009-0.026c0.006-0.007 0.015-0.012 0.024-0.014 0.149-0.015 0.303-0.032 0.457-0.051 0.010-0.001 0.019 0.003 0.027 0.009s0.013 0.015 0.014 0.025c0.001 0.010-0.001 0.020-0.007 0.028s-0.014 0.013-0.024 0.015c-0.155 0.019-0.31 0.036-0.459 0.051l-0.004 0zM2.205 31.663c-0.003 0-0.006 0-0.008 0-0.151-0.034-0.301-0.075-0.448-0.124-0.005-0.002-0.009-0.004-0.013-0.007s-0.007-0.007-0.009-0.012-0.004-0.009-0.004-0.014c-0-0.005 0-0.010 0.002-0.015s0.004-0.009 0.007-0.013c0.003-0.004 0.007-0.007 0.012-0.009s0.009-0.004 0.014-0.004c0.005-0 0.010 0 0.015 0.002 0.145 0.048 0.291 0.089 0.44 0.122 0.009 0.002 0.017 0.008 0.023 0.015s0.008 0.017 0.007 0.026c-0.001 0.009-0.005 0.018-0.012 0.024s-0.016 0.010-0.025 0.010v-0.002zM6.332 31.641c-0.010-0-0.019-0.004-0.026-0.011s-0.011-0.016-0.012-0.025 0.002-0.019 0.008-0.027c0.006-0.007 0.014-0.013 0.024-0.014 0.149-0.021 0.302-0.045 0.455-0.070 0.005-0.001 0.010-0.001 0.015 0s0.010 0.003 0.014 0.006 0.008 0.007 0.010 0.011c0.003 0.004 0.004 0.009 0.005 0.014s0.001 0.010-0 0.015c-0.001 0.005-0.003 0.009-0.006 0.014s-0.007 0.008-0.011 0.010c-0.004 0.003-0.009 0.004-0.014 0.005-0.153 0.025-0.307 0.049-0.456 0.070-0.002 0-0.004 0.001-0.006 0.001h0zM7.241 31.492c-0.010 0-0.019-0.003-0.026-0.010s-0.012-0.015-0.013-0.025c-0.001-0.010 0.002-0.019 0.008-0.027s0.014-0.013 0.024-0.014c0.149-0.027 0.301-0.056 0.452-0.086 0.010-0.001 0.020 0.001 0.028 0.007s0.014 0.014 0.015 0.024c0.002 0.010 0 0.020-0.005 0.028s-0.013 0.014-0.023 0.017c-0.152 0.030-0.304 0.059-0.453 0.086l-0.007 0.001zM1.336 31.365c-0.006 0-0.012-0.001-0.018-0.004-0.14-0.069-0.273-0.152-0.397-0.247-0.004-0.003-0.007-0.007-0.010-0.011s-0.004-0.009-0.005-0.014c-0.001-0.005-0-0.010 0.001-0.015s0.004-0.009 0.007-0.013 0.007-0.007 0.011-0.010c0.004-0.003 0.009-0.004 0.014-0.005s0.010-0 0.015 0.001c0.005 0.001 0.009 0.004 0.013 0.007 0.12 0.092 0.249 0.172 0.385 0.239 0.008 0.004 0.014 0.010 0.017 0.018s0.004 0.017 0.002 0.025c-0.002 0.008-0.007 0.016-0.014 0.021s-0.015 0.008-0.024 0.008h-0zM8.146 31.313c-0.010 0-0.019-0.003-0.026-0.010s-0.012-0.015-0.013-0.025c-0.001-0.009 0.002-0.019 0.007-0.027s0.014-0.013 0.024-0.015c0.148-0.031 0.299-0.065 0.449-0.099 0.005-0.001 0.010-0.002 0.015-0.001s0.010 0.002 0.015 0.005c0.004 0.003 0.008 0.006 0.011 0.010s0.005 0.009 0.006 0.014c0.001 0.005 0.001 0.010 0 0.015s-0.003 0.010-0.006 0.014c-0.003 0.004-0.007 0.008-0.011 0.011s-0.009 0.005-0.014 0.006c-0.151 0.035-0.303 0.068-0.451 0.1-0.003 0.001-0.006 0.001-0.008 0.001v-0zM9.044 31.108c-0.009-0-0.018-0.004-0.025-0.010s-0.011-0.015-0.012-0.024c-0.001-0.009 0.001-0.019 0.006-0.026s0.013-0.013 0.022-0.015c0.147-0.035 0.297-0.073 0.447-0.111 0.005-0.001 0.010-0.002 0.015-0.001s0.010 0.002 0.014 0.005 0.008 0.006 0.011 0.010c0.003 0.004 0.005 0.009 0.006 0.014s0.002 0.010 0.001 0.015c-0.001 0.005-0.002 0.010-0.005 0.014s-0.006 0.008-0.010 0.011c-0.004 0.003-0.009 0.005-0.014 0.006-0.149 0.038-0.3 0.076-0.447 0.112-0.003 0.001-0.006 0.001-0.009 0.001zM9.937 30.881c-0.009 0-0.018-0.003-0.025-0.010s-0.011-0.015-0.013-0.024c-0.001-0.009 0.001-0.018 0.006-0.026s0.013-0.013 0.022-0.016c0.146-0.039 0.296-0.080 0.444-0.122 0.010-0.002 0.020-0.001 0.028 0.005s0.015 0.013 0.017 0.023 0.002 0.020-0.003 0.028c-0.005 0.009-0.012 0.015-0.022 0.018-0.148 0.042-0.297 0.083-0.445 0.122-0.003 0.001-0.007 0.001-0.010 0.002zM0.622 30.798c-0.006 0-0.012-0.001-0.017-0.004s-0.010-0.006-0.014-0.011c-0.065-0.086-0.121-0.179-0.166-0.277-0.021-0.045-0.040-0.091-0.056-0.138-0.003-0.009-0.002-0.020 0.003-0.029s0.012-0.016 0.022-0.019 0.020-0.003 0.029 0.001c0.009 0.004 0.016 0.012 0.020 0.021 0.016 0.044 0.033 0.089 0.052 0.131 0.043 0.093 0.096 0.18 0.157 0.262 0.004 0.006 0.007 0.012 0.008 0.020s-0.001 0.014-0.004 0.021-0.008 0.012-0.014 0.016c-0.006 0.004-0.013 0.006-0.020 0.006l0.001 0.001zM10.825 30.631c-0.009 0-0.018-0.003-0.025-0.009s-0.012-0.015-0.013-0.024c-0.001-0.009 0.001-0.019 0.006-0.026s0.013-0.014 0.022-0.016c0.146-0.043 0.293-0.087 0.441-0.131 0.005-0.001 0.010-0.002 0.015-0.001s0.010 0.002 0.014 0.004c0.005 0.002 0.008 0.006 0.012 0.009s0.006 0.008 0.007 0.013c0.001 0.005 0.002 0.010 0.001 0.015s-0.002 0.010-0.004 0.014-0.006 0.008-0.009 0.012c-0.004 0.003-0.008 0.006-0.013 0.007-0.148 0.045-0.296 0.089-0.442 0.132-0.004 0.001-0.007 0.002-0.011 0.002zM11.707 30.363c-0.009-0-0.018-0.003-0.025-0.009s-0.011-0.014-0.013-0.023c-0.001-0.009 0-0.018 0.005-0.026s0.012-0.014 0.021-0.016c0.146-0.046 0.292-0.093 0.439-0.14 0.010-0.003 0.020-0.002 0.029 0.003s0.015 0.013 0.018 0.022c0.003 0.009 0.002 0.020-0.002 0.029s-0.012 0.016-0.021 0.019c-0.147 0.048-0.293 0.095-0.439 0.14-0.004 0.001-0.008 0.002-0.012 0.002zM12.583 30.078c-0.009-0-0.018-0.003-0.025-0.009s-0.011-0.014-0.013-0.023c-0.002-0.009 0-0.018 0.005-0.026s0.012-0.014 0.021-0.017c0.145-0.049 0.29-0.098 0.436-0.149 0.010-0.003 0.020-0.003 0.029 0.002s0.016 0.012 0.020 0.022c0.003 0.010 0.003 0.020-0.002 0.029s-0.012 0.016-0.022 0.020c-0.146 0.050-0.292 0.1-0.437 0.149-0.004 0.001-0.008 0.002-0.012 0.002zM0.318 29.942c-0.010 0-0.019-0.004-0.027-0.011s-0.012-0.016-0.012-0.026c-0.002-0.031-0.002-0.063-0.002-0.095 0-0.125 0.012-0.25 0.033-0.372 0.001-0.005 0.002-0.010 0.005-0.015s0.006-0.008 0.010-0.012c0.004-0.003 0.009-0.005 0.014-0.006s0.010-0.001 0.015-0.001c0.005 0.001 0.010 0.003 0.014 0.006s0.008 0.006 0.011 0.011c0.003 0.004 0.005 0.009 0.006 0.014s0.001 0.010-0 0.015c-0.021 0.119-0.032 0.239-0.032 0.359 0 0.030 0.001 0.061 0.002 0.091 0 0.005-0 0.010-0.002 0.015s-0.004 0.009-0.008 0.013c-0.003 0.004-0.007 0.007-0.012 0.009s-0.010 0.003-0.015 0.004l-0.002 0zM0.465 29.038c-0.004 0-0.008-0.001-0.012-0.002-0.010-0.003-0.018-0.010-0.022-0.019s-0.005-0.020-0.002-0.029c0.051-0.146 0.11-0.29 0.177-0.43 0.002-0.005 0.005-0.009 0.009-0.012s0.008-0.006 0.013-0.008 0.010-0.003 0.015-0.002c0.005 0 0.010 0.002 0.015 0.004s0.009 0.005 0.012 0.009c0.003 0.004 0.006 0.008 0.008 0.013s0.002 0.010 0.002 0.015c-0 0.005-0.001 0.010-0.004 0.015-0.066 0.137-0.124 0.278-0.174 0.422-0.003 0.008-0.008 0.014-0.014 0.019s-0.015 0.007-0.023 0.007zM0.857 28.206c-0.007 0-0.013-0.002-0.019-0.005-0.004-0.003-0.008-0.006-0.011-0.010s-0.005-0.009-0.007-0.013c-0.001-0.005-0.002-0.010-0.001-0.015s0.002-0.010 0.005-0.014c0.075-0.127 0.157-0.259 0.248-0.391 0.006-0.008 0.015-0.014 0.025-0.016s0.020 0 0.028 0.006c0.008 0.006 0.014 0.014 0.016 0.024s0 0.020-0.005 0.029c-0.089 0.131-0.172 0.261-0.245 0.387-0.003 0.006-0.008 0.011-0.014 0.014s-0.013 0.005-0.019 0.005zM1.373 27.443c-0.008 0-0.016-0.003-0.023-0.008-0.004-0.003-0.007-0.007-0.010-0.011s-0.004-0.009-0.005-0.014c-0.001-0.005-0-0.010 0.001-0.015s0.004-0.009 0.007-0.014c0.090-0.119 0.187-0.24 0.288-0.362 0.007-0.007 0.016-0.012 0.026-0.013s0.020 0.003 0.027 0.009c0.008 0.006 0.012 0.015 0.014 0.025s-0.002 0.020-0.008 0.028c-0.1 0.121-0.197 0.241-0.286 0.359-0.004 0.005-0.008 0.009-0.013 0.011s-0.011 0.004-0.017 0.004l-0-0zM1.961 26.733c-0.007 0-0.015-0.002-0.021-0.006s-0.011-0.010-0.014-0.017c-0.003-0.007-0.004-0.014-0.003-0.022s0.004-0.014 0.009-0.020c0.1-0.112 0.205-0.226 0.314-0.339 0.007-0.006 0.016-0.009 0.026-0.009s0.018 0.004 0.025 0.011c0.007 0.006 0.011 0.015 0.012 0.025s-0.002 0.019-0.008 0.026c-0.108 0.113-0.213 0.227-0.312 0.337-0.003 0.004-0.008 0.008-0.013 0.010s-0.010 0.004-0.016 0.004l-0-0.001zM2.597 26.066c-0.008 0-0.015-0.002-0.021-0.006s-0.011-0.010-0.014-0.017c-0.003-0.007-0.004-0.015-0.002-0.022s0.005-0.014 0.011-0.020c0.107-0.105 0.218-0.214 0.332-0.321 0.004-0.004 0.008-0.007 0.013-0.009s0.010-0.004 0.016-0.004c0.005-0 0.011 0.001 0.016 0.003s0.009 0.005 0.013 0.009c0.004 0.004 0.006 0.009 0.008 0.014s0.002 0.011 0.002 0.016c-0 0.005-0.002 0.011-0.005 0.015s-0.006 0.009-0.010 0.012c-0.113 0.107-0.224 0.214-0.331 0.32-0.003 0.004-0.008 0.007-0.012 0.009s-0.010 0.003-0.015 0.003l-0-0.001zM3.267 25.433c-0.008 0-0.015-0.002-0.022-0.007s-0.011-0.011-0.014-0.018-0.003-0.015-0.002-0.023c0.002-0.008 0.006-0.014 0.012-0.020 0.112-0.101 0.227-0.204 0.345-0.306 0.004-0.004 0.008-0.006 0.013-0.008s0.010-0.003 0.015-0.002c0.005 0 0.010 0.002 0.015 0.004s0.009 0.006 0.012 0.009c0.003 0.004 0.006 0.009 0.008 0.014s0.002 0.010 0.002 0.015c-0.001 0.005-0.002 0.010-0.005 0.015s-0.006 0.009-0.010 0.012c-0.117 0.101-0.233 0.204-0.344 0.305-0.007 0.006-0.016 0.010-0.025 0.011l-0-0.001zM3.962 24.829c-0.008 0-0.016-0.003-0.022-0.007s-0.011-0.011-0.014-0.018c-0.003-0.007-0.003-0.015-0.001-0.023s0.006-0.015 0.012-0.020c0.071-0.060 0.143-0.119 0.217-0.179 0.004-0.004 0.008-0.006 0.013-0.008s0.010-0.003 0.015-0.002c0.005 0 0.010 0.002 0.015 0.004s0.009 0.006 0.012 0.010c0.003 0.004 0.006 0.009 0.007 0.014s0.002 0.010 0.001 0.016c-0.001 0.005-0.002 0.010-0.005 0.015s-0.006 0.008-0.011 0.012c-0.073 0.060-0.145 0.119-0.216 0.179-0.007 0.006-0.015 0.009-0.024 0.009l-0-0.001z"></path>
<path fill="#0f0f0f" d="M7.462 2.721c-0.319-0.558-1.019-0.744-1.552-0.405-0.52 0.33-0.677 1.024-0.356 1.566 0.145 0.25 0.381 0.435 0.658 0.517 0.206 0.060 0.381 0.198 0.487 0.385l0.064 0.112c0.012 0.022 0.028 0.041 0.048 0.056s0.042 0.027 0.066 0.033c0.024 0.007 0.049 0.008 0.074 0.005s0.048-0.011 0.070-0.024l0.652-0.389c0.043-0.027 0.074-0.069 0.087-0.119s0.005-0.101-0.021-0.145l-0.064-0.111c-0.108-0.186-0.14-0.406-0.090-0.614 0.073-0.294 0.029-0.604-0.122-0.866z"></path>
<path fill="#fff" d="M7.734 5.449c-0.222 0.133-0.509 0.053-0.641-0.177l-0.155-0.271 0.805-0.481 0.155 0.271c0.132 0.23 0.059 0.525-0.164 0.658z"></path>
<path fill="#0f0f0f" d="M7.502 5.552c-0.043-0-0.085-0.006-0.127-0.016-0.066-0.018-0.128-0.048-0.183-0.090s-0.099-0.095-0.133-0.154l-0.155-0.271c-0.005-0.009-0.007-0.019-0.004-0.029s0.009-0.018 0.018-0.023l0.805-0.481c0.004-0.003 0.009-0.004 0.014-0.005s0.010-0 0.015 0.001c0.005 0.001 0.009 0.004 0.013 0.007s0.007 0.007 0.010 0.011l0.155 0.271c0.142 0.248 0.062 0.567-0.178 0.71-0.076 0.046-0.163 0.071-0.251 0.071zM6.99 5.015l0.136 0.238c0.029 0.051 0.067 0.096 0.113 0.131s0.099 0.062 0.155 0.077c0.054 0.014 0.109 0.018 0.164 0.010s0.108-0.026 0.155-0.055c0.204-0.122 0.272-0.394 0.151-0.606l-0.136-0.237-0.739 0.442z"></path>
<path fill="#0f0f0f" d="M5.541 1.612c-0.007 0-0.013-0.002-0.019-0.005s-0.011-0.008-0.014-0.014l-0.565-0.985c-0.005-0.009-0.005-0.019-0.003-0.028s0.009-0.017 0.018-0.022c0.009-0.005 0.019-0.006 0.028-0.004s0.018 0.008 0.023 0.017l0.565 0.985c0.005 0.009 0.006 0.019 0.004 0.029s-0.009 0.018-0.018 0.023c-0.006 0.003-0.012 0.005-0.019 0.005z"></path>
<path fill="#0f0f0f" d="M3.677 5.266c-0.009 0-0.017-0.003-0.023-0.008s-0.012-0.012-0.014-0.021c-0.002-0.008-0.002-0.017 0.002-0.025s0.009-0.014 0.016-0.019l1.284-0.734c0.009-0.005 0.019-0.005 0.028-0.003s0.017 0.009 0.022 0.018c0.005 0.009 0.006 0.019 0.004 0.028s-0.008 0.018-0.017 0.023l-1.284 0.734c-0.006 0.003-0.012 0.005-0.019 0.005z"></path>
<path fill="#0f0f0f" d="M8.267 2.673c-0.008-0-0.017-0.003-0.023-0.008s-0.011-0.012-0.014-0.021c-0.002-0.008-0.002-0.017 0.002-0.025s0.009-0.014 0.016-0.019l1.327-0.74c0.009-0.004 0.019-0.005 0.029-0.002s0.017 0.009 0.022 0.018c0.005 0.009 0.006 0.019 0.004 0.028s-0.009 0.018-0.017 0.023l-1.327 0.74c-0.006 0.003-0.012 0.005-0.019 0.005z"></path>
<path fill="#0f0f0f" d="M4.589 3.020c-0.003-0-0.007-0.001-0.010-0.002l-1.249-0.352c-0.005-0.001-0.009-0.004-0.013-0.007s-0.007-0.007-0.010-0.011c-0.002-0.004-0.004-0.009-0.005-0.014s-0-0.010 0.001-0.015c0.001-0.005 0.004-0.009 0.007-0.013s0.007-0.007 0.011-0.010c0.004-0.002 0.009-0.004 0.014-0.005s0.010-0 0.015 0.001l1.249 0.352c0.009 0.003 0.016 0.008 0.021 0.016s0.007 0.017 0.006 0.026c-0.001 0.009-0.006 0.018-0.013 0.024s-0.016 0.009-0.025 0.010h-0z"></path>
<path fill="#0f0f0f" d="M7.199 1.609c-0.003 0-0.007-0-0.010-0.001-0.005-0.001-0.009-0.004-0.013-0.007s-0.007-0.007-0.010-0.011c-0.003-0.004-0.004-0.009-0.005-0.014s-0-0.010 0.001-0.015l0.364-1.32c0.001-0.005 0.004-0.009 0.007-0.013s0.007-0.007 0.011-0.010c0.004-0.002 0.009-0.004 0.014-0.005s0.010-0 0.015 0.001c0.005 0.001 0.009 0.004 0.013 0.007s0.007 0.007 0.010 0.011c0.003 0.004 0.004 0.009 0.005 0.014s0 0.010-0.001 0.015l-0.364 1.319c-0.002 0.008-0.007 0.016-0.013 0.021s-0.015 0.008-0.023 0.008z"></path>
<path fill="#0f0f0f" d="M29.741 6.042c-0.007-0-0.015-0.002-0.021-0.006s-0.011-0.010-0.014-0.017-0.004-0.014-0.003-0.022c0.001-0.007 0.004-0.014 0.009-0.020 0.048-0.053 0.096-0.106 0.143-0.159 0.007-0.007 0.016-0.011 0.026-0.011s0.019 0.003 0.027 0.010c0.007 0.006 0.012 0.016 0.013 0.025s-0.002 0.019-0.008 0.027c-0.047 0.053-0.095 0.106-0.144 0.159-0.004 0.004-0.008 0.007-0.013 0.009s-0.010 0.003-0.015 0.003zM30.185 5.535c-0.007 0-0.015-0.002-0.021-0.006s-0.011-0.010-0.014-0.016c-0.003-0.007-0.004-0.014-0.003-0.021s0.004-0.014 0.009-0.020c0.1-0.12 0.198-0.24 0.289-0.357 0.003-0.004 0.007-0.007 0.011-0.010s0.009-0.004 0.014-0.005c0.005-0.001 0.010-0 0.015 0.001s0.009 0.004 0.013 0.007c0.004 0.003 0.007 0.007 0.010 0.011s0.004 0.009 0.005 0.014c0.001 0.005 0 0.010-0.001 0.015s-0.004 0.009-0.007 0.013c-0.092 0.118-0.189 0.239-0.29 0.36-0.004 0.004-0.008 0.008-0.013 0.010s-0.011 0.003-0.016 0.003v0.001zM30.75 4.807c-0.008 0-0.016-0.002-0.022-0.007-0.004-0.003-0.008-0.007-0.010-0.011s-0.005-0.009-0.005-0.014c-0.001-0.005-0.001-0.010 0-0.015s0.003-0.010 0.006-0.014c0.091-0.128 0.178-0.256 0.257-0.38 0.006-0.008 0.014-0.014 0.024-0.016s0.020-0 0.028 0.005 0.014 0.014 0.017 0.023c0.002 0.010 0.001 0.020-0.004 0.028-0.080 0.125-0.167 0.254-0.259 0.383-0.004 0.005-0.008 0.009-0.014 0.011s-0.011 0.004-0.017 0.004v0.001zM31.245 4.030c-0.007-0-0.013-0.002-0.019-0.005s-0.011-0.008-0.014-0.014-0.005-0.012-0.005-0.019c-0-0.007 0.002-0.013 0.005-0.019 0.077-0.139 0.146-0.276 0.206-0.408 0.005-0.009 0.012-0.015 0.021-0.018s0.019-0.003 0.028 0.001c0.009 0.004 0.016 0.011 0.020 0.020s0.004 0.019 0.001 0.028c-0.061 0.134-0.131 0.273-0.209 0.414-0.003 0.006-0.008 0.011-0.014 0.014s-0.013 0.005-0.019 0.005v0.001zM31.621 3.19c-0.004-0-0.008-0.001-0.012-0.002s-0.009-0.004-0.013-0.007c-0.004-0.003-0.007-0.007-0.009-0.012s-0.004-0.009-0.004-0.014c-0-0.005 0-0.010 0.002-0.015 0.048-0.144 0.086-0.291 0.112-0.44 0.002-0.010 0.008-0.018 0.016-0.024s0.018-0.008 0.028-0.006c0.010 0.002 0.018 0.007 0.024 0.015s0.008 0.018 0.007 0.028c-0.027 0.153-0.066 0.304-0.115 0.451-0.003 0.007-0.008 0.014-0.014 0.018s-0.014 0.007-0.022 0.007v0.001zM31.77 2.286c-0.010 0-0.020-0.004-0.027-0.011s-0.011-0.016-0.012-0.026c-0.004-0.15-0.029-0.299-0.073-0.443-0.002-0.005-0.003-0.010-0.003-0.015s0.002-0.010 0.004-0.015 0.006-0.009 0.009-0.012c0.004-0.003 0.009-0.006 0.014-0.008s0.010-0.002 0.015-0.002c0.005 0.001 0.010 0.002 0.015 0.005s0.009 0.006 0.012 0.010c0.003 0.004 0.006 0.009 0.007 0.014 0.047 0.15 0.072 0.306 0.077 0.463 0 0.005-0.001 0.010-0.003 0.015s-0.004 0.009-0.008 0.013-0.008 0.007-0.012 0.009c-0.005 0.002-0.009 0.003-0.015 0.003l-0.001 0zM22.219 1.591c-0.009 0-0.018-0.003-0.025-0.009s-0.012-0.014-0.013-0.023c-0.001-0.009 0.001-0.018 0.006-0.026s0.013-0.014 0.021-0.016c0.147-0.045 0.296-0.090 0.441-0.134 0.005-0.002 0.010-0.003 0.015-0.002s0.010 0.002 0.015 0.004c0.005 0.002 0.009 0.006 0.012 0.010s0.006 0.009 0.007 0.014 0.002 0.010 0.001 0.016c-0.001 0.005-0.002 0.010-0.005 0.015s-0.006 0.008-0.010 0.012-0.009 0.005-0.014 0.007c-0.146 0.043-0.294 0.087-0.441 0.133-0.004 0.001-0.007 0.002-0.011 0.002zM31.491 1.42c-0.006 0-0.012-0.002-0.018-0.004s-0.010-0.007-0.014-0.012c-0.087-0.122-0.191-0.232-0.308-0.326-0.008-0.006-0.013-0.016-0.014-0.026s0.002-0.020 0.008-0.028c0.006-0.008 0.016-0.013 0.026-0.014s0.020 0.002 0.028 0.008c0.123 0.098 0.232 0.213 0.323 0.341 0.006 0.008 0.008 0.019 0.006 0.029s-0.007 0.019-0.016 0.025c-0.006 0.005-0.014 0.007-0.022 0.007v-0zM23.102 1.33c-0.009-0-0.018-0.004-0.025-0.010s-0.011-0.014-0.013-0.024c-0.001-0.009 0.001-0.018 0.006-0.026s0.013-0.013 0.021-0.016c0.149-0.042 0.299-0.083 0.445-0.122 0.009-0.002 0.019-0 0.028 0.005s0.014 0.013 0.017 0.023c0.003 0.009 0.001 0.019-0.003 0.028s-0.012 0.015-0.021 0.018c-0.146 0.039-0.296 0.080-0.444 0.122-0.003 0.001-0.007 0.002-0.011 0.002v-0zM23.993 1.092c-0.009 0-0.019-0.003-0.026-0.009s-0.012-0.015-0.013-0.024c-0.001-0.009 0.001-0.019 0.007-0.027s0.013-0.013 0.023-0.015c0.15-0.038 0.301-0.075 0.448-0.11 0.005-0.002 0.011-0.002 0.016-0.002s0.010 0.002 0.015 0.005c0.005 0.003 0.009 0.006 0.012 0.010s0.006 0.009 0.007 0.014 0.001 0.011 0 0.016c-0.001 0.005-0.003 0.010-0.006 0.015s-0.007 0.008-0.011 0.011c-0.005 0.003-0.009 0.005-0.015 0.005-0.147 0.035-0.297 0.072-0.447 0.109-0.003 0.001-0.006 0.001-0.009 0.001zM24.89 0.88c-0.009-0-0.018-0.004-0.025-0.010s-0.011-0.015-0.012-0.024c-0.001-0.009 0.001-0.019 0.007-0.026s0.013-0.013 0.023-0.015c0.152-0.033 0.304-0.065 0.452-0.095 0.005-0.001 0.010-0.001 0.015-0s0.010 0.003 0.014 0.006c0.004 0.003 0.008 0.006 0.011 0.011s0.005 0.009 0.006 0.014c0.001 0.005 0.001 0.010 0 0.015s-0.003 0.010-0.006 0.014c-0.003 0.004-0.006 0.008-0.011 0.011s-0.009 0.005-0.014 0.006c-0.148 0.030-0.299 0.061-0.45 0.095-0.003 0.001-0.005 0.001-0.008 0.001h-0zM30.787 0.841c-0.006 0-0.012-0.001-0.017-0.004-0.136-0.068-0.277-0.125-0.421-0.171-0.009-0.004-0.017-0.010-0.021-0.019s-0.005-0.019-0.002-0.028c0.003-0.009 0.009-0.017 0.018-0.022s0.019-0.006 0.028-0.003c0.148 0.047 0.293 0.106 0.432 0.175 0.008 0.004 0.014 0.010 0.017 0.018s0.005 0.017 0.003 0.025-0.007 0.016-0.014 0.021c-0.007 0.005-0.015 0.008-0.024 0.008l0.001 0zM25.794 0.699c-0.009-0-0.019-0.004-0.026-0.010s-0.011-0.015-0.012-0.025 0.002-0.019 0.008-0.027c0.006-0.008 0.014-0.013 0.023-0.015 0.153-0.028 0.307-0.053 0.455-0.077 0.010-0.001 0.020 0.002 0.027 0.008s0.013 0.015 0.015 0.025c0.002 0.010-0.001 0.020-0.006 0.028s-0.014 0.014-0.024 0.016c-0.148 0.023-0.301 0.049-0.454 0.077-0.002 0-0.004 0.001-0.006 0.001zM26.703 0.556c-0.010 0.001-0.020-0.003-0.027-0.010s-0.012-0.016-0.013-0.026 0.003-0.020 0.009-0.028c0.006-0.008 0.016-0.012 0.026-0.013 0.155-0.021 0.309-0.039 0.459-0.055 0.005-0.001 0.010-0.001 0.015 0.001s0.010 0.004 0.014 0.007 0.008 0.007 0.010 0.012c0.003 0.005 0.004 0.010 0.005 0.015s0 0.010-0.001 0.015c-0.002 0.005-0.004 0.010-0.007 0.014s-0.007 0.007-0.012 0.010c-0.005 0.002-0.010 0.004-0.015 0.004-0.149 0.016-0.302 0.034-0.457 0.055l-0.005 0zM29.915 0.551c-0.003-0-0.005-0-0.008-0.001-0.142-0.029-0.294-0.054-0.452-0.073-0.005-0-0.011-0.002-0.016-0.004s-0.009-0.006-0.013-0.010c-0.003-0.004-0.006-0.009-0.007-0.014s-0.002-0.011-0.001-0.016c0.001-0.005 0.003-0.010 0.006-0.015s0.007-0.009 0.011-0.012c0.005-0.003 0.010-0.005 0.015-0.006s0.011-0.001 0.016 0.001c0.16 0.019 0.314 0.044 0.458 0.074 0.009 0.002 0.017 0.007 0.023 0.015s0.008 0.017 0.007 0.026c-0.001 0.009-0.005 0.018-0.012 0.025s-0.016 0.010-0.026 0.010l-0.002-0.001zM27.619 0.459c-0.010-0-0.019-0.004-0.026-0.011s-0.011-0.016-0.011-0.026c-0-0.010 0.003-0.019 0.009-0.027s0.016-0.012 0.025-0.013c0.157-0.012 0.312-0.020 0.461-0.026 0.010-0 0.020 0.004 0.027 0.010s0.012 0.016 0.012 0.026c0 0.010-0.003 0.020-0.010 0.028s-0.017 0.012-0.027 0.012c-0.148 0.006-0.303 0.015-0.459 0.026l-0.003 0zM29.001 0.438h-0.002c-0.147-0.008-0.301-0.013-0.459-0.013-0.010-0.001-0.019-0.005-0.026-0.012s-0.010-0.017-0.010-0.026c0-0.010 0.004-0.019 0.010-0.026s0.016-0.011 0.026-0.012c0.159 0 0.315 0.005 0.462 0.013 0.010 0.001 0.019 0.005 0.025 0.013s0.010 0.017 0.010 0.027c-0 0.010-0.004 0.019-0.011 0.026s-0.016 0.011-0.026 0.011h0z"></path>
<path fill="#0f0f0f" d="M3.292 18.871c-0.159-0.003-0.315-0.010-0.462-0.021-0.005 0-0.010-0.001-0.015-0.003s-0.009-0.005-0.013-0.009-0.006-0.008-0.008-0.013c-0.002-0.005-0.002-0.010-0.002-0.015s0.002-0.010 0.004-0.015 0.006-0.009 0.010-0.012c0.004-0.003 0.009-0.006 0.014-0.007s0.010-0.002 0.016-0.001c0.146 0.011 0.301 0.017 0.458 0.021 0.010 0.001 0.019 0.005 0.026 0.012s0.010 0.017 0.010 0.026c0 0.010-0.004 0.019-0.010 0.026s-0.016 0.011-0.026 0.012h-0.001zM3.753 18.869c-0.005 0-0.010-0.001-0.015-0.003s-0.009-0.005-0.013-0.008c-0.004-0.004-0.006-0.008-0.009-0.012s-0.003-0.010-0.003-0.015c-0-0.005 0.001-0.010 0.003-0.015s0.005-0.009 0.008-0.013c0.004-0.004 0.008-0.006 0.012-0.008s0.010-0.003 0.015-0.003c0.148-0.004 0.303-0.011 0.459-0.021 0.010-0.001 0.020 0.003 0.028 0.009s0.012 0.016 0.013 0.026c0.001 0.010-0.003 0.020-0.010 0.028s-0.016 0.012-0.026 0.013c-0.157 0.010-0.313 0.017-0.462 0.021l-0.001 0zM4.673 18.811c-0.010-0-0.019-0.004-0.026-0.011s-0.011-0.016-0.011-0.026c-0-0.010 0.003-0.019 0.009-0.026s0.015-0.012 0.024-0.014c0.148-0.014 0.302-0.031 0.457-0.051 0.005-0.001 0.010-0 0.015 0.001s0.009 0.004 0.013 0.007c0.004 0.003 0.007 0.007 0.010 0.011s0.004 0.009 0.005 0.014c0.001 0.005 0 0.010-0.001 0.015s-0.004 0.009-0.007 0.013c-0.003 0.004-0.007 0.007-0.011 0.010s-0.009 0.004-0.014 0.005c-0.155 0.020-0.31 0.037-0.459 0.051l-0.004 0zM2.374 18.802h-0.005c-0.16-0.023-0.313-0.052-0.456-0.085-0.010-0.002-0.018-0.008-0.024-0.017s-0.007-0.019-0.005-0.029c0.002-0.010 0.008-0.018 0.017-0.024s0.019-0.007 0.029-0.005c0.14 0.033 0.292 0.061 0.449 0.084 0.009 0.002 0.018 0.007 0.024 0.014s0.009 0.017 0.008 0.027-0.005 0.018-0.012 0.025c-0.007 0.007-0.016 0.010-0.026 0.011l0-0zM5.587 18.697c-0.010-0-0.019-0.004-0.026-0.011s-0.011-0.015-0.012-0.025c-0.001-0.010 0.002-0.019 0.008-0.027s0.014-0.013 0.024-0.014c0.148-0.022 0.301-0.047 0.455-0.074 0.010-0.001 0.020 0.001 0.028 0.007s0.013 0.015 0.015 0.024c0.002 0.010-0 0.020-0.006 0.028s-0.014 0.014-0.024 0.016c-0.154 0.027-0.307 0.052-0.456 0.074l-0.006 0.001zM1.48 18.585c-0.005 0-0.009-0.001-0.013-0.002-0.146-0.053-0.288-0.119-0.424-0.196-0.009-0.005-0.015-0.013-0.018-0.023s-0.001-0.020 0.004-0.029c0.005-0.009 0.013-0.015 0.023-0.018s0.020-0.001 0.029 0.004c0.132 0.075 0.27 0.138 0.412 0.19 0.008 0.003 0.015 0.009 0.020 0.017s0.006 0.017 0.004 0.026c-0.002 0.009-0.006 0.017-0.013 0.023s-0.016 0.009-0.025 0.009zM6.495 18.539c-0.010 0-0.019-0.003-0.026-0.010s-0.012-0.015-0.013-0.025c-0.001-0.010 0.002-0.019 0.008-0.027s0.015-0.013 0.024-0.014c0.147-0.029 0.299-0.060 0.451-0.092 0.010-0.002 0.020 0 0.028 0.006s0.014 0.014 0.016 0.024c0.002 0.010 0 0.020-0.005 0.028s-0.014 0.015-0.023 0.017c-0.152 0.033-0.305 0.064-0.452 0.092-0.003 0-0.005 0.001-0.008 0.001v0zM7.397 18.347c-0.009 0-0.018-0.003-0.025-0.010s-0.011-0.015-0.013-0.024c-0.001-0.009 0.001-0.019 0.007-0.026s0.013-0.013 0.023-0.015c0.147-0.034 0.297-0.070 0.448-0.107 0.005-0.001 0.010-0.002 0.015-0.001s0.010 0.003 0.014 0.005c0.004 0.003 0.008 0.006 0.011 0.010s0.005 0.009 0.006 0.014c0.001 0.005 0.001 0.010 0.001 0.015s-0.002 0.010-0.005 0.014c-0.003 0.004-0.006 0.008-0.010 0.011s-0.009 0.005-0.014 0.006c-0.151 0.037-0.301 0.073-0.449 0.108-0.003 0.001-0.005 0.001-0.008 0.001l-0.001 0zM8.291 18.125c-0.009-0-0.018-0.004-0.025-0.010s-0.011-0.015-0.013-0.024c-0.001-0.009 0.001-0.018 0.006-0.026s0.013-0.013 0.022-0.016c0.147-0.039 0.296-0.079 0.444-0.12 0.010-0.003 0.020-0.001 0.029 0.004s0.015 0.013 0.018 0.023c0.003 0.010 0.001 0.020-0.003 0.029s-0.013 0.015-0.023 0.018c-0.148 0.041-0.298 0.082-0.445 0.12-0.003 0.001-0.007 0.001-0.010 0.001v0zM0.691 18.121c-0.010 0-0.019-0.004-0.026-0.010-0.115-0.107-0.214-0.231-0.293-0.367-0.005-0.009-0.005-0.019-0.003-0.028s0.009-0.017 0.018-0.022c0.009-0.005 0.019-0.006 0.028-0.004s0.018 0.008 0.023 0.017c0.075 0.13 0.169 0.247 0.279 0.35 0.006 0.005 0.010 0.012 0.011 0.020s0.001 0.015-0.002 0.023c-0.003 0.007-0.008 0.013-0.014 0.017s-0.014 0.007-0.022 0.007v-0zM9.179 17.878c-0.009 0-0.018-0.003-0.025-0.009s-0.012-0.014-0.013-0.024c-0.001-0.009 0.001-0.018 0.006-0.026s0.013-0.014 0.021-0.016c0.146-0.043 0.294-0.087 0.441-0.132 0.009-0.002 0.020-0.001 0.028 0.004s0.015 0.013 0.018 0.022c0.003 0.009 0.002 0.019-0.002 0.028s-0.012 0.016-0.021 0.019c-0.147 0.045-0.296 0.089-0.442 0.132-0.003 0.001-0.007 0.001-0.011 0.001v0zM10.061 17.609c-0.009-0-0.018-0.003-0.025-0.009s-0.011-0.014-0.013-0.023 0-0.018 0.005-0.026c0.005-0.008 0.012-0.014 0.021-0.016 0.145-0.047 0.291-0.094 0.438-0.142 0.010-0.003 0.020-0.002 0.029 0.002s0.016 0.013 0.019 0.022c0.003 0.010 0.002 0.020-0.002 0.029s-0.013 0.016-0.022 0.019c-0.147 0.049-0.293 0.096-0.439 0.142-0.004 0.001-0.008 0.002-0.012 0.002zM0.24 17.334c-0.009-0-0.017-0.003-0.024-0.009s-0.012-0.013-0.013-0.021c-0.028-0.129-0.042-0.261-0.042-0.394 0-0.024 0-0.049 0.001-0.074-0-0.005 0.001-0.011 0.003-0.015s0.005-0.009 0.009-0.013 0.008-0.007 0.013-0.009c0.005-0.002 0.010-0.003 0.015-0.003s0.010 0.001 0.015 0.004c0.005 0.002 0.009 0.005 0.012 0.009s0.006 0.009 0.008 0.014 0.002 0.010 0.002 0.015c0 0.024-0.001 0.048-0.001 0.071-0 0.127 0.013 0.253 0.040 0.377 0.002 0.010 0 0.020-0.005 0.029s-0.014 0.015-0.024 0.017c-0.003 0.001-0.006 0.001-0.008 0.001zM10.936 17.32c-0.009 0-0.018-0.003-0.025-0.009s-0.012-0.014-0.013-0.023c-0.002-0.009 0-0.018 0.005-0.026s0.012-0.014 0.021-0.017c0.144-0.049 0.289-0.1 0.435-0.151 0.010-0.003 0.020-0.003 0.029 0.002s0.016 0.012 0.020 0.022c0.003 0.010 0.003 0.020-0.002 0.029s-0.012 0.016-0.022 0.020c-0.146 0.052-0.291 0.102-0.436 0.151-0.004 0.001-0.008 0.002-0.012 0.002zM0.262 16.421c-0.003 0-0.006-0-0.009-0.001-0.010-0.002-0.019-0.008-0.024-0.017s-0.007-0.019-0.005-0.029c0.035-0.151 0.079-0.3 0.134-0.446 0.002-0.005 0.004-0.010 0.007-0.014s0.008-0.007 0.012-0.010c0.005-0.002 0.010-0.004 0.015-0.004s0.011 0.001 0.015 0.002c0.005 0.002 0.009 0.005 0.013 0.008s0.007 0.008 0.009 0.013c0.002 0.005 0.003 0.010 0.003 0.015s-0.001 0.011-0.003 0.015c-0.053 0.142-0.097 0.288-0.131 0.436-0.002 0.009-0.007 0.016-0.013 0.022s-0.015 0.008-0.024 0.009zM0.576 15.557c-0.007 0-0.013-0.002-0.019-0.005s-0.011-0.008-0.014-0.013-0.006-0.012-0.006-0.018c-0-0.007 0.001-0.013 0.004-0.019 0.064-0.133 0.138-0.27 0.218-0.409 0.005-0.008 0.014-0.014 0.023-0.016s0.020-0.001 0.028 0.004c0.008 0.005 0.015 0.013 0.018 0.022s0.002 0.019-0.002 0.028c-0.080 0.137-0.152 0.273-0.216 0.404-0.003 0.006-0.008 0.012-0.014 0.016s-0.013 0.006-0.020 0.006h0zM1.036 14.758c-0.008-0-0.015-0.002-0.021-0.006-0.008-0.006-0.014-0.014-0.016-0.024s-0-0.020 0.005-0.028c0.082-0.124 0.171-0.251 0.265-0.379 0.006-0.008 0.015-0.014 0.025-0.015s0.020 0.001 0.029 0.007 0.014 0.015 0.015 0.025c0.002 0.010-0.001 0.020-0.007 0.029-0.093 0.127-0.181 0.253-0.262 0.376-0.004 0.005-0.009 0.009-0.014 0.012s-0.012 0.004-0.018 0.004zM1.58 14.015c-0.008-0-0.017-0.003-0.023-0.008-0.004-0.003-0.007-0.007-0.010-0.011s-0.004-0.009-0.005-0.014c-0.001-0.005-0-0.010 0.001-0.015s0.004-0.009 0.007-0.013c0.093-0.117 0.192-0.237 0.294-0.357 0.003-0.004 0.007-0.008 0.012-0.010s0.010-0.004 0.015-0.005c0.005-0.001 0.011-0 0.016 0.001s0.010 0.004 0.014 0.008c0.004 0.003 0.007 0.008 0.010 0.012s0.004 0.010 0.004 0.015c0 0.005-0.001 0.011-0.002 0.015s-0.005 0.009-0.008 0.013c-0.101 0.119-0.2 0.238-0.292 0.354-0.004 0.005-0.008 0.008-0.014 0.011s-0.011 0.004-0.017 0.004v-0.001zM2.177 13.313c-0.007 0-0.015-0.002-0.021-0.006s-0.011-0.010-0.014-0.017-0.004-0.014-0.003-0.022c0.001-0.007 0.004-0.014 0.009-0.020 0.101-0.111 0.207-0.225 0.315-0.338 0.003-0.004 0.007-0.008 0.012-0.011s0.010-0.004 0.015-0.005c0.005-0 0.011 0 0.016 0.002s0.010 0.005 0.014 0.008c0.004 0.004 0.007 0.008 0.009 0.013s0.003 0.010 0.003 0.016-0.001 0.011-0.004 0.016c-0.002 0.005-0.006 0.009-0.010 0.013-0.107 0.113-0.213 0.226-0.313 0.337-0.004 0.004-0.008 0.008-0.013 0.010s-0.010 0.004-0.016 0.004v-0.001zM2.812 12.645c-0.008-0-0.015-0.002-0.021-0.007s-0.011-0.010-0.014-0.017c-0.003-0.007-0.004-0.015-0.002-0.022s0.005-0.014 0.010-0.020c0.106-0.107 0.217-0.215 0.329-0.323 0.008-0.005 0.017-0.008 0.026-0.007s0.018 0.005 0.024 0.012c0.006 0.007 0.010 0.016 0.010 0.025s-0.003 0.018-0.009 0.026c-0.112 0.108-0.222 0.216-0.328 0.322-0.007 0.007-0.017 0.012-0.027 0.012v-0zM3.477 12.006c-0.008 0-0.015-0.002-0.022-0.007s-0.011-0.011-0.014-0.018c-0.003-0.007-0.003-0.015-0.002-0.023s0.006-0.014 0.011-0.020c0.111-0.103 0.226-0.207 0.341-0.311 0.004-0.004 0.008-0.007 0.013-0.009s0.010-0.003 0.015-0.003 0.010 0.001 0.015 0.004c0.005 0.002 0.009 0.005 0.013 0.009s0.006 0.008 0.008 0.014c0.002 0.005 0.002 0.010 0.002 0.015s-0.002 0.010-0.005 0.015c-0.002 0.005-0.006 0.009-0.010 0.012-0.115 0.103-0.23 0.208-0.34 0.31-0.007 0.007-0.017 0.011-0.027 0.011l0.001-0.001zM4.163 11.391c-0.008-0-0.015-0.002-0.022-0.007s-0.011-0.011-0.014-0.018c-0.003-0.007-0.003-0.015-0.001-0.023s0.006-0.014 0.012-0.020c0.114-0.099 0.232-0.2 0.351-0.3 0.008-0.006 0.018-0.009 0.028-0.007s0.019 0.006 0.025 0.014 0.010 0.017 0.009 0.027c-0.001 0.010-0.005 0.019-0.012 0.026-0.118 0.099-0.236 0.2-0.35 0.299-0.007 0.007-0.016 0.010-0.026 0.010l0.001-0z"></path>
<path fill="#0f0f0f" d="M22.42 25.464c-0.010 0-0.020-0.004-0.027-0.011s-0.011-0.017-0.012-0.027l-0.004-0.204c0-0.010 0.005-0.019 0.012-0.026s0.016-0.011 0.026-0.011c0.010-0 0.019 0.003 0.027 0.010s0.012 0.016 0.013 0.025l0.004 0.204c0 0.005-0.001 0.010-0.003 0.015s-0.005 0.009-0.008 0.013c-0.004 0.004-0.008 0.007-0.012 0.009s-0.010 0.003-0.015 0.003h-0.001z"></path>
<path fill="#0f0f0f" d="M22.436 26.179c-0.010 0-0.020-0.004-0.027-0.011s-0.011-0.017-0.012-0.027l-0.004-0.204c-0-0.005 0-0.011 0.002-0.016s0.004-0.009 0.008-0.013c0.004-0.004 0.008-0.007 0.013-0.009s0.010-0.003 0.015-0.003c0.005-0 0.011 0.001 0.015 0.003s0.009 0.005 0.013 0.009 0.007 0.008 0.008 0.013c0.002 0.005 0.003 0.010 0.003 0.015l0.004 0.204c0 0.005-0.001 0.010-0.003 0.015s-0.005 0.009-0.008 0.013c-0.003 0.004-0.008 0.006-0.012 0.009s-0.010 0.003-0.015 0.003h-0.001z"></path>
<path fill="#0f0f0f" d="M21.973 25.722c-0.010-0.001-0.019-0.005-0.026-0.012s-0.010-0.016-0.010-0.026c0-0.010 0.004-0.019 0.010-0.026s0.016-0.011 0.026-0.012l0.201-0.002c0.005-0 0.011 0 0.015 0.002s0.009 0.005 0.013 0.008c0.004 0.004 0.007 0.008 0.009 0.013s0.003 0.010 0.003 0.015-0.001 0.011-0.003 0.015c-0.002 0.005-0.005 0.009-0.009 0.013s-0.008 0.006-0.013 0.008-0.010 0.003-0.015 0.002l-0.201 0.002z"></path>
<path fill="#0f0f0f" d="M22.677 25.718c-0.010-0.001-0.019-0.005-0.026-0.012s-0.010-0.017-0.010-0.026 0.004-0.019 0.010-0.026c0.007-0.007 0.016-0.011 0.026-0.012l0.201-0.002c0.010 0.001 0.019 0.005 0.026 0.012s0.010 0.016 0.010 0.026c0 0.010-0.004 0.019-0.010 0.026s-0.016 0.011-0.026 0.012l-0.201 0.002z"></path>
<path fill="#0f0f0f" d="M13.772 3.729c-0.043-0-0.085-0.008-0.125-0.024-0.044-0.017-0.084-0.043-0.117-0.075s-0.060-0.072-0.079-0.115c-0.037-0.086-0.040-0.184-0.006-0.272s0.1-0.159 0.186-0.199c0.042-0.019 0.087-0.029 0.133-0.030s0.091 0.007 0.134 0.023c0.044 0.017 0.084 0.043 0.117 0.075s0.061 0.072 0.079 0.115c0.037 0.086 0.040 0.184 0.006 0.272s-0.1 0.159-0.186 0.199c-0.045 0.020-0.093 0.031-0.142 0.031zM13.662 3.115c-0.067 0.031-0.119 0.087-0.145 0.157s-0.024 0.146 0.005 0.213c0.014 0.034 0.035 0.064 0.062 0.090s0.058 0.046 0.092 0.059c0.033 0.013 0.069 0.019 0.104 0.018s0.071-0.009 0.103-0.024c0.067-0.031 0.119-0.087 0.145-0.157s0.024-0.146-0.005-0.214c-0.014-0.034-0.035-0.064-0.062-0.090s-0.058-0.046-0.092-0.059c-0.033-0.013-0.069-0.019-0.104-0.018s-0.071 0.009-0.103 0.024z"></path>
</svg>
