<svg width="300" height="290" fill="none" xmlns="http://www.w3.org/2000/svg"><g clip-path="url(#a)"><path d="M220.376 57.468c6.06-6.063 6.06-15.893 0-21.956-6.06-6.063-15.886-6.063-21.946 0-6.06 6.063-6.06 15.893 0 21.956 6.06 6.063 15.886 6.063 21.946 0z" fill="#fff"/><path d="M209.398 62.377a15.878 15.878 0 0 1-14.669-9.808 15.89 15.89 0 0 1 11.573-21.66 15.874 15.874 0 0 1 16.301 6.755 15.898 15.898 0 0 1 2.676 8.826 15.91 15.91 0 0 1-4.657 11.229 15.895 15.895 0 0 1-11.224 4.658zm0-31.05a15.159 15.159 0 0 0-14.002 9.362 15.17 15.17 0 0 0 3.287 16.525 15.15 15.15 0 0 0 23.319-2.3 15.164 15.164 0 0 0 2.554-8.424 15.181 15.181 0 0 0-15.158-15.164zM115.777 3.092a.36.36 0 0 1-.364-.373.362.362 0 0 1 .057-.183l1.492-2.377a.36.36 0 1 1 .611.385l-1.492 2.377a.358.358 0 0 1-.304.17zM112.302 8.614a.357.357 0 0 1-.352-.282.373.373 0 0 1 .048-.272l1.49-2.377a.367.367 0 0 1 .367-.164.355.355 0 0 1 .234.147.359.359 0 0 1 .061.27.366.366 0 0 1-.05.132l-1.492 2.369a.362.362 0 0 1-.306.177zM113.211 3.676a.373.373 0 0 1-.193-.055l-2.368-1.493a.361.361 0 1 1 .385-.612l2.376 1.495a.363.363 0 0 1 .025.594.361.361 0 0 1-.217.073l-.008-.002zM118.73 7.152a.364.364 0 0 1-.192-.054l-2.376-1.493a.363.363 0 0 1 .113-.658.36.36 0 0 1 .272.046l2.376 1.493a.357.357 0 0 1 .143.177.364.364 0 0 1-.336.488zM258.138 55.94a.37.37 0 0 1-.295-.152.358.358 0 0 1-.061-.27.366.366 0 0 1 .05-.131l1.492-2.377a.36.36 0 1 1 .612.385l-1.492 2.377a.362.362 0 0 1-.306.168zM254.663 61.453a.368.368 0 0 1-.353-.28.368.368 0 0 1 .047-.273l1.492-2.377a.36.36 0 1 1 .611.385l-1.492 2.377a.35.35 0 0 1-.305.168zM255.572 56.515a.357.357 0 0 1-.193-.055l-2.376-1.493a.356.356 0 0 1-.16-.225.369.369 0 0 1 .046-.272.368.368 0 0 1 .225-.16.363.363 0 0 1 .272.047l2.376 1.491a.363.363 0 0 1 .025.594.359.359 0 0 1-.217.073h.002zM261.09 59.992a.348.348 0 0 1-.191-.055l-2.376-1.493a.361.361 0 1 1 .385-.612l2.376 1.493a.363.363 0 0 1 .025.594.363.363 0 0 1-.217.073h-.002zM75.238 18.91a4.409 4.409 0 0 1-4.325-5.272 4.412 4.412 0 0 1 6.012-3.216 4.41 4.41 0 0 1 1.43 7.195 4.414 4.414 0 0 1-3.117 1.293zm0-8.1a3.688 3.688 0 0 0-3.62 4.41 3.691 3.691 0 0 0 5.03 2.69 3.69 3.69 0 0 0-1.41-7.1zM64.03 28.857a.361.361 0 0 1-.262-.61l1.236-1.291a.362.362 0 1 1 .52.499l-1.233 1.291a.365.365 0 0 1-.261.111zM68.352 24.338a.362.362 0 0 1-.261-.612l1.235-1.291a.362.362 0 1 1 .522.499l-1.234 1.291a.361.361 0 0 1-.262.113zM69.629 28.732a.36.36 0 0 1-.254-.103l-1.253-1.236a.362.362 0 0 1 .507-.515l1.253 1.236a.36.36 0 0 1-.253.618zM65.241 24.404a.358.358 0 0 1-.253-.102l-1.253-1.237a.361.361 0 0 1 .507-.515l1.253 1.236a.36.36 0 0 1-.116.59.352.352 0 0 1-.138.028z" fill="#0F0F0F"/><path d="M299.64 132.551a8.3 8.3 0 0 0-2.914-6.171L255 90.949a5.854 5.854 0 0 0-6.395-1.275 5.854 5.854 0 0 0-1.903 1.275l-25.774 25.797a7.162 7.162 0 0 1-2.321 1.556 7.16 7.16 0 0 1-5.48 0 7.162 7.162 0 0 1-2.321-1.556l-8.236-8.229c-2.796-2.795-7.326-2.914-10.12-.119l-83.268 78.324c-8.137-4.333-24.688-9.795-45.753-15.847-23.284 3.417-43.577 9.35-62.417 15.847-1.465 11.915-1.673 22.141 1.584 32.486 19.122 60.672 163.517 102.223 242.395 37.813 18.532-15.137 37.479-39.249 47.263-70.301h-.448c.578-1.082 1.109-2.535 1.575-3.961 2.556-7.778 6.44-40.833 6.259-50.208z" fill="#fff"/><path d="M1.017 187.085a.36.36 0 0 1-.355-.301.363.363 0 0 1 .236-.401c15.733-5.426 37.049-12.134 62.484-15.869a.327.327 0 0 1 .158.011c23.162 6.656 38.083 11.812 45.594 15.757l83.08-78.148c2.889-2.892 7.658-2.839 10.622.125l8.236 8.231a6.813 6.813 0 0 0 9.612 0l25.763-25.794a6.235 6.235 0 0 1 8.808 0l41.704 35.41a8.656 8.656 0 0 1 3.041 6.438.364.364 0 0 1-.1.258.35.35 0 0 1-.253.11.367.367 0 0 1-.368-.353 7.924 7.924 0 0 0-.759-3.252 7.92 7.92 0 0 0-2.028-2.651l-41.725-35.431a5.52 5.52 0 0 0-7.81-.02l-25.774 25.797a7.527 7.527 0 0 1-10.632 0l-8.236-8.23c-2.683-2.683-6.993-2.736-9.61-.119l-83.271 78.342a.364.364 0 0 1-.417.057c-7.381-3.932-22.302-9.101-45.608-15.801-25.343 3.725-46.59 10.413-62.275 15.823a.386.386 0 0 1-.117.011z" fill="#0F0F0F"/><path d="M40.448 149.482c4.888-5.108 9.654-21.109 1.805-31.88-5.985-8.215-5.334-10.589-6.418-17.739-1.083-7.15-3.682-18.7-11.263-21.382-7.581-2.683-12.513 11.727-15.767 26.032-3.253 14.305-11.764 20.452-5.173 35.88 4.604 10.787 21.416 25.176 36.816 9.089z" fill="#fff"/><path d="M25.557 157.044a17.73 17.73 0 0 1-3.177-.29c-8.652-1.574-16.147-9.35-19.079-16.21-4.586-10.733-1.9-17.15 1.191-24.579 1.45-3.485 2.953-7.08 3.96-11.533 3.41-15.007 7.207-23.48 11.609-25.909a5.46 5.46 0 0 1 4.631-.383c5.763 2.038 9.63 9.33 11.5 21.67.175 1.154.307 2.207.424 3.134.62 4.912.962 7.627 5.929 14.446 3.502 4.806 4.9 11.315 3.94 18.325-.777 5.661-3.044 11.161-5.776 14.015-4.614 4.819-9.797 7.314-15.152 7.314zM22.76 78.515a4.802 4.802 0 0 0-2.35.634c-4.212 2.328-7.897 10.65-11.253 25.441-1.025 4.513-2.534 8.138-4 11.643C1.996 123.814-.5 129.8 3.96 140.246c2.851 6.686 10.137 14.262 18.543 15.784 6.312 1.15 12.258-1.141 17.68-6.805 4.937-5.158 9.361-21.004 1.774-31.417-5.078-6.973-5.428-9.743-6.062-14.78-.122-.969-.248-1.97-.42-3.117-1.827-12.055-5.545-19.153-11.028-21.096a5.036 5.036 0 0 0-1.687-.3z" fill="#0F0F0F"/><path d="M25.392 183.172a.359.359 0 0 1-.36-.356l-1.057-77.871a.36.36 0 0 1 .354-.366.368.368 0 0 1 .366.357l1.058 77.87a.363.363 0 0 1-.354.366h-.007zM27.43 111.582a.356.356 0 0 1-.314-.183.36.36 0 0 1-.034-.273l2.777-10.071a.363.363 0 0 1 .444-.253.361.361 0 0 1 .253.445l-2.777 10.07a.359.359 0 0 1-.348.265zM21.421 136.76a.368.368 0 0 1-.286-.141l-6.574-8.518a.37.37 0 0 1-.072-.267.36.36 0 0 1 .404-.313.36.36 0 0 1 .24.138l6.567 8.518a.359.359 0 0 1-.095.526.357.357 0 0 1-.19.055l.006.002zM26.867 130.323a.365.365 0 0 1-.357-.413.362.362 0 0 1 .085-.185l7.888-9.18a.375.375 0 0 1 .111-.087.37.37 0 0 1 .4.051.365.365 0 0 1 .036.511l-7.889 9.181a.369.369 0 0 1-.274.122zM164.471 289.148a.367.367 0 0 1-.356-.281.362.362 0 0 1 .198-.407c1.425-.672 5.314-1.902 9.424-3.197 4.331-1.369 8.81-2.784 10.296-3.522 2.135-1.059 4.322-2.095 6.437-3.098a445.119 445.119 0 0 0 5.881-2.824c7.239-3.563 15.624-8.057 22.936-14.381 1.238-1.072 2.572-2.187 3.983-3.368 9.624-8.057 22.809-19.091 23.43-31.746.615-12.44-10.628-21.093-20.444-24.722a307.02 307.02 0 0 1-21.326-8.818c-3.143-1.443-6.167-2.919-8.626-5.149a18.32 18.32 0 0 1-3.127-3.588c-1.676-2.605-2.118-5.288-1.315-7.974 2.647-8.841 18.282-15.769 25.796-19.1l.826-.367c.917-.407 2.184-.933 3.643-1.543 10.454-4.347 32.203-13.391 32.55-22.384.117-3.065-2.376-5.924-7.432-8.497-7.631-3.889-8.789-4.51-9.735-5.472-.977-.994-1.326-1.981-1.037-2.933.66-2.178 4.693-4.005 12.329-5.588 6.312-1.309 9.775-3.236 10.296-5.727.779-3.764-5.338-8.066-7.641-9.686a.366.366 0 0 1-.154-.274.36.36 0 0 1 .12-.29l.792-.704a.364.364 0 0 1 .447-.026l.548.38c3.29 2.28 9.415 6.523 9.106 11.131-.158 2.377-2.037 4.492-5.578 6.299-1.645.838-3.982 1.564-6.244 2.266-3.2.994-6.829 2.119-6.857 3.223-.01.368.45 1.159 3.633 2.331 14.373 5.293 20.899 11.716 19.397 19.091-.031 15.806-19.897 22.681-35.862 28.208-5.043 1.743-9.804 3.393-13.131 5.093-2.007 1.027-4.118 2.368-4.593 4.518-.357 1.653-.143 3.036.654 4.233 2.111 3.169 7.956 4.245 12.223 5.033 1.358.25 2.535.466 3.461.718 7.79 2.106 14.547 4.657 20.66 7.8 12.21 6.275 24.849 18.099 23.696 32.458a.36.36 0 0 1-.628.194.363.363 0 0 1-.092-.253c1.125-14.004-11.301-25.588-23.306-31.757-6.066-3.119-12.777-5.652-20.518-7.745-.903-.244-2.059-.458-3.404-.705-4.394-.81-10.411-1.921-12.692-5.344-.898-1.347-1.153-2.957-.759-4.784.531-2.459 2.93-3.962 4.962-5.009 3.371-1.724 8.156-3.38 13.223-5.133 15.761-5.453 35.376-12.24 35.376-27.558a.445.445 0 0 1 0-.073c1.446-6.987-4.923-13.145-18.931-18.303-2.867-1.056-4.134-1.99-4.107-3.028.042-1.622 3.437-2.675 7.365-3.896 2.232-.692 4.54-1.408 6.13-2.218 3.299-1.683 5.045-3.602 5.186-5.705.282-4.198-5.85-8.447-8.797-10.488l-.317-.218-.238.21c2.633 1.862 8.395 6.135 7.562 10.16-.58 2.8-4.231 4.912-10.85 6.288-9.029 1.872-11.395 3.803-11.786 5.09-.209.691.073 1.417.861 2.219.868.882 2.009 1.492 9.548 5.334 5.322 2.711 7.955 5.797 7.825 9.169-.364 9.454-22.403 18.618-32.994 23.021a210.821 210.821 0 0 0-3.643 1.538l-.825.367c-7.416 3.286-22.847 10.124-25.397 18.645-.741 2.475-.328 4.957 1.229 7.377a17.549 17.549 0 0 0 3.01 3.443c2.376 2.162 5.353 3.612 8.442 5.029a305.673 305.673 0 0 0 21.276 8.798c10.044 3.716 21.541 12.606 20.908 25.438-.634 12.969-13.961 24.12-23.688 32.262a303.897 303.897 0 0 0-3.974 3.362c-7.373 6.378-15.81 10.899-23.089 14.482-1.955.962-3.96 1.911-5.891 2.829-2.112 1.001-4.296 2.036-6.426 3.093-1.538.762-6.045 2.185-10.402 3.563-3.908 1.234-7.948 2.511-9.336 3.169a.384.384 0 0 1-.117.021z" fill="#0F0F0F"/><path d="m47.624 111.295 23.242-1.329.144 17.799-23.386 2.829v-19.299z" fill="#fff"/><path d="M47.625 130.955a.363.363 0 0 1-.362-.362v-19.298a.365.365 0 0 1 .34-.36l23.242-1.331a.356.356 0 0 1 .35.216c.02.045.031.093.032.142l.144 17.8a.365.365 0 0 1-.317.363l-23.387 2.827-.042.003zm.369-19.318v18.541l22.65-2.733-.138-17.098-22.512 1.29z" fill="#0F0F0F"/><path d="M46.633 130.76c1.745 0 3.16-4.357 3.16-9.732 0-5.374-1.415-9.731-3.16-9.731s-3.16 4.357-3.16 9.731c0 5.375 1.415 9.732 3.16 9.732z" fill="#fff"/><path d="M46.633 131.121c-2.286 0-3.52-5.201-3.52-10.093s1.238-10.099 3.52-10.099 3.521 5.199 3.521 10.093c0 4.893-1.234 10.099-3.52 10.099zm0-19.465c-1.323 0-2.797 3.85-2.797 9.372 0 5.523 1.474 9.371 2.797 9.371 1.323 0 2.799-3.848 2.799-9.371 0-5.522-1.475-9.372-2.799-9.372z" fill="#0F0F0F"/><path d="M52.497 119.567c-6.53 18.915-11.051 36.526-11.147 51.264a8.784 8.784 0 0 0 7.481 8.739c5.273.793 10.808.515 16.657-1.027l2.888-60.657-15.88 1.681z" fill="#0F0F0F"/><path d="m110.737 147.631 18.874 140.298-2.894.553-19.365-140.875 3.385.024z" fill="#fff"/><path d="M126.716 288.843a.352.352 0 0 1-.356-.317l-19.366-140.88a.359.359 0 0 1 .014-.142.338.338 0 0 1 .067-.127.316.316 0 0 1 .122-.095.32.32 0 0 1 .152-.029l3.385.024a.364.364 0 0 1 .355.317l18.874 140.3a.357.357 0 0 1-.29.402l-2.894.554a.45.45 0 0 1-.063-.007zm-18.949-140.872 19.256 140.088 2.186-.419-18.787-139.651-2.655-.018z" fill="#0F0F0F"/><path d="m107.279 147.192 3.403-.29a.754.754 0 0 1 .817.664l1.68 13.628a.76.76 0 0 1-.633.845l-2.885.445a.759.759 0 0 1-.866-.634l-2.195-13.787a.752.752 0 0 1 .152-.582.761.761 0 0 1 .527-.289z" fill="#fff"/><path d="M109.54 162.85a1.122 1.122 0 0 1-1.109-.951l-2.196-13.787a1.113 1.113 0 0 1 .224-.866 1.129 1.129 0 0 1 .787-.427l3.401-.291a1.117 1.117 0 0 1 1.208.979l1.679 13.629a1.11 1.11 0 0 1-.941 1.244l-2.886.445a1.052 1.052 0 0 1-.167.025zm1.208-15.592h-.03l-3.401.292a.404.404 0 0 0-.352.298.407.407 0 0 0-.007.163l2.195 13.787a.403.403 0 0 0 .455.331l2.884-.447a.394.394 0 0 0 .334-.442l-1.679-13.628a.396.396 0 0 0-.399-.354z" fill="#0F0F0F"/><path d="M102.732 162.146c.582.41 1.238.704 1.931.867l7.561 1.743a1.204 1.204 0 0 0 1.264-.471c.092-.13.158-.277.192-.433a1.17 1.17 0 0 0-.849-1.409c-1.007-.317-2.425-.08-3.309-.731-1.18-.87-1.221-3.486-1.524-4.806-.337-1.482-2.916.047-3.891.317a2.634 2.634 0 0 1-2.704-.813l-5.498-7.165c-1.7-1.996-5.162 1.468-5.162 1.468a2.634 2.634 0 0 0 .475 3.665l11.514 7.768z" fill="#fff"/><path d="M112.514 165.159a1.61 1.61 0 0 1-.378-.046l-7.554-1.743a5.981 5.981 0 0 1-2.05-.919l-11.515-7.765a2.99 2.99 0 0 1-.558-4.185l.03-.035c.09-.091 2.218-2.194 4.073-2.194h.097a2.037 2.037 0 0 1 1.522.747l5.509 7.177a2.267 2.267 0 0 0 2.32.689c.272-.088.54-.19.802-.306.985-.407 2.209-.916 2.971-.522a1.111 1.111 0 0 1 .569.774c.076.338.134.747.198 1.181.185 1.268.415 2.852 1.186 3.415.458.338 1.118.396 1.817.456.47.024.935.098 1.389.222 1.142.371 1.212 1.368 1.088 1.845a1.562 1.562 0 0 1-1.516 1.211v-.002zm-9.581-3.312a5.235 5.235 0 0 0 1.818.816l7.554 1.743a.831.831 0 0 0 1.023-.63c.031-.13.138-.747-.608-.988a5.821 5.821 0 0 0-1.23-.19c-.767-.066-1.561-.136-2.182-.594-1.015-.748-1.267-2.491-1.473-3.894-.06-.418-.117-.814-.188-1.122a.378.378 0 0 0-.063-.171.377.377 0 0 0-.134-.123c-.462-.24-1.606.234-2.363.548a8.682 8.682 0 0 1-.882.334 3.002 3.002 0 0 1-3.075-.928l-5.512-7.179a1.316 1.316 0 0 0-.991-.476c-1.278-.058-3.026 1.384-3.612 1.964a2.272 2.272 0 0 0 .418 3.138l11.5 7.752z" fill="#0F0F0F"/><path d="M115.41 159.232a2.818 2.818 0 0 0-1.96-3.286 2.817 2.817 0 0 0-1.386-.054c.13-.024-.779 1.364-.791 1.385-.247.57-.45 1.158-.607 1.759-.114.436-.181.965.141 1.282.139.118.301.208.475.263l1.304.518c.247.112.509.188.777.225.71.064 1.378-.436 1.709-1.066.165-.323.279-.668.338-1.026z" fill="#fff"/><path d="M113.488 161.69h-.158a3.09 3.09 0 0 1-.879-.249l-1.304-.518a1.693 1.693 0 0 1-.589-.342c-.529-.518-.317-1.355-.237-1.631.161-.618.37-1.223.624-1.809 0 0 .035-.064.092-.159.448-.702.609-.987.666-1.109a.362.362 0 0 1 .292-.341 3.344 3.344 0 0 1 3.442 1.575c.355.667.471 1.435.329 2.178a3.848 3.848 0 0 1-.377 1.133c-.337.654-1.047 1.272-1.901 1.272zm-1.891-4.245a11.732 11.732 0 0 0-.579 1.683c-.122.475-.107.783.045.932.105.082.223.145.351.185l1.303.518c.215.099.443.167.676.201.59.057 1.117-.416 1.358-.874.148-.288.25-.598.302-.918a2.567 2.567 0 0 0-.244-1.699 2.61 2.61 0 0 0-1.052-.984 2.606 2.606 0 0 0-1.415-.272c-.113.228-.328.575-.697 1.153l-.048.075z" fill="#0F0F0F"/><path d="M85.937 136.759c0 .525 3.569 18.383 3.569 18.383l7.445-6.931c-3.01-4.092-4.942-11.123-6.612-18.901l-4.402 7.449z" fill="#fff"/><path d="M89.506 155.491a.373.373 0 0 1-.27-.122.364.364 0 0 1-.085-.17c-.597-2.985-3.575-17.907-3.575-18.446 0-.065.017-.128.05-.184l4.409-7.448a.356.356 0 0 1 .367-.172.358.358 0 0 1 .296.28c1.477 6.876 3.41 14.481 6.55 18.763a.36.36 0 0 1-.046.475l-7.445 6.932a.37.37 0 0 1-.251.092zm-3.198-18.657c.158 1.141 2.059 10.776 3.424 17.59l6.746-6.274c-2.973-4.236-4.853-11.306-6.291-17.877l-3.88 6.561z" fill="#0F0F0F"/><path d="M73.615 268.261s-1.531 6.206.237 9.076l.502 1.188-10.17-2.263.683-1.039a13 13 0 0 0 2.124-6.052l6.624-.91z" fill="#fff"/><path d="M74.354 278.887a.523.523 0 0 1-.08 0l-10.17-2.265a.358.358 0 0 1-.279-.387.365.365 0 0 1 .057-.163l.683-1.039a12.714 12.714 0 0 0 2.067-5.884.363.363 0 0 1 .317-.327l6.624-.911a.363.363 0 0 1 .4.444c-.015.06-1.476 6.093.192 8.8.01.015.019.031.026.049l.502 1.19a.361.361 0 0 1-.333.501l-.006-.008zm-9.582-2.864 8.977 1.998-.219-.519c-1.522-2.509-.71-7.239-.38-8.813l-5.826.792a13.477 13.477 0 0 1-2.156 5.94l-.396.602z" fill="#0F0F0F"/><path d="m74.4 273.871.904 1.307a19.416 19.416 0 0 0 6.97 6.162l2.143 1.12a.697.697 0 0 1 .369.537l.014.116c.149 1.293-1.649 3.976-6.352 4.388-2.91.255-9.584-.178-17.203-4.225a1.237 1.237 0 0 1-.633-1.328c.373-1.951 1.447-6.581 3.513-8.684a.545.545 0 0 1 .415-.17.555.555 0 0 1 .404.195l2.013 2.428a2.56 2.56 0 0 0 2.729.809c.321-.101.62-.263.877-.479l2.774-2.32a.724.724 0 0 1 1.063.144z" fill="#fff"/><path d="M77.027 287.918c-2.797 0-8.808-.529-15.948-4.323a1.596 1.596 0 0 1-.824-1.715c.372-1.941 1.47-6.69 3.611-8.874a.949.949 0 0 1 .695-.276.893.893 0 0 1 .658.317l2.013 2.428a2.186 2.186 0 0 0 1.487.789 2.2 2.2 0 0 0 1.608-.494l2.774-2.32a1.094 1.094 0 0 1 .844-.243 1.086 1.086 0 0 1 .75.46l.904 1.305a19.1 19.1 0 0 0 6.842 6.048l2.143 1.122a1.052 1.052 0 0 1 .56.813l.014.117c.074.645-.225 1.426-.82 2.163-.693.849-2.375 2.322-5.86 2.626-.263.024-.758.057-1.45.057zm-12.503-14.462a.196.196 0 0 0-.142.062c-2.005 2.038-3.058 6.622-3.418 8.498a.876.876 0 0 0 .453.942c8.73 4.637 15.696 4.299 17.003 4.183 3.22-.282 4.742-1.602 5.363-2.362.548-.674.7-1.281.66-1.625l-.012-.115a.336.336 0 0 0-.178-.257l-2.143-1.122a19.844 19.844 0 0 1-7.102-6.276l-.905-1.307a.364.364 0 0 0-.537-.073l-2.773 2.32a2.918 2.918 0 0 1-4.118-.375l-2.012-2.43a.195.195 0 0 0-.059-.047.183.183 0 0 0-.072-.018l-.008.002z" fill="#0F0F0F"/><path d="M72.675 283.431h-.12a24.543 24.543 0 0 1-9.644-3.169l-1.664-.964a.365.365 0 0 1 .361-.633l1.666.965a23.853 23.853 0 0 0 9.361 3.074.335.335 0 0 0 .356-.244.33.33 0 0 0 .004-.155l-.201-.931a.951.951 0 0 1 1.425-1.023l.832.493a10.21 10.21 0 0 0 7.927 1.042l.525-.147c.046-.014.094-.019.142-.014a.364.364 0 0 1 .32.405.366.366 0 0 1-.267.305l-.523.147a10.927 10.927 0 0 1-8.492-1.109l-.831-.493a.233.233 0 0 0-.34.116.234.234 0 0 0-.01.134l.2.929a1.053 1.053 0 0 1-1.024 1.277l-.003-.005z" fill="#0F0F0F"/><path d="M36.114 245.278s-4.994 4.437-5.406 7.924l-.348 1.313-6.715-9.14 1.244-.233c2.07-.878 4.142-1.23 5.59-2.949l5.635 3.085z" fill="#fff"/><path d="M30.358 254.877a.358.358 0 0 1-.291-.148l-6.715-9.139a.356.356 0 0 1-.044-.346.361.361 0 0 1 .27-.222l1.204-.227c.51-.214 1.02-.398 1.513-.575 1.481-.534 2.88-1.038 3.906-2.258a.36.36 0 0 1 .45-.084l5.636 3.085a.361.361 0 0 1 .066.586c-.049.043-4.897 4.38-5.289 7.696a.42.42 0 0 1-.01.05l-.348 1.314a.359.359 0 0 1-.282.261.298.298 0 0 1-.066.007zm-6.084-9.248 5.927 8.069.15-.56c.378-3.049 3.959-6.655 5.148-7.78l-4.941-2.706c-1.123 1.206-2.535 1.714-4.019 2.249-.496.179-1.007.365-1.513.577a.232.232 0 0 1-.072.022l-.68.129z" fill="#0F0F0F"/><path d="m32.471 251.774-.454 1.594a20.238 20.238 0 0 0-.346 9.698l.518 2.469a.726.726 0 0 1-.188.652l-.084.088c-.95.977-4.298 1.306-7.746-2.207-2.133-2.174-6.209-7.836-7.996-16.654a1.293 1.293 0 0 1 .648-1.394c1.82-.992 6.263-3.197 9.326-2.926a.577.577 0 0 1 .515.437.573.573 0 0 1 .007.239l-.621 3.231a2.665 2.665 0 0 0 2.124 3.123l3.708.696a.746.746 0 0 1 .505.347.76.76 0 0 1 .084.607z" fill="#fff"/><path d="M29.872 267.294c-1.149 0-3.431-.391-5.965-2.972-.986-1.004-6.004-6.531-8.091-16.836a1.645 1.645 0 0 1 .828-1.783c1.81-.986 6.365-3.249 9.532-2.968a.956.956 0 0 1 .674.372.932.932 0 0 1 .17.732l-.623 3.23a2.307 2.307 0 0 0 1.837 2.694l3.708.696a1.122 1.122 0 0 1 .901.946c.022.154.011.311-.031.461l-.455 1.594a19.947 19.947 0 0 0-.339 9.526l.518 2.469a1.088 1.088 0 0 1-.282.976l-.085.089c-.476.483-1.298.763-2.277.768l-.02.006zm-4.277-23.862c-2.946 0-6.957 2.003-8.612 2.905a.923.923 0 0 0-.466 1.006c2.047 10.104 6.938 15.494 7.898 16.481 2.35 2.393 4.416 2.756 5.449 2.756h.019c.912 0 1.508-.285 1.761-.549l.084-.087a.369.369 0 0 0 .095-.328l-.518-2.469a20.675 20.675 0 0 1 .352-9.871l.454-1.594a.386.386 0 0 0-.044-.317.408.408 0 0 0-.264-.182l-3.708-.696a3.028 3.028 0 0 1-2.412-3.546l.622-3.232a.192.192 0 0 0-.038-.158.222.222 0 0 0-.159-.087 3.219 3.219 0 0 0-.507-.032h-.006z" fill="#0F0F0F"/><path d="M31.936 264.987a.353.353 0 0 1-.206-.065l-.466-.317a11.38 11.38 0 0 1-4.722-7.567l-.158-.997a.25.25 0 0 0-.19-.212.253.253 0 0 0-.271.09l-.616.779a1.086 1.086 0 0 1-1.757-.08 25.565 25.565 0 0 1-3.835-9.86l-.327-1.981a.362.362 0 0 1 .712-.117l.328 1.981a24.825 24.825 0 0 0 3.727 9.581.355.355 0 0 0 .287.159.344.344 0 0 0 .3-.138l.616-.778a.98.98 0 0 1 1.742.459l.158.997a10.659 10.659 0 0 0 4.421 7.09l.466.317a.363.363 0 0 1 .138.404.356.356 0 0 1-.344.253l-.003.002zM56.512 167.219l31.407-.751s11.773 39.86.41 71.654c-6.841 19.145-11.53 28.407-13.193 31.445a1.992 1.992 0 0 1-1.978 1.021l-5.747-.663a1.987 1.987 0 0 1-1.703-1.486 1.993 1.993 0 0 1-.04-.794c1.585-10.439 4.621-41.087 7.312-56.603a.02.02 0 0 0-.004-.006.018.018 0 0 0-.007-.002.018.018 0 0 0-.008.002.02.02 0 0 0-.004.006c-.773 2.721-8.554 27.433-39.008 39.143a1.393 1.393 0 0 1-1.61-.476l-3.559-4.8a1.385 1.385 0 0 1-.038-1.604c4.345-6.424 34.703-45.826 27.77-76.086z" fill="#0F0F0F"/><path d="M71.259 217.82a.36.36 0 0 1-.347-.464l.534-1.815c2.376-8.134 4.435-15.159 9.288-18.369a.361.361 0 0 1 .4.602c-4.632 3.065-6.558 9.643-8.996 17.969-.176.599-.352 1.206-.534 1.817a.36.36 0 0 1-.345.26zM37.283 138.282c-.062-2.145.158-4.418.95-6.41 2.234-5.592 8.785-10.914 14.87-14.737 15.897-9.984 32.97-4.644 39.194 1.822 2.336 2.431-.124 24.495-1.853 22.376-.294 3.528-.317 3.713-.298 5.483.031 2.719.079 5.176.275 7.29.52 5.592 1.548 16.438 2.311 20.523.013.067-.983 1.285-1.082 1.444-2.524 4.066-36.636 4.453-36.272 2.708.071-.339 1.109-25.653 1.912-30.035.93-5.118 1.315-13.105-.653-12.418l-3.369 2.202c-1.676 1.098-2.14 3.361-1.147 5.102l3.792 5.293-10.824 8.306-4.682-7.678a25.017 25.017 0 0 1-3.124-11.271z" fill="#fff"/><path d="M65.588 180.149c-4.896 0-8.848-.26-10.021-.733-.523-.209-.58-.502-.536-.71.014-.126.09-1.709.187-3.714.36-7.448 1.109-22.934 1.723-26.306.876-4.818 1.1-11.093.076-11.972a.21.21 0 0 0-.219-.051l-3.325 2.172c-1.494.978-1.949 2.999-1.043 4.607l3.773 5.277a.364.364 0 0 1-.074.498L45.3 157.519a.362.362 0 0 1-.424.011.366.366 0 0 1-.103-.109l-4.68-7.678a25.521 25.521 0 0 1-3.177-11.45c-.073-2.535.255-4.746.977-6.552 2.411-6.041 9.495-11.445 15.013-14.914 9.076-5.705 17.767-6.038 23.462-5.312 6.513.829 12.714 3.585 16.184 7.19 2.055 2.128.758 16.929-.706 21.541-.33 1.036-.645 1.512-1.05 1.585h-.03v.025c-.252 3.039-.274 3.288-.255 4.955.028 2.485.073 5.092.274 7.26.37 4 1.5 16.164 2.306 20.49.038.201 0 .258-.75 1.204-.158.198-.348.446-.381.498-1.704 2.741-16.112 3.886-26.373 3.886zm-9.836-1.427c1.375.815 16.593 1.11 27.455-.375 6.29-.862 7.799-1.91 8.14-2.458a9.81 9.81 0 0 1 .427-.561c.18-.23.461-.59.583-.759-.811-4.463-1.923-16.456-2.292-20.422-.203-2.197-.247-4.821-.276-7.32-.019-1.702 0-1.952.257-5.023l.041-.495a.359.359 0 0 1 .233-.307.359.359 0 0 1 .377.077c.317-.355.92-2.158 1.465-6.074.903-6.472 1.074-14.549-.125-15.794-6.566-6.823-23.683-11.233-38.74-1.767-4.445 2.793-12.266 8.398-14.73 14.569-.687 1.715-.997 3.823-.926 6.265a24.769 24.769 0 0 0 3.08 11.108l4.461 7.32 10.23-7.849-3.58-5.008-.021-.031c-1.109-1.942-.553-4.395 1.267-5.585l3.368-2.201a.456.456 0 0 1 .079-.04.954.954 0 0 1 .961.173c1.595 1.366.781 9.26.159 12.651-.605 3.328-1.353 18.79-1.713 26.217a335.588 335.588 0 0 1-.177 3.683l-.003.006zm-.013.13v.008-.008z" fill="#0F0F0F"/><path d="M70.093 167.173a.36.36 0 0 1-.159-.036.362.362 0 0 1-.158-.476c7.584-15.543 13.37-21.176 13.427-21.235a.365.365 0 0 1 .523-.001.357.357 0 0 1 .1.266.364.364 0 0 1-.124.257c-.057.053-5.76 5.619-13.276 21.025a.357.357 0 0 1-.138.148.354.354 0 0 1-.195.052z" fill="#0F0F0F"/><path d="m64.527 147.884 2.308 141.546-2.938.209-2.73-142.175 3.36.42z" fill="#fff"/><path d="M63.897 290a.361.361 0 0 1-.362-.353l-2.729-142.176a.365.365 0 0 1 .253-.352.344.344 0 0 1 .153-.014l3.36.421a.357.357 0 0 1 .316.352l2.31 141.545a.363.363 0 0 1-.335.366l-2.941.211h-.025zm-2.36-142.127 2.713 141.379 2.217-.158-2.296-140.891-2.635-.33z" fill="#0F0F0F"/><path d="m61.14 147.043 3.412.109a.758.758 0 0 1 .735.754l.072 13.732a.76.76 0 0 1-.732.762l-2.918.105a.765.765 0 0 1-.792-.728l-.565-13.945a.763.763 0 0 1 .482-.737.747.747 0 0 1 .306-.052z" fill="#fff"/><path d="M61.685 162.866a1.124 1.124 0 0 1-1.118-1.075L60 147.846a1.133 1.133 0 0 1 .704-1.089c.143-.057.297-.083.45-.076l3.413.108a1.11 1.11 0 0 1 1.085 1.109l.07 13.732a1.107 1.107 0 0 1-1.08 1.125l-2.917.105-.04.006zm-.565-15.462a.4.4 0 0 0-.282.117.4.4 0 0 0-.116.298l.566 13.946a.403.403 0 0 0 .412.381l2.917-.103a.394.394 0 0 0 .384-.401l-.07-13.731a.4.4 0 0 0-.387-.396l-3.403-.111h-.021z" fill="#0F0F0F"/><path d="M66.855 157.023a.988.988 0 0 1-.166 1.799 1.693 1.693 0 0 1-.773.088c-1.213-.158-2.602-.339-3.115-.334l-1.003.01a7.796 7.796 0 0 0-1.864.567 6.138 6.138 0 0 1-1.538.513 3.463 3.463 0 0 1-3.043-.925l-5.503-4.754c1.563-1.084 2.406-1.805 4.571-3.25l3.53 4.735 1.346-.88c.657-.467 1.652-.898 2.266-.553l5.292 2.984z" fill="#fff"/><path d="M57.77 160.086a3.84 3.84 0 0 1-2.668-1.085l-5.488-4.74a.362.362 0 0 1-.078-.45.361.361 0 0 1 .111-.12c.634-.433 1.131-.805 1.665-1.199a71.48 71.48 0 0 1 2.913-2.06.362.362 0 0 1 .49.084l3.326 4.463 1.063-.694c.77-.549 1.878-.994 2.638-.566l5.294 2.984a1.35 1.35 0 0 1-.228 2.455c-.3.107-.622.142-.938.103-2.026-.276-2.781-.341-3.063-.33l-.973.01c-.6.104-1.185.282-1.742.529a6.525 6.525 0 0 1-1.632.545 3.725 3.725 0 0 1-.69.071zm-7.334-6.067 5.16 4.451a3.13 3.13 0 0 0 2.74.843c.502-.094.988-.253 1.447-.475a8.07 8.07 0 0 1 1.962-.598h.058l1.002-.009c.437 0 1.506.109 3.168.337.206.024.414-.001.608-.071a.632.632 0 0 0 .349-.887.636.636 0 0 0-.244-.257l-5.3-3.003c-.434-.244-1.28.104-1.88.532l-1.36.894a.362.362 0 0 1-.486-.087l-3.326-4.46a66.915 66.915 0 0 0-2.599 1.845 70.23 70.23 0 0 1-1.299.945zM82.962 87.808A3.924 3.924 0 0 0 80.32 85.3l-5.333-1.512a8.813 8.813 0 0 0-8.553 2.171l-.05.047a9.035 9.035 0 0 0-1.865 2.63c-1.923-.978-8.308-4.056-13.78-6.68a14.778 14.778 0 0 0-15.952 2.06A36.688 36.688 0 0 1 22.19 90.99L6.746 95.908a.262.262 0 0 0-.084.451l2.192 1.744a20.66 20.66 0 0 0 12.038 4.495l5.012.206a.64.64 0 0 1 .57.448.634.634 0 0 1-.223.69 30.093 30.093 0 0 1-9.971 4.8l-4.41 1.189a.26.26 0 0 0 0 .5l5.77 1.634a19.169 19.169 0 0 0 14.414-1.622l7.339-4.01a21.202 21.202 0 0 1-6.605 8.228.26.26 0 0 0 .202.464l2.573-.475a19.395 19.395 0 0 0 13.495-9.735 27.093 27.093 0 0 1 8.816-9.556l5.839-3.852a9.037 9.037 0 0 0 .68 4.54l.802 1.868a8.554 8.554 0 0 0 6.925 5.125l10.445-12.966a2.391 2.391 0 0 0 .397-2.266z" fill="#0F0F0F"/><path d="M70.733 93.973a.543.543 0 0 0 .725-.395c.336-1.553 1.713-4.098 3.578-4.892 2.394-1.019 5.397-.765 6.365 1.018.842 1.556.49 2.65 2.692 4.465.213.175.12.53-.066.73l-.974 1.164c-.21.225-.306.873-.282 1.179.076.95.317 2.946.035 3.26-.544.611-3.734.984-3.734.984l-.983 9.074a.609.609 0 0 0 .564.675l2.748 1.643s1.401 1.851-6.243 2.694c-4.888.544-8.268-3.207-8.268-3.207s5.622-1.222 4.91-12.448a.698.698 0 0 0-.385-.578c-.849-.424-3.167-1.704-3.106-3.434.065-1.83 1.35-2.338 2.424-1.932z" fill="#fff"/><path d="M74.178 116c-4.45 0-7.42-3.234-7.552-3.382a.36.36 0 0 1 .19-.594c.052-.013 5.308-1.336 4.633-12.074a.338.338 0 0 0-.187-.277c-1.26-.634-3.363-1.953-3.306-3.769.038-1.21.553-1.806.978-2.093a2.096 2.096 0 0 1 1.926-.18.182.182 0 0 0 .158-.01.178.178 0 0 0 .09-.12c.349-1.617 1.754-4.28 3.79-5.15 2.415-1.028 5.71-.87 6.821 1.18.236.45.429.92.577 1.407.317.95.59 1.764 2.032 2.95a.703.703 0 0 1 .252.503c.008.278-.093.55-.284.753l-.961 1.149c-.116.125-.222.633-.2.919.013.144.027.317.045.499.17 1.867.191 2.694-.1 3.028-.53.596-2.68.94-3.675 1.068l-.95 8.797a.25.25 0 0 0 .23.276c.057.003.111.02.16.049l2.748 1.643c.04.024.074.055.102.092a1.025 1.025 0 0 1 .083.995c-.464 1.083-2.677 1.85-6.574 2.284-.34.038-.683.057-1.026.057zm-6.62-3.486c1.011.917 3.854 3.117 7.563 2.703 5.068-.562 5.86-1.559 5.99-1.851a.333.333 0 0 0 .022-.233l-2.596-1.553a.971.971 0 0 1-.805-1.062l.984-9.08a.36.36 0 0 1 .317-.317c1.47-.173 3.226-.551 3.505-.865.122-.257-.019-1.818-.08-2.483l-.043-.509c-.026-.326.06-1.11.376-1.453l.962-1.15a.341.341 0 0 0 .103-.235c-1.584-1.303-1.923-2.301-2.246-3.265a7.58 7.58 0 0 0-.528-1.291c-.888-1.639-3.77-1.767-5.904-.86-1.778.758-3.06 3.22-3.366 4.646a.906.906 0 0 1-1.204.656 1.39 1.39 0 0 0-1.267.103c-.409.274-.634.792-.66 1.516-.045 1.466 2.019 2.656 2.909 3.1a1.056 1.056 0 0 1 .583.876c.584 9.345-3.125 11.947-4.614 12.607zM56.587 145.804c1.108-12.005.977-22.828-2.647-30.328 1.893-2.441 4.435-3.525 7.94-2.648-.245 11.658-1.365 22.751-3.83 32.972a.752.752 0 0 1-1.463.004zM88.513 141.745l-2.574-27.474c3.22 1.032 5.335 2.146 6.019 3.371l-2.753 24.109a.348.348 0 0 1-.692-.006z" fill="#0F0F0F"/><path d="m174.767 103.853-44.159-.115-.384 18.819h45.011c.205.347 2.208-3.543 2.208-9.091a24.861 24.861 0 0 0-1.647-8.957 1.097 1.097 0 0 0-1.029-.656z" fill="#fff"/><path d="M175.27 122.941a.4.4 0 0 1-.128-.022h-44.918a.364.364 0 0 1-.361-.37l.384-18.819a.363.363 0 0 1 .361-.354l44.159.116a1.461 1.461 0 0 1 1.365.884 25.452 25.452 0 0 1 1.671 9.088c0 5.083-1.699 9.261-2.423 9.459a.415.415 0 0 1-.11.018zm-44.676-.745h44.573c.414-.575 1.915-3.909 1.915-8.73a24.642 24.642 0 0 0-1.622-8.824.73.73 0 0 0-.693-.427l-43.806-.116-.367 18.097z" fill="#0F0F0F"/><path d="M130.606 123.599c.845 0 1.53-4.498 1.53-10.046 0-5.548-.685-10.045-1.53-10.045s-1.53 4.497-1.53 10.045.685 10.046 1.53 10.046z" fill="#fff"/><path d="M130.606 123.958c-1.836 0-1.889-9.34-1.889-10.405 0-1.065.053-10.407 1.889-10.407s1.891 9.35 1.891 10.407c0 1.057-.053 10.405-1.891 10.405zm0-20.064c-.492.476-1.167 4.048-1.167 9.659 0 5.612.675 9.191 1.167 9.667.494-.476 1.169-4.047 1.169-9.667 0-5.619-.675-9.185-1.169-9.659z" fill="#0F0F0F"/><path d="M135.935 112.601c-4.147 19.016-9.148 39.551-9.26 51.369a9.425 9.425 0 0 0 8.078 9.467c4.277.606 8.937.755 9.039-.104.121-.998-7.857-60.732-7.857-60.732z" fill="#fff"/><path d="M140.916 174.298c-1.994 0-4.503-.262-6.212-.504-4.83-.683-8.436-4.913-8.395-9.825.097-10.101 3.801-26.782 7.383-42.901.633-2.853 1.267-5.716 1.885-8.54a.357.357 0 0 1 .366-.281.358.358 0 0 1 .343.309c.818 6.119 7.982 59.808 7.861 60.821a.666.666 0 0 1-.274.453c-.443.343-1.577.468-2.957.468zm-5.069-59.615c-.476 2.169-.958 4.348-1.446 6.538-3.567 16.09-7.27 32.728-7.368 42.753-.045 4.557 3.296 8.473 7.769 9.105 4.977.704 8.221.555 8.629.181-.033-1.626-4.815-37.825-7.584-58.577zM170.801 109.992c6.443 2.205 11.594 13.456 16.39 27.208 6.751 18.837-5.773 20.684-11.734 9.317l-4.656-36.525z" fill="#0F0F0F"/><path d="M175.582 257.989s1.412 6.748 4.329 8.906l.998.984-11.624 1.341.426-1.235c.275-2.305 1.021-4.343.221-6.522l5.65-3.474z" fill="#fff"/><path d="M169.285 269.588a.372.372 0 0 1-.282-.135.364.364 0 0 1-.06-.346l.415-1.196a25.42 25.42 0 0 1 .258-1.653c.28-1.602.546-3.117-.022-4.665a.359.359 0 0 1 .158-.431l5.648-3.474a.368.368 0 0 1 .332-.024.365.365 0 0 1 .212.257c.012.067 1.416 6.638 4.191 8.69l.038.034.998.984a.367.367 0 0 1 .088.375.354.354 0 0 1-.116.164.35.35 0 0 1-.185.077l-11.624 1.339-.049.004zm1.081-7.962c.509 1.624.243 3.149-.039 4.754-.094.536-.19 1.09-.258 1.651a.324.324 0 0 1-.018.076l-.239.691 10.308-1.188-.443-.438c-2.544-1.901-3.942-6.985-4.335-8.609l-4.976 3.063z" fill="#0F0F0F"/><path d="m179.531 264.593 1.196 1.223a20.874 20.874 0 0 0 8.511 5.275l2.477.793a.748.748 0 0 1 .488.502l.035.122c.393 1.346-1.03 4.523-5.943 5.816-3.04.792-10.199 1.553-19.008-1.36a1.334 1.334 0 0 1-.918-1.294c.044-2.141.345-7.254 2.155-9.862a.593.593 0 0 1 .873-.122l2.576 2.219a2.751 2.751 0 0 0 2.006.655 2.741 2.741 0 0 0 1.879-.961l2.523-2.968a.782.782 0 0 1 1.15-.038z" fill="#fff"/><path d="M179.72 279.414c-3.295 0-7.603-.464-12.552-2.1a1.686 1.686 0 0 1-1.165-1.644c.044-2.127.348-7.365 2.217-10.06a.974.974 0 0 1 .67-.409.94.94 0 0 1 .734.22l2.575 2.219a2.381 2.381 0 0 0 1.744.569 2.381 2.381 0 0 0 1.633-.837l2.522-2.966a1.147 1.147 0 0 1 .831-.403 1.149 1.149 0 0 1 .857.342l1.196 1.225a20.595 20.595 0 0 0 8.363 5.185l2.478.793a1.099 1.099 0 0 1 .723.745l.035.12c.194.664.021 1.548-.475 2.426-.578 1.024-2.092 2.886-5.721 3.84-.727.193-3.105.735-6.665.735zm-10.713-13.501h-.028a.222.222 0 0 0-.096.034.26.26 0 0 0-.074.07c-1.759 2.536-2.048 7.607-2.09 9.667a.969.969 0 0 0 .67.951c10.105 3.34 17.44 1.713 18.807 1.353 3.374-.887 4.752-2.57 5.278-3.496.464-.822.516-1.505.412-1.868l-.037-.122a.382.382 0 0 0-.251-.26l-2.478-.8a21.315 21.315 0 0 1-8.658-5.368l-1.195-1.223a.431.431 0 0 0-.487-.085.398.398 0 0 0-.137.107l-2.508 2.96a3.104 3.104 0 0 1-4.395.347l-2.576-2.218a.222.222 0 0 0-.157-.049z" fill="#0F0F0F"/><path d="M177.708 275.093c-3.14.001-6.255-.56-9.198-1.656l-1.942-.721a.36.36 0 0 1-.195-.457.36.36 0 0 1 .445-.22l1.942.721a25.65 25.65 0 0 0 10.499 1.564.39.39 0 0 0 .173-.051.389.389 0 0 0 .161-.477l-.382-.95a1.004 1.004 0 0 1 1.288-1.311l.971.372a10.992 10.992 0 0 0 8.621-.334l.528-.252a.362.362 0 0 1 .429.567.354.354 0 0 1-.113.086l-.529.25a11.706 11.706 0 0 1-9.186.357l-.971-.372a.27.27 0 0 0-.3.064.281.281 0 0 0-.062.303l.384.951a1.113 1.113 0 0 1-.466 1.366 1.115 1.115 0 0 1-.496.152 27.02 27.02 0 0 1-1.601.048z" fill="#0F0F0F"/><path d="M143.359 261.159s1.411 6.747 4.33 8.906l.998.985-11.626 1.339.427-1.234c.276-2.306.951-8.603.159-10.776l5.712.78z" fill="#fff"/><path d="M137.061 272.755a.366.366 0 0 1-.156-.035.379.379 0 0 1-.125-.1.352.352 0 0 1-.06-.343l.414-1.198c.641-5.38.703-9.138.174-10.578a.352.352 0 0 1 .061-.347.36.36 0 0 1 .327-.129l5.712.793a.363.363 0 0 1 .304.283c.014.067 1.425 6.639 4.191 8.691a.31.31 0 0 1 .039.033l.998.984a.364.364 0 0 1-.027.54.367.367 0 0 1-.185.077l-11.626 1.339-.041-.01zm1.083-11.945c.502 2.263.128 6.814-.298 10.392a.381.381 0 0 1-.017.076l-.239.691 10.306-1.187-.443-.439c-2.693-2.012-4.101-7.589-4.392-8.857l-4.917-.676z" fill="#0F0F0F"/><path d="m147.307 267.76 1.195 1.224a20.867 20.867 0 0 0 8.512 5.275l2.475.793a.75.75 0 0 1 .488.503l.037.121c.393 1.345-1.03 4.523-5.943 5.816-3.04.792-10.199 1.553-19.008-1.36a1.331 1.331 0 0 1-.917-1.295c.045-2.141.344-7.253 2.156-9.861a.592.592 0 0 1 .654-.238c.08.024.154.063.217.117l2.576 2.219a2.746 2.746 0 0 0 2.007.654 2.763 2.763 0 0 0 1.88-.962l2.521-2.968a.799.799 0 0 1 .882-.212.785.785 0 0 1 .268.174z" fill="#fff"/><path d="M147.496 282.582c-3.295 0-7.603-.464-12.55-2.1a1.688 1.688 0 0 1-1.166-1.645c.045-2.126.349-7.364 2.218-10.059a.962.962 0 0 1 1.06-.378.93.93 0 0 1 .343.189l2.576 2.219a2.398 2.398 0 0 0 1.743.568 2.374 2.374 0 0 0 1.632-.834l2.53-2.975a1.144 1.144 0 0 1 1.688-.059l1.195 1.224a20.589 20.589 0 0 0 8.363 5.185l2.476.792a1.111 1.111 0 0 1 .723.745l.037.121c.193.664.019 1.548-.475 2.426-.58 1.023-2.093 2.884-5.722 3.839-.731.2-3.11.742-6.671.742zm-10.706-13.5h-.029a.236.236 0 0 0-.167.105c-1.76 2.535-2.05 7.606-2.091 9.666a.966.966 0 0 0 .67.951c10.104 3.341 17.439 1.713 18.808 1.353 3.372-.887 4.751-2.572 5.276-3.495.465-.823.518-1.506.412-1.869l-.035-.122a.394.394 0 0 0-.254-.26l-2.475-.8a21.287 21.287 0 0 1-8.658-5.371l-1.196-1.223a.423.423 0 0 0-.317-.127.418.418 0 0 0-.307.149l-2.524 2.968a3.099 3.099 0 0 1-3.334.943c-.39-.127-.75-.33-1.061-.597l-2.575-2.219a.22.22 0 0 0-.143-.052z" fill="#0F0F0F"/><path d="M145.484 278.261c-3.14.001-6.255-.56-9.198-1.656l-1.94-.72a.36.36 0 0 1 .111-.7.347.347 0 0 1 .139.022l1.94.721a25.696 25.696 0 0 0 10.497 1.564.382.382 0 0 0 .334-.528l-.381-.95a.996.996 0 0 1 .217-1.077 1.007 1.007 0 0 1 1.072-.232l.971.372a10.99 10.99 0 0 0 8.62-.336l.529-.25a.362.362 0 1 1 .317.651l-.529.252a11.731 11.731 0 0 1-9.187.356l-.973-.372a.265.265 0 0 0-.16-.014.263.263 0 0 0-.139.079.28.28 0 0 0-.076.141.282.282 0 0 0 .016.16l.381.951a1.114 1.114 0 0 1-.093 1.005 1.107 1.107 0 0 1-.868.513 26.96 26.96 0 0 1-1.6.048z" fill="#0F0F0F"/><path d="M158.758 189.402c.988 2.9 4.751 22.468 5.816 30.134.963 6.973 2.472 36.754 2.758 41.754a.812.812 0 0 0 .814.765h11.184a.812.812 0 0 0 .811-.732c.521-5.183 3.692-38.323 3.207-52.36-.529-15.332-7.403-33.57-8.726-38.592-1.322-5.022-2.96-16.91-2.96-16.91l-32.823 4.934s-4.145 34.444-4.679 41.317c-.533 6.873-1.563 29.103-.24 40.997.857 7.707 1.5 18.798 1.812 21.473a2.46 2.46 0 0 0 2.444 2.174h8.735a.817.817 0 0 0 .816-.803c.04-3.209.516-19.546 2.563-30.008 2.376-12.159 5.024-31.19 6.347-38.857.437-2.535.817-5.445 1.129-8.205.005 0-.005.019.992 2.919z" fill="#fff"/><path d="M146.916 264.718h-8.735a2.82 2.82 0 0 1-2.802-2.494c-.122-1.043-.292-3.328-.507-6.22-.33-4.447-.781-10.537-1.306-15.253-1.317-11.847-.286-34.249.24-41.068.526-6.819 4.631-40.985 4.675-41.33a.36.36 0 0 1 .305-.317l32.822-4.935a.369.369 0 0 1 .364.174.35.35 0 0 1 .046.134c.018.118 1.653 11.923 2.955 16.865.261.999.747 2.526 1.36 4.461 2.43 7.655 6.952 21.903 7.377 34.212.518 15.02-3.168 52.037-3.209 52.408a1.178 1.178 0 0 1-1.171 1.059h-11.184a1.176 1.176 0 0 1-1.176-1.11c-.039-.695-.103-1.868-.183-3.392-.523-9.68-1.743-32.344-2.569-38.333-1.076-7.789-4.817-27.177-5.803-30.066-.191-.563-.348-1.019-.475-1.39-.305 2.535-.622 4.754-.95 6.621-.459 2.662-1.077 6.687-1.792 11.349-1.338 8.716-3.009 19.578-4.557 27.516-2.261 11.6-2.542 29.768-2.542 29.949-.005.31-.132.605-.354.822a1.174 1.174 0 0 1-.829.338zm-7.752-106.005c-.391 3.266-4.142 34.563-4.639 41.026-.523 6.801-1.552 29.136-.243 40.931.526 4.73.979 10.828 1.31 15.28.214 2.884.384 5.161.502 6.19a2.098 2.098 0 0 0 2.087 1.855h8.735a.458.458 0 0 0 .455-.447c0-.18.288-18.415 2.57-30.073 1.551-7.923 3.214-18.769 4.551-27.486.716-4.664 1.334-8.692 1.795-11.361.385-2.237.763-4.987 1.123-8.175v-.016a.36.36 0 0 1 .568-.246.367.367 0 0 1 .138.2c.014.046.128.401.979 2.895.993 2.911 4.752 22.387 5.834 30.201.83 6.022 2.059 28.704 2.575 38.391.081 1.525.144 2.694.184 3.392a.45.45 0 0 0 .455.424h11.184a.453.453 0 0 0 .453-.407c.036-.371 3.722-37.339 3.206-52.313-.422-12.202-4.925-26.396-7.343-34.017-.618-1.944-1.109-3.486-1.372-4.494-1.183-4.493-2.633-14.555-2.919-16.59l-32.188 4.84z" fill="#0F0F0F"/><path d="M157.982 188.979h-.04a.37.37 0 0 1-.241-.134.374.374 0 0 1-.076-.266c.22-1.958.393-3.732.517-5.06a9.095 9.095 0 0 1 1.135-3.616 9.086 9.086 0 0 1 2.508-2.841.357.357 0 0 1 .506.075.363.363 0 0 1-.075.506 8.381 8.381 0 0 0-3.355 5.944c-.125 1.33-.296 3.108-.52 5.071a.365.365 0 0 1-.118.23.363.363 0 0 1-.241.091zM138.763 173.559a.362.362 0 0 1 0-.722c4.095-.094 5.997-4.155 6.626-5.898a.364.364 0 0 1 .463-.218.364.364 0 0 1 .217.463c-.68 1.883-2.748 6.271-7.287 6.375h-.019zM173.571 172.9h-.041c-5.118-.58-4.972-6.457-4.971-6.518a.367.367 0 0 1 .374-.347.372.372 0 0 1 .252.114.371.371 0 0 1 .097.259c0 .215-.122 5.269 4.328 5.774a.362.362 0 0 1-.039.721v-.003zM147.135 125.285c-1.526.443-5.364.069-8.376 4.088-3.643 4.86-5.935 13.795-5.769 19.752.116 4.138-7.823 10.617-12.106 4.844-2.931-3.95-6.453-5.844-5.775-18.821.735-14.063 20.217-32.867 37.81-28.138l-5.784 18.275z" fill="#0F0F0F"/><path d="M125.541 121.407s11.354-20.452 38.027-14.993c26.674 5.459 10.793 57.194 10.793 57.194-9.545 2.765-23.442 1.862-38.597-.088l-10.223-42.113z" fill="#0F0F0F"/><path d="M130.755 147.81a.361.361 0 0 1-.355-.298c-.549-3.051.805-9.427 3.083-14.518a.354.354 0 0 1 .201-.189.364.364 0 0 1 .276.008.357.357 0 0 1 .19.201.37.37 0 0 1-.009.277c-2.485 5.546-3.484 11.527-3.031 14.094a.362.362 0 0 1-.16.368.365.365 0 0 1-.132.05.265.265 0 0 1-.063.007zM149.571 147.013a.365.365 0 0 1-.334-.238.363.363 0 0 1 .102-.396c4.793-4.005 9.094-9.459 12.436-15.771a.367.367 0 0 1 .211-.206.349.349 0 0 1 .15-.021.363.363 0 0 1 .33.425.369.369 0 0 1-.057.139c-3.387 6.395-7.747 11.924-12.612 15.988a.353.353 0 0 1-.226.08zM157.258 96.334l.996 7.924a2.538 2.538 0 0 0 1.993 2.047l2.828.578-1.742 1.476a11.242 11.242 0 0 1-13.592.741l-2.968-2.03 3.424-.96a2.534 2.534 0 0 0 1.835-2.13l.969-10.597 6.257 2.951z" fill="#fff"/><path d="M154.05 111.381a11.576 11.576 0 0 1-6.505-1.991l-2.981-2.02a.363.363 0 0 1-.066-.54.37.37 0 0 1 .172-.107l3.429-.96a2.173 2.173 0 0 0 1.573-1.827l.961-10.584a.362.362 0 0 1 .514-.295l6.263 2.95a.36.36 0 0 1 .204.281l.996 7.924a2.172 2.172 0 0 0 1.706 1.743l2.831.578a.365.365 0 0 1 .282.266.365.365 0 0 1-.124.368l-1.742 1.477a11.6 11.6 0 0 1-7.513 2.737zm-8.436-4.173 2.336 1.585a10.917 10.917 0 0 0 13.155-.716l1.172-.997-2.103-.43a2.885 2.885 0 0 1-2.277-2.337l-.974-7.738-5.616-2.645-.922 10.083a2.901 2.901 0 0 1-2.096 2.446l-2.675.749z" fill="#0F0F0F"/><path d="M165.691 84.79c-1.965-.909-.257 2.156-6.83-2.945-2.617-2.032-2.49 2.016-3.168 1.491-2.514-1.94-2.425-1.878-3.96-2.06-1.012-.12-2.281 1.336-2.609 2.669-.434 1.757.771 2.732.591 6.738-.125 2.813-.932 4.236-.084 4.987.847.751 2.133-.293 3.133.466 1.294.984 0 3.393 1.009 4.999.633 1.012 2.591 2.138 6.569 1.829a1.35 1.35 0 0 0 1.235-1.199c.092-.826.201-1.872.222-2.878.101-4.797-1.012-6.33-.043-7.201 1.484-1.334 4.245.856 5.305-.304 1.105-1.202 1.313-5.349-1.37-6.593z" fill="#0F0F0F"/><path d="m156.336 87.978.149 1.3c.071.614.099 1.23.084 1.847-.027 1.157-.06 3.147 0 4.264.098 1.64 5.181 1.688 5.181 1.688l.605-.75.596-.007a.64.64 0 0 0 .596-.381.639.639 0 0 0 .037-.396c-.317-1.426-.908-4.61-.576-7.12a6.942 6.942 0 0 0-6.672-.445z" fill="#fff"/><path d="M161.754 97.439c-.906-.01-5.426-.148-5.543-2.029-.068-1.138-.035-3.179-.008-4.294.014-.6-.013-1.2-.081-1.796l-.149-1.301a.358.358 0 0 1 .209-.37 7.242 7.242 0 0 1 7.039.475.362.362 0 0 1 .146.34c-.33 2.493.29 5.723.57 6.995a1.005 1.005 0 0 1-.475 1.08 1.037 1.037 0 0 1-.512.136h-.424l-.488.626a.364.364 0 0 1-.284.138zm-5.03-9.236.119 1.035c.071.63.1 1.266.085 1.901-.027 1.11-.06 3.122 0 4.235.052.862 2.744 1.302 4.651 1.345l.494-.612a.356.356 0 0 1 .277-.134l.596-.008a.303.303 0 0 0 .158-.035.276.276 0 0 0 .133-.301c-.348-1.585-.881-4.55-.608-7.022a6.552 6.552 0 0 0-5.905-.404z" fill="#0F0F0F"/><path d="M155.659 92.047s-.354-3.128-1.742-2.656c-1.387.473-.908 3.905 1.742 2.656zM140.967 148.304l41.528 140.097-2.864 1.024-42.121-140.607 3.457-.514z" fill="#fff"/><path d="M179.631 289.786a.361.361 0 0 1-.341-.258l-42.12-140.606a.36.36 0 0 1 .293-.461l3.456-.513a.363.363 0 0 1 .399.253l41.527 140.097a.36.36 0 0 1-.225.442l-2.862 1.024a.369.369 0 0 1-.127.022zM137.976 149.12l41.891 139.844 2.184-.782-41.341-139.467-2.734.405z" fill="#0F0F0F"/><path d="m137.371 148.407 3.423-.84a.792.792 0 0 1 .939.549l3.878 13.628a.791.791 0 0 1-.516.962l-2.872.913a.793.793 0 0 1-.984-.506l-4.435-13.706a.795.795 0 0 1 .567-1z" fill="#fff"/><path d="M141.987 164.017a1.158 1.158 0 0 1-1.092-.793l-4.427-13.706a1.13 1.13 0 0 1 .09-.91 1.128 1.128 0 0 1 .728-.554l3.422-.84a1.144 1.144 0 0 1 1.374.792l3.876 13.629a1.141 1.141 0 0 1-.754 1.404l-2.872.913a1.164 1.164 0 0 1-.345.065zm-1.006-16.114a.383.383 0 0 0-.101.013l-3.423.838a.434.434 0 0 0-.268.205.437.437 0 0 0-.052.164.437.437 0 0 0 .019.172l4.435 13.707a.422.422 0 0 0 .53.273l2.872-.913a.419.419 0 0 0 .277-.518l-3.876-13.629a.421.421 0 0 0-.413-.309v-.003z" fill="#0F0F0F"/><path d="m183.434 134.514 41.528 140.097-2.864 1.024-42.12-140.606 3.456-.515z" fill="#fff"/><path d="M222.098 275.996a.337.337 0 0 1-.158-.04.363.363 0 0 1-.187-.218l-42.12-140.606a.36.36 0 0 1 .293-.461l3.456-.514a.36.36 0 0 1 .397.254l41.528 140.097a.356.356 0 0 1-.228.437l-2.863 1.026a.401.401 0 0 1-.118.025zM180.44 135.324l41.891 139.843 2.184-.781-41.341-139.468-2.734.406z" fill="#0F0F0F"/><path d="m179.838 134.617 3.423-.838a.779.779 0 0 1 .94.546l3.875 13.629a.781.781 0 0 1-.516.962l-2.872.916a.784.784 0 0 1-.982-.506l-4.435-13.706a.788.788 0 0 1 .064-.626.777.777 0 0 1 .503-.377z" fill="#fff"/><path d="M184.454 150.23a1.15 1.15 0 0 1-1.091-.793l-4.435-13.706a1.14 1.14 0 0 1 .815-1.464l3.422-.84a1.141 1.141 0 0 1 1.373.792l3.877 13.629a1.139 1.139 0 0 1-.755 1.404l-2.872.913a1.15 1.15 0 0 1-.334.065zm-4.53-15.263a.426.426 0 0 0-.32.371.43.43 0 0 0 .019.171l4.435 13.706a.422.422 0 0 0 .529.273l2.872-.913a.424.424 0 0 0 .279-.518l-3.876-13.628a.422.422 0 0 0-.507-.295l-3.431.833z" fill="#0F0F0F"/><path d="M129.453 148.911c2.837 1.548 6.607 1.281 9.154 3.399 1.338 1.11 1.623 3 3.692 2.257.697-.249 1.389-.624 2.125-.564 1.005.082 1.805 1.024 1.919 2.025.114 1.002-.352 2.005-1.046 2.735-.448.473-.987.85-1.584 1.11-2.1.917-4.581.236-6.548-.94-1.498-.897-2.279-2.328-3.801-3.097-1.573-.792-3.54-.882-5.189-1.542-1.587-.643-.868-6.554 1.278-5.383z" fill="#fff"/><path d="M141.592 160.652c-1.452 0-3.044-.475-4.606-1.413-.747-.446-1.318-1.011-1.869-1.558-.594-.59-1.156-1.147-1.901-1.526-.831-.422-1.774-.634-2.771-.859a15.657 15.657 0 0 1-2.387-.669c-.579-.231-.951-.935-1.066-1.982-.159-1.48.258-3.39 1.213-4.027.301-.201.792-.368 1.425-.022 1.184.645 2.584.974 3.937 1.293 1.85.436 3.763.886 5.276 2.144.398.354.754.752 1.061 1.188.653.864 1.083 1.436 2.278 1.007.149-.054.297-.113.446-.173.575-.23 1.169-.467 1.831-.412 1.12.092 2.107 1.122 2.246 2.344.119 1.033-.297 2.136-1.142 3.025a5.224 5.224 0 0 1-1.696 1.188 5.626 5.626 0 0 1-2.275.452zM128.91 149.12a.536.536 0 0 0-.317.1c-.619.412-1.036 1.978-.895 3.35.078.734.317 1.268.616 1.385.741.27 1.502.482 2.276.634.998.224 2.029.456 2.942.919.849.43 1.478 1.054 2.086 1.658.521.515 1.058 1.049 1.729 1.45 2.234 1.334 4.5 1.67 6.219.919a4.538 4.538 0 0 0 1.462-1.024c.686-.722 1.041-1.637.95-2.445-.099-.878-.812-1.643-1.584-1.707-.489-.042-.982.159-1.503.365-.158.062-.317.123-.475.18-1.692.606-2.406-.337-3.098-1.25a6.243 6.243 0 0 0-.951-1.07c-1.381-1.148-3.128-1.559-4.978-1.995-1.4-.329-2.851-.672-4.118-1.363a.78.78 0 0 0-.361-.106z" fill="#0F0F0F"/><path d="m179.742 139.249 6.705-2.608c3.063 1.99 2.819 5.071 1.862 8.384l-7.077 1.864c-1.33-2.493-1.98-5.03-1.49-7.64z" fill="#fff"/><path d="M181.232 147.25a.357.357 0 0 1-.316-.19c-1.496-2.805-1.995-5.388-1.526-7.877a.358.358 0 0 1 .223-.27l6.707-2.608a.352.352 0 0 1 .326.033c3.377 2.193 2.913 5.673 2.013 8.789a.365.365 0 0 1-.255.249l-7.078 1.863a.331.331 0 0 1-.094.011zm-1.17-7.738c-.363 2.195.082 4.474 1.356 6.955l6.602-1.743c.81-2.887 1.127-5.79-1.618-7.684l-6.34 2.472z" fill="#0F0F0F"/><path d="M134.853 137.945c1.086-11.736 1.791-22.84-.56-28.884l9.127-2.236c-.521 10.918-3.57 21.243-8.567 31.12z" fill="#fff"/><path d="M134.853 138.306a.363.363 0 0 1-.36-.394c1.035-11.176 1.846-22.596-.535-28.72a.35.35 0 0 1-.024-.15.348.348 0 0 1 .04-.148.342.342 0 0 1 .097-.117.336.336 0 0 1 .137-.066l9.127-2.236a.358.358 0 0 1 .417.203.358.358 0 0 1 .031.164c-.499 10.447-3.396 20.966-8.607 31.266a.358.358 0 0 1-.323.198zm-.079-29c2.13 5.979 1.542 16.331.614 26.73 4.609-9.577 7.117-19.014 7.643-28.752l-8.257 2.022z" fill="#0F0F0F"/><path d="M166.89 107.384c3.679 7.176 7.162 18.89 10.612 31.306-.108-10.974-.532-20.974-2.235-27.021-1.983-2.288-4.88-3.611-8.377-4.285z" fill="#fff"/><path d="M177.505 139.051a.36.36 0 0 1-.347-.265c-3.114-11.192-6.755-23.759-10.59-31.237a.36.36 0 0 1 .033-.382.356.356 0 0 1 .357-.138c3.841.74 6.652 2.181 8.585 4.404.035.04.061.087.076.138 1.81 6.426 2.152 17.313 2.249 27.116a.365.365 0 0 1-.317.361l-.046.003zm-9.958-31.162c3.439 6.987 6.703 17.866 9.564 28.05-.136-8.941-.562-18.332-2.165-24.088-1.7-1.928-4.127-3.226-7.399-3.962z" fill="#0F0F0F"/></g><defs><clipPath id="a"><path fill="#fff" d="M0 0h300v290H0z"/></clipPath></defs></svg>