<svg width="300" height="288" viewBox="0 0 300 288" fill="none" xmlns="http://www.w3.org/2000/svg">
<g clip-path="url(#clip0_138_3660)">
<path d="M251.983 219.456L258.957 239.685L268.7 239.183L261.741 216.82L251.983 219.456Z" fill="white"/>
<path d="M258.957 240.05C258.881 240.05 258.808 240.026 258.746 239.982C258.684 239.938 258.637 239.876 258.612 239.805L251.638 219.574C251.621 219.527 251.614 219.476 251.618 219.426C251.622 219.376 251.636 219.328 251.659 219.283C251.683 219.239 251.715 219.2 251.755 219.169C251.794 219.137 251.84 219.115 251.888 219.102L261.645 216.466C261.736 216.442 261.833 216.454 261.916 216.499C261.999 216.544 262.061 216.62 262.089 216.71L269.048 239.075C269.065 239.128 269.069 239.184 269.06 239.239C269.052 239.293 269.031 239.345 268.999 239.391C268.967 239.436 268.925 239.474 268.877 239.501C268.828 239.528 268.774 239.544 268.719 239.547L258.976 240.049L258.957 240.05ZM252.455 219.706L259.213 239.308L268.212 238.843L261.497 217.264L252.455 219.706Z" fill="#0F0F0F"/>
<path d="M211.644 222.02L209.21 239.183H203.943L203.65 222.303L211.644 222.02Z" fill="white"/>
<path d="M209.21 239.548H203.943C203.848 239.548 203.756 239.511 203.688 239.444C203.62 239.377 203.581 239.286 203.58 239.191L203.286 222.309C203.284 222.214 203.32 222.121 203.386 222.052C203.452 221.983 203.542 221.942 203.638 221.939L211.632 221.656C211.685 221.652 211.739 221.661 211.788 221.682C211.837 221.703 211.881 221.735 211.915 221.776C211.951 221.815 211.978 221.863 211.994 221.914C212.009 221.965 212.014 222.019 212.007 222.072L209.573 239.235C209.56 239.322 209.517 239.402 209.45 239.459C209.383 239.517 209.298 239.548 209.21 239.548ZM204.303 238.82H208.894L211.222 222.401L204.022 222.655L204.303 238.82Z" fill="#0F0F0F"/>
<path d="M251.866 109.091C251.866 109.091 259.942 161.497 260.263 174.013C260.585 186.529 266.683 227.441 266.683 227.441C266.683 227.441 259.684 230.831 254.593 230.804C254.593 230.804 227.668 158.082 225.887 137.522C224.105 116.963 230.062 107.55 230.062 107.55L251.866 109.091Z" fill="#0F0F0F"/>
<path d="M243.967 105.828C243.967 105.828 213.128 197.156 212.679 231.294C212.679 231.294 210.801 232.534 202.124 231.11C202.124 231.11 195.871 130.22 211.892 103.963L243.967 105.828Z" fill="#0F0F0F"/>
<path d="M255.972 237.343C255.688 239.359 255.23 243.1 255.184 246.456C255.176 247.47 255.54 248.453 256.207 249.218C256.875 249.983 257.8 250.477 258.808 250.607C264.687 251.364 278.028 252.194 289.384 251.158C290.163 251.087 291.538 250.517 291.921 248.568C293.207 242.016 281.863 240.411 269.426 235.663C269.187 235.57 268.926 235.548 268.675 235.599C268.423 235.651 268.192 235.773 268.008 235.952L266.668 237.257C266.013 237.895 265.185 238.326 264.286 238.494C263.387 238.662 262.458 238.56 261.617 238.201L257.538 236.453C257.377 236.387 257.204 236.359 257.03 236.37C256.857 236.381 256.689 236.432 256.538 236.518C256.387 236.603 256.258 236.722 256.16 236.865C256.062 237.008 255.997 237.172 255.972 237.343Z" fill="white"/>
<path d="M277.562 252.013C269.929 252.013 262.808 251.489 258.775 250.969C257.677 250.829 256.669 250.292 255.941 249.459C255.213 248.627 254.817 247.556 254.826 246.451C254.864 243.053 255.334 239.254 255.614 237.292C255.646 237.061 255.731 236.84 255.863 236.647C255.994 236.454 256.168 236.295 256.372 236.18C256.573 236.066 256.798 235.999 257.03 235.987C257.261 235.974 257.492 236.016 257.705 236.108L261.784 237.857C262.558 238.189 263.413 238.284 264.242 238.13C265.07 237.976 265.834 237.579 266.436 236.991L267.777 235.686C268.011 235.46 268.304 235.306 268.623 235.24C268.941 235.175 269.272 235.202 269.576 235.318C272.481 236.42 275.271 237.348 277.972 238.237C286.897 241.18 293.345 243.305 292.299 248.637C291.912 250.609 290.516 251.422 289.436 251.522C285.575 251.873 281.499 252.013 277.562 252.013ZM257.106 236.716C256.973 236.715 256.842 236.75 256.726 236.816C256.621 236.876 256.53 236.959 256.462 237.059C256.394 237.159 256.349 237.274 256.333 237.394C256.058 239.339 255.594 243.102 255.556 246.46C255.55 247.385 255.884 248.28 256.493 248.975C257.103 249.671 257.946 250.12 258.864 250.237C264.947 251.024 278.085 251.811 289.362 250.787C289.662 250.76 291.176 250.521 291.568 248.489C292.49 243.788 286.298 241.747 277.728 238.924C275.021 238.03 272.213 237.107 269.3 235.992C269.127 235.925 268.938 235.91 268.756 235.947C268.574 235.984 268.407 236.072 268.273 236.201L266.932 237.506C266.227 238.195 265.332 238.659 264.362 238.839C263.392 239.02 262.39 238.908 261.483 238.519L257.404 236.771C257.309 236.733 257.208 236.714 257.106 236.716Z" fill="#0F0F0F"/>
<path d="M255.2 245.95C255.2 245.95 255.2 246.292 255.2 246.456C255.191 247.47 255.556 248.453 256.223 249.218C256.891 249.983 257.816 250.477 258.823 250.607C264.703 251.364 278.044 252.194 289.4 251.158C290.179 251.087 291.554 250.518 291.937 248.568C292.055 247.97 291.982 246.89 291.982 246.89L291.176 246.931C279.696 247.5 268.19 247.223 256.752 246.103L255.2 245.95Z" fill="white"/>
<path d="M277.562 252.013C269.929 252.013 262.808 251.489 258.775 250.969C257.677 250.83 256.668 250.293 255.941 249.46C255.213 248.627 254.816 247.556 254.826 246.451C254.826 246.294 254.826 245.944 254.826 245.944C254.828 245.894 254.839 245.844 254.861 245.799C254.882 245.753 254.912 245.712 254.949 245.678C254.987 245.645 255.031 245.62 255.079 245.604C255.127 245.589 255.178 245.583 255.228 245.588L256.777 245.746C268.199 246.862 279.687 247.138 291.149 246.572L291.954 246.533C292.002 246.529 292.05 246.535 292.095 246.55C292.141 246.565 292.182 246.589 292.218 246.621C292.254 246.653 292.283 246.691 292.303 246.735C292.324 246.778 292.335 246.825 292.337 246.873C292.337 246.918 292.411 248.006 292.286 248.643C291.899 250.615 290.503 251.429 289.424 251.528C285.575 251.873 281.499 252.013 277.562 252.013ZM255.558 246.347C255.558 246.386 255.558 246.423 255.558 246.452C255.55 247.379 255.882 248.275 256.492 248.973C257.102 249.671 257.946 250.121 258.866 250.239C264.949 251.026 278.087 251.813 289.364 250.788C289.663 250.761 291.177 250.522 291.57 248.49C291.626 248.085 291.644 247.676 291.625 247.268L291.185 247.288C279.687 247.855 268.163 247.579 256.706 246.46L255.558 246.347Z" fill="#0F0F0F"/>
<path d="M272.292 243.097C272.218 243.099 272.145 243.079 272.083 243.039C272.021 242.998 271.973 242.94 271.945 242.872C271.917 242.803 271.91 242.728 271.926 242.656C271.942 242.584 271.98 242.518 272.034 242.468L276.398 238.082C276.467 238.016 276.559 237.979 276.654 237.98C276.75 237.981 276.841 238.019 276.908 238.086C276.976 238.153 277.015 238.244 277.016 238.34C277.018 238.435 276.982 238.527 276.916 238.596L272.557 242.99C272.522 243.025 272.481 243.052 272.435 243.071C272.39 243.089 272.341 243.098 272.292 243.097Z" fill="#0F0F0F"/>
<path d="M276.579 243.552C276.507 243.552 276.437 243.532 276.377 243.492C276.317 243.453 276.27 243.397 276.242 243.331C276.214 243.265 276.206 243.192 276.219 243.122C276.232 243.051 276.266 242.987 276.316 242.935L279.802 239.297C279.871 239.233 279.961 239.198 280.054 239.198C280.148 239.198 280.237 239.235 280.305 239.299C280.372 239.364 280.413 239.451 280.417 239.545C280.422 239.638 280.391 239.729 280.33 239.8L276.844 243.44C276.809 243.476 276.768 243.504 276.723 243.523C276.677 243.542 276.628 243.552 276.579 243.552Z" fill="#0F0F0F"/>
<path d="M202.379 255.895C199.252 255.377 197.495 253.122 197.394 251.174C197.108 245.398 198.626 239.909 201.473 236.182C201.546 236.089 201.64 236.014 201.748 235.965C201.856 235.915 201.974 235.893 202.093 235.899C202.211 235.905 202.326 235.939 202.429 235.999C202.531 236.059 202.617 236.143 202.68 236.243L202.754 236.311C202.993 236.523 203.303 236.639 203.623 236.637C203.943 236.634 204.251 236.513 204.487 236.297C204.913 235.934 205.452 235.73 206.012 235.721L206.808 235.71C207.255 235.712 207.695 235.826 208.086 236.042C208.478 236.258 208.809 236.57 209.048 236.947C209.102 237.025 209.174 237.091 209.257 237.138C209.34 237.185 209.432 237.212 209.528 237.218C209.623 237.224 209.718 237.208 209.807 237.172C209.895 237.135 209.974 237.08 210.037 237.008L210.488 236.5C210.556 236.434 210.643 236.389 210.736 236.371C210.83 236.353 210.926 236.363 211.014 236.399C211.102 236.435 211.178 236.496 211.232 236.574C211.286 236.653 211.316 236.745 211.318 236.84L211.807 252.642C211.564 255.738 206.472 256.566 202.379 255.895Z" fill="white"/>
<path d="M205.059 256.471C204.141 256.471 203.225 256.397 202.319 256.249C198.984 255.698 197.133 253.289 197.03 251.193C196.74 245.346 198.254 239.795 201.183 235.962C201.289 235.82 201.428 235.707 201.588 235.632C201.749 235.557 201.925 235.523 202.102 235.534C202.271 235.541 202.437 235.588 202.586 235.67C202.734 235.751 202.862 235.867 202.959 236.006L203 236.044C203.173 236.194 203.396 236.276 203.626 236.271C203.856 236.267 204.076 236.178 204.244 236.022C204.735 235.603 205.356 235.369 206.001 235.359L206.789 235.346C207.299 235.35 207.8 235.48 208.246 235.726C208.693 235.972 209.071 236.326 209.346 236.755C209.365 236.785 209.391 236.81 209.421 236.828C209.452 236.846 209.487 236.857 209.522 236.859C209.565 236.861 209.607 236.854 209.647 236.838C209.687 236.823 209.723 236.798 209.752 236.768L210.203 236.259C210.32 236.139 210.47 236.055 210.634 236.019C210.798 235.984 210.97 235.997 211.126 236.058C211.283 236.119 211.418 236.225 211.515 236.362C211.611 236.5 211.665 236.663 211.67 236.83L212.158 252.631C212.159 252.644 212.159 252.657 212.158 252.67C212.087 253.577 211.652 254.351 210.863 254.97C209.499 256.043 207.255 256.471 205.059 256.471ZM202.439 255.527C205.117 255.971 208.632 255.791 210.42 254.391C211.036 253.907 211.378 253.316 211.436 252.63L210.956 236.853C210.956 236.828 210.949 236.803 210.935 236.783C210.921 236.762 210.9 236.746 210.877 236.738C210.855 236.728 210.831 236.725 210.807 236.73C210.783 236.734 210.762 236.746 210.745 236.763L210.315 237.251C210.211 237.367 210.081 237.459 209.936 237.517C209.791 237.575 209.634 237.599 209.478 237.586C209.329 237.575 209.185 237.529 209.057 237.452C208.929 237.375 208.821 237.269 208.742 237.142C208.538 236.823 208.257 236.558 207.926 236.373C207.595 236.187 207.224 236.085 206.844 236.077H206.816L206.02 236.088C205.545 236.096 205.088 236.269 204.726 236.577C204.423 236.849 204.031 236.999 203.624 236.999C203.217 236.999 202.824 236.849 202.521 236.577L202.445 236.509C202.421 236.487 202.401 236.462 202.384 236.434C202.352 236.383 202.309 236.341 202.258 236.31C202.207 236.28 202.149 236.263 202.089 236.259C202.03 236.256 201.97 236.267 201.916 236.292C201.861 236.317 201.814 236.354 201.777 236.401C198.951 240.099 197.49 245.477 197.772 251.153C197.848 252.96 199.485 255.042 202.439 255.53V255.527Z" fill="#0F0F0F"/>
<path d="M211.671 248.413C211.584 248.76 211.434 249.088 211.23 249.381C210.526 250.368 208.604 252.297 204.498 251.962C199.636 251.564 197.408 248.163 197.408 248.163C197.349 249.166 197.344 250.171 197.394 251.174C197.49 253.117 199.252 255.373 202.379 255.895C206.475 256.57 211.564 255.738 211.802 252.647L211.671 248.413Z" fill="white"/>
<path d="M205.059 256.471C204.141 256.471 203.225 256.397 202.319 256.249C198.984 255.698 197.133 253.289 197.03 251.193C196.98 250.176 196.984 249.157 197.044 248.141C197.048 248.064 197.076 247.991 197.125 247.932C197.173 247.872 197.24 247.83 197.314 247.811C197.389 247.791 197.468 247.796 197.539 247.824C197.611 247.852 197.672 247.903 197.714 247.968C197.734 247.999 199.92 251.226 204.528 251.603C208.364 251.918 210.189 250.215 210.932 249.173C211.112 248.917 211.242 248.63 211.317 248.327C211.339 248.242 211.391 248.169 211.464 248.119C211.536 248.069 211.623 248.047 211.71 248.056C211.798 248.065 211.879 248.106 211.939 248.17C211.999 248.235 212.033 248.319 212.035 248.407L212.166 252.634C212.167 252.647 212.167 252.66 212.166 252.673C212.095 253.58 211.66 254.354 210.871 254.973C209.498 256.043 207.255 256.471 205.059 256.471ZM197.733 249.14C197.717 249.812 197.733 250.486 197.76 251.156C197.848 252.96 199.493 255.042 202.439 255.53C205.117 255.974 208.632 255.794 210.42 254.394C211.036 253.91 211.378 253.319 211.436 252.633L211.35 249.828C210.532 250.846 208.492 252.651 204.468 252.326C200.909 252.035 198.725 250.212 197.733 249.14Z" fill="#0F0F0F"/>
<path d="M208.32 244.396H202.672C202.575 244.396 202.482 244.357 202.414 244.289C202.345 244.22 202.307 244.127 202.307 244.03C202.307 243.934 202.345 243.841 202.414 243.772C202.482 243.704 202.575 243.665 202.672 243.665H208.32C208.417 243.665 208.51 243.704 208.579 243.772C208.647 243.841 208.686 243.934 208.686 244.03C208.686 244.127 208.647 244.22 208.579 244.289C208.51 244.357 208.417 244.396 208.32 244.396Z" fill="#0F0F0F"/>
<path d="M208.908 241.533H203.258C203.165 241.527 203.079 241.486 203.015 241.418C202.952 241.35 202.917 241.261 202.917 241.169C202.917 241.076 202.952 240.987 203.015 240.919C203.079 240.851 203.165 240.81 203.258 240.804H208.908C209 240.81 209.087 240.851 209.15 240.919C209.214 240.987 209.249 241.076 209.249 241.169C209.249 241.261 209.214 241.35 209.15 241.418C209.087 241.486 209 241.527 208.908 241.533Z" fill="#0F0F0F"/>
<path d="M285.948 33.0255C287.606 30.9403 286.753 28.2098 287.47 25.8979C287.529 25.7106 287.584 25.4997 287.492 25.3282C287.401 25.1566 287.191 25.0827 287.002 25.0276C285.457 24.5759 283.87 24.14 282.263 24.2407C281.964 24.2486 281.667 24.3016 281.383 24.3981C280.973 24.5537 280.63 24.8469 280.412 25.2275C280.255 25.5422 280.355 26.093 280.395 26.422C280.521 27.489 280.036 28.2349 278.422 25.7389C276.809 23.2429 274.715 25.0402 275.662 25.9231C276.609 26.806 278.312 30.3296 278.944 31.3054C279.172 31.6579 279.878 32.0923 280.677 32.492C280.699 35.8282 280.045 39.1343 278.755 42.2116C276.801 46.818 273.732 49.986 271.193 52.0178C273.266 55.6374 277.784 61.569 285.529 62.562C287.828 57.9902 289.06 52.9574 289.133 47.8418C289.205 42.7262 288.117 37.6606 285.948 33.0255Z" fill="white"/>
<path d="M285.543 62.9208H285.496C277.54 61.9058 272.929 55.7681 270.887 52.1987C270.842 52.1225 270.826 52.0327 270.843 51.9458C270.859 51.859 270.907 51.7811 270.977 51.7266C274.345 49.026 276.85 45.7746 278.424 42.0637C279.669 39.1018 280.312 35.9218 280.314 32.7092C279.111 32.0797 278.777 31.7208 278.632 31.4974C278.424 31.1826 278.109 30.5988 277.745 29.9315C277.012 28.5859 276.012 26.743 275.408 26.1827C275.256 26.0467 275.146 25.8692 275.092 25.6719C275.039 25.4746 275.044 25.2661 275.107 25.0717C275.205 24.8127 275.373 24.5859 275.591 24.4164C275.81 24.2469 276.072 24.1414 276.347 24.1117C276.751 24.0582 277.787 24.0896 278.723 25.5281C279.486 26.7084 279.88 26.9681 280.006 27.0247C280.051 26.8372 280.059 26.6424 280.028 26.4519L280.01 26.3212C279.96 25.9388 279.892 25.4163 280.084 25.0465C280.343 24.5857 280.756 24.2307 281.25 24.044C281.568 23.9339 281.9 23.8724 282.236 23.8614C283.851 23.7654 285.387 24.1762 287.1 24.6672C287.289 24.7223 287.639 24.8246 287.809 25.1393C287.979 25.4541 287.872 25.8019 287.809 25.9876C287.547 26.8343 287.506 27.7361 287.462 28.6913C287.395 30.1817 287.325 31.7193 286.36 33.0538C290.676 42.4492 290.492 53.5129 285.859 62.7021C285.831 62.7642 285.788 62.8175 285.732 62.8561C285.676 62.8947 285.611 62.9171 285.543 62.9208ZM271.679 52.1028C273.702 55.543 278.043 61.1142 285.337 62.1591C289.789 53.1509 289.906 42.3296 285.619 33.1797C285.59 33.1183 285.579 33.0501 285.588 32.9828C285.596 32.9155 285.622 32.8518 285.665 32.7989C286.61 31.6075 286.675 30.1833 286.744 28.6756C286.788 27.7172 286.832 26.7241 287.122 25.7893C287.164 25.6987 287.18 25.5989 287.171 25.4997C287.154 25.4667 287.062 25.4258 286.9 25.377C285.263 24.9048 283.784 24.513 282.287 24.5995C282.024 24.6085 281.763 24.6551 281.513 24.738C281.182 24.8631 280.903 25.0988 280.726 25.4053C280.645 25.5627 280.704 26.0002 280.735 26.2363L280.752 26.3779C280.841 27.1144 280.667 27.5991 280.267 27.7424C279.716 27.9422 279.048 27.3851 278.11 25.9357C277.611 25.1645 277.008 24.7632 276.443 24.834C276.305 24.8452 276.173 24.8938 276.06 24.9744C275.947 25.0551 275.859 25.1649 275.804 25.292C275.781 25.3545 275.779 25.4226 275.797 25.4865C275.816 25.5503 275.854 25.6068 275.906 25.6477C276.595 26.2898 277.589 28.1138 278.386 29.5821C278.744 30.2368 279.051 30.8018 279.245 31.1008C279.319 31.2157 279.624 31.5477 280.844 32.1599C280.904 32.1901 280.955 32.2364 280.99 32.2936C281.025 32.3509 281.044 32.4169 281.044 32.4841C281.071 35.8704 280.407 39.2268 279.093 42.3485C277.513 46.0862 275.018 49.366 271.676 52.1028H271.679Z" fill="#0F0F0F"/>
<path d="M271.205 52.0164C270.01 52.9693 268.746 53.8335 267.424 54.6021C255.094 61.917 243.817 54.2873 223.618 54.8287C216.232 55.027 205.399 56.3757 192.228 62.0869C192.228 62.0869 171.043 72.6847 172.291 97.3913C172.514 101.823 174.947 105.087 178.419 107.493C183.202 101.513 188.516 98.5354 192.253 97.0687C192.227 96.787 192.209 96.5006 192.203 96.2063C192.066 88.8914 197.591 85.673 202.477 82.1619C203.683 88.9653 202.431 92.3914 203.81 107.048C204.504 114.445 205.246 115.527 205.96 116.251C210.657 121.028 218.668 114.635 237.384 114.35C246.269 114.215 252.128 115.538 253.793 112.462C254.993 110.249 252.994 107.633 251.534 103.786C249.73 99.0343 248.48 91.699 251.617 80.8211C264.078 82.2013 276.31 76.6112 283.325 66.3188C284.149 65.1101 284.891 63.8483 285.548 62.5417C277.797 61.5676 273.278 55.6423 271.205 52.0164Z" fill="white"/>
<path d="M210.608 118.39C208.627 118.39 207.05 117.886 205.695 116.501C204.868 115.659 204.128 114.371 203.441 107.076C202.929 101.846 202.684 96.5934 202.708 91.3384C202.699 88.1421 202.692 85.7799 202.209 82.7897L201.438 83.3358C197.014 86.4582 192.441 89.686 192.564 96.1919C192.564 96.4626 192.584 96.7349 192.613 97.026C192.62 97.1048 192.602 97.1839 192.56 97.2512C192.519 97.3186 192.456 97.3705 192.383 97.399C188.773 98.8154 183.47 101.755 178.7 107.714C178.642 107.786 178.558 107.833 178.466 107.847C178.374 107.86 178.281 107.837 178.205 107.784C174.246 105.04 172.131 101.546 171.922 97.3974C171.27 84.5114 176.779 75.5063 181.515 70.22C186.642 64.4962 192.006 61.7767 192.06 61.75C202.588 57.186 213.196 54.731 223.604 54.454C231.465 54.2431 237.98 55.266 243.724 56.1662C252.704 57.5826 259.794 58.6843 267.232 54.2777C268.542 53.5215 269.795 52.6704 270.981 51.7313C271.022 51.6984 271.07 51.6748 271.121 51.662C271.172 51.6493 271.226 51.6477 271.277 51.6574C271.329 51.6671 271.378 51.6879 271.421 51.7183C271.464 51.7487 271.5 51.7881 271.526 51.8336C273.5 55.2849 277.951 61.2196 285.594 62.1938C285.652 62.2012 285.707 62.2223 285.755 62.2555C285.803 62.2886 285.843 62.3327 285.87 62.3842C285.897 62.4357 285.912 62.493 285.913 62.5513C285.914 62.6096 285.9 62.6673 285.874 62.7194C285.209 64.0377 284.458 65.3115 283.628 66.5327C276.566 76.8912 264.427 82.5049 251.883 81.2238C249.47 89.7694 249.467 97.3172 251.883 103.664C252.269 104.681 252.687 105.595 253.089 106.48C254.206 108.928 255.088 110.863 254.122 112.644C252.796 115.09 249.23 114.978 243.834 114.808C241.926 114.747 239.763 114.679 237.397 114.715C229.085 114.841 222.769 116.206 218.156 117.2C215.082 117.861 212.634 118.39 210.608 118.39ZM202.472 81.7967C202.519 81.7962 202.566 81.8053 202.609 81.8234C202.666 81.8466 202.716 81.8839 202.755 81.9318C202.794 81.9797 202.82 82.0366 202.831 82.0972C203.422 85.4289 203.428 87.9108 203.438 91.3447C203.414 96.5766 203.658 101.806 204.169 107.013C204.832 114.061 205.516 115.283 206.217 115.996C208.678 118.499 212.183 117.742 217.992 116.487C222.633 115.485 228.99 114.114 237.37 113.985C239.755 113.949 241.925 114.018 243.841 114.078C248.966 114.235 252.348 114.347 253.464 112.296C254.251 110.834 253.481 109.135 252.408 106.788C252.021 105.935 251.579 104.969 251.185 103.93C248.69 97.3597 248.715 89.5553 251.258 80.7344C251.282 80.6517 251.334 80.5801 251.405 80.5323C251.477 80.4844 251.563 80.4635 251.649 80.4731C264.029 81.8423 276.05 76.3483 283.016 66.1282C283.734 65.0744 284.39 63.9798 284.981 62.85C277.598 61.6791 273.187 56.0891 271.101 52.5639C269.989 53.4262 268.821 54.2147 267.605 54.9245C259.944 59.4696 252.736 58.338 243.611 56.9059C237.898 56.0104 231.42 54.9906 223.624 55.2015C213.31 55.4769 202.793 57.9084 192.368 62.4283C192.334 62.4471 187.075 65.1178 182.04 70.7456C177.405 75.9281 172.013 84.7522 172.651 97.3801C172.844 101.19 174.759 104.427 178.345 107.005C183.049 101.237 188.234 98.3008 191.863 96.8372C191.847 96.6279 191.837 96.4249 191.833 96.2218C191.704 89.3287 196.438 85.9923 201.016 82.7551C201.432 82.4608 201.848 82.1681 202.259 81.8722C202.32 81.8255 202.395 81.7991 202.472 81.7967Z" fill="#0F0F0F"/>
<path d="M221.058 108.513L218.389 107.973C219.506 108.057 220.133 106.881 220.133 106.881L211.89 105.649L205.628 108.375C202.792 107.806 193.044 105.257 192.249 97.0686C188.512 98.5354 183.198 101.519 178.414 107.493C186.186 112.88 199.176 113.96 204.348 114.175C207.89 116.091 213.837 111.196 216.101 112.13C218.515 113.123 218.414 111.843 218.414 111.843L217.267 110.724C219.029 111.373 219.63 110.095 219.63 110.095L218.195 109.505C220.461 109.865 221.058 108.513 221.058 108.513Z" fill="white"/>
<path d="M206.288 114.991C205.582 115.005 204.883 114.849 204.251 114.536C198.954 114.309 186.002 113.197 178.205 107.792C178.164 107.764 178.129 107.727 178.103 107.685C178.076 107.642 178.059 107.595 178.052 107.545C178.045 107.496 178.048 107.445 178.062 107.397C178.075 107.349 178.098 107.304 178.129 107.265C183.001 101.183 188.423 98.1782 192.116 96.7209C192.168 96.7014 192.223 96.6938 192.277 96.6987C192.332 96.7036 192.385 96.7209 192.431 96.7492C192.48 96.7786 192.52 96.8188 192.551 96.8666C192.581 96.9144 192.599 96.9685 192.605 97.0246C193.363 104.827 202.578 107.366 205.579 107.988L211.736 105.312C211.799 105.286 211.868 105.277 211.936 105.287L220.179 106.518C220.236 106.527 220.291 106.549 220.338 106.584C220.386 106.618 220.424 106.663 220.45 106.716C220.476 106.768 220.49 106.825 220.489 106.884C220.488 106.942 220.474 106.999 220.447 107.051C220.267 107.367 220.03 107.646 219.749 107.876L221.122 108.153C221.176 108.164 221.226 108.186 221.27 108.219C221.313 108.252 221.349 108.294 221.374 108.343C221.399 108.391 221.413 108.445 221.415 108.499C221.417 108.554 221.406 108.608 221.384 108.658C221.363 108.705 220.992 109.511 219.854 109.816C219.901 109.856 219.937 109.907 219.96 109.964C219.978 110.01 219.986 110.059 219.985 110.108C219.983 110.158 219.971 110.206 219.95 110.251C219.795 110.547 219.565 110.797 219.281 110.975C218.998 111.153 218.673 111.253 218.339 111.264L218.654 111.579C218.717 111.641 218.756 111.724 218.762 111.812C218.771 111.973 218.739 112.134 218.67 112.279C218.601 112.425 218.497 112.552 218.367 112.647C217.886 112.997 217.094 112.937 215.947 112.465C215.12 112.123 213.503 112.78 211.791 113.471C210.011 114.198 208.052 114.991 206.288 114.991ZM178.947 107.415C186.667 112.547 199.255 113.598 204.364 113.81C204.419 113.813 204.473 113.828 204.522 113.855C206.403 114.871 209.128 113.768 211.533 112.795C213.467 112.008 215.137 111.338 216.242 111.791C217.474 112.3 217.863 112.123 217.954 112.059C217.985 112.036 218.009 112.006 218.025 111.971L217.012 110.984C216.953 110.925 216.916 110.849 216.906 110.766C216.897 110.683 216.916 110.6 216.96 110.53C217.005 110.459 217.072 110.406 217.151 110.379C217.229 110.352 217.315 110.353 217.393 110.381C218.268 110.696 218.778 110.482 219.046 110.252L218.053 109.845C217.971 109.81 217.904 109.747 217.865 109.667C217.826 109.586 217.817 109.495 217.841 109.409C217.864 109.322 217.919 109.248 217.995 109.199C218.071 109.151 218.162 109.132 218.25 109.147C219.402 109.328 220.053 109.031 220.396 108.751L218.316 108.331C218.227 108.31 218.149 108.258 218.097 108.182C218.044 108.107 218.022 108.015 218.035 107.925C218.047 107.834 218.093 107.751 218.164 107.693C218.234 107.635 218.324 107.605 218.416 107.61C218.615 107.616 218.813 107.578 218.996 107.499C219.179 107.419 219.342 107.301 219.474 107.152L211.939 106.025L205.773 108.71C205.704 108.74 205.628 108.748 205.555 108.733C202.612 108.14 193.081 105.605 191.943 97.5849C188.417 99.0359 183.462 101.895 178.947 107.415Z" fill="#0F0F0F"/>
<path d="M218.389 108.338C218.371 108.34 218.353 108.34 218.335 108.338L212.675 107.489C212.627 107.483 212.58 107.467 212.538 107.443C212.496 107.419 212.459 107.386 212.43 107.348C212.401 107.309 212.379 107.265 212.367 107.218C212.355 107.171 212.353 107.123 212.36 107.075C212.373 106.978 212.425 106.891 212.502 106.832C212.58 106.773 212.677 106.747 212.774 106.76L218.435 107.602C218.525 107.616 218.606 107.664 218.663 107.736C218.72 107.808 218.747 107.898 218.741 107.989C218.734 108.08 218.693 108.166 218.627 108.228C218.56 108.291 218.473 108.326 218.381 108.327L218.389 108.338Z" fill="#0F0F0F"/>
<path d="M218.194 109.871C218.174 109.873 218.155 109.873 218.135 109.871L213.004 109.062C212.908 109.047 212.823 108.995 212.766 108.916C212.71 108.838 212.686 108.741 212.701 108.645C212.717 108.55 212.769 108.465 212.848 108.408C212.926 108.351 213.023 108.328 213.119 108.343L218.247 109.154C218.34 109.166 218.424 109.213 218.483 109.285C218.542 109.357 218.57 109.45 218.563 109.543C218.556 109.636 218.513 109.722 218.444 109.784C218.374 109.847 218.284 109.88 218.19 109.878L218.194 109.871Z" fill="#0F0F0F"/>
<path d="M217.267 111.088C217.249 111.089 217.232 111.089 217.214 111.088L213.01 110.458C212.962 110.452 212.916 110.436 212.874 110.412C212.833 110.388 212.796 110.355 212.767 110.317C212.737 110.278 212.716 110.234 212.704 110.188C212.691 110.141 212.689 110.092 212.695 110.044C212.709 109.948 212.76 109.86 212.838 109.801C212.916 109.742 213.014 109.717 213.111 109.73L217.313 110.359C217.403 110.374 217.485 110.422 217.541 110.493C217.598 110.565 217.626 110.655 217.619 110.746C217.612 110.838 217.572 110.923 217.505 110.985C217.439 111.048 217.351 111.083 217.259 111.085L217.267 111.088Z" fill="#0F0F0F"/>
<path d="M218.896 29.7442L218.581 28.0131C218.581 28.0131 220.736 22.8952 229.253 24.0944C231.851 24.1133 234.865 26.0002 235.543 30.4839C236.072 35.1438 238.152 39.6212 238.443 40.4711C238.735 41.3209 238.769 41.6844 238.128 41.9205C237.487 42.1566 237.08 42.0558 236.831 42.7908C236.583 43.5257 236.23 43.8846 235.629 44.0734C235.029 44.2623 232.223 45.6472 230.876 45.0035C229.529 44.3598 228.198 40.896 228.341 39.5913C228.485 38.2867 227.661 31.6784 224.288 30.849C220.914 30.0197 218.896 29.7442 218.896 29.7442Z" fill="white"/>
<path d="M219.226 55.3495L219.571 37.2874L231.084 45.1971L231.108 55.178C231.057 57.4033 229.194 58.6733 229.194 58.6733C226.889 60.4296 223.62 60.1653 221.219 58.5427L220.662 58.1681C220.205 57.8573 219.833 57.436 219.582 56.9432C219.33 56.4504 219.208 55.9022 219.226 55.3495Z" fill="white"/>
<path d="M225.471 60.255C223.877 60.2372 222.325 59.7439 221.014 58.8386L220.459 58.464C219.949 58.1207 219.534 57.6532 219.255 57.1055C218.975 56.5579 218.84 55.9481 218.862 55.3338L219.205 37.2748C219.207 37.2089 219.226 37.1448 219.261 37.0891C219.296 37.0333 219.346 36.9882 219.405 36.9583C219.464 36.9285 219.529 36.9151 219.595 36.9195C219.661 36.924 219.724 36.9461 219.779 36.9836L231.292 44.8934C231.341 44.9267 231.38 44.9713 231.408 45.0234C231.435 45.0755 231.45 45.1335 231.45 45.1924L231.472 55.1749C231.418 57.5686 229.482 58.9157 229.4 58.9708C228.268 59.8194 226.886 60.2708 225.471 60.255ZM219.922 37.972L219.591 55.3558C219.574 55.8473 219.682 56.3351 219.905 56.7734C220.128 57.2117 220.459 57.5861 220.867 57.8613L221.423 58.2358C223.837 59.8678 226.937 59.9261 228.973 58.3791C229.005 58.3554 230.697 57.1688 230.742 55.1654L230.72 45.3844L219.922 37.972Z" fill="#0F0F0F"/>
<path d="M236.951 43.1087C237.156 43.4631 237.337 43.8312 237.492 44.2103C237.848 45.0853 237.848 46.5977 238 48.2392C238.041 48.6781 237.927 49.1174 237.677 49.481C237.428 49.8446 237.059 50.1095 236.634 50.23C231.231 51.7392 228.209 50.7178 227.049 49.4935C225.209 47.5514 226.304 43.8767 224.239 42.8726C222.644 42.0967 221.184 43.8987 219.783 43.0819C218.383 42.2651 217.562 40.9652 216.938 37.0497C216.78 36.1148 216.78 36.2628 216.517 35.2445C215.64 31.9207 215.618 32.0639 215.926 31.1874C216.191 30.4351 216.478 28.7606 219.79 28.5513C219.79 28.5513 224.574 27.5551 226.457 31.9176L236.951 43.1087Z" fill="white"/>
<path d="M231.74 51.3521C228.633 51.3521 227.229 50.2111 226.785 49.7406C225.839 48.7428 225.609 47.3406 225.406 46.1036C225.189 44.7848 225.001 43.6454 224.081 43.1984C223.415 42.8742 222.75 43.0993 222.046 43.3385C221.294 43.595 220.442 43.8846 219.601 43.3951C217.957 42.4367 217.166 40.7906 216.579 37.1001C216.529 36.7178 216.45 36.3399 216.341 35.9701C216.297 35.8127 216.242 35.6207 216.166 35.3311L215.93 34.4372C215.299 32.0467 215.268 31.9538 215.57 31.0946L215.583 31.0584C215.602 31.0064 215.621 30.9482 215.64 30.8884C215.923 30.0165 216.45 28.3955 219.747 28.1815C220.165 28.1075 224.896 27.3647 226.793 31.765C226.811 31.8089 226.822 31.8561 226.822 31.9039C226.823 31.9517 226.814 31.9992 226.796 32.0436C226.779 32.0881 226.752 32.1286 226.719 32.1628C226.686 32.1971 226.646 32.2245 226.602 32.2434C226.558 32.2623 226.511 32.2724 226.463 32.2731C226.415 32.2737 226.367 32.265 226.323 32.2473C226.278 32.2296 226.238 32.2033 226.204 32.17C226.169 32.1367 226.142 32.0969 226.123 32.053C224.379 28.0131 219.909 28.8913 219.865 28.9054C219.849 28.9097 219.832 28.9124 219.815 28.9133C216.993 29.0896 216.582 30.3596 216.335 31.1166C216.314 31.1843 216.292 31.2472 216.273 31.3054L216.261 31.3416C216.032 31.9885 216.032 31.9885 216.634 34.2547L216.872 35.1486C216.947 35.435 217.001 35.6207 217.044 35.7781C217.161 36.1747 217.247 36.5799 217.3 36.9899C217.919 40.8803 218.748 42.0527 219.969 42.7641C220.522 43.0788 221.119 42.8837 221.811 42.6476C222.584 42.3848 223.464 42.0873 224.401 42.5422C225.661 43.1544 225.898 44.5881 226.134 45.9856C226.329 47.1738 226.533 48.4045 227.323 49.2401C228.486 50.4677 231.519 51.2782 236.545 49.8696C236.888 49.7738 237.186 49.5605 237.388 49.267C237.59 48.9736 237.681 48.6187 237.648 48.2644C237.607 47.8269 237.577 47.3988 237.547 46.9896C237.47 45.888 237.403 44.928 237.162 44.3378C237.015 43.9759 236.842 43.6246 236.646 43.2865C236.621 43.2452 236.606 43.1995 236.599 43.1521C236.593 43.1047 236.596 43.0565 236.608 43.0103C236.62 42.964 236.641 42.9206 236.67 42.8826C236.699 42.8445 236.736 42.8125 236.777 42.7885C236.818 42.7644 236.864 42.7487 236.912 42.7422C236.959 42.7358 237.007 42.7388 237.054 42.751C237.1 42.7632 237.143 42.7844 237.182 42.8134C237.22 42.8423 237.252 42.8785 237.276 42.9199C237.49 43.287 237.678 43.6688 237.838 44.0624C238.123 44.7612 238.194 45.77 238.276 46.9393C238.305 47.3422 238.334 47.7655 238.374 48.1983C238.424 48.7227 238.288 49.2481 237.99 49.6825C237.691 50.1169 237.25 50.4327 236.742 50.5747C234.717 51.1475 233.072 51.3521 231.74 51.3521Z" fill="#0F0F0F"/>
<path d="M227.026 32.4197L227.435 34.1761L227.426 34.143C227.664 34.8621 227.86 35.5947 228.012 36.3369C228.154 37.0797 228.292 37.791 228.447 38.5197L228.907 40.6962L229.138 41.7853C229.217 42.1393 229.288 42.5359 229.37 42.8523C229.543 43.5101 229.892 44.0924 230.435 44.4087C230.979 44.7251 231.672 44.799 232.359 44.7235C233.744 44.5661 235.13 43.9665 236.364 43.263L236.227 43.4094L236.857 42.2117C236.882 42.1632 236.918 42.1209 236.961 42.0877C237.005 42.0545 237.055 42.0313 237.109 42.0197L237.665 41.9049L237.939 41.8466C237.998 41.8346 238.054 41.8145 238.108 41.7868C238.203 41.7311 238.278 41.647 238.323 41.5462C238.368 41.4454 238.38 41.333 238.358 41.225C238.305 41.0692 238.242 40.9168 238.171 40.7686L237.947 40.243C237.799 39.8925 237.655 39.5395 237.517 39.1838C237.226 38.4789 236.979 37.7567 236.778 37.0214L236.497 35.9119L236.193 34.8103C236.003 34.0722 235.839 33.3247 235.721 32.5677L235.639 31.998L235.581 31.4314C235.531 31.0707 235.457 30.7137 235.36 30.3628C234.974 28.9464 234.353 27.5615 233.402 26.4662C232.933 25.9217 232.371 25.4659 231.741 25.1206C231.427 24.9526 231.097 24.8166 230.756 24.7146C230.407 24.6146 230.051 24.5374 229.691 24.4832C228.218 24.2314 226.733 24.063 225.268 24.1685C223.802 24.2739 222.373 24.6799 221.171 25.4731C219.965 26.2929 218.975 27.3923 218.287 28.6773C218.264 28.7211 218.234 28.76 218.196 28.7916C218.159 28.8233 218.115 28.8471 218.068 28.8615C218.021 28.876 217.972 28.8809 217.923 28.8759C217.874 28.8709 217.827 28.8561 217.784 28.8324C217.741 28.8086 217.703 28.7765 217.673 28.7379C217.642 28.6993 217.62 28.655 217.607 28.6076C217.595 28.5602 217.592 28.5108 217.598 28.4622C217.605 28.4136 217.622 28.3669 217.647 28.3248C218.391 26.9635 219.424 25.7076 220.76 24.8436C222.096 23.9796 223.667 23.5374 225.217 23.4272C226.761 23.3444 228.309 23.4608 229.824 23.7734C230.211 23.84 230.593 23.9309 230.969 24.0457C231.352 24.1651 231.721 24.3233 232.072 24.5178C232.766 24.9113 233.383 25.4275 233.893 26.0412C234.908 27.2562 235.533 28.7167 235.921 30.2086C236.022 30.5875 236.097 30.973 236.145 31.3622L236.193 31.9224L236.267 32.4748C236.375 33.2129 236.526 33.9447 236.704 34.6781C236.8 35.0401 236.888 35.4052 237.008 35.7609C237.128 36.1165 237.269 36.4643 237.405 36.8137C237.693 37.5077 237.931 38.2175 238.21 38.9147C238.347 39.2625 238.489 39.6103 238.634 39.955L238.856 40.4727C238.951 40.6637 239.029 40.8628 239.089 41.0676C239.147 41.3318 239.117 41.6074 239.006 41.8537C238.894 42.1 238.706 42.3039 238.47 42.4352C238.356 42.4954 238.234 42.5403 238.108 42.569L237.827 42.6272L237.271 42.7452L237.526 42.5517L236.906 43.7509C236.875 43.8102 236.829 43.8598 236.772 43.8941C236.111 44.282 235.419 44.6156 234.705 44.8919C233.983 45.18 233.227 45.3746 232.456 45.471C231.68 45.5544 230.812 45.5009 230.06 45.0571C229.691 44.8355 229.377 44.5337 229.142 44.1742C228.918 43.8272 228.75 43.4468 228.645 43.0474C228.54 42.6461 228.488 42.3093 228.4 41.9458L228.165 40.8567L227.705 38.6739C227.557 37.95 227.416 37.2009 227.286 36.4848C227.144 35.7708 226.961 35.0656 226.737 34.3728V34.3429L226.314 32.5771C226.3 32.4856 226.321 32.3923 226.374 32.316C226.426 32.2397 226.506 32.1861 226.596 32.1661C226.687 32.1461 226.781 32.1612 226.861 32.2083C226.941 32.2554 227 32.3309 227.026 32.4197Z" fill="#0F0F0F"/>
<path d="M226.72 38.3039C226.72 38.3039 225.345 34.0847 223.569 35.1139C221.794 36.1431 223.418 40.748 226.72 38.3039Z" fill="white"/>
<path d="M234.553 40.4899C234.366 40.4884 234.179 40.4619 233.999 40.4112C233.684 40.3247 233.408 40.0225 233.225 39.5629C232.875 38.6816 232.858 37.1535 233.855 35.5089C233.95 35.3636 234.074 35.2389 234.218 35.1421C234.362 35.0454 234.524 34.9785 234.695 34.9455C234.925 34.8976 235.163 34.8971 235.393 34.9439C235.624 34.9907 235.842 35.0839 236.036 35.2178C236.6 35.5908 236.809 36.3194 236.675 37.4368C236.507 38.8721 236.108 39.7833 235.459 40.2192C235.191 40.3982 234.876 40.4926 234.553 40.4899ZM235.045 35.6364C234.981 35.6362 234.918 35.6431 234.856 35.6568C234.706 35.6822 234.572 35.7653 234.482 35.8882C233.624 37.3046 233.619 38.5636 233.901 39.286C234.025 39.6007 234.163 39.6999 234.192 39.7077C234.334 39.758 234.485 39.7757 234.635 39.7593C234.784 39.743 234.928 39.6931 235.056 39.6133C235.503 39.3127 235.815 38.5306 235.954 37.3518C236.099 36.1321 235.749 35.9024 235.639 35.8268C235.464 35.705 235.257 35.6386 235.045 35.6364Z" fill="#0F0F0F"/>
<path d="M235.024 35.6128H235.004L225.417 35.0934C225.369 35.091 225.322 35.0792 225.279 35.0586C225.236 35.0381 225.197 35.0092 225.165 34.9737C225.133 34.9382 225.108 34.8967 225.092 34.8516C225.076 34.8065 225.07 34.7587 225.072 34.711C225.078 34.6147 225.122 34.5246 225.194 34.4602C225.266 34.3957 225.36 34.362 225.456 34.3663L235.043 34.8841C235.14 34.8866 235.232 34.9275 235.299 34.9977C235.366 35.068 235.402 35.1618 235.399 35.2587C235.397 35.3555 235.356 35.4474 235.286 35.5141C235.215 35.5808 235.121 35.6168 235.024 35.6143V35.6128Z" fill="#0F0F0F"/>
<path d="M238.542 40.2366C238.457 40.2357 238.374 40.2049 238.309 40.1494C238.244 40.0939 238.2 40.0174 238.186 39.9331C238.171 39.8488 238.187 39.7621 238.23 39.6881C238.273 39.6142 238.341 39.5576 238.421 39.5284C238.722 39.3207 239.592 37.6682 239.097 36.3116C239.071 36.2238 239.025 36.1431 238.963 36.0757C238.901 36.0083 238.825 35.956 238.739 35.9229C238.249 35.7356 237.436 36.0661 237.164 36.2109C237.121 36.2362 237.074 36.2526 237.025 36.2592C236.976 36.2657 236.926 36.2622 236.879 36.249C236.831 36.2357 236.786 36.2129 236.748 36.182C236.709 36.151 236.677 36.1126 236.654 36.069C236.631 36.0254 236.617 35.9775 236.613 35.9283C236.608 35.879 236.614 35.8295 236.63 35.7825C236.645 35.7356 236.67 35.6924 236.703 35.6553C236.736 35.6183 236.776 35.5884 236.82 35.5672C236.948 35.498 238.111 34.9015 238.998 35.2399C239.182 35.3103 239.348 35.4204 239.484 35.5625C239.62 35.7045 239.723 35.8749 239.785 36.0614C240.201 37.1976 239.875 38.5054 239.433 39.3506C239.248 39.7031 238.96 40.1374 238.645 40.2256C238.611 40.2341 238.577 40.2378 238.542 40.2366Z" fill="#0F0F0F"/>
<path d="M269.781 17.8184H267.103C266.262 17.8184 265.581 18.499 265.581 19.3386V34.2989C265.581 35.1385 266.262 35.8191 267.103 35.8191H269.781C270.621 35.8191 271.303 35.1385 271.303 34.2989V19.3386C271.303 18.499 270.621 17.8184 269.781 17.8184Z" fill="#0F0F0F"/>
<path d="M298.477 17.9976H295.664C294.824 17.9976 294.142 18.6782 294.142 19.5178V34.4781C294.142 35.3177 294.824 35.9983 295.664 35.9983H298.477C299.317 35.9983 299.998 35.3177 299.998 34.4781V19.5178C299.998 18.6782 299.317 17.9976 298.477 17.9976Z" fill="#0F0F0F"/>
<path d="M267.563 30.2385L297.837 30.2385V23.5783L267.563 23.5783V30.2385Z" fill="#0F0F0F"/>
<path d="M286.67 26.0774C286.629 26.1435 286.586 26.2065 286.544 26.2678C285.37 27.9108 284.771 25.8051 284.838 24.7507C284.732 25.3802 284.951 26.0097 284.787 26.6487C284.623 27.2876 284.193 27.8825 283.489 27.5929C282.35 27.135 282.618 25.4243 282.533 24.4706C282.588 25.0844 282.616 25.6383 282.429 26.2395C282.317 26.5967 281.972 27.5268 281.512 27.2483C280.738 26.7762 280.894 24.927 280.844 24.1621C280.874 24.8473 280.767 25.5316 280.529 26.175C280.075 27.3663 278.923 26.9949 278.777 25.8602C278.646 24.842 278.095 22.8701 279.169 22.2075C279.506 22.0245 279.873 21.905 280.253 21.855C281.917 21.5295 283.617 21.4237 285.309 21.5402C287.648 21.7369 287.658 24.4847 286.67 26.0774Z" fill="white"/>
<path d="M283.831 28.0351C283.669 28.0333 283.508 28.0008 283.358 27.9391C283.162 27.8608 282.983 27.7443 282.832 27.5962C282.681 27.4481 282.561 27.2715 282.479 27.0766C282.36 27.3175 282.164 27.5115 281.921 27.6275C281.825 27.6641 281.721 27.6777 281.617 27.6673C281.514 27.657 281.415 27.6228 281.328 27.5677C281.013 27.3529 280.788 27.0295 280.697 26.6596C280.382 27.1648 279.932 27.3111 279.571 27.2718C278.972 27.201 278.507 26.6549 278.411 25.9121C278.392 25.7547 278.363 25.5784 278.329 25.3864C278.142 24.2738 277.857 22.593 278.974 21.9021C279.348 21.6939 279.759 21.5583 280.184 21.5024C281.88 21.1729 283.612 21.0671 285.336 21.1876C286.511 21.282 287.076 21.932 287.344 22.4608C287.875 23.5073 287.726 25.0748 286.983 26.2724C286.939 26.3448 286.892 26.4157 286.845 26.4833C286.279 27.2702 285.786 27.3064 285.468 27.1947C285.322 27.139 285.191 27.0495 285.087 26.9334C284.97 27.3488 284.696 27.7029 284.324 27.9218C284.171 27.9984 284.002 28.0373 283.831 28.0351ZM282.93 25.517C282.958 26.381 283.073 27.0389 283.626 27.2624C283.683 27.2904 283.745 27.3049 283.808 27.3049C283.871 27.3049 283.934 27.2904 283.99 27.2624C284.174 27.1695 284.345 26.8972 284.433 26.5526C284.493 26.251 284.503 25.9417 284.464 25.6366C284.431 25.3199 284.435 25.0003 284.477 24.6845C284.493 24.5932 284.544 24.5116 284.619 24.4563C284.693 24.401 284.786 24.3762 284.878 24.3868C284.971 24.3974 285.055 24.4427 285.115 24.5135C285.176 24.5843 285.206 24.6753 285.202 24.7679C285.154 25.5202 285.458 26.4078 285.711 26.4991C285.789 26.5243 285.996 26.4015 286.246 26.0521C286.286 25.997 286.323 25.9404 286.36 25.8806C286.965 24.9033 287.103 23.6002 286.69 22.7834C286.423 22.2562 285.947 21.9603 285.273 21.9068C283.612 21.7958 281.944 21.9016 280.311 22.2216C279.977 22.2641 279.653 22.367 279.355 22.5253C278.657 22.9581 278.882 24.2926 279.04 25.2684C279.075 25.4714 279.106 25.6587 279.127 25.8224C279.185 26.2677 279.432 26.5258 279.648 26.551C279.864 26.5762 280.048 26.3936 280.174 26.0553C280.398 25.4573 280.5 24.8205 280.474 24.1825C280.47 24.0868 280.505 23.9937 280.57 23.9233C280.634 23.8529 280.725 23.8108 280.82 23.8064C280.868 23.8029 280.916 23.8091 280.961 23.8244C281.006 23.8398 281.048 23.864 281.083 23.8957C281.119 23.9274 281.148 23.9658 281.169 24.0089C281.189 24.0519 281.201 24.0986 281.203 24.1463C281.213 24.3037 281.214 24.4862 281.217 24.7003C281.217 25.3785 281.241 26.6313 281.674 26.9334C281.764 26.8626 281.934 26.5888 282.073 26.1465C282.136 25.942 282.176 25.7307 282.191 25.517C282.191 25.3896 282.191 25.2637 282.191 25.1441C282.191 24.9143 282.191 24.6955 282.17 24.5145C282.162 24.4183 282.192 24.3227 282.254 24.2486C282.316 24.1745 282.405 24.1281 282.501 24.1195C282.598 24.111 282.693 24.141 282.768 24.203C282.842 24.2649 282.888 24.3538 282.897 24.45C282.935 24.8043 282.946 25.161 282.93 25.517Z" fill="#0F0F0F"/>
<path d="M152.44 33.9415C161.722 33.9415 169.247 26.4248 169.247 17.1525C169.247 7.88021 161.722 0.363525 152.44 0.363525C143.157 0.363525 135.632 7.88021 135.632 17.1525C135.632 26.4248 143.157 33.9415 152.44 33.9415Z" fill="white"/>
<path d="M152.44 34.3082C149.043 34.3082 145.723 33.3021 142.899 31.4172C140.075 29.5323 137.874 26.8532 136.574 23.7187C135.274 20.5842 134.934 17.1351 135.597 13.8075C136.26 10.4799 137.895 7.42337 140.297 5.02433C142.698 2.62528 145.758 0.991514 149.089 0.329619C152.421 -0.332276 155.873 0.00743258 159.011 1.30579C162.149 2.60414 164.831 4.80282 166.718 7.6238C168.605 10.4448 169.612 13.7613 169.612 17.1541C169.607 21.7021 167.796 26.0624 164.577 29.2784C161.358 32.4943 156.993 34.3032 152.44 34.3082ZM152.44 0.733385C149.188 0.733074 146.008 1.69613 143.304 3.50076C140.6 5.30539 138.493 7.87052 137.248 10.8717C136.004 13.873 135.678 17.1755 136.312 20.3616C136.947 23.5477 138.513 26.4743 140.813 28.7712C143.112 31.0682 146.042 32.6323 149.232 33.2658C152.421 33.8993 155.727 33.5737 158.732 32.3302C161.736 31.0867 164.304 28.9811 166.11 26.2797C167.917 23.5784 168.88 20.4026 168.88 17.1541C168.875 12.7999 167.142 8.62533 164.06 5.54629C160.977 2.46726 156.799 0.735236 152.44 0.730237V0.733385Z" fill="#0F0F0F"/>
<path d="M152.533 25.5974C152.451 25.6483 152.357 25.6764 152.261 25.6786C152.165 25.6808 152.07 25.6571 151.986 25.61C150.505 24.7837 143.636 20.6479 143.902 15.2388C144.187 9.52131 150.398 10.5175 151.937 13.3267C151.967 13.3779 152.01 13.4198 152.062 13.4476C152.114 13.4754 152.173 13.4881 152.232 13.4841C152.29 13.4814 152.347 13.4625 152.395 13.4294C152.444 13.3963 152.482 13.3504 152.506 13.2968C153.259 11.4901 155.688 10.1823 157.977 11.04C160.698 12.0629 163.473 18.8254 152.533 25.5974Z" fill="#0F0F0F"/>
<path d="M39.5586 216.596C39.5586 254.897 74.9658 273.901 116.038 273.901C157.111 273.901 188.299 254.897 188.299 216.596C188.299 178.296 155.001 147.245 113.929 147.245C72.8562 147.245 39.5586 178.296 39.5586 216.596Z" fill="white"/>
<path d="M116.038 274.266C94.8845 274.266 75.7614 269.168 62.1903 259.913C47.1461 249.652 39.1884 234.673 39.1884 216.596C39.1884 178.156 72.7144 146.878 113.922 146.878C155.131 146.878 188.658 178.152 188.658 216.596C188.658 234.852 181.438 249.831 167.782 259.905C155.052 269.3 137.158 274.266 116.038 274.266ZM113.929 147.61C73.124 147.61 39.9241 178.557 39.9241 216.596C39.9241 234.421 47.7668 249.192 62.6109 259.31C76.0607 268.484 95.0389 273.535 116.046 273.535C160.393 273.535 187.941 251.718 187.941 216.596C187.933 178.557 154.735 147.61 113.929 147.61Z" fill="#0F0F0F"/>
<path d="M89.4618 246.552C89.3746 246.551 89.2905 246.52 89.2244 246.463C89.1584 246.407 89.1148 246.328 89.1015 246.242C89.0882 246.156 89.106 246.068 89.1519 245.994C89.1977 245.92 89.2685 245.865 89.3515 245.839C112.68 238.355 134.12 222.503 151.353 199.996C151.38 199.955 151.416 199.919 151.458 199.892C151.5 199.865 151.547 199.847 151.597 199.839C151.646 199.83 151.696 199.832 151.745 199.844C151.793 199.856 151.839 199.878 151.879 199.908C151.919 199.939 151.952 199.977 151.976 200.02C152 200.064 152.016 200.112 152.021 200.162C152.026 200.212 152.02 200.262 152.005 200.309C151.99 200.357 151.965 200.401 151.932 200.439C134.602 223.065 113.047 239.004 89.5736 246.534C89.5374 246.546 89.4997 246.551 89.4618 246.552Z" fill="#0F0F0F"/>
<path d="M94.1014 250.87C94.0162 250.869 93.9338 250.839 93.8687 250.784C93.8036 250.729 93.7598 250.653 93.7448 250.569C93.7298 250.485 93.7447 250.399 93.7868 250.325C93.8289 250.251 93.8956 250.194 93.9754 250.163C110.178 244.222 125.305 234.415 138.939 221.011C138.973 220.974 139.013 220.944 139.059 220.923C139.104 220.903 139.153 220.891 139.203 220.89C139.253 220.889 139.302 220.898 139.348 220.917C139.395 220.936 139.436 220.964 139.471 220.999C139.506 221.035 139.534 221.077 139.552 221.123C139.57 221.17 139.578 221.219 139.576 221.269C139.574 221.319 139.562 221.368 139.541 221.412C139.519 221.457 139.489 221.498 139.451 221.53C125.745 235.008 110.527 244.872 94.2353 250.848C94.1926 250.864 94.1471 250.872 94.1014 250.87Z" fill="#0F0F0F"/>
<path d="M162.636 256.561C162.564 256.56 162.493 256.537 162.434 256.495C162.374 256.454 162.328 256.396 162.302 256.328C162.275 256.261 162.27 256.187 162.286 256.116C162.301 256.046 162.338 255.981 162.39 255.931C184.638 235.721 188.093 213.087 173.261 184.702C173.237 184.66 173.222 184.613 173.217 184.565C173.212 184.516 173.216 184.467 173.23 184.42C173.244 184.374 173.267 184.33 173.298 184.292C173.329 184.255 173.368 184.224 173.411 184.201C173.454 184.179 173.502 184.165 173.55 184.161C173.599 184.157 173.648 184.163 173.694 184.178C173.741 184.193 173.783 184.217 173.82 184.249C173.857 184.281 173.887 184.32 173.909 184.364C181.036 198.012 183.916 210.12 182.714 221.382C181.354 234.102 174.865 245.579 162.876 256.477C162.809 256.533 162.723 256.563 162.636 256.561Z" fill="#0F0F0F"/>
<path d="M33.3575 150.585C33.3575 150.585 28.1363 158.071 30.2491 164.459C30.2491 164.459 17.3963 167.512 14.3179 166.535L17.6626 162.41C20.4655 158.954 22.5844 154.997 23.9062 150.75L25.7857 144.713L33.3575 150.585Z" fill="white"/>
<path d="M16.0824 167.082C15.4493 167.105 14.8162 167.035 14.2029 166.876C14.1462 166.858 14.0948 166.827 14.0531 166.784C14.0114 166.742 13.9807 166.69 13.9636 166.633C13.9466 166.576 13.9436 166.516 13.9551 166.458C13.9666 166.399 13.9922 166.345 14.0296 166.299L17.3743 162.174C20.1514 158.756 22.2487 154.839 23.5533 150.635L25.4313 144.598C25.4489 144.542 25.4799 144.49 25.5216 144.449C25.5634 144.407 25.6146 144.376 25.671 144.358C25.7274 144.341 25.7872 144.337 25.8453 144.347C25.9034 144.358 25.9582 144.382 26.0048 144.419L33.5812 150.295C33.6548 150.352 33.7036 150.436 33.7177 150.528C33.7318 150.62 33.71 150.714 33.6568 150.791C33.6049 150.865 28.5649 158.206 30.591 164.336C30.6067 164.384 30.6123 164.435 30.6075 164.486C30.6026 164.536 30.5873 164.585 30.5626 164.629C30.5384 164.673 30.5051 164.712 30.4649 164.742C30.4247 164.772 30.3785 164.794 30.3294 164.805C29.8757 164.915 20.6923 167.082 16.0824 167.082ZM14.9702 166.296C18.2897 166.749 27.763 164.646 29.7796 164.182C28.1364 158.436 31.9333 152.094 32.8644 150.66L25.9733 145.309L24.2513 150.843C22.9193 155.136 20.7775 159.136 17.9415 162.626L14.9702 166.296Z" fill="#0F0F0F"/>
<path d="M30.9329 160.857C30.9329 160.857 34.9235 169.456 33.8947 171.968C33.0282 174.084 10.3115 183.613 2.85792 186.544C1.53925 187.062 0.138658 185.933 0.403338 184.542C1.06031 181.092 4.3625 174.028 17.1616 160.668C17.4892 160.325 17.9053 160.08 18.3638 159.959C18.8224 159.838 19.3055 159.847 19.7596 159.983L24.8925 161.532L23.7597 165.057L30.9329 160.857Z" fill="white"/>
<path d="M2.17732 187.038C1.66868 187.036 1.17697 186.855 0.787755 186.528C0.488487 186.285 0.261015 185.966 0.129735 185.604C-0.00154488 185.242 -0.0316818 184.851 0.0425563 184.473C0.742066 180.792 4.23489 173.631 16.9001 160.416C17.2731 160.023 17.7482 159.741 18.2724 159.602C18.7966 159.463 19.3492 159.472 19.8683 159.629L25.0028 161.179C25.0491 161.193 25.0921 161.217 25.1294 161.247C25.1667 161.278 25.1976 161.316 25.2202 161.359C25.2429 161.401 25.2568 161.448 25.2611 161.496C25.2655 161.544 25.2601 161.593 25.2454 161.639L24.4041 164.256L30.758 160.537C30.8017 160.511 30.8505 160.495 30.901 160.489C30.9515 160.484 31.0026 160.489 31.051 160.504C31.0997 160.519 31.1446 160.545 31.1828 160.578C31.2211 160.612 31.2519 160.653 31.2732 160.699C31.6891 161.595 35.3001 169.513 34.2429 172.101C33.1259 174.827 3.29433 186.759 2.99499 186.877C2.73512 186.982 2.45761 187.037 2.17732 187.038ZM19.0097 160.237C18.7118 160.237 18.4172 160.298 18.1436 160.416C17.8701 160.533 17.6234 160.705 17.4184 160.921C4.88399 174.006 1.43843 181.025 0.756246 184.603C0.707444 184.853 0.727716 185.111 0.814882 185.35C0.902048 185.589 1.05281 185.8 1.25094 185.96C1.45079 186.129 1.69291 186.24 1.95131 186.282C2.20972 186.324 2.47466 186.295 2.71771 186.198C12.8086 182.243 32.8392 173.587 33.5576 171.829C34.3138 169.983 31.9412 163.978 30.7706 161.376L23.9472 165.372C23.8834 165.409 23.8097 165.426 23.736 165.421C23.6622 165.415 23.5919 165.388 23.5342 165.342C23.4765 165.295 23.4342 165.233 23.4129 165.162C23.3915 165.091 23.3922 165.016 23.4147 164.945L24.434 161.774L19.6556 160.331C19.4461 160.268 19.2285 160.236 19.0097 160.237Z" fill="#0F0F0F"/>
<path d="M12.4163 174.127C12.3247 174.127 12.2365 174.092 12.169 174.031L8.38784 170.557C8.35256 170.525 8.32401 170.486 8.30381 170.443C8.28361 170.399 8.27216 170.352 8.27011 170.305C8.26806 170.257 8.27546 170.209 8.29187 170.164C8.30829 170.119 8.3334 170.078 8.36578 170.043C8.39816 170.007 8.43717 169.979 8.48058 169.959C8.52399 169.939 8.57096 169.927 8.6188 169.925C8.66664 169.923 8.71441 169.93 8.75939 169.947C8.80437 169.963 8.84568 169.988 8.88096 170.021L12.6621 173.492C12.7147 173.542 12.7512 173.607 12.7669 173.678C12.7826 173.749 12.7768 173.823 12.7503 173.89C12.7237 173.958 12.6776 174.016 12.6179 174.057C12.5581 174.098 12.4874 174.121 12.4147 174.122L12.4163 174.127Z" fill="#0F0F0F"/>
<path d="M14.652 171.273C14.5588 171.274 14.469 171.238 14.4015 171.174L10.9527 167.921C10.8878 167.854 10.8512 167.764 10.8506 167.67C10.85 167.577 10.8854 167.487 10.9495 167.418C11.0136 167.35 11.1015 167.309 11.195 167.304C11.2886 167.298 11.3806 167.329 11.4522 167.389L14.9056 170.636C14.9583 170.686 14.9948 170.751 15.0105 170.822C15.0262 170.893 15.0202 170.967 14.9935 171.035C14.9668 171.102 14.9204 171.16 14.8604 171.201C14.8004 171.243 14.7295 171.265 14.6567 171.266L14.652 171.273Z" fill="#0F0F0F"/>
<path d="M4.09623 183.302C4.01293 183.302 3.93196 183.274 3.86672 183.222C3.80149 183.171 3.75591 183.098 3.73753 183.017C3.71914 182.936 3.72907 182.851 3.76565 182.776C3.80223 182.701 3.86328 182.641 3.93868 182.606L31.5756 169.781C31.6191 169.761 31.6662 169.749 31.7142 169.746C31.7623 169.744 31.8104 169.751 31.8557 169.767C31.9011 169.783 31.9428 169.808 31.9786 169.84C32.0143 169.872 32.0433 169.911 32.064 169.955C32.0847 169.998 32.0966 170.045 32.0991 170.093C32.1016 170.141 32.0946 170.189 32.0785 170.234C32.0624 170.28 32.0376 170.321 32.0053 170.357C31.9731 170.393 31.9342 170.422 31.8907 170.442L4.25378 183.267C4.20468 183.291 4.15073 183.303 4.09623 183.302Z" fill="#0F0F0F"/>
<path d="M34.6415 238.761L34.1216 241.511C33.0837 247.018 31.202 252.332 28.5429 257.266L25.7228 262.495L42.5331 258.813L41.6855 256.115C40.3493 251.865 40.6978 247.265 42.6591 243.264L43.5871 241.376L34.6415 238.761Z" fill="white"/>
<path d="M25.7227 262.861C25.66 262.86 25.5987 262.842 25.5446 262.811C25.4906 262.779 25.4455 262.734 25.4139 262.68C25.3822 262.626 25.365 262.565 25.3639 262.502C25.3629 262.439 25.3779 262.378 25.4076 262.322L28.2261 257.093C30.869 252.193 32.739 246.915 33.7702 241.445L34.2886 238.694C34.2978 238.644 34.3174 238.596 34.3461 238.554C34.3749 238.512 34.4122 238.477 34.4555 238.45C34.4989 238.423 34.5474 238.406 34.5979 238.399C34.6484 238.392 34.6997 238.396 34.7486 238.411L43.6941 241.025C43.7454 241.039 43.7928 241.065 43.833 241.1C43.8732 241.135 43.9053 241.178 43.9269 241.227C43.9486 241.275 43.9592 241.328 43.9582 241.381C43.9572 241.434 43.9445 241.487 43.921 241.535L42.9931 243.423C41.064 247.341 40.7225 251.85 42.0399 256.013L42.8875 258.709C42.9037 258.758 42.9094 258.809 42.9043 258.861C42.8991 258.912 42.8832 258.961 42.8577 259.006C42.8321 259.05 42.7974 259.089 42.7558 259.119C42.7143 259.149 42.6668 259.171 42.6165 259.181L25.8078 262.864C25.7794 262.866 25.7508 262.865 25.7227 262.861ZM34.9251 239.224L34.4808 241.585C33.4364 247.128 31.5419 252.478 28.8642 257.444L26.4222 261.973L42.0651 258.541L41.3357 256.226C39.9647 251.887 40.3213 247.187 42.3314 243.104L43.0671 241.604L34.9251 239.224Z" fill="#0F0F0F"/>
<path d="M47.354 259.471C46.2654 257.81 44.6158 255.307 42.5126 252.132C42.4062 251.972 42.2631 251.84 42.0952 251.746C41.9273 251.652 41.7395 251.6 41.5473 251.593C41.3551 251.586 41.164 251.625 40.9899 251.707C40.8159 251.789 40.6638 251.911 40.5464 252.063L35.4765 257.469L35.0574 253.492L29.2282 254.535C28.907 254.593 28.6004 254.713 28.3261 254.89C28.0519 255.067 27.8155 255.296 27.6307 255.565C25.4061 258.785 17.5917 270.456 15.6712 278.184C15.1844 280.141 17.1396 281.804 18.9797 280.984C24.5254 278.502 36.6975 271.708 46.7301 263.545C47.32 263.063 47.7103 262.38 47.8255 261.628C47.9408 260.875 47.7728 260.107 47.354 259.471Z" fill="white"/>
<path d="M17.9967 281.563C17.3522 281.563 16.7286 281.335 16.2353 280.921C15.8308 280.585 15.5299 280.142 15.3676 279.642C15.2053 279.142 15.1883 278.607 15.3184 278.098C17.2436 270.35 24.9996 258.74 27.3313 255.358C27.5431 255.049 27.8146 254.786 28.1298 254.583C28.445 254.381 28.7975 254.243 29.1668 254.178L34.996 253.135C35.0449 253.126 35.095 253.127 35.1434 253.139C35.1917 253.15 35.2373 253.171 35.2772 253.2C35.3172 253.23 35.3507 253.267 35.3758 253.31C35.4008 253.353 35.4169 253.4 35.423 253.449L35.7585 256.632L40.2833 251.808C40.4333 251.614 40.628 251.46 40.8507 251.357C41.0735 251.255 41.3178 251.208 41.5626 251.221C41.8139 251.228 42.0598 251.296 42.2793 251.418C42.4987 251.541 42.6853 251.714 42.823 251.924C44.9278 255.099 46.5757 257.604 47.666 259.265C48.1379 259.976 48.3282 260.837 48.1998 261.68C48.0714 262.524 47.6334 263.29 46.9712 263.828C36.8803 272.037 24.798 278.779 19.1389 281.318C18.7798 281.479 18.3905 281.563 17.9967 281.563ZM34.7345 253.922L29.2944 254.897C29.0203 254.945 28.7586 255.047 28.5246 255.197C28.2906 255.348 28.089 255.543 27.9316 255.772C25.6188 259.123 17.9226 270.646 16.0273 278.277C15.9302 278.653 15.9424 279.049 16.0624 279.419C16.1823 279.789 16.4052 280.116 16.7048 280.364C16.9938 280.612 17.3484 280.772 17.7259 280.824C18.1033 280.875 18.4878 280.818 18.8332 280.657C24.4577 278.139 36.4675 271.433 46.5033 263.267C47.0244 262.842 47.3689 262.239 47.4696 261.575C47.5704 260.911 47.4202 260.233 47.0484 259.674C45.9597 258.015 44.3118 255.51 42.207 252.337C42.1336 252.224 42.0341 252.131 41.9169 252.066C41.7998 252 41.6684 251.964 41.5342 251.961C41.4003 251.956 41.2672 251.984 41.1458 252.04C41.0245 252.097 40.9184 252.182 40.8363 252.288L35.7428 257.722C35.6949 257.773 35.6334 257.809 35.5655 257.827C35.4977 257.844 35.4263 257.841 35.3599 257.819C35.2936 257.797 35.235 257.756 35.1911 257.701C35.1473 257.647 35.12 257.581 35.1126 257.511L34.7345 253.922Z" fill="#0F0F0F"/>
<path d="M18.4788 277.996C18.3951 277.996 18.3139 277.967 18.2489 277.914C18.1839 277.861 18.1389 277.788 18.1216 277.706C18.1042 277.624 18.1155 277.539 18.1536 277.464C18.1917 277.39 18.2542 277.331 18.3307 277.297C25.6346 274.078 44.9562 260.648 45.1516 260.513C45.1907 260.482 45.2357 260.46 45.2837 260.447C45.3318 260.434 45.382 260.431 45.4311 260.439C45.4803 260.446 45.5274 260.463 45.5697 260.49C45.6119 260.516 45.6484 260.55 45.6768 260.591C45.7053 260.632 45.7251 260.678 45.7351 260.727C45.7451 260.775 45.745 260.825 45.7349 260.874C45.7249 260.923 45.7049 260.969 45.6764 261.009C45.6479 261.05 45.6114 261.085 45.569 261.111C45.3737 261.246 25.9938 274.717 18.6285 277.964C18.5813 277.985 18.5303 277.996 18.4788 277.996Z" fill="#0F0F0F"/>
<path d="M26.4318 268.865C26.3838 268.865 26.3362 268.855 26.2919 268.837C26.2475 268.818 26.2073 268.791 26.1734 268.758L22.0267 264.603C21.9609 264.534 21.9248 264.442 21.9259 264.346C21.9271 264.251 21.9655 264.16 22.033 264.093C22.1004 264.025 22.1916 263.987 22.287 263.986C22.3823 263.985 22.4744 264.021 22.5435 264.087L26.6901 268.241C26.7434 268.292 26.7802 268.358 26.7956 268.43C26.8109 268.501 26.8042 268.576 26.7763 268.644C26.7484 268.712 26.7006 268.77 26.6391 268.811C26.5776 268.851 26.5053 268.872 26.4318 268.871V268.865Z" fill="#0F0F0F"/>
<path d="M28.7934 266.11C28.7451 266.111 28.6973 266.101 28.6527 266.083C28.608 266.065 28.5675 266.038 28.5335 266.003L24.141 261.561C24.0796 261.491 24.0472 261.4 24.0504 261.307C24.0536 261.214 24.0923 261.126 24.1584 261.06C24.2246 260.995 24.3133 260.957 24.4064 260.955C24.4995 260.952 24.59 260.986 24.6594 261.048L29.0534 265.495C29.1035 265.546 29.1374 265.611 29.1508 265.682C29.1642 265.752 29.1566 265.825 29.1289 265.891C29.1011 265.957 29.0546 266.014 28.9949 266.054C28.9352 266.093 28.8652 266.115 28.7934 266.115V266.11Z" fill="#0F0F0F"/>
<path d="M111.156 128.723C110.598 127.77 81.2677 94.7897 68.6261 93.8423C53.1518 92.6824 30.9723 111.528 22.9988 146.793C22.8831 147.297 22.9103 147.824 23.0773 148.313C23.2442 148.803 23.5444 149.236 23.9441 149.565L30.977 152.753C31.2696 152.992 31.6079 153.168 31.9712 153.271C32.3345 153.374 32.715 153.402 33.0895 153.353C33.4639 153.304 33.8244 153.179 34.1487 152.986C34.4731 152.792 34.7544 152.535 34.9755 152.229C40.214 144.966 56.2444 123.901 64.1801 126.262C69.5241 127.851 87.5995 162.648 87.5995 162.648L129.228 150.61L111.156 128.723Z" fill="#0F0F0F"/>
<path d="M41.8713 245.143L34.9282 242.763C34.2579 242.535 33.6846 242.087 33.3014 241.492C32.9181 240.896 32.7475 240.189 32.8171 239.485C33.6631 230.938 33.3291 212.86 45.8683 192.06C60.7455 167.383 94.7694 149.156 94.7694 149.156L105.168 131.465L136.991 148.092C136.991 148.092 139.603 163.293 130.986 171.308C122.37 179.323 88.2501 188.911 77.9134 197.862C67.5768 206.814 66.4408 204.304 64.0493 215.128C61.7444 225.602 58.7021 231.753 45.0317 244.477C44.6141 244.863 44.0998 245.128 43.5434 245.245C42.987 245.363 42.4092 245.327 41.8713 245.143Z" fill="#0F0F0F"/>
<path d="M72.1079 163.844C72.0315 163.844 71.9569 163.82 71.8947 163.776C71.8324 163.732 71.7857 163.669 71.7612 163.597C71.7366 163.525 71.7354 163.447 71.7578 163.374C71.7801 163.301 71.8249 163.237 71.8857 163.19C79.1723 157.611 86.6747 152.782 94.1834 148.833C94.226 148.808 94.2733 148.791 94.3225 148.785C94.3716 148.779 94.4215 148.782 94.4692 148.796C94.5168 148.809 94.5613 148.832 94.5998 148.863C94.6383 148.894 94.67 148.933 94.6931 148.977C94.7162 149.021 94.7302 149.069 94.7341 149.118C94.738 149.167 94.7319 149.217 94.7161 149.264C94.7002 149.311 94.675 149.354 94.6419 149.391C94.6089 149.428 94.5686 149.457 94.5237 149.478C87.0512 153.413 79.5851 158.216 72.33 163.77C72.2661 163.818 72.188 163.844 72.1079 163.844Z" fill="white"/>
<path d="M106.203 31.0333C105.609 31.1167 104.482 30.7594 103.29 30.2716C101.309 31.9826 99.5187 33.9022 97.9503 35.997C97.6037 35.8789 93.6634 32.7345 91.9635 29.9395C94.3094 28.8379 94.9317 27.2232 97.7644 25.1112C98.6577 24.4455 99.5557 21.3436 100.285 20.2514C101.316 18.7122 102.333 17.8152 104.317 17.4768C105.648 17.2486 107.137 17.4564 108.114 18.3896C108.453 18.7398 108.75 19.1285 108.999 19.5479L110.732 22.2139C111.035 22.686 111.348 23.188 111.324 23.7436C111.288 24.5619 104.454 28.6097 109.681 27.859C113.888 27.2547 116.716 30.1362 114.88 29.9458C113.045 29.7554 107.841 30.8004 106.203 31.0333Z" fill="white"/>
<path d="M97.9503 36.3621C97.91 36.3625 97.87 36.3555 97.8322 36.3416C97.3753 36.1842 93.3752 32.9643 91.6595 30.1284C91.6333 30.0846 91.6165 30.0359 91.6103 29.9853C91.604 29.9347 91.6085 29.8834 91.6233 29.8346C91.6382 29.7858 91.6631 29.7407 91.6964 29.7021C91.7298 29.6635 91.7709 29.6323 91.817 29.6106C93.0774 29.0141 93.8163 28.2697 94.7443 27.3302C95.6112 26.4155 96.5517 25.5733 97.5565 24.8122C98.0118 24.4722 98.5679 23.1518 99.0138 22.0911C99.3572 21.2775 99.6802 20.5079 99.9922 20.0452C101.018 18.5108 102.091 17.4863 104.266 17.1133C105.913 16.8316 107.417 17.1983 108.377 18.1205C108.739 18.4903 109.056 18.9012 109.322 19.3449L111.055 22.0108C111.343 22.4547 111.737 23.0606 111.707 23.7546C111.69 24.1402 111.274 24.5226 110.089 25.5172C109.413 26.0853 108.172 27.1272 108.098 27.5128C108.185 27.5537 108.526 27.6528 109.647 27.4923C112.787 27.0422 115.118 28.4067 115.668 29.2376C115.917 29.6122 115.826 29.8781 115.75 30.004C115.592 30.2495 115.304 30.3503 114.855 30.3046C113.505 30.163 110.162 30.7343 107.95 31.112C107.257 31.2316 106.658 31.3339 106.264 31.3889C105.699 31.4692 104.752 31.2394 103.372 30.6886C101.477 32.3456 99.7618 34.1959 98.2528 36.2094C98.2186 36.2575 98.1732 36.2965 98.1205 36.3231C98.0678 36.3496 98.0094 36.363 97.9503 36.3621ZM92.4961 30.0843C94.0258 32.3946 96.9672 34.8733 97.8527 35.5107C99.3919 33.5012 101.134 31.6554 103.052 30.0025C103.103 29.9584 103.165 29.9294 103.232 29.9186C103.299 29.9078 103.367 29.9155 103.43 29.9411C105.202 30.6666 105.899 30.7154 106.152 30.6776C106.535 30.6241 107.131 30.5202 107.818 30.4053C110.067 30.0198 113.469 29.4406 114.921 29.5901C114.961 29.5901 114.994 29.5901 115.022 29.5901C114.616 29.0314 112.528 27.8196 109.741 28.2194C108.323 28.4224 107.628 28.3044 107.413 27.8228C107.098 27.1366 108.043 26.2852 109.618 24.9632C110.148 24.5194 110.868 23.9151 110.976 23.7042C110.976 23.2888 110.737 22.8748 110.441 22.4185L108.708 19.7525C108.474 19.3543 108.195 18.9847 107.876 18.6509C107.088 17.9017 105.79 17.5964 104.392 17.8356C102.462 18.1661 101.539 19.0427 100.597 20.4591C100.325 20.8667 100.014 21.6048 99.6865 22.3854C99.1304 23.7042 98.6057 24.9491 97.9913 25.4086C97.017 26.1459 96.1044 26.9612 95.2626 27.8464C94.4087 28.7072 93.6603 29.4642 92.4961 30.0843Z" fill="#0F0F0F"/>
<path d="M154.467 155.4C154.467 155.4 153.117 171.81 157.486 171.826C169.108 171.87 182.397 175.877 179.543 171.291C176.316 166.118 168.432 164.764 164.339 164.412C164.026 164.383 163.723 164.288 163.451 164.131C163.179 163.974 162.944 163.761 162.763 163.504C162.581 163.248 162.457 162.956 162.4 162.647C162.342 162.339 162.353 162.022 162.43 161.718L164.322 154.187L154.467 155.4Z" fill="white"/>
<path d="M177.148 173.854C175.448 173.854 173.04 173.581 169.858 173.197C166.017 172.725 161.666 172.207 157.484 172.191C157.184 172.186 156.888 172.118 156.616 171.989C156.344 171.861 156.103 171.676 155.909 171.447C153.073 168.359 154.061 155.901 154.105 155.371C154.112 155.288 154.147 155.21 154.204 155.149C154.261 155.089 154.338 155.05 154.42 155.039L164.281 153.825C164.339 153.818 164.398 153.826 164.453 153.847C164.508 153.867 164.557 153.901 164.596 153.945C164.635 153.989 164.663 154.042 164.677 154.1C164.691 154.158 164.691 154.218 164.676 154.275L162.773 161.806C162.708 162.061 162.7 162.327 162.749 162.585C162.797 162.844 162.902 163.088 163.055 163.302C163.205 163.514 163.4 163.691 163.625 163.819C163.85 163.948 164.101 164.026 164.36 164.048C168.735 164.426 176.565 165.844 179.842 171.099C180.332 171.886 180.422 172.504 180.113 172.987C179.722 173.612 178.748 173.854 177.148 173.854ZM154.809 155.726C154.675 157.648 154.048 168.345 156.444 170.952C156.571 171.108 156.73 171.234 156.91 171.322C157.09 171.409 157.287 171.457 157.487 171.461C161.71 171.478 166.085 172.007 169.946 172.473C174.547 173.028 178.893 173.554 179.503 172.597C179.678 172.323 179.45 171.84 179.227 171.484C176.119 166.499 168.543 165.141 164.303 164.775C163.939 164.744 163.586 164.634 163.269 164.452C162.952 164.271 162.678 164.023 162.466 163.726C162.252 163.425 162.106 163.082 162.038 162.72C161.97 162.358 161.982 161.985 162.072 161.628L163.849 154.614L154.809 155.726Z" fill="#0F0F0F"/>
<path d="M135.831 85.7705V85.7925C123.218 78.6775 109.035 80.2214 104.405 80.9925C95.8391 79.7335 79.1832 72.6091 100.977 33.9903L95.1349 25.8445C95.1349 25.8445 35.4812 83.0243 96.6978 108.559L95.8202 114.5C113.346 135.837 139.41 164.286 142.612 151.132C144.392 143.828 144.149 133.956 143.582 126.618C151.001 137.485 153.178 148.926 152.745 158.093C152.745 158.115 152.745 158.159 152.745 158.159L164.771 158.369C164.771 158.369 164.799 158.298 164.824 158.221C181.034 108.154 135.831 85.7705 135.831 85.7705Z" fill="white"/>
<path d="M164.771 158.727L152.745 158.518C152.696 158.518 152.648 158.507 152.604 158.487C152.559 158.467 152.519 158.439 152.485 158.403C152.452 158.368 152.426 158.326 152.409 158.28C152.391 158.234 152.384 158.185 152.386 158.136V158.076C152.673 152.003 151.942 140.182 144.053 127.978C144.526 134.99 144.668 144.265 142.973 151.219C142.489 153.207 141.471 154.39 139.951 154.736C131.491 156.667 108.493 130.5 95.5414 114.731C95.5087 114.692 95.4847 114.646 95.4711 114.597C95.4576 114.548 95.4546 114.497 95.4626 114.446L96.2976 108.781C80.5571 102.154 71.4571 92.8038 69.2483 80.9879C66.7181 67.4535 73.8345 53.1023 80.2483 43.4409C87.1804 33.0037 94.8088 25.6463 94.8844 25.5739C94.9222 25.5375 94.9673 25.5097 95.0168 25.4924C95.0663 25.475 95.1189 25.4684 95.1712 25.4732C95.2239 25.4786 95.2747 25.4955 95.3202 25.5227C95.3657 25.5499 95.4046 25.5867 95.4343 25.6306L101.276 33.7764C101.317 33.8328 101.34 33.8997 101.344 33.9691C101.348 34.0385 101.332 34.1076 101.298 34.1683C91.3617 51.7772 88.3052 64.7293 92.2108 72.6863C94.8891 78.1378 100.306 80.0122 104.402 80.6228C108.645 79.9225 123.139 78.2622 135.902 85.4134C135.934 85.4178 135.965 85.4279 135.993 85.4433C136.107 85.4984 147.475 91.2112 156.695 102.994C162.113 109.919 165.746 117.559 167.49 125.699C169.669 135.868 168.889 146.846 165.173 158.326C165.143 158.417 165.11 158.501 165.11 158.501C165.082 158.568 165.035 158.625 164.975 158.665C164.914 158.706 164.843 158.727 164.771 158.727ZM153.127 157.796L164.512 157.993C172.774 132.356 164.522 114.193 156.136 103.466C147.508 92.4277 136.978 86.7731 135.781 86.1546C135.735 86.1488 135.691 86.1338 135.651 86.1106C123.013 78.9814 108.586 80.6669 104.465 81.353C104.427 81.3594 104.389 81.3594 104.351 81.353C100.076 80.7235 94.3834 78.7705 91.5554 73.0121C87.5522 64.8568 90.5771 51.7394 100.545 34.0172L95.0861 26.4064C89.7972 31.7667 85.0289 37.6158 80.8454 43.8753C74.5104 53.4202 67.4791 67.5857 69.9636 80.8715C72.1362 92.4953 81.1794 101.702 96.838 108.235C96.9128 108.266 96.9752 108.321 97.0151 108.391C97.0551 108.462 97.0704 108.543 97.0586 108.623L96.2047 114.405C118.003 140.923 133.896 155.364 139.785 154.025C141.032 153.742 141.834 152.766 142.26 151.047C144.047 143.717 143.768 133.736 143.222 126.654C143.214 126.574 143.234 126.493 143.278 126.425C143.322 126.357 143.387 126.306 143.463 126.279C143.539 126.252 143.622 126.251 143.699 126.277C143.775 126.302 143.841 126.352 143.886 126.42C152.474 138.991 153.385 151.354 153.127 157.796Z" fill="#0F0F0F"/>
<path d="M98.2008 99.9471C98.1634 99.9476 98.1261 99.9417 98.0906 99.9298C98.0448 99.9157 98.0023 99.8926 97.9655 99.8619C97.9287 99.8313 97.8984 99.7936 97.8763 99.7512C97.8542 99.7088 97.8407 99.6624 97.8366 99.6147C97.8326 99.567 97.838 99.519 97.8527 99.4734L102.106 85.9783C102.138 85.8896 102.204 85.8167 102.288 85.7749C102.373 85.733 102.471 85.7256 102.561 85.7541C102.651 85.7826 102.726 85.8448 102.771 85.9277C102.816 86.0106 102.828 86.1077 102.803 86.1987L98.549 99.6922C98.5256 99.7661 98.4792 99.8306 98.4166 99.8765C98.354 99.9223 98.2785 99.9471 98.2008 99.9471Z" fill="#0F0F0F"/>
<path d="M134.826 146.236C134.771 146.236 134.717 146.223 134.668 146.199C134.511 146.126 119.473 138.635 110.737 121.264C110.712 121.221 110.697 121.173 110.691 121.124C110.685 121.075 110.69 121.025 110.704 120.977C110.718 120.93 110.742 120.885 110.774 120.847C110.806 120.81 110.846 120.778 110.89 120.756C110.934 120.734 110.983 120.721 111.032 120.718C111.082 120.715 111.132 120.722 111.178 120.739C111.225 120.756 111.268 120.782 111.304 120.816C111.34 120.85 111.369 120.891 111.389 120.936C120.01 138.078 134.84 145.472 134.99 145.544C135.063 145.58 135.123 145.64 135.158 145.714C135.193 145.788 135.203 145.872 135.184 145.952C135.166 146.032 135.121 146.104 135.058 146.155C134.994 146.207 134.914 146.235 134.832 146.236H134.826Z" fill="#0F0F0F"/>
<path d="M118.752 25.9394L106.802 35.0792C106.134 35.5896 106.007 36.5438 106.518 37.2105L108.16 39.3522C108.671 40.0189 109.626 40.1455 110.294 39.6351L122.244 30.4953C122.911 29.9849 123.038 29.0307 122.527 28.364L120.885 26.2223C120.374 25.5557 119.419 25.429 118.752 25.9394Z" fill="#0F0F0F"/>
<path d="M101.093 3.19628L89.1431 12.336C88.4757 12.8465 88.3489 13.8007 88.8599 14.4673L90.5849 16.7178C91.0958 17.3844 92.0511 17.5111 92.7185 17.0006L104.668 7.86088C105.336 7.35045 105.463 6.39624 104.952 5.72959L103.227 3.47913C102.716 2.81249 101.76 2.68585 101.093 3.19628Z" fill="#0F0F0F"/>
<path d="M117.651 31.5111L99.1711 7.4021L93.856 11.4673L112.335 35.5763L117.651 31.5111Z" fill="#0F0F0F"/>
<path d="M102.614 17.0614C102.571 17.1747 102.532 17.288 102.497 17.4013C101.566 20.4355 105.413 18.0875 106.667 16.9984C105.977 17.7334 104.342 19.1403 103.701 19.9571C103.06 20.7739 102.726 21.8771 103.751 22.483C105.415 23.4682 107.583 20.722 108.857 19.9162C108.037 20.4355 107.031 21.704 106.46 22.5129C106.119 22.985 105.286 24.3133 106.074 24.6218C107.402 25.1364 110.409 22.59 111.414 21.9212C110.535 22.5507 108.931 23.9088 108.361 24.8295C107.306 26.5323 108.873 27.6151 110.431 26.718C111.829 25.906 114.817 24.713 114.622 22.7364C114.564 22.1383 114.307 21.5828 114.027 21.0477C112.818 18.6761 111.366 16.4193 109.582 14.4379C107.107 11.6917 103.666 14.3073 102.614 17.0614Z" fill="white"/>
<path d="M109.298 27.4056C109.07 27.4119 108.842 27.3718 108.629 27.2876C108.416 27.2035 108.223 27.0771 108.06 26.9161C107.517 26.3574 107.513 25.4997 108.051 24.6373C108.063 24.6153 108.078 24.5948 108.092 24.5728C107.26 24.9898 106.516 25.1834 105.941 24.9615C105.817 24.9166 105.706 24.8434 105.616 24.7477C105.525 24.6521 105.459 24.5367 105.421 24.4107C105.264 23.8976 105.579 23.2115 105.936 22.6386C105.149 23.0745 104.334 23.2524 103.573 22.796C103.369 22.6846 103.191 22.53 103.053 22.343C102.915 22.156 102.819 21.941 102.773 21.7132C102.661 21.1199 102.897 20.396 103.42 19.7303C103.618 19.486 103.828 19.2522 104.051 19.0299C103.42 19.2707 102.815 19.3541 102.418 19.0976C101.966 18.8033 101.878 18.1974 102.154 17.2941C102.192 17.1729 102.232 17.0517 102.278 16.9305C103.042 14.924 104.799 13.2936 106.541 12.9678C107.78 12.7349 108.928 13.1582 109.861 14.1906C111.645 16.2129 113.157 18.4599 114.357 20.8744C114.642 21.4331 114.928 22.0359 114.988 22.6921C115.175 24.6027 112.969 25.7688 111.364 26.6265C111.09 26.7729 110.836 26.9067 110.62 27.031C110.22 27.2701 109.764 27.3993 109.298 27.4056ZM111.413 21.5606C111.49 21.5606 111.565 21.585 111.628 21.6304C111.69 21.6758 111.737 21.7398 111.761 21.8132C111.784 21.8866 111.784 21.9657 111.76 22.0391C111.736 22.1124 111.69 22.1763 111.627 22.2216C110.745 22.8511 109.195 24.1793 108.671 25.0244C108.322 25.5894 108.289 26.1072 108.585 26.4109C108.881 26.7147 109.513 26.8248 110.247 26.3999C110.471 26.2693 110.732 26.1308 111.016 25.9813C112.443 25.2259 114.398 24.1919 114.26 22.7677C114.206 22.2373 113.965 21.7274 113.7 21.2096C112.412 18.679 110.935 16.4883 109.311 14.6832C108.55 13.8349 107.662 13.5013 106.669 13.6917C105.185 13.9703 103.622 15.4449 102.956 17.1981C102.915 17.303 102.878 17.4079 102.847 17.5128C102.656 18.1298 102.708 18.4256 102.809 18.4917C103.268 18.7892 105.268 17.7332 106.433 16.7275C106.504 16.6693 106.594 16.6399 106.686 16.6452C106.778 16.6506 106.864 16.6903 106.928 16.7563C106.992 16.8224 107.028 16.9101 107.03 17.0019C107.032 17.0937 106.999 17.1828 106.938 17.2516C106.663 17.5459 106.244 17.9409 105.799 18.3532C105.128 18.9827 104.367 19.7035 103.992 20.1804C103.617 20.6572 103.416 21.197 103.488 21.5779C103.515 21.7041 103.57 21.8227 103.648 21.9248C103.727 22.027 103.828 22.1101 103.943 22.168C104.945 22.7614 106.343 21.5385 107.466 20.5659C107.844 20.2188 108.245 19.8981 108.667 19.6059C108.707 19.5765 108.753 19.5557 108.802 19.5447C108.851 19.5337 108.901 19.5329 108.95 19.5422C108.999 19.5515 109.046 19.5708 109.088 19.5989C109.129 19.6269 109.164 19.6632 109.191 19.7053C109.218 19.7475 109.235 19.7947 109.243 19.8441C109.251 19.8934 109.249 19.9438 109.236 19.9922C109.224 20.0405 109.201 20.0858 109.171 20.1252C109.14 20.1646 109.101 20.1973 109.057 20.2213L109.042 20.2323C108.163 20.8004 107.077 22.2782 106.764 22.722C106.244 23.457 106.069 24.0046 106.133 24.1998C106.133 24.2234 106.149 24.2533 106.22 24.28C107.123 24.631 109.398 22.9486 110.493 22.1413C110.789 21.9241 111.039 21.74 111.224 21.6172C111.28 21.5809 111.346 21.5613 111.413 21.5606Z" fill="#0F0F0F"/>
<path d="M135.511 69.8472C141.136 69.8472 145.695 65.2926 145.695 59.6743C145.695 54.056 141.136 49.5015 135.511 49.5015C129.887 49.5015 125.327 54.056 125.327 59.6743C125.327 65.2926 129.887 69.8472 135.511 69.8472Z" fill="white"/>
<path d="M135.511 70.2123C133.424 70.2123 131.383 69.5939 129.647 68.4353C127.911 67.2767 126.558 65.6299 125.759 63.7032C124.96 61.7764 124.751 59.6563 125.158 57.611C125.566 55.5656 126.571 53.6868 128.047 52.2121C129.523 50.7375 131.404 49.7332 133.452 49.3264C135.5 48.9195 137.622 49.1283 139.551 49.9264C141.48 50.7245 143.128 52.076 144.288 53.81C145.448 55.544 146.067 57.5826 146.067 59.668C146.067 62.4646 144.955 65.1465 142.975 67.124C140.996 69.1014 138.311 70.2123 135.511 70.2123ZM135.511 49.8666C133.569 49.8669 131.671 50.4424 130.057 51.5203C128.442 52.5981 127.184 54.13 126.441 55.9222C125.699 57.7143 125.504 59.6863 125.883 61.5887C126.262 63.4911 127.198 65.2385 128.571 66.61C129.944 67.9815 131.693 68.9154 133.598 69.2937C135.502 69.672 137.477 69.4777 139.271 68.7354C141.064 67.993 142.598 66.7359 143.677 65.1231C144.755 63.5102 145.331 61.6141 145.331 59.6743C145.328 57.0738 144.293 54.5806 142.452 52.7419C140.611 50.9032 138.115 49.8691 135.511 49.8666Z" fill="#0F0F0F"/>
<path d="M125.327 59.6742C125.328 61.8909 126.053 64.0467 127.393 65.8139C128.733 67.5811 130.614 68.863 132.749 69.4646C134.068 67.3684 137.065 60.9143 133.276 49.75C131.02 50.2576 129.004 51.5166 127.56 53.3202C126.115 55.1237 125.328 57.3645 125.327 59.6742Z" fill="#0F0F0F"/>
<path d="M108.078 58.1996C107.161 57.46 102.406 55.8626 105.902 50.4378C109.398 45.013 121.483 44.5283 126.564 47.4162C131.645 50.304 133.397 58.5726 133.134 63.1665C132.871 67.7603 130.243 73.5345 124.987 75.7661C118.814 78.388 110.579 60.2109 108.078 58.1996Z" fill="white"/>
<path d="M123.742 76.3861C119.359 76.3861 114.469 68.5534 111.123 63.1932C109.724 60.9521 108.517 59.0179 107.854 58.4829C107.683 58.3598 107.505 58.2469 107.321 58.1445C106.376 57.5874 104.801 56.6526 104.375 54.8742C104.06 53.5444 104.473 51.9848 105.601 50.2394C109.224 44.6305 121.614 44.1804 126.75 47.0919C131.886 50.0034 133.784 58.2531 133.502 63.1806C133.23 67.957 130.537 73.8019 125.135 76.0949C124.696 76.2861 124.222 76.3852 123.742 76.3861ZM108.312 57.9147C109.072 58.5269 110.25 60.4154 111.744 62.806C115.317 68.5314 120.724 77.184 124.85 75.4308C129.962 73.259 132.515 67.6957 132.775 63.1444C133.046 58.4057 131.243 50.4912 126.389 47.7324C121.469 44.939 109.653 45.3246 106.214 50.6345C105.199 52.2082 104.819 53.5774 105.086 54.7074C105.435 56.1836 106.793 56.9862 107.693 57.5166C107.908 57.6356 108.115 57.7686 108.312 57.9147Z" fill="#0F0F0F"/>
<path d="M106.926 54.3061C106.585 53.8607 106.611 60.7585 106.348 61.4856C106.084 62.2127 103.786 65.4625 103.654 65.9866C103.521 66.5106 105.294 67.5729 105.623 67.9019C105.952 68.2308 106.152 73.964 107.072 75.1412C107.635 75.862 112.516 74.9099 112.771 75.0893C113.428 75.5488 113.823 80.3409 113.429 81.7857C113.429 81.7857 108.567 86.507 108.437 87.5598C108.306 88.6127 121.986 89.0077 126.722 84.6767L125.619 82.08C124.125 78.5547 124.571 75.7377 124.571 75.7377C124.571 75.7377 118.899 76.2664 118.984 70.9502C119.021 68.6415 121.228 65.9819 120.94 64.2491C120.702 62.8186 119.364 62.3763 118.016 62.3071C115.662 62.2048 113.427 61.2466 111.731 59.6128C110.19 58.1099 108.372 56.2024 106.926 54.3061Z" fill="white"/>
<path d="M112.943 88.6144C110.737 88.6144 109.029 88.4035 108.462 88.1108C108.085 87.9172 108.057 87.6575 108.074 87.519C108.208 86.4504 111.856 82.8103 113.1 81.6016C113.433 80.1428 113.028 76.0588 112.594 75.4356C112.372 75.4356 111.807 75.4986 111.299 75.5552C108.577 75.8605 107.203 75.9109 106.784 75.3695C106.198 74.6172 105.913 72.5367 105.625 70.1037C105.528 69.2837 105.418 68.3599 105.335 68.1317C105.246 68.0546 105.062 67.9193 104.882 67.7887C103.865 67.0443 103.149 66.473 103.299 65.9001C103.373 65.6074 103.772 64.9732 104.656 63.5961C105.232 62.6991 105.888 61.6824 106.004 61.3614C106.102 61.0923 106.171 59.3045 106.222 57.9982C106.367 54.2212 106.419 54.0544 106.778 53.9411C106.857 53.9168 106.942 53.9178 107.02 53.9441C107.099 53.9703 107.167 54.0204 107.216 54.0874C108.68 55.9552 110.276 57.717 111.989 59.3595C113.623 60.9296 115.773 61.8501 118.038 61.9484C120.448 62.0727 121.143 63.2389 121.302 64.1957C121.46 65.1841 120.946 66.3581 120.395 67.5998C119.89 68.7313 119.369 69.9022 119.352 70.963C119.33 72.3605 119.728 73.4479 120.535 74.1955C122.049 75.5946 124.514 75.3837 124.54 75.3805C124.595 75.3757 124.65 75.3834 124.702 75.403C124.754 75.4227 124.801 75.4539 124.839 75.4941C124.877 75.5344 124.905 75.5828 124.922 75.6356C124.939 75.6884 124.943 75.7444 124.935 75.7992C124.935 75.8275 124.527 78.5674 125.958 81.9369L127.06 84.5336C127.089 84.603 127.096 84.6796 127.08 84.7531C127.064 84.8266 127.026 84.8933 126.971 84.9443C123.914 87.7472 117.415 88.6144 112.943 88.6144ZM108.835 87.4891C110.209 88.1894 121.842 88.3342 126.284 84.5808L125.286 82.2201C124.095 79.4125 124.1 77.0582 124.168 76.1155H124.147C123.279 76.1155 121.382 75.9581 120.043 74.7227C119.077 73.8288 118.6 72.5572 118.625 70.9456C118.644 69.737 119.196 68.4969 119.728 67.2976C120.234 66.1598 120.713 65.0833 120.584 64.3075C120.417 63.3003 119.547 62.7494 118.001 62.6692C115.559 62.5621 113.24 61.5676 111.481 59.8726C109.925 58.3747 108.461 56.7844 107.098 55.1104C107.036 55.85 106.989 57.0587 106.953 58.0187C106.875 60.0079 106.823 61.2449 106.693 61.6037C106.562 61.9626 106.042 62.7856 105.275 63.9833C104.785 64.745 104.12 65.7774 104.014 66.0449C104.104 66.3109 104.979 66.9498 105.313 67.1922C105.51 67.3284 105.699 67.4771 105.878 67.6376C106.075 67.8327 106.138 68.2325 106.351 70.0108C106.551 71.7042 106.853 74.26 107.362 74.9163C107.704 75.2184 110.167 74.943 111.219 74.825C112.564 74.6676 112.794 74.6597 112.982 74.7888C113.911 75.4388 114.142 80.5677 113.784 81.8708C113.767 81.9341 113.733 81.9917 113.686 82.0376C111.474 84.1968 109.155 86.7227 108.835 87.4891Z" fill="#0F0F0F"/>
<path d="M118.257 69.8251C118.21 69.8249 118.164 69.8222 118.118 69.8173C117.912 69.783 117.715 69.7032 117.544 69.5837C117.372 69.4642 117.229 69.308 117.125 69.1264C117.078 69.0417 117.067 68.9417 117.093 68.8484C117.12 68.7551 117.182 68.6762 117.267 68.6291C117.352 68.5819 117.452 68.5703 117.546 68.5969C117.639 68.6235 117.718 68.686 117.765 68.7707C117.813 68.8506 117.878 68.9197 117.954 68.9738C118.03 69.0279 118.116 69.0659 118.208 69.0855C118.441 69.1122 118.734 68.9391 119.052 68.5913C119.084 68.5537 119.123 68.5228 119.167 68.5006C119.211 68.4785 119.259 68.4654 119.308 68.4622C119.357 68.459 119.407 68.4658 119.453 68.4821C119.5 68.4984 119.542 68.524 119.579 68.5572C119.615 68.5904 119.644 68.6306 119.665 68.6754C119.685 68.7202 119.696 68.7687 119.697 68.8179C119.698 68.8671 119.69 68.916 119.671 68.9617C119.653 69.0074 119.626 69.049 119.591 69.0839C119.147 69.5781 118.698 69.8251 118.257 69.8251Z" fill="#0F0F0F"/>
<path d="M112.538 75.4323C112.445 75.4311 112.357 75.3949 112.29 75.3311C112.223 75.2673 112.183 75.1807 112.178 75.0886C112.172 74.9964 112.202 74.9057 112.261 74.8346C112.32 74.7635 112.404 74.7173 112.495 74.7053C113.653 74.5683 114.482 74.0396 114.954 73.1315C115.001 73.0484 115.078 72.9866 115.169 72.9594C115.26 72.9321 115.359 72.9416 115.443 72.9857C115.528 73.0298 115.591 73.1051 115.621 73.1955C115.651 73.286 115.644 73.3844 115.602 73.4698C115.195 74.2457 114.342 75.2167 112.58 75.426L112.538 75.4323Z" fill="#0F0F0F"/>
<path d="M10.9385 115.842C10.8807 115.842 10.8237 115.828 10.7722 115.802C10.7208 115.776 10.6763 115.737 10.6424 115.691C10.6086 115.644 10.5864 115.589 10.5776 115.532C10.5688 115.475 10.5737 115.417 10.5919 115.362C19.5264 88.3121 34.6604 66.188 54.3617 51.3836C54.4 51.3548 54.4436 51.3339 54.4899 51.322C54.5363 51.3101 54.5846 51.3074 54.632 51.3142C54.6794 51.3209 54.725 51.3369 54.7662 51.3612C54.8074 51.3855 54.8434 51.4177 54.8722 51.456C54.9009 51.4942 54.9219 51.5377 54.9338 51.584C54.9457 51.6304 54.9484 51.6786 54.9417 51.7259C54.9349 51.7733 54.9189 51.8188 54.8946 51.86C54.8702 51.9012 54.838 51.9371 54.7997 51.9659C35.2197 66.6822 20.1661 88.6819 11.2851 115.59C11.261 115.663 11.2146 115.727 11.1524 115.772C11.0903 115.817 11.0154 115.842 10.9385 115.842Z" fill="#0F0F0F"/>
<path d="M15.7815 91.8751C15.7268 91.8743 15.673 91.8614 15.6239 91.8373C15.5384 91.793 15.4738 91.7167 15.4443 91.625C15.4148 91.5333 15.4227 91.4337 15.4664 91.3479C23.9771 74.1245 35.1125 59.8205 48.5482 48.834C48.623 48.7729 48.719 48.7439 48.8152 48.7535C48.9114 48.7631 48.9998 48.8105 49.061 48.8852C49.1222 48.9599 49.1512 49.0558 49.1416 49.1519C49.132 49.248 49.0846 49.3363 49.0098 49.3974C35.6561 60.3178 24.59 74.5416 16.1092 91.6721C16.0786 91.7328 16.0319 91.7839 15.974 91.8198C15.9162 91.8556 15.8495 91.8748 15.7815 91.8751Z" fill="#0F0F0F"/>
<path d="M211.999 270.651C211.915 270.65 211.834 270.62 211.769 270.566C211.704 270.512 211.66 270.438 211.644 270.356C211.628 270.273 211.641 270.188 211.68 270.114C211.72 270.039 211.784 269.981 211.862 269.949C215.457 268.482 219.068 266.888 222.591 265.212C224.921 264.11 227.257 262.939 229.532 261.75C229.575 261.726 229.622 261.711 229.67 261.706C229.719 261.7 229.768 261.705 229.815 261.719C229.862 261.733 229.905 261.756 229.943 261.787C229.98 261.818 230.011 261.856 230.034 261.899C230.057 261.942 230.07 261.99 230.074 262.038C230.078 262.087 230.073 262.136 230.057 262.182C230.042 262.228 230.018 262.271 229.986 262.308C229.954 262.345 229.915 262.375 229.871 262.396C227.587 263.589 225.244 264.757 222.906 265.87C219.369 267.552 215.747 269.151 212.137 270.622C212.094 270.641 212.046 270.651 211.999 270.651Z" fill="#0F0F0F"/>
<path d="M140.942 288C136.887 288 132.85 287.861 128.833 287.583C128.736 287.576 128.646 287.531 128.583 287.458C128.519 287.386 128.487 287.291 128.494 287.194C128.502 287.098 128.547 287.009 128.62 286.946C128.692 286.882 128.787 286.849 128.883 286.854C160.837 289.072 194.242 282.39 225.486 267.53C227.834 266.414 230.191 265.239 232.491 264.039C232.534 264.016 232.581 264.001 232.629 263.995C232.678 263.99 232.727 263.994 232.773 264.008C232.82 264.022 232.864 264.046 232.901 264.077C232.939 264.108 232.97 264.146 232.993 264.189C233.015 264.232 233.029 264.28 233.033 264.328C233.037 264.377 233.031 264.426 233.016 264.472C233.001 264.518 232.977 264.561 232.945 264.598C232.913 264.635 232.874 264.665 232.83 264.686C230.522 265.89 228.157 267.069 225.8 268.189C198.371 281.233 169.272 288 140.942 288Z" fill="#0F0F0F"/>
<path d="M291.85 184.407C291.819 184.407 291.787 184.403 291.757 184.394C291.711 184.382 291.667 184.361 291.629 184.332C291.591 184.303 291.559 184.267 291.534 184.225C291.51 184.184 291.495 184.138 291.488 184.091C291.482 184.043 291.485 183.995 291.497 183.949C297.049 162.977 296.326 141.742 289.407 122.54C286.156 113.538 281.611 105.055 275.916 97.3597C275.864 97.2816 275.844 97.1867 275.861 97.0944C275.877 97.0022 275.928 96.9198 276.004 96.8642C276.079 96.8086 276.173 96.7841 276.266 96.7958C276.359 96.8075 276.444 96.8544 276.503 96.9269C282.241 104.679 286.819 113.223 290.093 122.291C297.065 141.631 297.793 163.017 292.203 184.141C292.181 184.217 292.135 184.285 292.071 184.333C292.008 184.381 291.93 184.407 291.85 184.407Z" fill="#0F0F0F"/>
<path d="M288.986 174.659C288.352 174.658 287.734 174.462 287.217 174.095C286.7 173.728 286.31 173.21 286.101 172.613C285.971 172.236 285.917 171.837 285.942 171.439C285.967 171.042 286.07 170.653 286.246 170.295C286.421 169.937 286.666 169.617 286.966 169.354C287.265 169.091 287.614 168.89 287.992 168.762C288.755 168.502 289.591 168.555 290.316 168.909C291.041 169.262 291.596 169.889 291.86 170.65C292.016 171.106 292.062 171.593 291.992 172.07C291.923 172.547 291.74 173.001 291.46 173.394C291.18 173.786 290.81 174.106 290.381 174.327C289.952 174.549 289.476 174.664 288.994 174.665L288.986 174.659ZM288.969 169.328C288.602 169.327 288.24 169.414 287.914 169.582C287.587 169.749 287.306 169.992 287.093 170.29C286.88 170.589 286.741 170.933 286.689 171.296C286.636 171.659 286.671 172.029 286.791 172.375C286.993 172.953 287.416 173.427 287.967 173.694C288.517 173.962 289.151 174.002 289.731 173.804C290.017 173.706 290.282 173.553 290.509 173.353C290.736 173.154 290.921 172.911 291.053 172.639C291.186 172.368 291.264 172.073 291.282 171.771C291.301 171.469 291.259 171.167 291.16 170.882C291.001 170.428 290.705 170.034 290.312 169.756C289.92 169.478 289.45 169.328 288.969 169.328Z" fill="#0F0F0F"/>
<path d="M281.454 123.099H281.395C277.981 122.545 274.585 121.692 274.551 121.682C274.493 121.667 274.439 121.638 274.395 121.598C274.35 121.557 274.316 121.506 274.296 121.449C274.276 121.393 274.27 121.332 274.28 121.272C274.289 121.212 274.313 121.156 274.35 121.108L278.744 115.312C278.784 115.26 278.837 115.221 278.898 115.197C278.959 115.173 279.025 115.166 279.09 115.177C279.154 115.188 279.215 115.215 279.265 115.257C279.315 115.299 279.352 115.354 279.374 115.416L281.794 122.622C281.812 122.677 281.817 122.735 281.808 122.792C281.799 122.849 281.777 122.903 281.743 122.95C281.71 122.997 281.665 123.035 281.614 123.062C281.562 123.088 281.505 123.102 281.447 123.102L281.454 123.099ZM275.268 121.103C276.27 121.342 278.539 121.866 280.915 122.274L278.908 116.294L275.268 121.103Z" fill="#0F0F0F"/>
<path d="M202.886 3.09716C202.79 3.09737 202.697 3.05948 202.628 2.99172L201.23 1.59578C201.193 1.5627 201.163 1.52235 201.142 1.47721C201.121 1.43208 201.109 1.38312 201.108 1.33334C201.107 1.28355 201.115 1.23401 201.134 1.18774C201.152 1.14148 201.18 1.09947 201.215 1.06431C201.251 1.02915 201.293 1.00157 201.339 0.983282C201.385 0.96499 201.435 0.956369 201.485 0.957947C201.535 0.959525 201.584 0.97127 201.629 0.99246C201.674 1.01365 201.714 1.04383 201.747 1.08116L203.145 2.47552C203.196 2.52637 203.231 2.59133 203.245 2.66213C203.259 2.73292 203.252 2.80634 203.224 2.87303C203.197 2.93971 203.15 2.99664 203.09 3.03656C203.029 3.07648 202.959 3.09757 202.886 3.09716Z" fill="#0F0F0F"/>
<path d="M207.777 7.979C207.729 7.97895 207.682 7.96946 207.637 7.9511C207.593 7.93273 207.553 7.90585 207.52 7.87199L206.122 6.47763C206.085 6.44466 206.055 6.4044 206.034 6.35933C206.012 6.31426 206.001 6.26533 205.999 6.21555C205.997 6.16578 206.006 6.1162 206.024 6.06988C206.043 6.02356 206.07 5.98147 206.105 5.9462C206.141 5.91093 206.183 5.88323 206.229 5.8648C206.275 5.84636 206.325 5.83759 206.375 5.83902C206.425 5.84044 206.474 5.85204 206.519 5.87309C206.564 5.89414 206.604 5.9242 206.637 5.96143L208.035 7.35579C208.088 7.40648 208.125 7.47207 208.14 7.54396C208.156 7.61586 208.149 7.69072 208.121 7.75875C208.093 7.82677 208.045 7.88479 207.984 7.92521C207.922 7.96564 207.85 7.98658 207.777 7.9853V7.979Z" fill="#0F0F0F"/>
<path d="M201.489 7.97898C201.415 7.98026 201.343 7.95932 201.281 7.91889C201.22 7.87847 201.172 7.82045 201.144 7.75243C201.116 7.6844 201.11 7.60954 201.125 7.53764C201.14 7.46575 201.177 7.40016 201.23 7.34947L202.628 5.95511C202.662 5.91985 202.702 5.89166 202.747 5.8722C202.791 5.85275 202.839 5.84242 202.888 5.84182C202.937 5.84123 202.985 5.85038 203.03 5.86874C203.076 5.8871 203.117 5.9143 203.151 5.94874C203.185 5.98317 203.213 6.02414 203.231 6.06925C203.249 6.11435 203.259 6.16267 203.258 6.21136C203.257 6.26006 203.247 6.30814 203.228 6.35278C203.208 6.39742 203.18 6.43772 203.145 6.47131L201.747 7.86881C201.714 7.90336 201.673 7.93089 201.629 7.9498C201.585 7.96872 201.537 7.97863 201.489 7.97898Z" fill="#0F0F0F"/>
<path d="M206.387 3.09719C206.315 3.09729 206.244 3.07597 206.184 3.03593C206.124 2.99589 206.078 2.93895 206.05 2.87233C206.023 2.80571 206.016 2.73242 206.03 2.66177C206.044 2.59112 206.079 2.52631 206.13 2.47555L207.528 1.08119C207.596 1.01295 207.689 0.974609 207.785 0.974609C207.882 0.974609 207.975 1.01295 208.043 1.08119C208.111 1.14943 208.15 1.24199 208.15 1.3385C208.15 1.43501 208.111 1.52757 208.043 1.59581L206.638 2.99017C206.571 3.05704 206.481 3.09543 206.387 3.09719Z" fill="#0F0F0F"/>
<path d="M196.41 20.7739C195.756 20.772 195.117 20.5766 194.574 20.2123C194.031 19.848 193.609 19.3312 193.36 18.7272C193.111 18.1231 193.046 17.4589 193.175 16.8184C193.304 16.178 193.62 15.59 194.083 15.1287C194.546 14.6675 195.135 14.3536 195.777 14.2269C196.419 14.1001 197.083 14.1661 197.687 14.4165C198.291 14.667 198.807 15.0906 199.171 15.6338C199.534 16.1771 199.727 16.8157 199.727 17.469C199.724 18.3461 199.373 19.1862 198.751 19.8056C198.13 20.4249 197.288 20.7731 196.41 20.7739ZM196.41 14.8801C195.898 14.8807 195.399 15.0327 194.974 15.3169C194.549 15.601 194.218 16.0046 194.023 16.4766C193.828 16.9485 193.777 17.4677 193.877 17.9684C193.977 18.4692 194.224 18.9291 194.586 19.2899C194.947 19.6508 195.408 19.8964 195.909 19.9958C196.411 20.0952 196.931 20.0439 197.403 19.8483C197.875 19.6528 198.279 19.3218 198.563 18.8971C198.846 18.4725 198.998 17.9733 198.998 17.4627C198.998 17.1228 198.932 16.7861 198.802 16.472C198.672 16.1578 198.481 15.8723 198.241 15.6317C198.001 15.3911 197.715 15.2003 197.401 15.0699C197.087 14.9396 196.75 14.8725 196.41 14.8722V14.8801Z" fill="#0F0F0F"/>
<path d="M202.982 34.494C202.526 34.4952 202.079 34.361 201.698 34.1085C201.318 33.8559 201.021 33.4962 200.845 33.0751C200.67 32.6539 200.623 32.1901 200.712 31.7425C200.8 31.2948 201.019 30.8834 201.342 30.5603C201.664 30.2373 202.076 30.017 202.523 29.9276C202.971 29.8381 203.436 29.8834 203.858 30.0577C204.28 30.232 204.641 30.5275 204.895 30.9068C205.149 31.2861 205.284 31.7321 205.284 32.1884C205.283 32.7985 205.041 33.3835 204.609 33.8155C204.178 34.2475 203.593 34.4915 202.982 34.494ZM202.982 30.613C202.671 30.613 202.366 30.7053 202.107 30.8783C201.848 31.0512 201.646 31.297 201.527 31.5845C201.408 31.8721 201.376 32.1886 201.437 32.4938C201.498 32.7991 201.648 33.0795 201.868 33.2996C202.089 33.5197 202.369 33.6696 202.675 33.7303C202.981 33.7911 203.297 33.7599 203.585 33.6408C203.873 33.5217 204.119 33.32 204.292 33.0611C204.465 32.8023 204.558 32.4981 204.558 32.1868C204.558 31.7694 204.392 31.3691 204.096 31.074C203.801 30.7788 203.4 30.613 202.982 30.613Z" fill="#0F0F0F"/>
</g>
<defs>
<clipPath id="clip0_138_3660">
<rect width="300" height="288" fill="white"/>
</clipPath>
</defs>
</svg>
