<?xml version="1.0" standalone="no"?>
<!DOCTYPE svg PUBLIC "-//W3C//DTD SVG 20010904//EN"
 "http://www.w3.org/TR/2001/REC-SVG-20010904/DTD/svg10.dtd">
<svg version="1.0" xmlns="http://www.w3.org/2000/svg"
 width="700.000000pt" height="700.000000pt" viewBox="0 0 700.000000 700.000000"
 preserveAspectRatio="xMidYMid meet">
<metadata>
Created by potrace 1.14, written by Peter Selinger 2001-2017
</metadata>
<g transform="translate(0.000000,700.000000) scale(0.100000,-0.100000)"
fill="#000000" stroke="none">
<path d="M1541 6049 c-338 -66 -603 -331 -667 -667 -21 -110 -21 -3634 0
-3744 52 -271 224 -490 478 -607 178 -83 -19 -76 2163 -76 2200 0 1997 -8
2190 85 177 85 299 208 385 385 93 192 84 -8 88 2035 2 1274 0 1828 -8 1882
-43 301 -247 559 -526 664 -150 56 -54 54 -2137 53 -1057 -1 -1942 -5 -1966
-10z m3922 -284 c193 -41 353 -191 414 -390 17 -57 18 -131 18 -1525 l0 -1465
-27 -73 c-35 -97 -76 -159 -153 -231 -68 -63 -154 -110 -245 -132 -46 -12
-382 -14 -1960 -14 l-1905 0 -70 22 c-173 55 -298 172 -365 343 l-25 65 -3
1455 c-2 1049 0 1472 8 1515 38 200 212 382 413 431 82 20 3805 19 3900 -1z
m-4153 -4019 c36 -19 106 -47 155 -63 l90 -28 1960 0 c1871 0 1963 1 2030 18
89 24 235 94 304 147 l54 42 -7 -87 c-21 -257 -165 -443 -401 -518 l-70 -22
-1910 0 -1910 0 -70 22 c-125 39 -245 134 -313 246 -50 82 -73 161 -79 265
l-6 94 54 -41 c30 -23 83 -56 119 -75z"/>
<path d="M3245 5363 c-22 -2 -92 -13 -155 -24 -520 -89 -973 -355 -1296 -759
-81 -101 -84 -106 -65 -121 10 -8 213 -186 451 -395 237 -208 435 -380 438
-382 4 -1 18 19 32 45 129 245 291 390 522 469 105 35 203 47 345 41 149 -6
239 -28 358 -88 155 -79 248 -163 355 -324 29 -44 56 -84 61 -89 4 -5 79 53
166 130 87 76 289 254 450 396 l292 256 -78 94 c-344 412 -822 672 -1364 743
-108 14 -399 18 -512 8z m440 -283 c282 -33 557 -127 790 -273 98 -61 228
-162 288 -224 l38 -40 -221 -194 c-122 -107 -225 -195 -230 -197 -5 -2 -35 21
-67 52 -158 150 -352 252 -563 294 l-95 19 -5 155 c-6 170 -12 191 -73 228
-67 41 -158 18 -211 -53 -19 -25 -21 -45 -25 -183 -3 -152 -3 -154 -26 -154
-45 0 -218 -50 -305 -89 -123 -54 -250 -140 -343 -233 -78 -78 -79 -78 -102
-61 -13 10 -115 99 -228 198 l-204 180 21 26 c49 58 188 175 285 241 239 160
513 264 798 303 120 16 357 18 478 5z"/>
</g>
</svg>
