<svg aria-hidden="true" style="position: absolute; width: 0; height: 0; overflow: hidden;" version="1.1" xmlns="http://www.w3.org/2000/svg" xmlns:xlink="http://www.w3.org/1999/xlink">
<defs>
<symbol id="icon-direct-inbox" viewBox="0 0 32 32">
<path fill="none" stroke="" stroke-linejoin="round" stroke-linecap="round" stroke-miterlimit="4" stroke-width="2.2326" d="M16.013 2.616v9.369l2.677-2.677"></path>
<path fill="none" stroke="" stroke-linejoin="round" stroke-linecap="round" stroke-miterlimit="4" stroke-width="2.2326" d="M16.014 11.984l-2.677-2.677"></path>
<path fill="none" stroke="" stroke-linejoin="round" stroke-linecap="round" stroke-miterlimit="4" stroke-width="2.2326" d="M2.604 17.338h5.902c0.509 0 0.964 0.281 1.191 0.736l1.566 3.132c0.455 0.91 1.379 1.486 2.396 1.486h4.724c1.017 0 1.941-0.576 2.396-1.486l1.566-3.132c0.228-0.455 0.696-0.736 1.191-0.736h5.835"></path>
<path fill="none" stroke="" stroke-linejoin="round" stroke-linecap="round" stroke-miterlimit="4" stroke-width="2.2326" d="M9.321 5.467c-4.738 0.696-6.692 3.48-6.692 9.195v5.354c0 6.692 2.677 9.369 9.369 9.369h8.030c6.692 0 9.369-2.677 9.369-9.369v-5.354c0-5.715-1.954-8.499-6.692-9.195"></path>
</symbol>
<symbol id="icon-add" viewBox="0 0 32 32">
<path stroke-linejoin="round" stroke-linecap="round" stroke-miterlimit="4" stroke-width="2" d="M8.001 16.003h16.003M16.003 24.004v-16.003"></path>
</symbol>
<symbol id="icon-arrow-3" viewBox="0 0 32 32">
<path stroke-linejoin="round" stroke-linecap="round" stroke-miterlimit="4" stroke-width="2" d="M13.936 8.961l-4.961-4.961-4.961 4.961M8.975 28.005v-24.004M18.070 23.044l4.961 4.961 4.961-4.961M23.030 4.001v24.004"></path>
</symbol>
<symbol id="icon-arrow-down" viewBox="0 0 32 32">
<path stroke-linejoin="round" stroke-linecap="round" stroke-miterlimit="10" stroke-width="2" d="M26.564 11.935l-8.695 8.695c-1.027 1.027-2.707 1.027-3.734 0l-8.695-8.695"></path>
</symbol>
<symbol id="icon-arrow-right" viewBox="0 0 32 32">
<path stroke-linejoin="round" stroke-linecap="round" stroke-miterlimit="10" stroke-width="2" d="M8.001 16.003v-3.561c0-4.414 3.134-6.228 6.961-4.014l6.161 3.574c3.827 2.214 3.827 5.828 0 8.041l-6.161 3.574c-3.827 2.174-6.961 0.373-6.961-4.054v-3.561z"></path>
</symbol>
<symbol id="icon-bubble" viewBox="0 0 32 32">
<path stroke-linejoin="miter" stroke-linecap="butt" stroke-miterlimit="10" stroke-width="2" d="M20.79 16.349c3.778 0 6.841-3.063 6.841-6.841s-3.063-6.841-6.841-6.841v0c-3.778 0-6.841 3.063-6.841 6.841s3.063 6.841 6.841 6.841v0zM8.481 25.924c2.268 0 4.107-1.839 4.107-4.107s-1.839-4.107-4.107-4.107v0c-2.268 0-4.107 1.839-4.107 4.107s1.839 4.107 4.107 4.107v0zM22.164 29.338c1.885 0 3.414-1.528 3.414-3.414s-1.528-3.414-3.414-3.414v0c-1.885 0-3.414 1.528-3.414 3.414s1.528 3.414 3.414 3.414v0z"></path>
</symbol>
<symbol id="icon-edit-2" viewBox="0 0 32 32">
<path stroke-linejoin="round" stroke-linecap="round" stroke-miterlimit="10" stroke-width="2" d="M17.683 4.801l-10.948 11.589c-0.413 0.44-0.813 1.307-0.893 1.907l-0.493 4.321c-0.173 1.56 0.947 2.627 2.494 2.36l4.294-0.733c0.6-0.107 1.44-0.547 1.854-1l10.948-11.589c1.894-2 2.747-4.281-0.2-7.068-2.934-2.76-5.161-1.787-7.055 0.213z"></path>
<path stroke-linejoin="round" stroke-linecap="round" stroke-miterlimit="10" stroke-width="2" d="M15.856 6.734c0.589 3.666 3.549 6.489 7.233 6.865l0.035 0.003M4.001 29.338h24.004"></path>
</symbol>
<symbol id="icon-menu" viewBox="0 0 32 32">
<path stroke-linejoin="round" stroke-linecap="round" stroke-miterlimit="10" stroke-width="2" d="M23.39 11.082c1.812 0 3.281-1.469 3.281-3.281s-1.469-3.281-3.281-3.281v0c-1.812 0-3.281 1.469-3.281 3.281s1.469 3.281 3.281 3.281v0zM8.615 11.082c1.812 0 3.281-1.469 3.281-3.281s-1.469-3.281-3.281-3.281v0c-1.812 0-3.281 1.469-3.281 3.281s1.469 3.281 3.281 3.281v0zM23.39 27.485c1.812 0 3.281-1.469 3.281-3.281s-1.469-3.281-3.281-3.281v0c-1.812 0-3.281 1.469-3.281 3.281s1.469 3.281 3.281 3.281v0zM8.615 27.485c1.812 0 3.281-1.469 3.281-3.281s-1.469-3.281-3.281-3.281v0c-1.812 0-3.281 1.469-3.281 3.281s1.469 3.281 3.281 3.281v0z"></path>
</symbol>
<symbol id="icon-milk" viewBox="0 0 32 32">
<path stroke-linejoin="round" stroke-linecap="round" stroke-miterlimit="4" stroke-width="2" d="M24.004 20.003v5.334c0 2.2-1.8 4.001-4.001 4.001h-8.001c-2.2 0-4.001-1.8-4.001-4.001v-6.694l5.188 0.027c0.973 0 1.934 0.227 2.814 0.667s1.84 0.667 2.827 0.667h5.174z"></path>
<path stroke-linejoin="round" stroke-linecap="round" stroke-miterlimit="4" stroke-width="2" d="M24.004 14.442v5.561h-5.174c-0.987 0-1.947-0.227-2.827-0.667-0.82-0.42-1.788-0.666-2.814-0.667h-0l-5.188-0.027v-4.201c0-0.613 0.347-1.454 0.787-1.894l2.827-2.827c0.24-0.24 0.387-0.587 0.387-0.934v-2.12h8.001v2.12c0 0.347 0.147 0.693 0.387 0.934l2.827 2.827c0.44 0.44 0.787 1.28 0.787 1.894zM24.004 21.337v-1.334M8.001 19.977v-1.334M19.337 6.668h-6.668c-1.107 0-2-0.907-2-2s0.893-2 2-2h6.668c1.107 0 2 0.907 2 2s-0.893 2-2 2z"></path>
</symbol>
<symbol id="icon-close-circle" viewBox="0 0 32 32">
<path stroke-linejoin="round" stroke-linecap="round" stroke-miterlimit="4" stroke-width="2" d="M16.003 29.338c7.335 0 13.336-6.001 13.336-13.336s-6.001-13.336-13.336-13.336-13.336 6.001-13.336 13.336 6.001 13.336 13.336 13.336zM12.229 19.777l7.548-7.548M19.777 19.777l-7.548-7.548"></path>
</symbol>
<symbol id="icon-logout" viewBox="0 0 32 32">
<path stroke-linejoin="round" stroke-linecap="round" stroke-miterlimit="4" stroke-width="2" d="M11.869 10.082c0.413-4.801 2.88-6.761 8.281-6.761h0.173c5.961 0 8.348 2.387 8.348 8.348v8.695c0 5.961-2.387 8.348-8.348 8.348h-0.173c-5.361 0-7.828-1.934-8.268-6.654M20.003 16.003h-15.176M7.801 11.535l-4.467 4.467 4.467 4.467"></path>
</symbol>

<symbol id="icon-setting-2" viewBox="0 0 32 32" fill="none" width="100%">
<path stroke-linejoin="round" stroke-linecap="round" stroke-miterlimit="10" stroke-width="2" d="M16.003 20.003c2.209 0 4.001-1.791 4.001-4.001s-1.791-4.001-4.001-4.001v0c-2.21 0-4.001 1.791-4.001 4.001s1.791 4.001 4.001 4.001v0z"></path>
<path stroke-linejoin="round" stroke-linecap="round" stroke-miterlimit="10" stroke-width="2" d="M2.667 17.176v-2.347c0-1.387 1.134-2.534 2.534-2.534 2.414 0 3.401-1.707 2.187-3.801-0.693-1.2-0.28-2.76 0.934-3.454l2.307-1.32c1.053-0.627 2.414-0.253 3.040 0.8l0.147 0.253c1.2 2.094 3.174 2.094 4.387 0l0.147-0.253c0.627-1.054 1.987-1.427 3.041-0.8l2.307 1.32c1.214 0.693 1.627 2.254 0.933 3.454-1.214 2.094-0.227 3.801 2.187 3.801 1.387 0 2.534 1.134 2.534 2.534v2.347c0 1.387-1.134 2.534-2.534 2.534-2.414 0-3.401 1.707-2.187 3.801 0.693 1.214 0.28 2.76-0.933 3.454l-2.307 1.32c-1.053 0.627-2.414 0.253-3.041-0.8l-0.147-0.253c-1.2-2.094-3.174-2.094-4.387 0l-0.147 0.253c-0.627 1.053-1.987 1.427-3.040 0.8l-2.307-1.32c-0.764-0.446-1.269-1.261-1.269-2.195 0-0.463 0.124-0.898 0.342-1.271l-0.006 0.012c1.214-2.094 0.227-3.801-2.187-3.801-1.4 0-2.534-1.147-2.534-2.534z"></path>
</symbol>

<symbol id="icon-profile-circle" viewBox="0 0 32 32" fill="none" width="100%">
<path stroke-linejoin="round" stroke-linecap="round" stroke-miterlimit="4" stroke-width="2" d="M16.163 17.043c-0.048-0.006-0.104-0.010-0.16-0.010s-0.112 0.004-0.166 0.011l0.006-0.001c-2.344-0.081-4.214-2-4.214-4.357 0-0.001 0-0.003 0-0.004v0c0-2.414 1.947-4.374 4.374-4.374 0.002 0 0.005 0 0.008 0 2.413 0 4.369 1.956 4.369 4.369 0 2.359-1.87 4.282-4.209 4.366l-0.008 0zM24.991 25.844c-2.351 2.166-5.503 3.494-8.965 3.494-0.008 0-0.017 0-0.025-0h0.001c-3.467 0-6.614-1.32-8.988-3.494 0.133-1.254 0.934-2.48 2.36-3.441 3.654-2.427 9.628-2.427 13.255 0 1.427 0.96 2.227 2.187 2.36 3.441z"></path>
<path stroke-linejoin="round" stroke-linecap="round" stroke-miterlimit="4" stroke-width="2" d="M16.003 29.338c7.365 0 13.336-5.97 13.336-13.336s-5.97-13.336-13.336-13.336-13.336 5.97-13.336 13.336 5.97 13.336 13.336 13.336z"></path>
</symbol>

<symbol id="icon-arrow-right-2"  viewBox="0 0 16 16" fill="none" width="100%">
  <path d="M9.62012 3.95312L13.6668 7.99979L9.62012 12.0465"  stroke-width="1.5" stroke-miterlimit="10" stroke-linecap="round" stroke-linejoin="round"/>
  <path d="M2.33301 8H13.553"  stroke-width="1.5" stroke-miterlimit="10" stroke-linecap="round" stroke-linejoin="round"/>
</symbol>

</defs>
</svg>
