<svg aria-hidden="true" style="position: absolute; width: 0; height: 0; overflow: hidden;" version="1.1" xmlns="http://www.w3.org/2000/svg" xmlns:xlink="http://www.w3.org/1999/xlink">
<defs>
<symbol id="icon-Ketogenic-diet" viewBox="0 0 31 32">
<path fill="#fff" style="fill: var(--color1, #fff)" d="M14.719 25.948c-0.129-0.334-0.968-2.565-0.563-3.873 0.056-0.182 0.144-0.464 0.399-0.69 0.51-0.45 1.027-0.087 1.433-0.415 0.536-0.433-0.075-1.299 0.509-2.549 0.14-0.3 0.358-0.767 0.84-1.002 0.538-0.262 0.85 0.035 1.38-0.168 0.661-0.252 0.59-0.872 1.212-1.491 0.656-0.652 1.934-1.16 2.88-0.645 0.824 0.449 1.081 1.504 1.042 2.226-0.057 1.067-0.789 1.94-1.554 2.343-1.1 0.579-2.216 0.157-2.363 0.577-0.137 0.39 0.824 0.773 0.774 1.504-0.035 0.511-0.55 1.010-1.076 1.139-0.729 0.179-1.153-0.433-1.589-0.2-0.456 0.245-0.202 1.032-0.528 1.744-0.27 0.587-0.972 1.21-2.794 1.499z"></path>
<path fill="#0f0f0f" style="fill: var(--color2, #0f0f0f)" d="M14.719 25.987c-0.008 0-0.015-0.002-0.022-0.007s-0.011-0.011-0.014-0.018c-0.23-0.598-0.951-2.648-0.564-3.898 0.059-0.189 0.147-0.475 0.411-0.707 0.286-0.252 0.579-0.259 0.838-0.264 0.216-0.005 0.419-0.009 0.597-0.152 0.244-0.198 0.236-0.491 0.223-0.897-0.013-0.439-0.030-0.985 0.275-1.638 0.145-0.31 0.364-0.779 0.858-1.020 0.293-0.143 0.524-0.125 0.748-0.108 0.202 0.016 0.393 0.031 0.635-0.062 0.364-0.139 0.496-0.389 0.662-0.706 0.125-0.237 0.266-0.507 0.537-0.776 0.716-0.713 2.006-1.152 2.924-0.652 0.794 0.433 1.106 1.448 1.062 2.262-0.063 1.174-0.888 2.013-1.575 2.375-0.594 0.312-1.196 0.337-1.637 0.356-0.376 0.016-0.648 0.028-0.708 0.199-0.054 0.155 0.103 0.324 0.285 0.52 0.231 0.248 0.519 0.557 0.491 0.974-0.035 0.506-0.53 1.033-1.105 1.174-0.39 0.096-0.691-0.026-0.956-0.133-0.24-0.097-0.43-0.174-0.624-0.070-0.24 0.128-0.269 0.422-0.306 0.793-0.029 0.289-0.061 0.617-0.206 0.933-0.352 0.769-1.301 1.281-2.822 1.522-0.002 0-0.004 0-0.006 0zM17.839 17.342c-0.168-0.002-0.335 0.036-0.485 0.112-0.469 0.229-0.681 0.683-0.822 0.984-0.297 0.636-0.281 1.172-0.268 1.603 0.013 0.412 0.023 0.738-0.252 0.96-0.197 0.16-0.414 0.164-0.644 0.169-0.258 0.006-0.524 0.011-0.789 0.245-0.248 0.218-0.332 0.492-0.388 0.672-0.381 1.232 0.367 3.334 0.551 3.818 1.476-0.239 2.395-0.734 2.733-1.473 0.14-0.304 0.171-0.625 0.199-0.909 0.038-0.378 0.070-0.705 0.346-0.853 0.226-0.121 0.451-0.030 0.689 0.067 0.254 0.103 0.543 0.219 0.908 0.13 0.536-0.131 1.015-0.637 1.047-1.104 0.026-0.384-0.238-0.667-0.47-0.916-0.199-0.214-0.372-0.399-0.302-0.598 0.078-0.221 0.371-0.234 0.777-0.251 0.433-0.018 1.026-0.044 1.604-0.347 0.669-0.352 1.473-1.168 1.534-2.31 0.042-0.79-0.257-1.774-1.022-2.19-0.887-0.483-2.137-0.055-2.833 0.638-0.262 0.261-0.401 0.525-0.523 0.758-0.167 0.318-0.311 0.592-0.702 0.742-0.258 0.098-0.467 0.082-0.669 0.066-0.074-0.005-0.148-0.011-0.223-0.011z"></path>
<path fill="#0f0f0f" style="fill: var(--color2, #0f0f0f)" d="M14.692 25.703c-0.003 0-0.005 0-0.008 0-0.010-0.002-0.019-0.008-0.024-0.017s-0.008-0.019-0.005-0.029c0.279-1.32 0.819-2.584 1.607-3.76 0.629-0.94 1.417-1.825 2.34-2.631 1.572-1.371 3.016-2.046 3.030-2.053 0.005-0.003 0.010-0.004 0.015-0.005s0.011 0 0.016 0.002c0.005 0.002 0.010 0.004 0.014 0.008s0.007 0.008 0.009 0.013c0.002 0.005 0.003 0.010 0.004 0.015s-0.001 0.011-0.003 0.015c-0.002 0.005-0.005 0.009-0.009 0.013s-0.008 0.007-0.013 0.009c-0.014 0.007-1.45 0.678-3.014 2.043-1.442 1.259-3.294 3.381-3.92 6.348-0.002 0.008-0.007 0.016-0.014 0.021s-0.015 0.008-0.024 0.008z"></path>
<path fill="#fff" style="fill: var(--color1, #fff)" d="M14.719 25.948c-1.614-3.678-1.402-5.286-0.821-6.065 0.174-0.232 0.583-0.664 0.831-1.414 0.322-0.971 0.061-1.531 0.093-2.337 0.063-1.577 1.21-3.086 2.482-3.812 0.888-0.507 2.598-1.069 3.648-0.238 0.444 0.351 0.891 1.046 0.694 1.547-0.281 0.717-1.68 0.324-2.349 1.288-0.365 0.526-0.055 0.793-0.447 1.348-0.618 0.875-1.674 0.621-1.884 1.242-0.203 0.602 0.745 0.997 0.611 1.77-0.154 0.881-1.448 1-1.504 1.849-0.033 0.505 0.419 0.567 0.445 1.154 0.031 0.714-0.622 1.013-1.227 2.075-0.339 0.595-0.481 1.159-0.573 1.592z"></path>
<path fill="#0f0f0f" style="fill: var(--color2, #0f0f0f)" d="M14.719 25.987c-0.007-0-0.015-0.002-0.021-0.006s-0.011-0.010-0.014-0.017c-0.736-1.679-1.153-3.068-1.237-4.132-0.067-0.845 0.075-1.508 0.421-1.971 0.027-0.036 0.060-0.077 0.097-0.124 0.195-0.245 0.521-0.653 0.729-1.279 0.211-0.636 0.169-1.087 0.125-1.564-0.022-0.24-0.045-0.488-0.034-0.762 0.068-1.698 1.345-3.183 2.501-3.845 0.86-0.491 2.605-1.094 3.691-0.234 0.421 0.333 0.919 1.047 0.706 1.591-0.14 0.358-0.53 0.45-0.981 0.557-0.482 0.114-1.028 0.243-1.372 0.739-0.173 0.25-0.189 0.436-0.206 0.633-0.017 0.208-0.035 0.424-0.241 0.715-0.332 0.469-0.795 0.624-1.167 0.748-0.345 0.115-0.618 0.206-0.712 0.484s0.072 0.504 0.262 0.769c0.198 0.274 0.421 0.585 0.349 0.995-0.079 0.451-0.442 0.706-0.792 0.953s-0.684 0.481-0.711 0.892c-0.016 0.238 0.081 0.369 0.192 0.52s0.239 0.324 0.252 0.63c0.019 0.445-0.215 0.73-0.538 1.123-0.213 0.259-0.455 0.553-0.694 0.972-0.325 0.571-0.47 1.119-0.569 1.581-0.002 0.008-0.006 0.015-0.012 0.021s-0.014 0.009-0.022 0.010l-0.003 0.001zM19.595 11.695c-0.846 0-1.733 0.352-2.27 0.659-1.139 0.651-2.396 2.112-2.462 3.781-0.011 0.269 0.012 0.515 0.034 0.752 0.045 0.486 0.087 0.944-0.129 1.596-0.212 0.639-0.544 1.055-0.742 1.303-0.036 0.046-0.069 0.086-0.095 0.122-0.751 1.005-0.49 2.996 0.777 5.917 0.1-0.442 0.248-0.954 0.552-1.486 0.242-0.424 0.486-0.721 0.701-0.983 0.313-0.38 0.539-0.655 0.521-1.071-0.012-0.282-0.126-0.437-0.237-0.587-0.116-0.157-0.225-0.305-0.208-0.571 0.029-0.448 0.392-0.703 0.744-0.95 0.338-0.238 0.687-0.483 0.761-0.903 0.066-0.378-0.138-0.662-0.336-0.936-0.195-0.27-0.379-0.526-0.273-0.839s0.409-0.415 0.76-0.532c0.381-0.127 0.812-0.271 1.129-0.72 0.194-0.274 0.21-0.47 0.227-0.677 0.017-0.199 0.035-0.404 0.219-0.671 0.36-0.52 0.922-0.653 1.417-0.769 0.43-0.102 0.802-0.19 0.927-0.51 0.178-0.455-0.216-1.134-0.682-1.503-0.383-0.305-0.852-0.419-1.334-0.419z"></path>
<path fill="#0f0f0f" style="fill: var(--color2, #0f0f0f)" d="M14.677 25.61c-0.010 0-0.019-0.004-0.026-0.010s-0.012-0.015-0.012-0.025c-0.121-1.685-0.041-3.378 0.24-5.044 0.244-1.448 0.629-2.797 1.114-3.902 0.745-1.698 1.673-2.75 2.321-3.333 0.703-0.634 1.239-0.869 1.244-0.871 0.009-0.003 0.019-0.003 0.028 0.001s0.016 0.011 0.020 0.020 0.004 0.019 0.001 0.028c-0.003 0.009-0.010 0.017-0.019 0.021-0.021 0.009-2.111 0.944-3.525 4.165-1.071 2.441-1.575 5.772-1.349 8.908 0.001 0.010-0.002 0.020-0.009 0.028s-0.016 0.013-0.026 0.013l-0.003 0z"></path>
<path fill="#fff" style="fill: var(--color1, #fff)" d="M22.716 15.181c-0.016 0.556-0.092 1.109-0.227 1.649-1.032 4.135-5.216 6.649-9.345 5.616s-6.642-5.223-5.61-9.357c1.032-4.135 5.216-6.649 9.346-5.616l0.865-3.466c-6.043-1.512-12.163 2.167-13.672 8.216s2.164 12.178 8.206 13.69c6.042 1.512 12.163-2.167 13.673-8.217 0.211-0.845 0.325-1.711 0.337-2.581l-3.572 0.066z"></path>
<path fill="#0f0f0f" style="fill: var(--color2, #0f0f0f)" d="M15.031 26.293c-0.931-0.001-1.859-0.116-2.763-0.342-2.932-0.734-5.403-2.566-6.958-5.161s-2.008-5.64-1.275-8.576c0.734-2.936 2.562-5.41 5.153-6.968s5.633-2.011 8.565-1.276c0.010 0.003 0.018 0.009 0.024 0.018s0.007 0.019 0.004 0.029l-0.865 3.466c-0.003 0.010-0.009 0.018-0.018 0.024s-0.019 0.007-0.029 0.004c-4.102-1.026-8.274 1.481-9.299 5.588s1.479 8.284 5.581 9.311c0.608 0.152 1.232 0.23 1.858 0.23 3.436 0 6.571-2.333 7.441-5.818 0.134-0.537 0.21-1.088 0.227-1.641 0-0.010 0.005-0.019 0.012-0.026s0.016-0.011 0.026-0.011l3.572-0.066c0.005-0 0.010 0.001 0.015 0.003s0.009 0.005 0.013 0.009c0.004 0.004 0.006 0.008 0.008 0.013s0.003 0.010 0.003 0.015c-0.013 0.874-0.127 1.743-0.339 2.59-0.733 2.936-2.564 5.411-5.154 6.967-1.782 1.071-3.777 1.62-5.803 1.62zM15.012 3.707c-5.035 0-9.628 3.418-10.903 8.525-1.502 6.019 2.167 12.139 8.178 13.643 2.912 0.728 5.933 0.278 8.507-1.269s4.392-4.004 5.119-6.92c0.207-0.829 0.319-1.678 0.335-2.533l-3.495 0.065c-0.019 0.547-0.095 1.090-0.227 1.621-1.035 4.149-5.249 6.681-9.392 5.644s-6.672-5.256-5.637-9.405c0.502-2.010 1.755-3.704 3.529-4.77 1.763-1.060 3.831-1.373 5.826-0.884l0.846-3.392c-0.879-0.217-1.78-0.327-2.686-0.327z"></path>
<path fill="#0f0f0f" style="fill: var(--color2, #0f0f0f)" d="M19.328 6.849c-0.267 0.421-0.459 0.88-0.688 1.301 2.57 1.371 4.163 4.105 4.076 7.031l3.572-0.066c0.062-4.238-2.281-8.178-6.024-10.148-0.226 0.443-0.457 0.89-0.704 1.341-0.077 0.193-0.154 0.347-0.231 0.54z"></path>
<path fill="#0f0f0f" style="fill: var(--color2, #0f0f0f)" d="M22.716 15.22c-0.005 0-0.010-0.001-0.015-0.003s-0.009-0.005-0.013-0.008c-0.004-0.004-0.006-0.008-0.008-0.013s-0.003-0.010-0.003-0.015c0.086-2.89-1.506-5.636-4.055-6.996-0.009-0.005-0.016-0.013-0.019-0.023s-0.002-0.020 0.003-0.030c0.084-0.155 0.165-0.319 0.243-0.477 0.135-0.274 0.275-0.557 0.444-0.823 0.038-0.096 0.077-0.183 0.115-0.268s0.077-0.173 0.115-0.269c0.001-0.001 0.001-0.003 0.002-0.004 0.259-0.472 0.501-0.943 0.704-1.34 0.002-0.005 0.006-0.009 0.009-0.012s0.008-0.006 0.013-0.007c0.010-0.003 0.020-0.002 0.029 0.003 1.846 0.975 3.388 2.442 4.455 4.239s1.617 3.854 1.59 5.944c-0 0.010-0.004 0.020-0.011 0.027s-0.017 0.011-0.027 0.011l-3.572 0.066zM18.693 8.135c1.256 0.681 2.299 1.695 3.016 2.931s1.079 2.647 1.047 4.076l3.494-0.064c0.047-4.166-2.292-8.106-5.969-10.057-0.199 0.39-0.435 0.846-0.686 1.305-0.038 0.096-0.078 0.184-0.115 0.269s-0.077 0.173-0.115 0.269c-0.001 0.002-0.002 0.004-0.003 0.006-0.168 0.264-0.307 0.546-0.442 0.819-0.072 0.147-0.147 0.299-0.226 0.445z"></path>
<path fill="#fff" style="fill: var(--color1, #fff)" d="M20.105 5.278c0.053-0.104 0.106-0.207 0.159-0.31-0.798-0.42-1.644-0.743-2.52-0.962l-0.865 3.467c0.612 0.153 1.204 0.38 1.761 0.677 0.229-0.422 0.421-0.88 0.688-1.301 0.077-0.192 0.154-0.347 0.231-0.54 0.19-0.346 0.37-0.69 0.546-1.031z"></path>
<path fill="#0f0f0f" style="fill: var(--color2, #0f0f0f)" d="M18.64 8.189c-0.006-0-0.012-0.002-0.017-0.005-0.555-0.296-1.143-0.522-1.753-0.674-0.010-0.002-0.018-0.009-0.024-0.018-0.003-0.004-0.004-0.009-0.005-0.014s-0-0.010 0.001-0.015l0.865-3.466c0.001-0.005 0.003-0.010 0.006-0.014s0.007-0.008 0.011-0.010 0.019-0.007 0.029-0.004c0.878 0.22 1.727 0.543 2.528 0.965 0.005 0.002 0.009 0.006 0.012 0.009s0.006 0.008 0.007 0.013c0.002 0.005 0.002 0.010 0.002 0.015s-0.002 0.010-0.004 0.015c-0.053 0.103-0.106 0.207-0.159 0.31-0.205 0.398-0.378 0.725-0.545 1.030-0.038 0.096-0.078 0.184-0.115 0.269s-0.077 0.173-0.115 0.269c-0.001 0.002-0.002 0.004-0.003 0.006-0.168 0.264-0.307 0.546-0.442 0.819-0.079 0.159-0.16 0.323-0.244 0.48-0.003 0.006-0.008 0.011-0.014 0.014s-0.013 0.005-0.020 0.005zM16.926 7.445c0.59 0.15 1.16 0.37 1.698 0.653 0.078-0.145 0.152-0.297 0.225-0.443 0.135-0.274 0.275-0.557 0.444-0.823 0.038-0.096 0.077-0.183 0.115-0.268s0.077-0.173 0.115-0.269c0.001-0.001 0.001-0.003 0.002-0.004 0.167-0.305 0.34-0.633 0.545-1.030 0.047-0.092 0.094-0.184 0.141-0.276-0.775-0.404-1.593-0.716-2.44-0.931l-0.846 3.392z"></path>
<path fill="#0f0f0f" style="fill: var(--color2, #0f0f0f)" d="M12.737 6.197c0.081-0.033 0.376-0.123 0.557-0.398 0.128-0.194 0.224-0.519 0.079-0.717-0.036-0.049-0.155-0.182-0.716-0.159-0.711 0.029-1.211 0.265-1.211 0.265-1.159 0.546-1.404 1.221-2.349 1.747-1.21 0.673-1.801 0.1-2.327 0.677-0.855 0.939-0.528 3.511 1.154 4.56 1.135 0.709 2.914 0.729 3.72-0.159 1.313-1.449 0.113-5.413 1.093-5.815z"></path>
<path fill="#fff" style="fill: var(--color1, #fff)" d="M13.205 25.981l-0.041 1.535-0.541 0.058-0.268-1.652 0.85 0.058z"></path>
<path fill="#0f0f0f" style="fill: var(--color2, #0f0f0f)" d="M12.622 27.613c-0.009 0-0.018-0.003-0.025-0.009s-0.012-0.014-0.013-0.023l-0.268-1.652c-0.001-0.006-0-0.012 0.001-0.017s0.005-0.011 0.008-0.015c0.004-0.004 0.009-0.008 0.014-0.010s0.011-0.003 0.017-0.003l0.85 0.058c0.010 0.001 0.019 0.005 0.026 0.012s0.010 0.017 0.010 0.027l-0.041 1.535c-0 0.009-0.004 0.018-0.010 0.025s-0.015 0.011-0.024 0.012l-0.546 0.059zM12.4 25.965l0.254 1.568 0.472-0.051 0.039-1.464-0.765-0.052z"></path>
<path fill="#fff" style="fill: var(--color1, #fff)" d="M16.277 26.485l0.086 1.222-0.715 0.059-0.255-1.281h0.885z"></path>
<path fill="#0f0f0f" style="fill: var(--color2, #0f0f0f)" d="M15.648 27.805c-0.009 0-0.018-0.003-0.024-0.009s-0.012-0.014-0.013-0.022l-0.255-1.281c-0.001-0.006-0.001-0.011 0-0.017s0.004-0.011 0.008-0.015c0.004-0.004 0.008-0.008 0.013-0.010s0.011-0.004 0.016-0.004h0.884c0.010 0 0.019 0.004 0.026 0.010s0.012 0.015 0.012 0.025l0.086 1.223c0.001 0.010-0.002 0.020-0.009 0.028s-0.016 0.013-0.026 0.014l-0.716 0.059-0.002 0.001zM15.439 26.524l0.24 1.201 0.643-0.052-0.081-1.149h-0.802z"></path>
<path fill="#0f0f0f" style="fill: var(--color2, #0f0f0f)" d="M15.457 28.293c-0.024-0.016-0.045-0.038-0.059-0.064s-0.022-0.055-0.023-0.084c-0.005-0.179-0.005-0.561 0.067-0.705 0.096-0.191 0.491 0.075 0.491 0.075s0.232-0.321 0.367-0.389c0.070-0.035 0.481 0.239 0.895 0.612 0.454 0.409 0.658 0.539 0.756 0.892 0.010 0.039 0.012 0.080 0.005 0.12s-0.023 0.077-0.047 0.11c-0.024 0.033-0.054 0.060-0.089 0.080s-0.074 0.031-0.115 0.034c-0.416 0.029-1.257-0.020-2.248-0.681z"></path>
<path fill="#0f0f0f" style="fill: var(--color2, #0f0f0f)" d="M17.521 29.018c-0.458 0-1.216-0.113-2.086-0.693-0.030-0.020-0.054-0.047-0.071-0.078s-0.027-0.066-0.027-0.102c-0.005-0.207-0.003-0.576 0.071-0.723 0.010-0.020 0.025-0.039 0.042-0.053s0.038-0.025 0.061-0.030c0.135-0.035 0.334 0.075 0.413 0.124 0.062-0.082 0.241-0.312 0.36-0.371s0.638 0.348 0.938 0.617c0.071 0.064 0.137 0.122 0.196 0.175 0.323 0.285 0.485 0.428 0.571 0.735 0.012 0.044 0.014 0.090 0.006 0.135s-0.026 0.088-0.052 0.125c-0.027 0.038-0.062 0.070-0.102 0.093s-0.086 0.037-0.133 0.040c-0.055 0.003-0.117 0.006-0.186 0.006zM15.568 27.409c-0.013-0-0.026 0.001-0.038 0.005s-0.023 0.008-0.032 0.015-0.017 0.017-0.022 0.028c-0.049 0.097-0.072 0.347-0.063 0.687 0.001 0.023 0.007 0.046 0.018 0.066s0.027 0.038 0.046 0.051c0.983 0.654 1.816 0.703 2.224 0.674 0.035-0.003 0.069-0.013 0.1-0.030s0.057-0.042 0.077-0.070c0.020-0.028 0.033-0.060 0.039-0.093s0.005-0.068-0.004-0.101c-0.079-0.286-0.236-0.424-0.548-0.698-0.060-0.052-0.125-0.11-0.197-0.175-0.458-0.412-0.801-0.612-0.855-0.605-0.101 0.051-0.287 0.288-0.349 0.376-0.006 0.008-0.015 0.013-0.024 0.015s-0.020-0-0.028-0.006c-0.063-0.042-0.232-0.138-0.345-0.138v0z"></path>
<path fill="#0f0f0f" style="fill: var(--color2, #0f0f0f)" d="M17.327 28.687c-0.434 0-1.141-0.103-1.826-0.65-0.007-0.007-0.012-0.016-0.013-0.026s0.002-0.020 0.008-0.027c0.006-0.008 0.015-0.013 0.025-0.014s0.020 0.001 0.028 0.007c1.059 0.846 2.171 0.6 2.182 0.598 0.005-0.001 0.010-0.002 0.015-0.001s0.010 0.002 0.015 0.005c0.005 0.003 0.008 0.006 0.012 0.010s0.005 0.009 0.006 0.014c0.001 0.005 0.001 0.010 0 0.016s-0.003 0.010-0.006 0.014c-0.003 0.004-0.007 0.008-0.011 0.011s-0.009 0.005-0.014 0.006c-0.004 0.001-0.165 0.037-0.422 0.037z"></path>
<path fill="#0f0f0f" style="fill: var(--color2, #0f0f0f)" d="M13.419 27.89l-0.008-0.84c0 0-0.168-0.255-0.399-0.048 0 0-0.213-0.299-0.609 0.074 0 0-0.557 1.040-0.803 1.658-0.015 0.038-0.021 0.080-0.017 0.121s0.018 0.081 0.040 0.115 0.053 0.063 0.089 0.083c0.036 0.020 0.076 0.031 0.117 0.032 0.256 0.006 0.586-0.008 0.73-0.105 0.225-0.152 0.611-0.633 0.778-0.849 0.053-0.069 0.082-0.154 0.081-0.241z"></path>
<path fill="#0f0f0f" style="fill: var(--color2, #0f0f0f)" d="M11.932 29.125c-0.034 0-0.068-0-0.105-0.001-0.047-0.001-0.093-0.013-0.134-0.036s-0.076-0.055-0.102-0.095c-0.026-0.040-0.043-0.085-0.047-0.133s0.002-0.095 0.020-0.14c0.245-0.613 0.8-1.652 0.806-1.662 0.002-0.004 0.005-0.007 0.008-0.010 0.152-0.144 0.298-0.21 0.434-0.196 0.078 0.008 0.15 0.042 0.206 0.097 0.068-0.052 0.138-0.073 0.21-0.064 0.133 0.017 0.215 0.139 0.218 0.144s0.006 0.013 0.006 0.021l0.008 0.84c0.001 0.096-0.031 0.189-0.089 0.265-0.198 0.255-0.564 0.706-0.787 0.857-0.112 0.076-0.33 0.113-0.65 0.113zM12.434 27.099c-0.044 0.083-0.565 1.063-0.799 1.649-0.013 0.033-0.018 0.068-0.015 0.103s0.016 0.069 0.035 0.098c0.019 0.029 0.045 0.053 0.075 0.070s0.065 0.026 0.099 0.026c0.35 0.008 0.602-0.027 0.708-0.099 0.223-0.151 0.612-0.638 0.77-0.841 0.048-0.062 0.074-0.138 0.073-0.217l-0.008-0.828c-0.019-0.024-0.078-0.092-0.158-0.102-0.057-0.007-0.117 0.016-0.177 0.070-0.004 0.004-0.009 0.006-0.014 0.008s-0.011 0.002-0.016 0.002c-0.005-0.001-0.011-0.002-0.015-0.005s-0.009-0.006-0.012-0.011c-0.022-0.027-0.049-0.050-0.080-0.066s-0.065-0.027-0.099-0.030c-0.112-0.010-0.235 0.048-0.368 0.172z"></path>
<path fill="#0f0f0f" style="fill: var(--color2, #0f0f0f)" d="M13.012 27.493c-0.010 0-0.020-0.004-0.027-0.011s-0.011-0.017-0.011-0.027v-0.453c-0-0.005 0-0.011 0.002-0.016s0.005-0.010 0.008-0.013c0.004-0.004 0.008-0.007 0.013-0.009s0.010-0.003 0.015-0.003c0.005 0 0.011 0.001 0.015 0.003s0.009 0.005 0.013 0.009 0.006 0.008 0.008 0.013c0.002 0.005 0.002 0.010 0.002 0.016v0.453c-0 0.010-0.004 0.020-0.011 0.027s-0.017 0.011-0.027 0.011z"></path>
<path fill="#0f0f0f" style="fill: var(--color2, #0f0f0f)" d="M16.494 26.555c0 0 0.204-3.086-0.131-5.861s-1.581-6.739-1.581-6.739-1.341-0.061-2.316 0.070c-0.976 0.131-1.362-0.004-1.362-0.004s-0.728 0.835-0.669 2.405c0.059 1.57 1.759 8.193 1.694 9.747 0 0 0.572 0.288 1.312 0.145l-0.306-8.925c0 0 0.635 1.837 0.933 3.096 0.243 1.026 0.665 1.69 0.665 1.69s-0.018 2.386 0.529 4.365c0 0.001 0.646 0.202 1.232 0.011z"></path>
<path fill="#fff" style="fill: var(--color1, #fff)" d="M15.422 23.241c-0.006-0-0.012-0.002-0.018-0.005s-0.010-0.007-0.014-0.013l-0.468-0.682c-0.003-0.004-0.005-0.009-0.007-0.014s-0.002-0.010-0.001-0.015 0.003-0.010 0.005-0.014c0.003-0.004 0.006-0.008 0.011-0.011s0.009-0.005 0.014-0.006c0.005-0.001 0.010-0.001 0.015 0s0.010 0.003 0.014 0.006 0.008 0.007 0.011 0.011l0.468 0.682c0.004 0.006 0.006 0.013 0.007 0.020s-0.001 0.014-0.004 0.020-0.008 0.012-0.014 0.015c-0.006 0.004-0.013 0.006-0.020 0.006v0.001z"></path>
<path fill="#fff" style="fill: var(--color1, #fff)" d="M12.274 21.583c-0.162 0-0.368-0.032-0.54-0.159-0.007-0.006-0.012-0.015-0.013-0.025s0.002-0.020 0.007-0.027c0.006-0.008 0.014-0.013 0.024-0.015s0.020 0 0.028 0.006c0.305 0.226 0.747 0.117 0.751 0.115 0.010-0.002 0.020-0 0.028 0.005s0.015 0.014 0.017 0.023c0.002 0.010 0.001 0.020-0.004 0.029s-0.013 0.015-0.023 0.018c-0.091 0.021-0.183 0.031-0.276 0.031z"></path>
<path fill="#fff" style="fill: var(--color1, #fff)" d="M18.992 7.257c0 0 0.606-0.563 0.778-0.706 0.196-0.163-0.253-0.217-0.828 0.311l0.049 0.395z"></path>
<path fill="#0f0f0f" style="fill: var(--color2, #0f0f0f)" d="M18.992 7.295c-0.004-0-0.009-0.001-0.013-0.002-0.007-0.002-0.012-0.007-0.017-0.012s-0.007-0.012-0.008-0.019l-0.049-0.395c-0.001-0.006-0-0.012 0.002-0.018s0.006-0.011 0.010-0.015c0.396-0.363 0.752-0.467 0.878-0.425 0.015 0.003 0.028 0.011 0.038 0.022s0.018 0.024 0.021 0.039c0.007 0.035-0.013 0.073-0.059 0.112-0.17 0.141-0.771 0.7-0.777 0.705-0.007 0.007-0.017 0.010-0.026 0.010zM18.983 6.877l0.038 0.301c0.154-0.143 0.582-0.538 0.725-0.656 0.014-0.010 0.024-0.022 0.032-0.037-0.045-0.033-0.369 0.008-0.795 0.392h0z"></path>
<path fill="#fff" style="fill: var(--color1, #fff)" d="M19.043 7.143c0.004 0.031 0.008 0.062 0.013 0.093 0.009 0.052 0.022 0.178-0.053 0.258s-0.43 0.272-0.598 0.362c-0.057 0.030-0.108 0.072-0.149 0.122-0.056 0.070 0.096 0.816 0.096 0.816l-0.611-0.219c0 0 0.073-1.017 0.208-1.431s0.489-0.61 0.581-0.597c0.091 0.013 0.12 0.189 0.12 0.189s0.198-0.154 0.319-0.072c0.063 0.043 0.032 0.116 0.042 0.187l0.033 0.291z"></path>
<path fill="#0f0f0f" style="fill: var(--color2, #0f0f0f)" d="M18.352 8.833c-0.004 0-0.009-0.001-0.013-0.002l-0.611-0.219c-0.008-0.003-0.015-0.008-0.019-0.015s-0.007-0.015-0.006-0.024c0.003-0.042 0.075-1.027 0.21-1.44 0.137-0.423 0.499-0.64 0.623-0.623 0.080 0.011 0.12 0.102 0.14 0.164 0.073-0.044 0.213-0.11 0.316-0.040 0.062 0.042 0.060 0.105 0.058 0.156-0.001 0.019-0.001 0.038 0.001 0.057l0.033 0.291c0.003 0.029 0.007 0.060 0.013 0.091 0.010 0.057 0.024 0.199-0.063 0.292-0.075 0.080-0.413 0.266-0.608 0.369-0.053 0.028-0.099 0.066-0.137 0.113-0.024 0.050 0.035 0.447 0.105 0.784 0.001 0.006 0.001 0.011-0 0.017s-0.004 0.011-0.008 0.015c-0.004 0.004-0.008 0.008-0.013 0.010s-0.011 0.004-0.017 0.004h-0.002zM17.781 8.549l0.52 0.186c-0.057-0.289-0.129-0.713-0.075-0.781 0.044-0.055 0.099-0.1 0.161-0.133 0.319-0.17 0.539-0.302 0.588-0.354 0.064-0.068 0.052-0.18 0.044-0.225-0.006-0.032-0.010-0.065-0.013-0.096l-0.033-0.29c-0.003-0.023-0.003-0.047-0.002-0.070 0.002-0.052 0-0.073-0.024-0.089-0.080-0.054-0.225 0.032-0.274 0.070-0.005 0.004-0.012 0.007-0.018 0.008s-0.013 0-0.020-0.002c-0.006-0.002-0.012-0.006-0.016-0.012s-0.007-0.011-0.008-0.018c-0.008-0.048-0.039-0.15-0.087-0.157-0.073-0.010-0.411 0.178-0.539 0.57-0.119 0.366-0.19 1.224-0.203 1.393z"></path>
<path fill="#0f0f0f" style="fill: var(--color2, #0f0f0f)" d="M18.492 7.547c-0.013-0-0.026-0.002-0.038-0.005-0.075-0.021-0.157-0.108-0.164-0.293-0.010-0.276 0.334-0.541 0.348-0.552 0.008-0.005 0.018-0.008 0.028-0.006s0.018 0.007 0.024 0.015c0.006 0.008 0.009 0.018 0.008 0.027s-0.006 0.019-0.013 0.025c-0.003 0.002-0.327 0.251-0.318 0.488 0.005 0.143 0.061 0.208 0.107 0.221 0.032 0.009 0.063-0.006 0.086-0.041 0.043-0.065 0.063-0.143 0.056-0.221-0.001-0.010 0.002-0.020 0.008-0.027s0.015-0.013 0.024-0.014c0.010-0.002 0.020 0.001 0.028 0.006s0.014 0.014 0.016 0.024c0.010 0.097-0.014 0.194-0.068 0.275-0.014 0.023-0.033 0.042-0.056 0.056s-0.049 0.021-0.076 0.022z"></path>
<path fill="#fff" style="fill: var(--color1, #fff)" d="M13.32 8.255c-0.122-0.020-0.232-0.084-0.31-0.181s-0.117-0.218-0.11-0.341l0.021-0.397c0.239-0.019 0.439-0.133 0.438-0.209 0-0.037-0.088-0.398-0.143-0.547 0.046-0.038 0.103-0.142 0.003-0.206s-0.325-0.47-0.325-0.47c-0.277-0.322-0.357 0.132-0.564 0.17-0.143 0.026-0.221 0.114-0.167 0.301s-0.049 0.094-0.154 0.040c-0.105-0.053-0.177-0.012-0.119 0.159s0.269 0.273 0.269 0.273l0.1 0.197-0.21 0.966c-0.020 0.090-0.062 0.173-0.123 0.242s-0.138 0.121-0.225 0.152l-0.29 0.104 1.525 0.8 0.737-0.993-0.352-0.058z"></path>
<path fill="#0f0f0f" style="fill: var(--color2, #0f0f0f)" d="M12.936 9.345c-0.006-0-0.012-0.002-0.018-0.004l-1.525-0.8c-0.006-0.004-0.012-0.009-0.015-0.015s-0.005-0.014-0.005-0.021 0.003-0.014 0.008-0.020c0.004-0.006 0.010-0.010 0.017-0.013l0.29-0.104c0.080-0.028 0.152-0.077 0.209-0.141s0.095-0.142 0.113-0.225l0.208-0.952-0.087-0.173c-0.048-0.026-0.222-0.128-0.276-0.289-0.035-0.101-0.030-0.171 0.013-0.208 0.021-0.019 0.070-0.043 0.16 0.003 0.020 0.010 0.039 0.021 0.058 0.032s0.039 0.022 0.055 0.030c-0.003-0.019-0.007-0.038-0.013-0.057-0.029-0.1-0.024-0.18 0.013-0.241 0.035-0.056 0.097-0.093 0.184-0.109 0.061-0.011 0.115-0.074 0.167-0.134 0.064-0.074 0.13-0.151 0.223-0.151 0.067 0 0.136 0.042 0.21 0.128 0.002 0.002 0.003 0.004 0.004 0.006 0.085 0.154 0.245 0.414 0.312 0.456 0.021 0.012 0.038 0.028 0.051 0.048s0.020 0.043 0.022 0.067c0.001 0.050-0.018 0.098-0.052 0.133 0.055 0.161 0.137 0.493 0.137 0.536 0.001 0.103-0.209 0.217-0.44 0.245l-0.019 0.364c-0.006 0.114 0.030 0.226 0.102 0.315s0.174 0.148 0.286 0.167l0.352 0.058c0.007 0.001 0.013 0.004 0.018 0.008s0.009 0.009 0.012 0.016c0.002 0.006 0.003 0.013 0.002 0.019s-0.003 0.013-0.007 0.018l-0.736 0.992c-0.004 0.005-0.008 0.009-0.014 0.011s-0.011 0.004-0.017 0.004zM11.507 8.514l1.418 0.743 0.68-0.916-0.29-0.048c-0.131-0.021-0.25-0.091-0.334-0.194s-0.126-0.235-0.119-0.368l0.021-0.397c0.001-0.009 0.004-0.018 0.011-0.025s0.015-0.011 0.024-0.012c0.233-0.018 0.403-0.129 0.403-0.17-0.002-0.035-0.086-0.385-0.141-0.534-0.003-0.008-0.003-0.016-0.001-0.024s0.007-0.015 0.013-0.020c0.013-0.011 0.024-0.024 0.032-0.040s0.012-0.032 0.012-0.049c-0.001-0.011-0.005-0.022-0.012-0.032s-0.015-0.017-0.026-0.023c-0.103-0.065-0.304-0.424-0.336-0.48-0.057-0.065-0.107-0.098-0.149-0.099-0.057 0-0.11 0.061-0.165 0.125-0.061 0.070-0.123 0.144-0.211 0.16-0.065 0.012-0.109 0.037-0.132 0.074-0.025 0.041-0.027 0.101-0.005 0.179 0.020 0.070 0.027 0.122-0.008 0.148-0.038 0.030-0.086 0.002-0.147-0.033-0.018-0.010-0.035-0.021-0.054-0.030-0.039-0.020-0.066-0.021-0.075-0.013s-0.017 0.044 0.009 0.125c0.052 0.153 0.247 0.25 0.249 0.251 0.008 0.004 0.014 0.010 0.018 0.018l0.1 0.196c0.004 0.008 0.005 0.017 0.003 0.026l-0.211 0.965c-0.021 0.096-0.066 0.186-0.131 0.26s-0.148 0.13-0.241 0.163l-0.207 0.074z"></path>
<path fill="#0f0f0f" style="fill: var(--color2, #0f0f0f)" d="M12.834 7.385c-0.227 0-0.326-0.208-0.327-0.21-0.004-0.009-0.004-0.020-0-0.029s0.011-0.017 0.020-0.021c0.009-0.004 0.019-0.005 0.029-0.002s0.017 0.010 0.022 0.019c0.004 0.009 0.103 0.211 0.335 0.156 0.010-0.002 0.020-0.001 0.029 0.005s0.015 0.014 0.017 0.024c0.002 0.010 0.001 0.020-0.005 0.029s-0.014 0.015-0.024 0.017c-0.031 0.008-0.063 0.011-0.096 0.011z"></path>
<path fill="#fff" style="fill: var(--color1, #fff)" d="M18.479 8.664c-0.262-0.145-0.613-0.255-0.929-0.325-0.062 0.236-0.007 0.059-0.152 0.438-0.281 0.736-0.422 1.104-0.679 1.161-0.314 0.070-0.725-0.31-1.030-0.862l-0.34-0.394c-0.195-0.225-0.446-0.394-0.727-0.49-0.662-0.058-1.328-0.053-1.988 0.016-0.928 0.093-1.838 0.32-2.702 0.673 0 0-2.146 1.252-2.107 3.259s1.307 2.669 1.307 2.669l0.713-0.982c0 0-1.332-1.458 0.636-2.787-0.081 0.898-0.352 3.254-0.095 3.541 0.159 0.178 0.481 0.147 1.118 0.076 0.995-0.11 1.167-0.335 1.81-0.398 1.147-0.113 1.618 0.502 2.029 0.219 0.25-0.172 0.456-0.661 0.086-2.171-0.088-0.418-0.175-0.838-0.26-1.262 0.928 0.678 1.867 0.896 2.421 0.538 0.343-0.222 0.498-0.639 0.629-0.994 0.316-0.855 0.339-1.538 0.261-1.926z"></path>
<path fill="#0f0f0f" style="fill: var(--color2, #0f0f0f)" d="M9.132 14.849c-0.006-0-0.012-0.002-0.018-0.004-0.013-0.007-1.288-0.695-1.327-2.702-0.040-2.016 2.104-3.281 2.126-3.293l0.005-0.002c0.867-0.355 1.78-0.583 2.712-0.677 0.663-0.069 1.331-0.075 1.996-0.016 0.003 0 0.006 0.001 0.009 0.002 0.288 0.098 0.545 0.271 0.744 0.502l0.339 0.394c0.002 0.002 0.003 0.004 0.005 0.007 0.313 0.566 0.71 0.904 0.988 0.843 0.237-0.053 0.375-0.415 0.651-1.137 0.048-0.125 0.074-0.19 0.089-0.229 0.016-0.037 0.029-0.075 0.038-0.115 0.005-0.021 0.013-0.050 0.024-0.091 0.002-0.010 0.009-0.018 0.017-0.023s0.019-0.007 0.028-0.005c0.216 0.048 0.626 0.155 0.94 0.329 0.005 0.003 0.009 0.007 0.012 0.011s0.006 0.010 0.007 0.015c0.038 0.188 0.13 0.884-0.262 1.947-0.129 0.35-0.29 0.784-0.644 1.013-0.55 0.356-1.458 0.17-2.385-0.482 0.079 0.389 0.159 0.781 0.241 1.166 0.302 1.233 0.269 1.956-0.102 2.211-0.212 0.146-0.442 0.070-0.733-0.028-0.323-0.108-0.724-0.242-1.313-0.184-0.287 0.028-0.476 0.088-0.695 0.157-0.265 0.084-0.565 0.18-1.114 0.24-0.629 0.070-0.976 0.108-1.151-0.089-0.217-0.243-0.096-1.697 0.047-3.166 0.012-0.118 0.022-0.227 0.031-0.322-0.592 0.416-0.922 0.885-0.982 1.394-0.086 0.725 0.415 1.282 0.421 1.289s0.009 0.015 0.010 0.024c0 0.009-0.002 0.018-0.007 0.025l-0.712 0.982c-0.004 0.005-0.008 0.009-0.014 0.012s-0.011 0.004-0.018 0.004zM9.948 8.918c-0.044 0.026-0.552 0.332-1.060 0.871-0.479 0.509-1.045 1.329-1.025 2.352 0.035 1.791 1.071 2.504 1.257 2.618l0.675-0.928c-0.099-0.118-0.5-0.644-0.419-1.325 0.066-0.551 0.43-1.054 1.083-1.496 0.006-0.004 0.013-0.006 0.020-0.007s0.014 0.002 0.021 0.005c0.006 0.004 0.011 0.009 0.015 0.015s0.005 0.014 0.004 0.021c-0.010 0.114-0.024 0.251-0.038 0.405-0.098 1.003-0.279 2.869-0.066 3.107 0.143 0.16 0.437 0.135 1.085 0.064 0.541-0.060 0.838-0.154 1.099-0.237 0.223-0.071 0.416-0.132 0.711-0.161 0.606-0.060 1.033 0.083 1.345 0.188 0.292 0.098 0.484 0.162 0.665 0.038 0.336-0.232 0.36-0.948 0.070-2.13-0.087-0.419-0.175-0.844-0.26-1.264-0.002-0.008-0.001-0.015 0.002-0.023s0.008-0.013 0.015-0.017c0.007-0.004 0.014-0.006 0.022-0.006s0.015 0.003 0.022 0.007c0.93 0.679 1.841 0.884 2.379 0.536 0.332-0.215 0.482-0.619 0.614-0.975 0.375-1.014 0.301-1.682 0.263-1.887-0.218-0.118-0.524-0.226-0.867-0.305-0.006 0.023-0.010 0.040-0.014 0.055-0.010 0.043-0.023 0.084-0.041 0.124-0.016 0.039-0.042 0.103-0.089 0.227-0.286 0.748-0.429 1.124-0.707 1.185-0.316 0.070-0.736-0.274-1.070-0.877l-0.338-0.391c-0.189-0.219-0.433-0.383-0.706-0.477-0.658-0.057-1.32-0.051-1.976 0.018-0.924 0.093-1.83 0.319-2.689 0.671l0.001-0.001z"></path>
<path fill="#fff" style="fill: var(--color1, #fff)" d="M9.732 13.984l0.687 0.625 0.336-0.542 0.965-0.238c0 0-0.037 0.262-0.533 0.327l0.799-0.018c0 0-0.119 0.225-0.618 0.199l0.513 0.087c0 0-0.332 0.075-0.493 0.144l-0.161 0.070c0 0-0.163 0.101-0.27 0.224s-0.279 0.259-0.511 0.3c-0.232 0.041-1.225-0.473-1.225-0.473l0.511-0.704z"></path>
<path fill="#0f0f0f" style="fill: var(--color2, #0f0f0f)" d="M10.419 15.202c-0.279 0-1.118-0.428-1.216-0.479-0.005-0.003-0.009-0.006-0.013-0.011s-0.006-0.009-0.007-0.015c-0.001-0.005-0.001-0.011-0-0.016s0.003-0.011 0.007-0.015l0.511-0.705c0.003-0.004 0.007-0.008 0.012-0.011s0.010-0.004 0.015-0.005c0.005-0.001 0.011 0 0.016 0.002s0.010 0.005 0.014 0.008l0.653 0.593 0.311-0.502c0.005-0.009 0.014-0.015 0.024-0.018l0.965-0.238c0.006-0.002 0.012-0.002 0.018 0s0.012 0.004 0.016 0.009c0.005 0.004 0.008 0.010 0.010 0.016s0.003 0.012 0.002 0.018c-0.001 0.009-0.027 0.169-0.257 0.277l0.485-0.011c0.007-0 0.013 0.002 0.019 0.005s0.011 0.008 0.014 0.014c0.004 0.006 0.005 0.012 0.006 0.019s-0.001 0.013-0.004 0.019c-0.004 0.008-0.078 0.14-0.328 0.197l0.196 0.033c0.009 0.002 0.017 0.006 0.023 0.013s0.009 0.015 0.009 0.024-0.003 0.018-0.008 0.025c-0.005 0.007-0.013 0.012-0.022 0.014-0.003 0-0.331 0.075-0.486 0.142l-0.157 0.068c-0.020 0.013-0.164 0.105-0.259 0.215-0.084 0.097-0.266 0.265-0.534 0.312-0.011 0.002-0.023 0.003-0.035 0.004zM9.278 14.675c0.3 0.152 0.99 0.479 1.161 0.448 0.245-0.043 0.411-0.198 0.489-0.287 0.11-0.126 0.272-0.227 0.279-0.231l0.005-0.003 0.161-0.070c0.104-0.041 0.21-0.075 0.319-0.102l-0.33-0.056c-0.010-0.002-0.018-0.007-0.024-0.015s-0.008-0.018-0.007-0.027c0.001-0.010 0.006-0.019 0.013-0.025s0.017-0.010 0.027-0.009c0.302 0.016 0.456-0.062 0.527-0.12l-0.71 0.016c-0.010 0-0.019-0.003-0.027-0.010s-0.012-0.016-0.013-0.025 0.002-0.020 0.008-0.027c0.006-0.008 0.015-0.013 0.025-0.014 0.313-0.041 0.431-0.16 0.474-0.234l-0.878 0.217-0.327 0.528c-0.003 0.005-0.007 0.009-0.012 0.012s-0.010 0.005-0.016 0.006c-0.006 0.001-0.011 0-0.017-0.001s-0.010-0.005-0.014-0.008l-0.655-0.595-0.46 0.633z"></path>
<path fill="#fff" style="fill: var(--color1, #fff)" d="M27.354 5.472c0 0 0.787-0.525 0.838-0.691s-0.535-0.811-0.141-1.177c0.402-0.374 0.929-0.039 0.877 0.807 0 0 0.986-0.034 0.869 0.505-0.109 0.501-0.67 0.483-0.853 0.409-0.353-0.141-0.962 0.939-0.962 0.939l-0.628-0.792z"></path>
<path fill="#0f0f0f" style="fill: var(--color2, #0f0f0f)" d="M27.982 6.302c-0.006-0-0.012-0.001-0.017-0.004s-0.010-0.006-0.014-0.011l-0.629-0.792c-0.003-0.004-0.006-0.009-0.007-0.014s-0.002-0.011-0.001-0.016 0.003-0.010 0.006-0.015c0.003-0.005 0.007-0.008 0.011-0.011 0.3-0.2 0.789-0.558 0.823-0.67 0.012-0.040-0.042-0.151-0.094-0.26-0.129-0.266-0.323-0.668-0.037-0.934 0.175-0.162 0.378-0.205 0.559-0.119 0.256 0.122 0.402 0.47 0.384 0.915 0.144 0 0.611 0.019 0.798 0.242 0.071 0.085 0.094 0.19 0.067 0.311-0.039 0.181-0.137 0.315-0.29 0.395-0.213 0.113-0.489 0.092-0.615 0.041-0.264-0.105-0.749 0.629-0.914 0.922-0.003 0.005-0.008 0.010-0.013 0.014s-0.011 0.005-0.018 0.006l-0.002 0zM27.41 5.481l0.568 0.715c0.135-0.231 0.64-1.043 0.981-0.906 0.114 0.045 0.36 0.064 0.551-0.038 0.132-0.070 0.216-0.186 0.251-0.344 0.021-0.098 0.005-0.178-0.051-0.245-0.192-0.231-0.773-0.214-0.778-0.214s-0.011-0.001-0.016-0.003c-0.005-0.002-0.009-0.005-0.013-0.009s-0.007-0.008-0.009-0.013c-0.002-0.005-0.003-0.010-0.002-0.016 0.032-0.517-0.154-0.795-0.339-0.882-0.151-0.072-0.324-0.033-0.474 0.106-0.244 0.227-0.072 0.584 0.053 0.844 0.070 0.143 0.12 0.247 0.099 0.316-0.050 0.159-0.653 0.576-0.82 0.688v0z"></path>
<path fill="#0f0f0f" style="fill: var(--color2, #0f0f0f)" d="M29.228 4.78c-0.067 0-0.188-0.013-0.268-0.094-0.064-0.066-0.087-0.16-0.071-0.281 0.002-0.010 0.007-0.018 0.015-0.024s0.018-0.008 0.028-0.007c0.010 0.001 0.019 0.007 0.025 0.014s0.009 0.018 0.008 0.028c-0.014 0.096 0.003 0.168 0.049 0.216 0.087 0.088 0.251 0.070 0.253 0.070 0.010-0.001 0.020 0.002 0.027 0.009s0.012 0.015 0.014 0.025c0.001 0.010-0.001 0.020-0.007 0.028s-0.015 0.013-0.024 0.015c-0.016 0.002-0.033 0.002-0.049 0.002z"></path>
<path fill="#0f0f0f" style="fill: var(--color2, #0f0f0f)" d="M27.632 5.158c0 0-0.351 0.118-2.55 0.24-0.896 0.050-2.024 0.704-1.913 2.072s1.637 2.862 3.145 2.212c1.508-0.65 1.672-2.696 1.805-3.178 0.115-0.418 0.235-0.637 0.235-0.637l-0.31-0.068-0.019-0.323-0.358 0.055-0.035-0.373z"></path>
<path fill="#fff" style="fill: var(--color1, #fff)" d="M26.248 6.914c0.712 0.938 0.781 2.084 0.155 2.561s-1.811 0.208-2.522-0.73-0.681-2.191-0.054-2.667c0.627-0.476 1.71-0.102 2.422 0.836z"></path>
<path fill="#0f0f0f" style="fill: var(--color2, #0f0f0f)" d="M25.186 7.832c0.155 0.212 0.189 0.45 0.077 0.532s-0.329-0.023-0.483-0.235c-0.155-0.212-0.189-0.45-0.077-0.532s0.329 0.023 0.483 0.235z"></path>
<path fill="#fff" style="fill: var(--color1, #fff)" d="M27.048 8.232c-0.009-0-0.018-0.003-0.025-0.009s-0.012-0.014-0.013-0.023c-0.392-2.15-2.038-2.501-2.054-2.504-0.010-0.002-0.018-0.008-0.023-0.017s-0.007-0.018-0.005-0.028c0.002-0.010 0.008-0.018 0.016-0.024s0.018-0.008 0.028-0.007c0.017 0.003 0.435 0.089 0.908 0.449 0.434 0.331 0.998 0.968 1.207 2.117 0.002 0.010-0 0.020-0.006 0.029s-0.015 0.014-0.025 0.016c-0.002 0-0.005 0.001-0.007 0.001z"></path>
<path fill="#fff" style="fill: var(--color1, #fff)" d="M29.429 8.118c-0.349 0.662-1.022 0.844-1.577 0.55s-0.784-0.953-0.435-1.615c0.349-0.662 1.145-1.077 1.7-0.783s0.661 1.185 0.312 1.848z"></path>
<path fill="#0f0f0f" style="fill: var(--color2, #0f0f0f)" d="M28.386 8.843c-0.193-0.001-0.383-0.049-0.552-0.14-0.285-0.151-0.489-0.397-0.576-0.693-0.091-0.311-0.047-0.647 0.125-0.974 0.177-0.332 0.453-0.601 0.79-0.767 0.346-0.166 0.688-0.178 0.962-0.032 0.554 0.293 0.707 1.181 0.328 1.9-0.173 0.327-0.426 0.552-0.733 0.653-0.111 0.036-0.227 0.054-0.343 0.054zM28.715 6.213c-0.162 0-0.334 0.042-0.509 0.126-0.322 0.159-0.587 0.416-0.755 0.733-0.163 0.309-0.204 0.626-0.119 0.917 0.080 0.276 0.271 0.505 0.538 0.647s0.563 0.17 0.836 0.081c0.288-0.094 0.526-0.307 0.689-0.615 0.354-0.671 0.213-1.526-0.296-1.796-0.118-0.062-0.25-0.094-0.384-0.093z"></path>
<path fill="#0f0f0f" style="fill: var(--color2, #0f0f0f)" d="M27.75 7.010c-0.008-0-0.016-0.003-0.023-0.008-0.004-0.003-0.008-0.007-0.010-0.011s-0.004-0.009-0.005-0.014-0-0.010 0.001-0.015c0.001-0.005 0.003-0.010 0.006-0.014 0.146-0.197 0.337-0.356 0.557-0.464 0.276-0.133 0.541-0.146 0.748-0.037 0.008 0.005 0.014 0.013 0.017 0.023s0.001 0.020-0.003 0.028c-0.005 0.009-0.012 0.015-0.022 0.019s-0.019 0.003-0.028-0.001c-0.184-0.097-0.425-0.084-0.679 0.038-0.208 0.103-0.389 0.254-0.528 0.441-0.004 0.005-0.008 0.009-0.014 0.011s-0.011 0.004-0.017 0.004z"></path>
<path fill="#0f0f0f" style="fill: var(--color2, #0f0f0f)" d="M14.31 26.289c0 0 0.969 3.238 5.159 3.291 4.543 0.057 6.868-4.978 5.947-8.676-0.467-1.873-1.397-2.189-1.397-2.189l-9.709 7.574z"></path>
<path fill="#fff" style="fill: var(--color1, #fff)" d="M15.025 27.223c0 0 2.88 2.831 6.902-1.409s2.922-7.308 1.597-7.222c-1.325 0.087-3.51 2.21-6.409 3.55s-3.708 3.611-2.090 5.081z"></path>
<path fill="#0f0f0f" style="fill: var(--color2, #0f0f0f)" d="M17.526 28.188c-1.54 0-2.497-0.907-2.527-0.936-0.647-0.588-0.927-1.309-0.808-2.084 0.179-1.172 1.24-2.287 2.908-3.059 1.334-0.617 2.504-1.391 3.536-2.075 1.208-0.8 2.163-1.432 2.887-1.479 0.419-0.028 0.805 0.246 1.032 0.731 0.552 1.179 0.202 3.602-2.598 6.555-1.453 1.532-2.92 2.321-4.36 2.346l-0.069 0zM23.579 18.63c-0.017 0-0.035 0-0.052 0.002-0.703 0.046-1.65 0.673-2.849 1.467-1.034 0.685-2.207 1.461-3.546 2.081-1.645 0.761-2.689 1.854-2.864 3.001-0.114 0.749 0.157 1.445 0.784 2.015l0.001 0.001c0.010 0.009 0.978 0.942 2.543 0.914 1.419-0.025 2.867-0.806 4.304-2.322 2.774-2.924 3.126-5.313 2.585-6.47-0.204-0.435-0.54-0.689-0.905-0.689v0.001z"></path>
<path fill="#0f0f0f" style="fill: var(--color2, #0f0f0f)" d="M17.115 25.339c0 0 0.788 1.025 2.862-0.595s0.95-3.204-0.856-2.572c-1.805 0.632-2.509 2.257-2.006 3.166z"></path>
<path fill="#fff" style="fill: var(--color1, #fff)" d="M17.453 24.166c-0.005 0-0.009-0.001-0.014-0.002-0.009-0.004-0.017-0.011-0.021-0.020s-0.005-0.020-0.001-0.030c0.269-0.706 0.949-1.31 1.819-1.614 0.233-0.081 0.456-0.122 0.664-0.122 0.005-0 0.011 0 0.016 0.002s0.010 0.005 0.013 0.008c0.004 0.004 0.007 0.008 0.009 0.013s0.003 0.010 0.003 0.015c0 0.005-0.001 0.011-0.003 0.015s-0.005 0.009-0.009 0.013c-0.004 0.004-0.008 0.006-0.013 0.008s-0.010 0.003-0.016 0.002c-0.199 0-0.413 0.040-0.638 0.119-0.849 0.297-1.511 0.884-1.772 1.569-0.003 0.007-0.008 0.014-0.014 0.018s-0.014 0.007-0.022 0.006z"></path>
<path fill="#fff" style="fill: var(--color1, #fff)" d="M4.175 4.346h-2.238l0.348 2.534h1.542l0.348-2.534z"></path>
<path fill="#0f0f0f" style="fill: var(--color2, #0f0f0f)" d="M3.827 6.918h-1.541c-0.009-0-0.018-0.003-0.025-0.010s-0.012-0.015-0.013-0.024l-0.348-2.534c-0.001-0.005-0-0.011 0.001-0.016s0.004-0.010 0.008-0.014c0.004-0.004 0.008-0.008 0.013-0.010s0.010-0.003 0.016-0.003h2.237c0.006 0 0.011 0.001 0.016 0.003s0.010 0.006 0.013 0.010c0.004 0.004 0.006 0.009 0.008 0.014s0.002 0.011 0.001 0.016l-0.348 2.534c-0.001 0.009-0.006 0.018-0.013 0.024s-0.016 0.010-0.025 0.010zM2.319 6.841h1.474l0.337-2.456h-2.149l0.337 2.456z"></path>
<path fill="#fff" style="fill: var(--color1, #fff)" d="M4.256 6.192h-2.4c-0.609 2.164-0.609 4.328 0 6.492h2.4c0.609-2.164 0.609-4.328 0-6.492z"></path>
<path fill="#0f0f0f" style="fill: var(--color2, #0f0f0f)" d="M4.256 12.723h-2.4c-0.008 0-0.016-0.003-0.023-0.008s-0.012-0.012-0.014-0.020c-0.608-2.161-0.608-4.352 0-6.513 0.002-0.008 0.007-0.015 0.014-0.020s0.015-0.008 0.023-0.008h2.4c0.008 0 0.017 0.003 0.023 0.008s0.012 0.012 0.014 0.020c0.608 2.161 0.608 4.352 0 6.513-0.002 0.008-0.007 0.015-0.014 0.020s-0.015 0.008-0.023 0.008zM1.886 12.645h2.341c0.594-2.128 0.594-4.286 0-6.415h-2.341c-0.594 2.128-0.594 4.286 0 6.415z"></path>
<path fill="#fff" style="fill: var(--color1, #fff)" d="M5.475 9.304h-4.837c-0.331 0-0.6 0.269-0.6 0.6v17.216c0 0.332 0.268 0.6 0.6 0.6h4.837c0.331 0 0.6-0.269 0.6-0.6v-17.216c0-0.332-0.268-0.6-0.6-0.6z"></path>
<path fill="#0f0f0f" style="fill: var(--color2, #0f0f0f)" d="M5.475 27.759h-4.838c-0.169-0-0.331-0.068-0.451-0.188s-0.187-0.282-0.187-0.451v-17.216c0-0.169 0.068-0.332 0.187-0.451s0.282-0.187 0.451-0.187h4.838c0.169 0 0.331 0.068 0.451 0.187s0.187 0.282 0.187 0.451v17.216c-0 0.169-0.068 0.332-0.187 0.452s-0.282 0.187-0.451 0.187zM0.638 9.342c-0.149 0-0.291 0.060-0.396 0.165s-0.164 0.248-0.164 0.397v17.216c0 0.149 0.059 0.292 0.165 0.397s0.248 0.165 0.397 0.165h4.838c0.149-0 0.291-0.059 0.396-0.165s0.164-0.248 0.164-0.397v-17.216c-0-0.149-0.059-0.292-0.165-0.397s-0.248-0.165-0.396-0.165h-4.838z"></path>
<path fill="#fff" style="fill: var(--color1, #fff)" d="M4.517 5.779h-2.921v0.5h2.921v-0.5z"></path>
<path fill="#0f0f0f" style="fill: var(--color2, #0f0f0f)" d="M4.517 6.318h-2.921c-0.010 0-0.020-0.004-0.027-0.011s-0.011-0.017-0.011-0.027v-0.5c0-0.010 0.004-0.020 0.011-0.027s0.017-0.011 0.027-0.011h2.921c0.005 0 0.010 0.001 0.015 0.003s0.009 0.005 0.013 0.008c0.004 0.004 0.006 0.008 0.008 0.013s0.003 0.010 0.003 0.015v0.5c0 0.005-0.001 0.010-0.003 0.015s-0.005 0.009-0.008 0.013c-0.004 0.004-0.008 0.006-0.013 0.008s-0.010 0.003-0.015 0.003zM1.635 6.24h2.843v-0.423h-2.843l0.001 0.423z"></path>
<path fill="#0f0f0f" style="fill: var(--color2, #0f0f0f)" d="M5.891 20.307h-5.638c-0.010 0-0.020-0.004-0.027-0.011s-0.011-0.017-0.011-0.027v-6.897c0-0.005 0.001-0.010 0.003-0.015s0.005-0.009 0.008-0.012c0.004-0.004 0.008-0.006 0.013-0.008s0.010-0.003 0.015-0.003h5.638c0.005 0 0.010 0.001 0.015 0.003s0.009 0.005 0.013 0.008c0.004 0.004 0.006 0.008 0.008 0.012s0.003 0.010 0.003 0.015v6.897c0 0.010-0.004 0.020-0.011 0.027s-0.017 0.011-0.027 0.011zM0.292 20.23h5.561v-6.82h-5.561v6.82z"></path>
<path fill="#fff" style="fill: var(--color1, #fff)" d="M3.204 18.151l-2.118 3.183c0 0-1.024-2.472 2.118-3.183z"></path>
<path fill="#0f0f0f" style="fill: var(--color2, #0f0f0f)" d="M1.086 21.372h-0.003c-0.007-0.001-0.014-0.003-0.019-0.007s-0.010-0.010-0.013-0.016c-0.004-0.010-0.4-0.989 0.066-1.891 0.339-0.656 1.039-1.108 2.078-1.343 0.007-0.002 0.015-0.001 0.023 0.002s0.013 0.008 0.018 0.014c0.004 0.006 0.007 0.014 0.007 0.022s-0.002 0.015-0.006 0.022l-2.118 3.182c-0.004 0.005-0.008 0.010-0.014 0.013s-0.012 0.005-0.018 0.005zM3.118 18.211c-0.965 0.236-1.615 0.666-1.933 1.282-0.379 0.733-0.167 1.52-0.089 1.756l2.021-3.037z"></path>
<path fill="#fff" style="fill: var(--color1, #fff)" d="M3.742 16.858c0 0-0.941-2.321 1.277-4.37 0 0 0.639 3.115-1.277 4.37z"></path>
<path fill="#0f0f0f" style="fill: var(--color2, #0f0f0f)" d="M3.742 16.896c-0.004 0-0.008-0.001-0.012-0.002-0.005-0.002-0.010-0.005-0.015-0.008s-0.007-0.009-0.010-0.014c-0.002-0.006-0.238-0.598-0.196-1.433 0.039-0.77 0.327-1.913 1.483-2.98 0.005-0.005 0.011-0.008 0.018-0.009s0.014-0.001 0.020 0.001c0.007 0.002 0.012 0.006 0.017 0.011s0.008 0.011 0.009 0.018c0.002 0.008 0.16 0.795 0.080 1.725-0.105 1.237-0.581 2.165-1.375 2.685-0.006 0.004-0.014 0.006-0.021 0.006zM4.995 12.564c-1.094 1.036-1.37 2.135-1.407 2.879-0.035 0.688 0.122 1.205 0.175 1.355 1.669-1.139 1.309-3.775 1.232-4.234z"></path>
<path fill="#fff" style="fill: var(--color1, #fff)" d="M3.331 16.194c0 0-1.539-1.413-1.237-3.888 0 0 1.6 1.531 1.237 3.888z"></path>
<path fill="#0f0f0f" style="fill: var(--color2, #0f0f0f)" d="M3.331 16.233c-0.010 0-0.019-0.004-0.026-0.010-0.016-0.014-1.551-1.455-1.249-3.921 0.001-0.007 0.004-0.014 0.008-0.019s0.010-0.010 0.017-0.012 0.014-0.003 0.021-0.001c0.007 0.001 0.013 0.005 0.019 0.010 0.016 0.015 1.61 1.572 1.248 3.921-0.001 0.007-0.004 0.013-0.008 0.019s-0.010 0.009-0.017 0.012c-0.004 0.002-0.008 0.002-0.013 0.002zM2.123 12.393c-0.226 2.116 0.917 3.445 1.181 3.72 0.276-2.019-0.907-3.425-1.181-3.72z"></path>
<path fill="#0f0f0f" style="fill: var(--color2, #0f0f0f)" d="M2.85 17.306c-0.761 0.555-1.896 0.655-2.323 0.070s0.018-1.638 0.779-2.192c0.761-0.554 1.549-0.402 1.976 0.184s0.329 1.385-0.432 1.939z"></path>
<path fill="#fff" style="fill: var(--color1, #fff)" d="M0.786 16.425c-0.005 0-0.009-0.001-0.014-0.003-0.010-0.004-0.017-0.011-0.021-0.020s-0.005-0.020-0.001-0.029c0.135-0.359 0.409-0.713 0.731-0.948 0.258-0.188 0.53-0.288 0.786-0.288 0.005-0 0.011 0 0.016 0.002s0.010 0.005 0.013 0.008c0.004 0.004 0.007 0.008 0.009 0.013s0.003 0.010 0.003 0.015c0 0.005-0.001 0.011-0.003 0.015s-0.005 0.009-0.009 0.013c-0.004 0.004-0.008 0.006-0.013 0.008s-0.010 0.002-0.016 0.002c-0.239 0-0.495 0.095-0.74 0.273-0.311 0.227-0.574 0.568-0.705 0.913-0.003 0.007-0.008 0.014-0.014 0.018s-0.014 0.007-0.022 0.007z"></path>
<path fill="#0f0f0f" style="fill: var(--color2, #0f0f0f)" d="M4.574 17.915c-0.329 0.883-1.221 1.594-1.899 1.34s-0.887-1.376-0.558-2.258c0.329-0.883 1.071-1.192 1.749-0.938s1.037 0.973 0.708 1.856z"></path>
<path fill="#fff" style="fill: var(--color1, #fff)" d="M1.971 18.071c-0.010 0-0.019-0.004-0.026-0.010s-0.011-0.015-0.012-0.025c-0.024-0.357 0.026-0.716 0.149-1.052 0.16-0.43 0.424-0.746 0.762-0.916 0.318-0.159 0.686-0.175 1.036-0.045 0.005 0.002 0.009 0.004 0.013 0.008s0.007 0.008 0.009 0.012c0.002 0.005 0.004 0.010 0.004 0.015s-0.001 0.010-0.002 0.015c-0.002 0.005-0.005 0.009-0.008 0.013s-0.008 0.007-0.013 0.009c-0.005 0.002-0.010 0.003-0.015 0.003s-0.010-0.001-0.015-0.003c-0.33-0.122-0.676-0.109-0.975 0.041-0.321 0.16-0.571 0.463-0.725 0.874-0.119 0.326-0.168 0.673-0.145 1.019 0.001 0.010-0.003 0.020-0.009 0.028s-0.016 0.013-0.026 0.014l-0.004-0.001z"></path>
<path fill="#0f0f0f" style="fill: var(--color2, #0f0f0f)" d="M3.827 6.957h-1.541c-0.009 0-0.018-0.003-0.025-0.010s-0.012-0.014-0.013-0.024l-0.065-0.475c-0.001-0.005-0.001-0.011 0-0.016s0.003-0.010 0.006-0.014 0.007-0.008 0.011-0.011c0.005-0.003 0.010-0.005 0.015-0.005s0.011-0 0.016 0.001 0.010 0.004 0.014 0.007c0.004 0.003 0.007 0.007 0.010 0.012s0.004 0.010 0.004 0.015l0.061 0.441h1.474l0.062-0.453c0.002-0.010 0.007-0.018 0.015-0.024s0.018-0.008 0.028-0.007 0.019 0.006 0.025 0.014c0.006 0.008 0.009 0.017 0.009 0.027l-0.067 0.486c-0.001 0.009-0.006 0.018-0.013 0.024s-0.016 0.009-0.026 0.009z"></path>
<path fill="#fff" style="fill: var(--color1, #fff)" d="M13.145 23.879c-0.024 0.245-0.115 0.48-0.263 0.677s-0.347 0.351-0.575 0.443c-0.228 0.093-0.478 0.121-0.721 0.081s-0.471-0.144-0.659-0.304c-0.188-0.16-0.329-0.368-0.407-0.602s-0.091-0.485-0.037-0.726c0.054-0.241 0.172-0.462 0.343-0.64s0.386-0.306 0.624-0.37c-1.844-1.546-3.322-2.728-3.322-2.728l-4.913 2.095c0 0 0.667 6.085 0.338 6.173l10.372 3.984c3.51-1.871 4.186-3.357 4.186-3.357-0.891-1.119-2.949-2.988-4.965-4.726z"></path>
<path fill="#0f0f0f" style="fill: var(--color2, #0f0f0f)" d="M13.925 32c-0.005 0-0.009-0.001-0.014-0.003l-10.372-3.984c-0.008-0.003-0.014-0.008-0.019-0.015s-0.007-0.015-0.006-0.023 0.003-0.016 0.009-0.022c0.005-0.006 0.012-0.011 0.020-0.013 0.038-0.027 0.152-0.332-0.078-3.126-0.124-1.498-0.287-2.99-0.288-3.005-0.001-0.008 0.001-0.017 0.005-0.024s0.011-0.013 0.018-0.016l4.913-2.094c0.006-0.003 0.013-0.004 0.020-0.003s0.013 0.004 0.019 0.008c0.015 0.012 1.5 1.199 3.323 2.728 0.005 0.005 0.009 0.010 0.012 0.017s0.003 0.014 0.001 0.021c-0.002 0.007-0.005 0.013-0.010 0.018s-0.011 0.009-0.018 0.011c-0.231 0.062-0.441 0.187-0.607 0.36s-0.281 0.388-0.333 0.622-0.040 0.478 0.036 0.705c0.076 0.227 0.213 0.43 0.395 0.585s0.404 0.257 0.64 0.295c0.236 0.038 0.479 0.011 0.701-0.079s0.415-0.239 0.559-0.431c0.143-0.192 0.232-0.419 0.255-0.658 0.001-0.007 0.003-0.014 0.008-0.019s0.010-0.010 0.017-0.013c0.007-0.003 0.014-0.003 0.021-0.002s0.014 0.004 0.019 0.009c2.54 2.188 4.213 3.78 4.97 4.731 0.004 0.006 0.007 0.012 0.008 0.019s-0 0.014-0.003 0.021c-0.028 0.061-0.721 1.519-4.203 3.375-0.006 0.003-0.012 0.005-0.018 0.005zM3.621 27.962l10.302 3.957c3.223-1.721 4.045-3.124 4.143-3.31-0.756-0.942-2.402-2.508-4.89-4.654-0.037 0.245-0.139 0.475-0.295 0.668s-0.36 0.339-0.592 0.426c-0.232 0.087-0.482 0.11-0.726 0.067s-0.472-0.149-0.66-0.31c-0.189-0.16-0.331-0.368-0.413-0.602s-0.1-0.485-0.052-0.728c0.048-0.243 0.159-0.469 0.323-0.654s0.374-0.324 0.61-0.4c-1.69-1.416-3.076-2.528-3.248-2.666l-4.867 2.074c0.023 0.216 0.175 1.625 0.289 3.025 0.196 2.39 0.142 2.962 0.075 3.107h0.001z"></path>
<path fill="#fff" style="fill: var(--color1, #fff)" d="M2.495 28.759c0 0-0.853-4.473 0.72-6.954l10.71 10.156-11.43-3.202z"></path>
<path fill="#0f0f0f" style="fill: var(--color2, #0f0f0f)" d="M13.925 32c-0.004 0-0.007-0-0.010-0.001l-11.43-3.202c-0.007-0.002-0.013-0.006-0.018-0.011s-0.008-0.012-0.009-0.019c-0.002-0.011-0.214-1.138-0.231-2.553-0.015-1.308 0.138-3.139 0.956-4.428 0.003-0.005 0.007-0.009 0.012-0.012s0.010-0.005 0.016-0.006c0.006-0.001 0.011-0 0.017 0.002s0.010 0.005 0.014 0.009l10.71 10.156c0.006 0.005 0.009 0.012 0.011 0.020s0.001 0.015-0.002 0.023c-0.003 0.007-0.008 0.013-0.014 0.018s-0.014 0.007-0.022 0.007v-0zM2.529 28.729l11.257 3.154-10.563-10.017c-1.455 2.355-0.756 6.512-0.694 6.863z"></path>
<path fill="#0f0f0f" style="fill: var(--color2, #0f0f0f)" d="M13.233 27.116c0.353 0 0.639-0.286 0.639-0.64s-0.286-0.64-0.639-0.64c-0.353 0-0.639 0.286-0.639 0.64s0.286 0.64 0.639 0.64z"></path>
<path fill="#0f0f0f" style="fill: var(--color2, #0f0f0f)" d="M8.066 23.573c0.468-0.194 0.691-0.732 0.497-1.201s-0.731-0.692-1.199-0.497c-0.468 0.194-0.691 0.732-0.497 1.201s0.731 0.692 1.199 0.497z"></path>
<path fill="#0f0f0f" style="fill: var(--color2, #0f0f0f)" d="M13.812 29.662c0.151-0.151 0.151-0.396 0-0.547s-0.396-0.151-0.547 0c-0.151 0.151-0.151 0.396 0 0.547s0.396 0.151 0.547 0z"></path>
<path fill="#0f0f0f" style="fill: var(--color2, #0f0f0f)" d="M5.563 26.76c0.271-0.112 0.4-0.424 0.287-0.695s-0.423-0.4-0.694-0.288c-0.271 0.112-0.4 0.423-0.287 0.695s0.423 0.4 0.694 0.288z"></path>
<path fill="#0f0f0f" style="fill: var(--color2, #0f0f0f)" d="M7.178 29.563c0.462 0 0.836-0.375 0.836-0.837s-0.374-0.837-0.836-0.837c-0.462 0-0.836 0.375-0.836 0.837s0.374 0.837 0.836 0.837z"></path>
<path fill="#0f0f0f" style="fill: var(--color2, #0f0f0f)" d="M21.622 30.1c-0.009-0-0.017-0.003-0.024-0.009s-0.012-0.014-0.013-0.022-0-0.018 0.004-0.026c0.004-0.008 0.011-0.014 0.019-0.018 2.809-1.189 5.231-3.283 6.82-5.898 0.006-0.008 0.014-0.014 0.024-0.016s0.020-0 0.028 0.005c0.009 0.005 0.015 0.014 0.017 0.023s0.001 0.020-0.004 0.029c-1.608 2.647-4.006 4.721-6.855 5.929-0.005 0.002-0.010 0.003-0.015 0.003z"></path>
<path fill="#0f0f0f" style="fill: var(--color2, #0f0f0f)" d="M29.163 22.887c-0.006 0-0.012-0.001-0.017-0.004-0.009-0.005-0.016-0.012-0.019-0.022s-0.003-0.020 0.002-0.029c0.944-1.979 1.423-4.102 1.423-6.313 0-0.9-0.082-1.799-0.244-2.684-0.001-0.010 0.001-0.020 0.007-0.028s0.014-0.013 0.024-0.015c0.010-0.002 0.020 0 0.028 0.006s0.014 0.014 0.017 0.023c0.164 0.89 0.246 1.793 0.246 2.698 0 2.221-0.481 4.356-1.43 6.345-0.003 0.007-0.008 0.012-0.014 0.017s-0.014 0.006-0.021 0.006z"></path>
<path fill="#0f0f0f" style="fill: var(--color2, #0f0f0f)" d="M25.037 27.165c-0.008-0-0.016-0.003-0.022-0.007s-0.011-0.011-0.014-0.018-0.003-0.016-0.001-0.023c0.002-0.008 0.006-0.014 0.012-0.020 3.077-2.577 4.841-6.356 4.841-10.369-0-0.005 0-0.011 0.002-0.016s0.005-0.010 0.008-0.013 0.008-0.007 0.013-0.009c0.005-0.002 0.010-0.003 0.015-0.003s0.011 0.001 0.015 0.003 0.009 0.005 0.013 0.009c0.004 0.004 0.006 0.008 0.008 0.013s0.002 0.010 0.002 0.016c0 4.035-1.775 7.836-4.869 10.428-0.007 0.006-0.016 0.009-0.025 0.009z"></path>
<path fill="#0f0f0f" style="fill: var(--color2, #0f0f0f)" d="M29.806 15.23c-0.010-0-0.019-0.004-0.026-0.010s-0.012-0.015-0.012-0.025c-0.067-0.591-0.172-1.177-0.316-1.754-0.002-0.005-0.002-0.010-0.002-0.016s0.002-0.010 0.005-0.015c0.003-0.005 0.006-0.009 0.010-0.012s0.009-0.005 0.014-0.007c0.005-0.001 0.010-0.002 0.016-0.001s0.010 0.003 0.015 0.006c0.004 0.003 0.008 0.007 0.011 0.011s0.005 0.009 0.006 0.014c0.145 0.58 0.251 1.17 0.318 1.764 0.001 0.005 0 0.010-0.001 0.015s-0.004 0.009-0.007 0.013c-0.003 0.004-0.007 0.007-0.012 0.010s-0.009 0.004-0.014 0.005l-0.004 0.001z"></path>
<path fill="#0f0f0f" style="fill: var(--color2, #0f0f0f)" d="M6.71 6.072c-0.008-0-0.015-0.002-0.021-0.007s-0.011-0.010-0.014-0.018c-0.003-0.007-0.004-0.015-0.002-0.022s0.005-0.014 0.011-0.020c1.788-1.743 4.121-2.817 6.606-3.043 0.010-0.001 0.020 0.002 0.028 0.009s0.013 0.016 0.014 0.026c0.001 0.010-0.002 0.020-0.009 0.028s-0.016 0.013-0.026 0.014c-2.468 0.224-4.784 1.291-6.56 3.022-0.007 0.007-0.017 0.011-0.027 0.011z"></path>
<path fill="#0f0f0f" style="fill: var(--color2, #0f0f0f)" d="M5.746 6.002c-0.008 0-0.015-0.002-0.022-0.007s-0.011-0.010-0.014-0.018-0.004-0.015-0.002-0.022c0.002-0.008 0.005-0.014 0.011-0.020 1.756-1.704 3.929-2.902 6.286-3.465 0.633-0.151 1.276-0.257 1.924-0.316 0.010-0.001 0.020 0.003 0.028 0.009s0.012 0.016 0.013 0.026c0.001 0.010-0.002 0.020-0.008 0.028s-0.015 0.013-0.025 0.014c-0.644 0.059-1.284 0.164-1.913 0.315-2.344 0.56-4.505 1.751-6.25 3.445-0.007 0.007-0.016 0.011-0.026 0.011z"></path>
<path fill="#0f0f0f" style="fill: var(--color2, #0f0f0f)" d="M6.104 5.162c-0.077 0-0.152-0.029-0.208-0.082s-0.090-0.126-0.095-0.203 0.020-0.154 0.070-0.213c0.050-0.059 0.12-0.098 0.197-0.107s0.154 0.011 0.216 0.057c0.062 0.046 0.104 0.114 0.118 0.19s-0.002 0.155-0.045 0.22-0.108 0.111-0.183 0.129c-0.023 0.006-0.046 0.008-0.070 0.008zM6.052 4.638c-0.043 0.010-0.083 0.033-0.113 0.066s-0.050 0.074-0.057 0.118-0.001 0.089 0.018 0.13c0.019 0.041 0.049 0.075 0.087 0.098s0.082 0.035 0.127 0.033c0.045-0.002 0.088-0.017 0.124-0.043s0.064-0.063 0.079-0.105c0.016-0.042 0.018-0.088 0.008-0.131-0.014-0.058-0.051-0.108-0.102-0.14s-0.112-0.041-0.17-0.028z"></path>
<path fill="#0f0f0f" style="fill: var(--color2, #0f0f0f)" d="M6.995 4.476c-0.010 0-0.019-0.004-0.026-0.010s-0.011-0.015-0.012-0.025c-0.025-0.247-0.029-0.498-0.029-0.501 0-0.006 0.002-0.013 0.005-0.018s0.008-0.010 0.013-0.014c0.005-0.003 0.011-0.006 0.018-0.006s0.013 0.001 0.019 0.003l0.482 0.213c0.006 0.003 0.012 0.007 0.016 0.013s0.006 0.012 0.007 0.019c0 0.007-0.001 0.014-0.004 0.020s-0.008 0.012-0.014 0.015l-0.454 0.284c-0.006 0.004-0.013 0.006-0.020 0.005zM7.006 4.001c0.002 0.078 0.008 0.221 0.021 0.372l0.339-0.213-0.36-0.159z"></path>
<path fill="#0f0f0f" style="fill: var(--color2, #0f0f0f)" d="M7.78 3.902h-0.002c-0.010-0.001-0.020-0.005-0.027-0.013s-0.010-0.018-0.010-0.028c0-0.010 0.014-0.253 0.207-0.361 0.061-0.035 0.146-0.030 0.236-0.025 0.093 0.005 0.189 0.010 0.26-0.026 0.056-0.029 0.096-0.107 0.14-0.189 0.052-0.099 0.106-0.202 0.2-0.245 0.073-0.033 0.17-0.001 0.264 0.029 0.078 0.026 0.158 0.052 0.204 0.034 0.059-0.023 0.099-0.105 0.134-0.177 0.027-0.054 0.050-0.101 0.082-0.128 0.008-0.006 0.018-0.008 0.027-0.007s0.019 0.006 0.025 0.014c0.006 0.008 0.009 0.017 0.009 0.027s-0.005 0.019-0.012 0.026c-0.019 0.016-0.040 0.060-0.061 0.102-0.041 0.085-0.088 0.181-0.175 0.215-0.072 0.028-0.165-0.002-0.256-0.032-0.080-0.026-0.163-0.052-0.208-0.033-0.070 0.032-0.118 0.122-0.164 0.211s-0.095 0.182-0.172 0.222c-0.089 0.046-0.201 0.040-0.299 0.035-0.078-0.004-0.153-0.008-0.194 0.015-0.155 0.087-0.167 0.296-0.167 0.297-0.001 0.010-0.005 0.019-0.012 0.026s-0.017 0.010-0.027 0.010z"></path>
<path fill="#0f0f0f" style="fill: var(--color2, #0f0f0f)" d="M20.62 30.225c-0.010 0-0.020-0.004-0.027-0.011s-0.011-0.017-0.011-0.027v-0.299c-0-0.005 0-0.011 0.002-0.016s0.005-0.010 0.008-0.013c0.004-0.004 0.008-0.007 0.013-0.009s0.010-0.003 0.015-0.003c0.005 0 0.011 0.001 0.015 0.003s0.009 0.005 0.013 0.009c0.004 0.004 0.006 0.008 0.008 0.013s0.003 0.010 0.002 0.016v0.299c0 0.005-0.001 0.010-0.003 0.015s-0.005 0.009-0.008 0.013c-0.004 0.004-0.008 0.006-0.012 0.008s-0.010 0.003-0.015 0.003z"></path>
<path fill="#0f0f0f" style="fill: var(--color2, #0f0f0f)" d="M20.62 30.922c-0.010 0-0.020-0.004-0.027-0.011s-0.011-0.017-0.011-0.027v-0.3c0.001-0.010 0.005-0.019 0.012-0.026s0.017-0.010 0.026-0.010c0.010 0 0.019 0.004 0.026 0.010s0.012 0.016 0.012 0.026v0.299c0 0.005-0.001 0.010-0.003 0.015s-0.005 0.009-0.008 0.013c-0.004 0.004-0.008 0.006-0.013 0.008s-0.010 0.003-0.015 0.003z"></path>
<path fill="#0f0f0f" style="fill: var(--color2, #0f0f0f)" d="M20.421 30.424h-0.299c-0.005 0-0.011-0-0.016-0.002s-0.010-0.005-0.013-0.008c-0.004-0.004-0.007-0.008-0.009-0.013s-0.003-0.010-0.003-0.015c0-0.005 0.001-0.011 0.003-0.015s0.005-0.009 0.009-0.013c0.004-0.004 0.008-0.006 0.013-0.008s0.010-0.003 0.016-0.002h0.299c0.010 0.001 0.019 0.005 0.026 0.012s0.010 0.017 0.010 0.026c0 0.010-0.004 0.019-0.010 0.026s-0.016 0.012-0.026 0.012z"></path>
<path fill="#0f0f0f" style="fill: var(--color2, #0f0f0f)" d="M21.117 30.424h-0.299c-0.005 0-0.011-0-0.016-0.002s-0.010-0.005-0.013-0.008c-0.004-0.004-0.007-0.008-0.009-0.013s-0.003-0.010-0.003-0.015c0-0.005 0.001-0.011 0.003-0.015s0.005-0.009 0.009-0.013c0.004-0.004 0.008-0.006 0.013-0.008s0.010-0.003 0.016-0.002h0.299c0.005-0 0.011 0 0.016 0.002s0.010 0.005 0.013 0.008c0.004 0.004 0.007 0.008 0.009 0.013s0.003 0.010 0.003 0.015c0 0.005-0.001 0.011-0.003 0.015s-0.005 0.009-0.009 0.013c-0.004 0.004-0.008 0.006-0.013 0.008s-0.010 0.003-0.016 0.002z"></path>
<path fill="#0f0f0f" style="fill: var(--color2, #0f0f0f)" d="M28.907 15.813c-0.010-0-0.020-0.004-0.027-0.011s-0.011-0.017-0.011-0.027v-0.299c-0-0.005 0-0.011 0.002-0.016s0.005-0.010 0.008-0.013c0.004-0.004 0.008-0.007 0.013-0.009s0.010-0.003 0.015-0.003c0.005 0 0.011 0.001 0.015 0.003s0.009 0.005 0.013 0.009c0.004 0.004 0.006 0.008 0.008 0.013s0.003 0.010 0.002 0.016v0.299c-0 0.010-0.004 0.020-0.012 0.027s-0.017 0.011-0.027 0.011z"></path>
<path fill="#0f0f0f" style="fill: var(--color2, #0f0f0f)" d="M28.907 16.51c-0.010 0-0.020-0.004-0.027-0.011s-0.011-0.017-0.011-0.027v-0.299c0.001-0.010 0.005-0.019 0.012-0.026s0.017-0.010 0.026-0.010c0.010 0 0.019 0.004 0.026 0.010s0.012 0.016 0.012 0.026v0.3c-0 0.010-0.004 0.020-0.012 0.027s-0.017 0.011-0.027 0.011z"></path>
<path fill="#0f0f0f" style="fill: var(--color2, #0f0f0f)" d="M28.709 16.012h-0.299c-0.005 0-0.011-0-0.016-0.002s-0.010-0.005-0.013-0.008c-0.004-0.004-0.007-0.008-0.009-0.013s-0.003-0.010-0.003-0.015c0-0.005 0.001-0.011 0.003-0.015s0.005-0.009 0.009-0.013c0.004-0.004 0.008-0.006 0.013-0.008s0.010-0.002 0.016-0.002h0.299c0.005-0 0.011 0 0.016 0.002s0.010 0.005 0.013 0.008c0.004 0.004 0.007 0.008 0.009 0.013s0.003 0.010 0.003 0.015c0 0.005-0.001 0.011-0.003 0.015s-0.005 0.009-0.009 0.013c-0.004 0.004-0.008 0.006-0.013 0.008s-0.010 0.003-0.016 0.002z"></path>
<path fill="#0f0f0f" style="fill: var(--color2, #0f0f0f)" d="M29.405 16.012h-0.299c-0.010-0.001-0.019-0.005-0.026-0.012s-0.010-0.017-0.010-0.026c0-0.010 0.004-0.019 0.010-0.026s0.016-0.011 0.026-0.012h0.299c0.005-0 0.011 0 0.016 0.002s0.010 0.005 0.013 0.008c0.004 0.004 0.007 0.008 0.009 0.013s0.003 0.010 0.003 0.015c0 0.005-0.001 0.011-0.003 0.015s-0.005 0.009-0.009 0.013c-0.004 0.004-0.008 0.006-0.013 0.008s-0.010 0.003-0.016 0.002z"></path>
<path fill="#fff" style="fill: var(--color1, #fff)" d="M25.555 10.998c-0.003 0-0.005 0-0.008 0-0.414-0.085-0.813-0.232-1.183-0.436h-1.597c-0.005 0-0.010-0.001-0.015-0.003s-0.009-0.005-0.012-0.008c-0.004-0.004-0.006-0.008-0.008-0.012s-0.003-0.010-0.003-0.015v-1.568c-0.367-0.642-0.561-1.368-0.56-2.108 0-0.186 0.012-0.372 0.036-0.557 0.001-0.010 0.007-0.019 0.015-0.026s0.018-0.009 0.028-0.008c0.010 0.001 0.019 0.007 0.026 0.015s0.009 0.018 0.008 0.029c-0.023 0.181-0.035 0.364-0.035 0.547-0 0.729 0.191 1.446 0.555 2.078 0.003 0.006 0.005 0.013 0.005 0.019v1.539h1.568c0.006 0 0.013 0.002 0.019 0.005 0.366 0.203 0.76 0.348 1.17 0.432 0.009 0.002 0.017 0.007 0.023 0.015s0.008 0.017 0.007 0.027c-0.001 0.009-0.005 0.018-0.012 0.025s-0.016 0.010-0.026 0.010l-0 0.001z"></path>
<path fill="#0f0f0f" style="fill: var(--color2, #0f0f0f)" d="M26.399 11.083c-0.286 0-0.571-0.029-0.851-0.086-0.010-0.002-0.019-0.008-0.024-0.016s-0.008-0.019-0.006-0.029c0.002-0.010 0.008-0.019 0.016-0.024s0.019-0.008 0.029-0.006c0.275 0.056 0.555 0.084 0.835 0.084 2.29 0 4.153-1.865 4.153-4.158s-1.863-4.158-4.153-4.158c-2.077 0-3.848 1.553-4.117 3.612-0.001 0.005-0.002 0.010-0.005 0.014s-0.006 0.008-0.010 0.011c-0.004 0.003-0.009 0.005-0.014 0.007s-0.010 0.002-0.015 0.001-0.010-0.002-0.014-0.005c-0.004-0.003-0.008-0.006-0.011-0.010s-0.005-0.009-0.007-0.013c-0.001-0.005-0.002-0.010-0.001-0.015 0.275-2.097 2.078-3.679 4.194-3.679 2.332 0 4.23 1.9 4.23 4.236s-1.897 4.235-4.23 4.235z"></path>
<path fill="#fff" style="fill: var(--color1, #fff)" d="M20.091 5.345c-0.010-0-0.019-0.004-0.026-0.011s-0.011-0.016-0.012-0.026c-0-0.010 0.003-0.019 0.009-0.027s0.015-0.012 0.025-0.014c0.174-0.019 0.346-0.057 0.513-0.112 0.005-0.002 0.010-0.003 0.015-0.003s0.010 0.001 0.015 0.003c0.005 0.002 0.009 0.005 0.013 0.009s0.006 0.008 0.008 0.013c0.002 0.005 0.002 0.010 0.002 0.016s-0.002 0.010-0.004 0.015c-0.002 0.005-0.006 0.009-0.010 0.012s-0.009 0.006-0.014 0.007c-0.172 0.057-0.349 0.096-0.529 0.116l-0.005 0.001z"></path>
<path fill="#0f0f0f" style="fill: var(--color2, #0f0f0f)" d="M18.809 5.777c-0.004 0-0.009-0.001-0.013-0.002s-0.009-0.004-0.013-0.008c-0.004-0.003-0.007-0.008-0.009-0.012l-0.408-0.846c-0.368-0.253-0.663-0.598-0.857-1-0.615-1.274-0.079-2.811 1.193-3.427s2.808-0.079 3.423 1.195c0.615 1.274 0.079 2.811-1.193 3.427-0.099 0.048-0.202 0.090-0.307 0.125-0.005 0.002-0.010 0.003-0.015 0.003s-0.010-0.001-0.015-0.004c-0.005-0.002-0.009-0.005-0.012-0.009s-0.006-0.008-0.008-0.013c-0.002-0.005-0.002-0.010-0.002-0.015s0.002-0.010 0.004-0.015c0.003-0.005 0.006-0.009 0.010-0.012s0.009-0.006 0.014-0.007c0.102-0.034 0.201-0.075 0.298-0.121 1.234-0.597 1.753-2.088 1.157-3.323s-2.085-1.756-3.319-1.159c-1.234 0.597-1.753 2.088-1.157 3.324 0.189 0.393 0.479 0.73 0.839 0.975 0.006 0.004 0.010 0.009 0.013 0.015l0.396 0.821 0.836-0.404c0.006-0.003 0.012-0.004 0.019-0.004 0.135 0.007 0.27 0.004 0.404-0.011 0.005-0.001 0.010-0 0.015 0.001s0.009 0.004 0.013 0.007c0.004 0.003 0.007 0.007 0.010 0.012s0.004 0.009 0.005 0.014c0 0.005 0 0.010-0.001 0.015s-0.004 0.009-0.007 0.013c-0.003 0.004-0.007 0.007-0.012 0.010s-0.009 0.004-0.014 0.005c-0.135 0.015-0.271 0.019-0.406 0.012l-0.863 0.417c-0.006 0.003-0.011 0.004-0.017 0.004z"></path>
<path fill="#fff" style="fill: var(--color1, #fff)" d="M21.508 1.214c0 0-0.973 0.144-0.556 0.979 0.217 0.435 0.985 0.473 1.467 0.065 0.522-0.442 0.338-0.978 0.105-1.204s-0.898-0.198-1.016 0.16z"></path>
<path fill="#0f0f0f" style="fill: var(--color2, #0f0f0f)" d="M21.636 2.582c-0.073 0-0.146-0.007-0.217-0.022-0.235-0.048-0.413-0.173-0.501-0.35-0.125-0.25-0.141-0.467-0.049-0.645 0.146-0.28 0.514-0.367 0.611-0.386 0.054-0.136 0.186-0.237 0.373-0.283 0.26-0.064 0.553-0.010 0.697 0.13 0.080 0.080 0.142 0.175 0.184 0.279s0.062 0.217 0.059 0.329c-0.008 0.24-0.129 0.466-0.349 0.653-0.227 0.189-0.513 0.293-0.808 0.294zM22.075 0.947c-0.069-0-0.137 0.008-0.204 0.024-0.099 0.024-0.273 0.090-0.327 0.254-0.002 0.007-0.006 0.013-0.012 0.018s-0.012 0.008-0.019 0.009c-0.004 0-0.43 0.068-0.576 0.35-0.080 0.154-0.063 0.348 0.050 0.575 0.078 0.156 0.237 0.265 0.448 0.309 0.322 0.066 0.699-0.035 0.96-0.256 0.203-0.173 0.314-0.379 0.322-0.597 0.002-0.102-0.016-0.203-0.054-0.298s-0.094-0.181-0.166-0.253c-0.090-0.085-0.252-0.134-0.422-0.134z"></path>
<path fill="#0f0f0f" style="fill: var(--color2, #0f0f0f)" d="M21.442 1.156c0 0-0.26-0.101-0.377-0.005l0.272 0.149c0 0-0.302 0.127-0.157 0.322 0 0 0.262 0.005 0.346-0.279 0 0 0.159 0.289 0.352 0.224 0 0 0.092-0.283-0.229-0.317l0.276-0.135c0 0-0.366-0.239-0.483 0.039z"></path>
<path fill="#0f0f0f" style="fill: var(--color2, #0f0f0f)" d="M22.497 1.315c0.033 0.091 0.002 0.186-0.068 0.211s-0.154-0.028-0.187-0.12c-0.033-0.091-0.002-0.186 0.068-0.211s0.154 0.029 0.187 0.12z"></path>
<path fill="#fff" style="fill: var(--color1, #fff)" d="M20.37 1.973c0 0-1.219-0.081-0.933 1.043 0.149 0.586 1.071 0.835 1.764 0.466 0.75-0.4 0.668-1.099 0.443-1.435s-1.036-0.478-1.274-0.073z"></path>
<path fill="#0f0f0f" style="fill: var(--color2, #0f0f0f)" d="M20.49 3.694c-0.199 0.002-0.396-0.038-0.579-0.117-0.27-0.119-0.451-0.315-0.512-0.551-0.085-0.333-0.049-0.599 0.107-0.788 0.252-0.304 0.729-0.308 0.841-0.305 0.099-0.152 0.284-0.238 0.524-0.245 0.33-0.009 0.668 0.132 0.803 0.337 0.075 0.117 0.126 0.247 0.149 0.384s0.018 0.277-0.014 0.412c-0.072 0.287-0.277 0.528-0.591 0.695-0.225 0.117-0.475 0.178-0.728 0.177zM20.32 2.011c-0.137 0-0.542 0.023-0.754 0.277-0.14 0.169-0.171 0.411-0.092 0.719 0.054 0.212 0.22 0.39 0.468 0.499 0.375 0.166 0.863 0.143 1.241-0.058 0.295-0.157 0.486-0.381 0.553-0.646 0.030-0.124 0.035-0.254 0.013-0.38s-0.068-0.247-0.137-0.354c-0.121-0.181-0.438-0.311-0.738-0.303-0.128 0.004-0.361 0.038-0.472 0.227-0.003 0.006-0.009 0.011-0.015 0.014s-0.013 0.005-0.020 0.005c-0.002-0.001-0.019-0.001-0.048-0.001z"></path>
<path fill="#0f0f0f" style="fill: var(--color2, #0f0f0f)" d="M20.305 1.886c0 0-0.289-0.191-0.457-0.105l0.291 0.253c0 0-0.4 0.074-0.275 0.35 0 0 0.316 0.076 0.493-0.247 0 0 0.117 0.392 0.369 0.365 0 0 0.186-0.319-0.195-0.445l0.371-0.091c0 0-0.382-0.387-0.598-0.080z"></path>
<path fill="#0f0f0f" style="fill: var(--color2, #0f0f0f)" d="M21.662 2.501c0.016 0.12-0.046 0.227-0.14 0.239s-0.18-0.075-0.196-0.195c-0.016-0.12 0.046-0.227 0.139-0.239s0.181 0.075 0.197 0.195z"></path>
<path fill="#fff" style="fill: var(--color1, #fff)" d="M19.409 2.522c0 0-0.856-0.873-1.39 0.156-0.279 0.537 0.244 1.337 1.006 1.524 0.825 0.202 1.229-0.374 1.285-0.775s-0.457-1.049-0.902-0.905z"></path>
<path fill="#0f0f0f" style="fill: var(--color2, #0f0f0f)" d="M19.35 4.282c-0.113-0.001-0.225-0.015-0.334-0.042-0.438-0.107-0.837-0.432-1.016-0.827-0.122-0.269-0.127-0.536-0.015-0.752 0.159-0.306 0.362-0.479 0.605-0.516 0.39-0.058 0.749 0.257 0.83 0.334 0.175-0.047 0.371 0.012 0.554 0.166 0.252 0.213 0.41 0.544 0.376 0.787-0.022 0.137-0.071 0.268-0.145 0.386s-0.171 0.219-0.285 0.298c-0.163 0.111-0.356 0.167-0.569 0.167zM18.685 2.215c-0.028-0-0.057 0.002-0.085 0.006-0.217 0.033-0.401 0.192-0.547 0.475-0.101 0.194-0.095 0.437 0.017 0.684 0.17 0.374 0.548 0.682 0.964 0.784 0.325 0.080 0.616 0.040 0.842-0.113 0.105-0.073 0.194-0.166 0.262-0.274s0.114-0.229 0.134-0.355c0.030-0.216-0.12-0.525-0.349-0.717-0.098-0.083-0.294-0.212-0.503-0.145-0.007 0.002-0.014 0.002-0.021 0.001s-0.013-0.005-0.018-0.010c-0.003-0.005-0.332-0.336-0.696-0.336h-0z"></path>
<path fill="#0f0f0f" style="fill: var(--color2, #0f0f0f)" d="M19.418 2.413c0 0-0.088-0.335-0.27-0.383l0.049 0.383c0 0-0.348-0.212-0.438 0.078 0 0 0.186 0.267 0.532 0.144 0 0-0.175 0.37 0.032 0.518 0 0 0.352-0.114 0.151-0.461l0.337 0.179c0 0-0.028-0.543-0.393-0.458z"></path>
<path fill="#0f0f0f" style="fill: var(--color2, #0f0f0f)" d="M18.555 2.786c-0.068 0.1-0.185 0.138-0.262 0.086s-0.084-0.176-0.017-0.276c0.067-0.1 0.185-0.138 0.262-0.086s0.085 0.176 0.017 0.276z"></path>
<path fill="#0f0f0f" style="fill: var(--color2, #0f0f0f)" d="M19.409 2.561c-0.010-0-0.019-0.004-0.026-0.010s-0.012-0.015-0.012-0.025c-0.003-0.029-0.067-0.715 0.343-1.131 0.134-0.136 0.338-0.275 0.554-0.422 0.417-0.285 0.891-0.608 0.842-0.928-0.001-0.005-0.001-0.010 0.001-0.015s0.003-0.010 0.006-0.014c0.003-0.004 0.007-0.008 0.011-0.010s0.009-0.004 0.014-0.005c0.005-0.001 0.010-0.001 0.015 0.001s0.009 0.003 0.014 0.006c0.004 0.003 0.008 0.007 0.010 0.011s0.004 0.009 0.005 0.014c0.056 0.368-0.417 0.691-0.875 1.004-0.213 0.145-0.414 0.282-0.543 0.413-0.384 0.39-0.322 1.062-0.322 1.069 0.001 0.010-0.002 0.020-0.009 0.028s-0.016 0.013-0.026 0.014l-0.003 0z"></path>
<path fill="#0f0f0f" style="fill: var(--color2, #0f0f0f)" d="M20.328 2.023c-0.006-0-0.013-0.002-0.018-0.005s-0.010-0.007-0.014-0.013c-0.014-0.021-0.346-0.525-0.094-0.983 0.002-0.005 0.006-0.009 0.010-0.012s0.009-0.006 0.014-0.007c0.005-0.002 0.010-0.002 0.015-0.002s0.010 0.002 0.015 0.005c0.005 0.002 0.009 0.006 0.012 0.010s0.006 0.009 0.007 0.014c0.001 0.005 0.002 0.010 0.001 0.015s-0.002 0.010-0.005 0.015c-0.23 0.418 0.087 0.898 0.090 0.903 0.006 0.008 0.008 0.019 0.006 0.029s-0.008 0.019-0.016 0.025c-0.006 0.004-0.014 0.007-0.021 0.007z"></path>
<path fill="#0f0f0f" style="fill: var(--color2, #0f0f0f)" d="M21.495 1.306c-0.007-0-0.015-0.002-0.021-0.006s-0.011-0.010-0.014-0.017c-0.003-0.008-0.005-0.017-0.006-0.026-0.068-0.381-0.313-0.577-0.689-0.556-0.010 0-0.020-0.003-0.027-0.010s-0.012-0.016-0.012-0.026c-0.001-0.010 0.003-0.020 0.009-0.027s0.016-0.012 0.026-0.013c0.42-0.025 0.694 0.195 0.77 0.619 0.001 0.005 0.002 0.009 0.002 0.012 0.003 0.009 0.003 0.019-0.001 0.028s-0.011 0.016-0.019 0.020c-0.005 0.002-0.011 0.004-0.016 0.004z"></path>
</symbol>
</defs>
</svg>
